<?xml version="1.0" encoding="UTF-8"?>
<svg width="24px" height="25px" viewBox="0 0 24 25" version="1.1" xmlns="http://www.w3.org/2000/svg" xmlns:xlink="http://www.w3.org/1999/xlink">
    <title>CA93DD3F-77AA-496B-A174-1282307E8EE6</title>
    <defs>
        <path d="M11,0 C11.8284271,-1.52179594e-16 12.5,0.671572875 12.5,1.5 L12.4996118,14.874 L19.131728,8.24304833 C19.6809028,7.69387354 20.5499652,7.65955012 21.1391259,8.14007805 L21.2530483,8.24304833 C21.8388348,8.82883476 21.8388348,9.77858223 21.2530483,10.3643687 L21.2530483,10.3643687 L12.0606602,19.5567568 C11.4748737,20.1425433 10.5251263,20.1425433 9.93933983,19.5567568 L9.93933983,19.5567568 L0.746951673,10.3643687 C0.161165235,9.77858223 0.161165235,8.82883476 0.746951673,8.24304833 C1.33273811,7.65726189 2.28248558,7.65726189 2.86827202,8.24304833 L2.86827202,8.24304833 L9.49961184,14.874 L9.5,1.5 C9.5,0.671572875 10.1715729,1.52179594e-16 11,0 Z" id="path-1"></path>
    </defs>
    <g id="Guida-desktop" stroke="none" stroke-width="1" fill="none" fill-rule="evenodd">
        <g id="Download" transform="translate(-444.000000, -288.000000)">
            <g id="Desktop/Download_File/white" transform="translate(428.000000, 272.000000)">
                <g id="icon_download-copy-2" transform="translate(0.000000, 0.000000)">
                    <rect id="bg_download" fill="#003478" x="0" y="0" width="56" height="56" rx="4"></rect>
                    <g id="Icon/download" transform="translate(17.000000, 18.000000)">
                        <mask id="mask-2" fill="white">
                            <use xlink:href="#path-1"></use>
                        </mask>
                        <use id="Combined-Shape" fill="#003478" xlink:href="#path-1"></use>
                        <rect id="Rectangle" fill="#FFFFFF" mask="url(#mask-2)" x="-1" y="-2" width="24" height="24"></rect>
                    </g>
                </g>
            </g>
        </g>
    </g>
</svg>