<?xml version="1.0" encoding="UTF-8"?>
<svg width="40px" height="40px" viewBox="0 0 40 40" version="1.1" xmlns="http://www.w3.org/2000/svg" xmlns:xlink="http://www.w3.org/1999/xlink">
    <title>E8E83D4E-463B-404A-92CC-A9C4067BE472</title>
    <defs>
        <path d="M19.2287662,36 L1.986924,36 C0.88925475,36 0,35.110194 0,34.0129523 L0,1.98690825 C0,0.8893875 0.88939425,0 1.986924,0 L34.0132162,0 C35.1104662,0 36,0.8893875 36,1.98690825 L36,34.0129523 C36,35.1103335 35.1103268,36 34.0132162,36 L24.8394787,36 L24.8394787,22.0588162 L29.5188907,22.0588162 L30.2195662,16.6256895 L24.8394787,16.6256895 L24.8394787,13.1569808 C24.8394787,11.5839653 25.276284,10.5120075 27.5319675,10.5120075 L30.4089832,10.5107497 L30.4089832,5.65131825 C29.9114145,5.585106 28.203588,5.4371775 26.216664,5.4371775 C22.0686255,5.4371775 19.2287662,7.9691445 19.2287662,12.6189068 L19.2287662,16.6256895 L14.5373415,16.6256895 L14.5373415,22.0588162 L19.2287662,22.0588162 L19.2287662,36 L19.2287662,36 Z" id="path-1"></path>
    </defs>
    <g id="Design2" stroke="none" stroke-width="1" fill="none" fill-rule="evenodd">
        <g id="Homepage_sostenibilità" transform="translate(-116.000000, -9984.000000)">
            <rect fill="#003478" x="0" y="0" width="1440" height="10568"></rect>
            <path d="M0,9256 C239.666667,9277.33333 479.5,9288 719.5,9288 C959.5,9288 1199.66667,9277.33333 1440,9256 L1440,10196 L0,10196 L0,9256 Z" id="Rectangle" fill="#C5F4FF"></path>
            <g id="Social/Follow_on" transform="translate(116.000000, 9984.000000)">
                <g id="Icon/Social" transform="translate(2.000000, 2.000000)">
                    <mask id="mask-2" fill="white">
                        <use xlink:href="#path-1"></use>
                    </mask>
                    <use id="Path" fill="#FFFFFF" fill-rule="nonzero" xlink:href="#path-1"></use>
                    <rect id="Rectangle" fill="#003478" mask="url(#mask-2)" x="-2" y="-2" width="40" height="40"></rect>
                </g>
            </g>
        </g>
    </g>
</svg>