<?xml version="1.0" encoding="UTF-8"?>
<svg width="32px" height="24px" viewBox="0 0 32 24" version="1.1" xmlns="http://www.w3.org/2000/svg" xmlns:xlink="http://www.w3.org/1999/xlink">
    <title>Arrow/Button/external_page</title>
    <defs>
        <path d="M31.3618687,8.63015344 C31.3618687,8.83043005 31.4623875,8.73029174 31.5629063,8.93056835 C31.3618687,8.83043005 31.1608311,8.73029174 30.9597934,8.53001514 C31.4623875,8.73029174 31.0603122,8.42987683 30.9597934,8.22960023 C30.9597934,8.32973853 30.8592746,8.22960023 30.8592746,8.32973853 C30.4571994,7.82904701 30.658237,8.42987683 30.155643,7.82904701 L30.155643,7.82904701 C29.3514925,7.22821719 29.6530489,7.4284938 28.6478608,6.72752567 C28.9494172,6.82766398 29.049936,7.02794058 29.2509737,7.02794058 C29.049936,6.82766398 28.8488984,6.62738737 28.6478608,6.42711076 L28.2457856,6.12669585 C27.6426727,6.02655755 27.2405975,5.52586603 26.5369658,5.22545112 C27.5421539,5.52586603 26.3359282,4.92503621 26.5369658,4.82489791 C26.3359282,4.6246213 25.4312589,4.22406808 25.3307401,4.02379148 C25.1297025,4.42434469 24.1245144,3.32282335 22.9182886,2.92227014 C22.4156946,2.62185523 20.606356,2.32144032 21.3099877,2.32144032 C21.0084313,2.12116371 20.606356,1.9208871 20.2042808,1.7206105 C20.2042808,1.42019559 19.9027244,1.52033389 19.6011679,1.42019559 C19.7016867,1.42019559 19.8022055,1.42019559 19.9027244,1.52033389 C19.8022055,1.42019559 19.7016867,1.42019559 19.6011679,1.32005728 L19.8022055,1.32005728 C19.5006491,1.11978067 18.495461,1.01964237 18.3949422,1.01964237 C18.3949422,1.01964237 18.2944234,1.01964237 18.2944234,1.01964237 C18.0933858,0.919504067 17.5907917,1.21991898 17.4902729,1.52033389 C16.8871601,1.9208871 16.7866412,2.72199353 17.6913105,3.32282335 L17.7918293,3.32282335 C17.5907917,3.52309996 17.3897541,3.32282335 17.1887165,3.42296166 L17.5907917,3.62323826 C17.4902729,4.02379148 18.5959798,4.22406808 18.8975363,4.42434469 L18.3949422,4.22406808 C18.9980551,4.7247596 19.8022055,4.82489791 20.0032432,5.22545112 C20.3047996,5.32558942 19.8022055,5.02517451 20.3047996,5.12531282 C20.4053184,5.32558942 20.8073936,5.52586603 20.7068748,5.52586603 C21.0084313,5.62600433 21.4105065,5.82628094 21.5110253,5.82628094 C21.5110253,5.92641924 22.0136194,6.02655755 21.6115441,6.02655755 C21.8125817,6.02655755 21.9131005,6.12669585 22.1141382,6.22683416 C21.8125817,6.12669585 21.6115441,6.22683416 21.4105065,6.02655755 C21.9131005,6.22683416 20.4053184,6.22683416 19.7016867,6.42711076 C19.7016867,6.42711076 19.8022055,6.32697246 19.9027244,6.32697246 C19.0985739,6.02655755 17.5907917,7.02794058 17.8923482,6.42711076 C17.6913105,6.52724907 16.9876789,6.62738737 17.1887165,6.62738737 C16.6861224,6.52724907 16.7866412,6.62738737 16.6861224,6.52724907 C16.6861224,6.62738737 16.4850848,6.72752567 16.2840472,6.72752567 L16.1835284,6.72752567 C15.3793779,6.92780228 14.6757462,7.02794058 13.9721146,7.02794058 L14.1731522,6.92780228 C13.4695205,7.02794058 13.4695205,7.22821719 12.66537,7.22821719 L12.7658889,7.22821719 C9.44876813,7.62877041 6.53372264,8.02932362 3.71919596,8.22960023 C3.41763953,8.53001514 2.81452668,8.32973853 2.51297025,8.42987683 C3.51815834,8.63015344 1.30674453,8.53001514 1.0051881,8.73029174 C0.502594049,8.83043005 0.20103762,10.5327812 0.10051881,10.132228 C0.10051881,10.2323663 0,10.3325046 0.10051881,10.5327812 C0.30155643,10.7330578 0,11.6343025 0.10051881,12.1349941 L0,12.0348558 L0,15.0390049 C0.10051881,14.438175 0.502594049,15.0390049 0.10051881,15.2392815 C0.20103762,15.4395581 0.20103762,14.9388666 0.30155643,15.3394198 C0.30155643,15.6398347 0.20103762,15.6398347 0.10051881,15.5396964 L0.20103762,15.8401113 L0.10051881,15.739973 C0.20103762,15.9402496 -0.10051881,16.5410794 0.10051881,16.8414943 C0,18.5438455 0.603112859,19.7455051 0.10051881,21.347718 C0.10051881,21.7482712 0.20103762,22.5493776 0.703631669,22.349101 C0.502594049,22.4492393 1.70881977,22.9499308 1.10570691,22.8497925 C1.60830096,23.0500692 2.31193263,23.0500692 2.81452668,22.8497925 C3.31712073,22.5493776 3.71919596,22.1488244 3.71919596,21.6481329 C3.31712073,22.2489627 3.51815834,21.5479946 3.71919596,21.347718 C3.51815834,20.04592 4.1212712,18.3435689 3.81971477,17.4423242 L3.81971477,17.5424625 C3.71919596,15.8401113 3.92023358,14.0376218 4.02075239,11.8345792 C4.1212712,11.6343025 4.72438406,11.8345792 4.92542168,11.7344409 L4.82490287,11.6343025 C7.1368355,11.0334727 11.4591443,11.0334727 14.5752274,10.3325046 L14.273671,10.5327812 C15.0778215,10.3325046 15.9824908,10.2323663 16.7866412,10.132228 L16.9876789,10.132228 C17.5907917,10.0320897 18.1939046,9.93195139 18.7970174,9.83181308 C18.8975363,9.73167478 19.7016867,9.53139817 19.7016867,9.53139817 C19.2996115,9.73167478 20.8073936,9.43125987 20.2042808,9.83181308 C20.4053184,9.83181308 20.8073936,9.53139817 20.606356,9.73167478 C21.4105065,9.53139817 21.1089501,9.53139817 21.8125817,9.43125987 C21.8125817,9.43125987 21.6115441,9.53139817 21.6115441,9.63153648 C21.7120629,9.53139817 23.2198451,9.23098326 22.717251,9.43125987 C23.7224391,9.23098326 24.6271084,9.03070665 25.6322965,8.93056835 C25.3307401,9.13084496 26.2354094,8.93056835 26.3359282,9.13084496 L26.2354094,8.93056835 C26.5369658,9.13084496 26.8385222,9.33112157 27.1400787,9.53139817 C27.1400787,9.53139817 27.0395598,9.43125987 27.0395598,9.53139817 L27.5421539,9.83181308 L27.3411163,9.63153648 C27.7431915,9.83181308 27.5421539,9.53139817 27.9442291,9.83181308 C27.9442291,9.93195139 27.4416351,10.0320897 27.4416351,10.132228 C26.939041,10.7330578 26.1348906,10.7330578 25.4312589,11.3338876 C25.4312589,11.3338876 25.4312589,11.3338876 25.4312589,11.2337493 C25.4312589,11.133611 25.4312589,11.133611 25.4312589,11.133611 C25.4312589,11.3338876 24.9286648,11.4340259 25.0291837,11.3338876 C24.4260708,11.6343025 25.1297025,11.4340259 24.6271084,11.6343025 C24.6271084,11.6343025 24.6271084,11.6343025 24.7276272,11.6343025 C21.3099877,12.2351324 21.3099877,16.0403879 25.4312589,14.438175 C25.3307401,14.438175 25.3307401,14.5383134 25.3307401,14.6384517 C26.1348906,14.3380367 26.939041,13.8373452 27.7431915,13.3366537 L27.6426727,13.436792 C28.0447479,13.2365154 29.4520113,12.6356856 29.2509737,12.435409 C30.5577182,11.8345792 32.266538,10.9333344 31.9649815,9.53139817 C31.8644627,9.13084496 31.4623875,8.53001514 31.3618687,8.63015344 Z" id="path-1"></path>
    </defs>
    <g id="Arrow/Button/external_page" stroke="none" stroke-width="1" fill="none" fill-rule="evenodd">
        <mask id="mask-2" fill="white">
            <use xlink:href="#path-1"></use>
        </mask>
        <use id="Mask" fill="#66C3D2" fill-rule="nonzero" xlink:href="#path-1"></use>
        <rect id="Rectangle" fill="#BED600" mask="url(#mask-2)" x="0" y="0" width="32" height="24"></rect>
    </g>
</svg>