<?xml version="1.0" encoding="UTF-8"?>
<svg width="80px" height="80px" viewBox="0 0 80 80" version="1.1" xmlns="http://www.w3.org/2000/svg" xmlns:xlink="http://www.w3.org/1999/xlink">
    <title>102C963D-3B64-48AD-83AC-348BEC7B480D</title>
    <defs>
        <rect id="path-1" x="0" y="0" width="54" height="74"></rect>
    </defs>
    <g id="Nuovi-moduli" stroke="none" stroke-width="1" fill="none" fill-rule="evenodd">
        <g id="Desktop---Header-pagine-di-dettaglio" transform="translate(-54.000000, -3553.000000)">
            <g id="icon/Comunicato" transform="translate(54.000000, 3553.000000)">
                <g id="Clipped" transform="translate(13.000000, 3.000000)">
                    <mask id="mask-2" fill="white">
                        <use xlink:href="#path-1"></use>
                    </mask>
                    <g id="Rectangle"></g>
                    <g id="Group" mask="url(#mask-2)" fill="#003478" fill-rule="nonzero">
                        <g transform="translate(0.000000, -0.000225)" id="Shape">
                            <path d="M12.3687943,65.1209212 C13.0496454,65.7944036 13.5035461,65.9066506 14.2411348,66.6362566 C14.5248227,66.8607507 13.9574468,66.5240095 13.9574468,66.5240095 C14.7510275,66.9660303 15.493074,67.4930159 16.1702128,68.0954684 C16.964539,68.7128273 18.212766,69.4985567 18.7801418,69.8914214 C18.6909423,69.8268957 18.5959876,69.7705394 18.4964539,69.7230508 C19.0638298,70.1720391 18.6666667,69.947545 18.3262411,69.7230508 C18.9050987,70.0934117 19.4551005,70.5061387 19.9716312,70.9577686 C19.9716312,71.1261392 19.0070922,70.1720391 19.4609929,70.7332744 L18.8368794,70.1720391 C19.3475177,70.901645 21.9574468,73.2588334 23.7730496,73.8761922 C23.0921986,74.269057 24.5106383,73.6516981 25.0780142,73.0904628 C23.9432624,74.1006864 27.5744681,71.3506333 28.3120567,70.6210274 C29.1631206,70.2281626 31.7163121,67.8709743 32.5106383,67.0291213 C32.9078014,66.5240095 32.8510638,66.5240095 32.9078014,66.6362566 C33.5886525,65.7944036 34.9503546,64.4474388 35.6879433,63.7178329 L35.5744681,63.8862035 C36.1985816,63.3249681 36.0851064,63.0443505 36.6524823,62.5392387 L36.5390071,62.6514858 C39.1918532,59.6643771 41.6012826,56.4740624 43.7446809,53.1104852 C43.3475177,53.50335 45.106383,51.0339145 45.2765957,50.4726792 C45.2736535,50.5505967 45.2543303,50.627053 45.2198582,50.6971733 C45.3900709,50.3604321 45.2765957,50.7532969 45.5602837,50.0798145 C45.5602837,49.7991968 46.2978723,48.8450968 46.5248227,48.1716144 L46.5248227,48.339985 C47.1489362,47.2175143 47.6028369,45.9266731 48.2269504,44.6358318 C47.8865248,45.3093142 47.9432624,44.5797083 48.2836879,44.4674612 C48.3404255,44.1868436 48.0567376,44.860326 48.2269504,44.2990906 C48.4539007,43.8501024 48.4539007,44.018473 48.3971631,44.2990906 C48.3971631,44.2990906 48.7375887,43.2888671 48.6241135,43.8501024 C49.7588652,41.2122964 50.8368794,37.171402 51.4609929,34.9264607 C51.6879433,33.6356195 51.9716312,33.2988783 52.0851064,31.89579 C51.8014184,32.6815194 52.1985816,31.2223076 52.141844,31.6151723 C52.3687943,30.0437134 53.0496454,27.8548956 53.0496454,26.3395603 L53.0496454,26.3956838 C53.2198582,24.6558543 53.3900709,23.252766 53.4468085,21.2323188 C54.1276596,20.5588364 54.2978723,19.5486128 53.2765957,18.9873775 L53.3333333,19.043501 C53.2281203,18.9828829 53.1325277,18.9072365 53.0496454,18.8190069 L53.106383,18.8751304 C52.5090442,18.4644984 51.9403783,18.0144893 51.4042553,17.5281657 L51.4609929,17.6404127 C49.1347518,16.0128303 45.2765957,13.0382831 41.929078,11.24233 L42.3262411,11.3545771 C40.3971631,10.3443535 38.4113475,9.05351227 36.4822695,8.15553575 C36.5957447,8.21165928 36.5957447,8.15553575 36.822695,8.26778281 C35.9716312,7.70654749 33.7021277,6.80857097 34.0425532,6.75244744 C33.7588652,6.64020037 32.7943262,6.13508858 33.0212766,6.30345918 C31.9206683,5.72641868 30.7835524,5.22025458 29.6170213,4.7881238 C29.7304965,4.67587673 28.3687943,4.11464141 27.858156,4.00239435 C28.0283688,4.05851788 27.4609929,3.77790022 27.6879433,3.83402375 C27.1205674,3.60952962 26.6666667,3.44115902 26.7234043,3.55340609 C20.9929078,1.19621772 20.1985816,1.25234126 17.8156028,0.354364737 C16,-0.599735315 14.6950355,0.466611801 15.2056738,2.43093544 C15.1749363,2.34012075 15.155874,2.24584089 15.1489362,2.15031777 C15.2624113,2.93604723 15.2624113,2.15031777 15.4893617,3.55340609 C15.3191489,3.10441783 15.4893617,4.84424733 15.2624113,4.17076494 C15.3191489,4.45138261 15.4326241,5.01261793 15.3191489,4.56362967 C15.3807193,5.02914932 15.4185922,5.49743642 15.4326241,5.96671798 C15.4018866,5.87590329 15.3828243,5.78162343 15.3758865,5.68610032 C15.4550091,6.20619932 15.4929495,6.73161629 15.4893617,7.25755923 C15.4893617,7.20143569 15.4326241,7.31368276 15.4326241,7.08918863 C15.5177438,8.21008031 15.5177438,9.3357089 15.4326241,10.4566006 C15.3191489,10.1198594 15.2624113,11.5229477 15.2624113,11.6913183 L15.3191489,11.4107006 C15.3191489,12.0280595 15.3191489,12.5892948 15.2624113,13.1505301 L15.2624113,12.7015419 L15.2056738,13.8801361 L15.3191489,13.2066537 C15.3191489,13.8240125 15.4326241,13.1505301 15.3758865,13.9923831 C15.3191489,15.0587302 14.9787234,16.5179421 14.9787234,17.8087833 C14.8652482,17.9771539 14.9219858,18.3138951 14.8652482,19.043501 L14.8652482,18.8190069 C14.4113475,21.7935541 14.2411348,22.0180483 13.6737589,25.3293367 L13.7304965,25.1048425 C13.8439716,25.3293367 13.5035461,26.0589426 13.3900709,26.732425 C13.2765957,26.6201779 12.9929078,28.6406251 12.7092199,29.7069722 L12.7092199,29.5386016 C12.5957447,30.0437134 11.9716312,31.4468017 12.0851064,31.7835429 C11.4042553,33.2988783 11.1205674,35.0387078 10.4397163,36.5540432 C10.7234043,35.487696 10.0425532,37.5081432 10.0425532,37.5081432 C10.1560284,37.4520197 10.1560284,37.3397726 10.2695035,37.1152785 C10.2366905,37.4126916 10.1399655,37.6997262 9.9858156,37.9571315 C10.1560284,37.3958962 9.87234043,37.9010079 9.75886525,38.1816256 C9.70212766,38.7428609 9.75886525,38.4061197 9.4751773,39.2479727 L9.4751773,39.1918492 C9.07801418,40.3143198 9.19148936,39.9214551 8.62411348,41.2684199 C8.69371338,41.0164265 8.78875414,40.7719949 8.90780142,40.538814 C8.72275004,40.8202492 8.57048148,41.1214904 8.45390071,41.4367905 C8.56737589,41.2122964 7.60283688,42.1102729 7.60283688,42.0541493 L7.71631206,41.8296552 C7.60283688,42.5592611 7.20567376,43.1204965 6.92198582,44.018473 C7.31914894,42.8960023 6.63829787,44.2990906 6.58156028,44.13072 C6.39703604,44.6731892 6.12911762,45.1842969 5.78723404,45.6460554 C6.0141844,45.4776848 3.29078014,50.7532969 3.46099291,50.3043086 C3.16096315,50.7020224 2.91312384,51.1357617 2.72340426,51.5951499 C2.43971631,51.5951499 2.4964539,52.0441381 2.15602837,52.4370028 C2.17461731,52.3013439 2.21283358,52.1690345 2.26950355,52.0441381 C2.09929078,52.3808793 1.24822695,54.0084618 1.75886525,52.8859911 C1.44254533,53.3431667 1.17627268,53.8323212 0.964539007,54.3452029 L1.19148936,54.0645853 C0.85106383,54.2329559 2.04255319,52.7176205 1.41843972,53.7839676 C1.75886525,53.5594735 2.21276596,52.5492499 2.55319149,51.9318911 C2.32624113,53.615597 -0.85106383,55.4115501 0.567375887,56.983009 C0.340425532,57.095256 0.226950355,56.8146384 0,56.7585148 C0.283687943,57.3197502 1.30496454,57.7687384 1.92907801,58.2177267 L1.36170213,57.8809855 C2.26950355,58.4983444 4.08510638,59.4524444 3.80141844,59.5085679 C5.16312057,60.1259268 5.73049645,60.9116562 6.92198582,61.4728916 C6.29787234,61.1922739 8.05673759,62.258621 7.82978723,62.3147446 C8.6292921,62.7323435 9.38889896,63.2207443 10.0992908,63.7739564 C10.0425532,63.7739564 9.9858156,63.7178329 9.92907801,63.6617093 C10.6735928,64.2525677 11.4939705,64.7432415 12.3687943,65.1209212 Z M15.2624113,25.4977073 C15.2624113,25.6099543 15.035461,26.3956838 15.1489362,25.890572 C15.0921986,26.0028191 15.2056738,25.7222014 15.2624113,25.4977073 L15.2624113,25.4977073 Z M14.9787234,26.8446721 C14.9365399,26.9518485 14.9172227,27.0664971 14.9219858,27.1814132 C14.9209857,27.0667587 14.9401852,26.9528082 14.9787234,26.8446721 L14.9787234,26.8446721 Z M2.21276596,55.8044148 C2.21276596,55.8605383 2.21276596,55.8605383 2.26950355,55.9166619 C2.21276596,55.8605383 2.21276596,55.9166619 2.21276596,55.8044148 Z M2.43971631,55.9166619 L2.60992908,55.9166619 C2.43971631,55.8044148 3.17730496,54.9064383 3.34751773,54.6258206 L3.0070922,55.1870559 C3.63120567,54.3452029 4.53900709,52.6053734 4.53900709,52.8859911 C5.10638298,51.5390263 5.73049645,51.0339145 6.18439716,49.8553204 C6.0141844,50.4726792 6.80851064,48.7328497 6.86524823,48.9573438 C7.18462563,48.1726156 7.54443525,47.4045875 7.94326241,46.656279 C7.94326241,46.7124025 7.88652482,46.7685261 7.88652482,46.8807731 C8.30153331,46.0825161 8.66168731,45.2575019 8.96453901,44.4113377 C9.24822695,44.0745965 10.212766,41.9419023 9.92907801,42.7276317 C10.174162,41.9213918 10.477545,41.1336304 10.8368794,40.3704434 C11.0508068,39.6054631 11.3161734,38.8554786 11.6312057,38.1255021 C11.2340426,38.3499962 11.7446809,37.5081432 11.7446809,37.5081432 C11.707758,37.5972199 11.6884958,37.6924888 11.6879433,37.7887609 C11.9148936,37.171402 11.858156,37.5642667 11.7446809,37.9010079 C11.9716312,37.2836491 12.141844,36.5540432 12.3120567,36.1050549 C12.4255319,36.0489314 11.9716312,37.2275256 12.2553191,36.6101667 C12.1852094,36.8439913 12.0901099,37.0697601 11.9716312,37.2836491 C12.6524823,36.6101667 13.2198582,33.7478665 13.787234,31.9519135 L13.8439716,32.2325312 C14.1276596,31.2784311 13.8439716,31.6712958 14.2411348,30.7171958 C14.0141844,32.1202841 14.9787234,28.0793898 15.2056738,27.0691662 C15.6595745,26.2834367 16.1134752,23.1405189 16.3404255,21.9619247 C16.4539007,21.4006894 16.2836879,21.9058012 16.2836879,21.6813071 C16.3404255,21.4006894 16.3971631,21.2884423 16.3971631,21.4568129 C16.5106383,20.4465894 16.6808511,18.7067598 16.9078014,17.6965363 L16.9078014,17.9210304 C16.9153989,17.376854 16.9532813,16.8335041 17.0212766,16.293448 L17.0212766,16.4618185 C17.410275,12.7519011 17.5807757,9.02274141 17.5319149,5.29323559 C17.4184397,5.96671798 17.4184397,2.65542957 17.5319149,2.93604723 C17.4751773,2.82380016 17.5886525,2.76767663 17.6453901,2.8799237 C18.1621926,3.10059123 18.6928448,3.28805876 19.2340426,3.44115902 L19.1205674,3.44115902 C20.2553191,3.83402375 21.5035461,4.22688848 22.6950355,4.67587673 C21.6737589,4.22688848 24,4.90037086 22.9787234,4.7881238 C23.035461,4.7881238 23.8865248,5.06874146 23.3758865,4.9564944 C25.929078,6.07896505 29.6170213,7.25755923 31.4893617,8.38002988 C32.5106383,8.82901814 32.7943262,8.99738873 34.1560284,9.61474759 C33.5319149,9.16575933 34.7234043,9.83924172 34.3829787,9.78311819 C35.858156,10.400477 37.6170213,11.6913183 38.8085106,12.1964301 L38.751773,12.1403066 C41.543321,13.5702307 44.2014461,15.2417505 46.6950355,17.1353009 L46.6382979,17.0791774 C50.212766,19.5486128 52.0283688,19.3241187 51.2340426,24.9364719 L51.177305,24.5436072 C51.0435099,26.5944604 50.7972849,28.6366189 50.4397163,30.6610723 L50.4397163,30.3243311 C50.212766,31.166184 49.9858156,33.4672489 49.8156028,33.1305077 C49.7588652,33.4111253 49.5319149,34.3652254 49.6453901,34.1407313 C49.4184397,35.1509549 49.0212766,36.6101667 48.7943262,37.4520197 C48.6808511,37.3397726 48.3404255,38.6867374 48.2269504,39.1357257 C48.2269504,38.9673551 48.0567376,39.5285904 48.0567376,39.3040963 C47.8865248,39.809208 47.7163121,40.2581963 47.8297872,40.2020728 C45.6170213,45.3654378 45.6170213,46.3756613 44.3120567,48.1716144 C43.8014184,49.3502086 42.9503546,50.4165557 42.4397163,51.5390263 L42.5531915,51.3145322 C42.4507839,51.7421163 42.2984608,52.1564713 42.0992908,52.5492499 C42.1560284,52.1002617 41.4184397,53.5594735 41.5886525,52.8859911 C41.4751773,53.0543617 41.3049645,53.615597 41.3617021,53.2227323 C40.9078014,53.9523382 41.1347518,53.7278441 40.6808511,54.4013265 C40.706612,54.3283534 40.7256029,54.2532119 40.7375887,54.1768324 C40.5305102,54.6276963 40.2836939,55.0596453 40,55.4676736 C40,55.4115501 39.9432624,55.4676736 40.0567376,55.299303 C39.4969273,56.2083168 38.8909507,57.0887124 38.2411348,57.937109 C38.2978723,57.6003678 37.5602837,58.6105914 37.5035461,58.778962 L37.7304965,58.6105914 C37.4183054,59.0442451 37.0771171,59.4567399 36.7092199,59.8453091 L36.9361702,59.5085679 L36.2553191,60.3504209 L36.7092199,59.9014327 C36.3687943,60.4065445 36.8794326,59.9575562 36.3120567,60.5187915 C35.6879433,61.3606445 34.6099291,62.2024975 33.8723404,63.2127211 C33.929078,63.100474 33.929078,63.0443505 33.8723404,63.100474 C33.3049645,63.8300799 33.6453901,63.3249681 33.0780142,64.0545741 C33.1347518,63.9984505 33.0780142,63.9984505 33.1914894,63.8862035 C31.1489362,65.8505271 31.0921986,66.0750212 28.6524823,68.1515919 L28.822695,67.9832213 C28.7659574,68.2077155 28.0851064,68.5444567 27.6312057,68.9934449 C27.5177305,68.7128273 26.1560284,70.1720391 25.3049645,70.7332744 L25.4184397,70.6210274 C24.9078014,70.9577686 24.1134752,71.5751274 23.7730496,71.5190039 C22.6382979,70.2281626 21.2198582,69.5546802 20.1985816,68.4322096 C21.0496454,69.0495684 19.4042553,67.8148507 19.4042553,67.8148507 C19.4609929,67.9270978 19.5177305,67.9270978 19.6879433,68.1515919 C19.4441266,68.0286073 19.2156342,67.8779276 19.0070922,67.7026037 C19.5177305,68.1515919 18.9503546,67.3097389 18.8368794,67.4781095 C18.4964539,67.0291213 18.4397163,67.4781095 18.0425532,66.8607507 C17.7588652,66.6923801 16.7375887,66.0188977 17.5319149,66.467886 C17.1159958,66.2141949 16.7179219,65.9329337 16.3404255,65.626033 C16.5615577,65.7570237 16.7704248,65.907283 16.964539,66.0750212 C16.7686863,65.8380085 16.5393882,65.6300935 16.2836879,65.4576624 L16.3404255,65.4576624 L15.6595745,64.896427 L15.8297872,65.0647976 C15.2056738,64.8403035 14.751773,64.2790682 13.9574468,63.8862035 C14.9219858,64.3913153 13.787234,63.4933387 13.9007092,63.5494623 C13.6170213,63.3249681 12.822695,62.9321034 12.5957447,62.5392387 C12.141844,62.5392387 9.70212766,60.4065445 8.28368794,59.9014327 C7.82978723,59.620815 8.17021277,59.7891856 8.39716312,59.9014327 C8.03248414,59.6208494 7.65375406,59.3586076 7.26241135,59.1157032 C7.31914894,58.8350855 6.80851064,58.8912091 6.5248227,58.5544679 C6.66196593,58.5728556 6.79572287,58.6106583 6.92198582,58.6667149 C6.63829787,58.4983444 4.9929078,57.6564914 6.12765957,58.1616032 C5.70345335,57.8677003 5.24656665,57.6228984 4.76595745,57.4319972 L5.04964539,57.6564914 C4.76595745,57.3197502 5.90070922,58.1054796 5.67375887,57.9932326 L5.39007092,57.824862 C5.61702128,58.1616032 6.5248227,58.5544679 7.09219858,58.9473326 C5.42975622,58.1156613 3.86880826,57.0988451 2.43971631,55.9166619 Z M7.14893617,59.0034561 C7.37588652,59.2840738 6.75177305,58.778962 6.63829787,58.7228385 L7.14893617,59.0034561 Z M10.1560284,61.0800268 L10.2695035,61.2483974 C9.9858156,61.0800268 9.58865248,60.7432856 10.1560284,61.0800268 L10.1560284,61.0800268 Z M20.9361702,69.3301861 C20.8794326,69.3301861 21.4468085,69.4985567 21.2765957,69.6108038 C21.1777491,69.501152 21.0630292,69.4065868 20.9361702,69.3301861 L20.9361702,69.3301861 Z M28.0851064,70.789398 C28.0283688,70.789398 28.4255319,70.5087803 28.3120567,70.5649038 L28.0851064,70.789398 Z M28.9929078,70.0036685 C28.9361702,70.0036685 28.9361702,69.947545 29.0496454,69.8914214 C28.9929078,69.947545 29.2765957,69.7230508 29.4468085,69.6108038 C29.3205792,69.767652 29.166825,69.9007309 28.9929078,70.0036685 L28.9929078,70.0036685 Z M10.7234043,34.533596 C10.893617,34.5897195 10.6099291,34.8703372 10.6099291,35.0387078 C10.6231732,34.8658406 10.6613865,34.6957419 10.7234043,34.533596 L10.7234043,34.533596 Z M4.76595745,48.1716144 L4.93617021,48.0032438 C4.83537399,48.197567 4.72164882,48.3850576 4.59574468,48.5644791 C4.65248227,48.5083556 4.65248227,48.3961085 4.76595745,48.1716144 Z M2.83687943,51.5390263 C3.17730496,51.2022851 2.66666667,51.9880146 2.55319149,52.1002617 L2.83687943,51.5390263 Z"></path>
                            <path d="M21.5035461,14.721989 C21.5035461,14.8903596 21.5602837,14.8342361 21.6170213,15.0026067 L21.7304965,15.1148538 C21.6737589,15.1148538 21.6737589,15.1709773 21.6170213,15.1148538 C21.7304965,15.3954714 22.0141844,15.2832244 22.070922,15.451595 C22.4680851,15.563842 22.4113475,15.3393479 22.5248227,15.7322126 C22.5815603,15.6199656 22.6950355,15.6760891 22.6382979,15.7883362 C22.6950355,15.7322126 23.2056738,16.0128303 23.2056738,16.1250774 C23.3191489,16.1250774 23.0921986,15.9567068 23.2624113,16.0689538 C23.2624113,16.2373244 23.4893617,16.1812009 23.6028369,16.3495715 C23.2056738,16.2373244 23.8865248,16.6863127 24.0567376,16.6863127 C23.7163121,16.6863127 24.3404255,16.7985597 24.5106383,16.9108068 C24.4539007,16.9108068 24.9078014,17.1914245 25.0780142,17.3597951 C25.1914894,17.3036715 25.3617021,17.4159186 25.5319149,17.5281657 C25.4751773,17.5842892 25.4751773,17.5842892 25.3617021,17.5281657 C25.4751773,17.6404127 25.5886525,17.6404127 25.7588652,17.6965363 L25.7021277,17.7526598 C25.9405591,17.9439482 26.2501296,18.0256069 26.5531915,17.9771539 C26.4397163,17.9771539 26.7234043,18.0332775 26.4964539,18.0332775 C26.6099291,18.1455245 26.6099291,18.0332775 26.6666667,18.089401 C26.6666667,18.2016481 26.7234043,18.2016481 26.5531915,18.1455245 C26.6666667,18.2016481 26.7801418,18.3138951 26.7801418,18.3700187 C26.893617,18.2016481 27.5744681,19.0996246 27.6879433,18.8190069 L27.6879433,18.8190069 C28.0478949,18.9913787 28.3899474,19.1981485 28.7092199,19.4363658 C28.9361702,19.6047364 29.3900709,19.6608599 29.3900709,19.8292305 C29.5385778,19.8718601 29.6747094,19.9488076 29.787234,20.0537246 C29.6170213,19.9976011 29.8439716,20.1098482 29.6170213,19.9976011 C29.787234,20.1098482 29.8439716,20.2220952 30.070922,20.2782188 C29.9574468,20.2782188 30.1843972,20.4465894 30.2978723,20.5027129 L30.1843972,20.3904658 C30.2978723,20.4465894 30.3546099,20.5027129 30.4680851,20.5588364 L30.3546099,20.6149599 C31.4326241,21.1761953 31.2624113,21.1761953 32.2269504,21.6813071 C32.1702128,21.3445659 32.9078014,21.9058012 32.4539007,21.8496777 C32.3971631,21.7935541 32.2269504,21.7374306 32.2836879,21.7935541 C32.3404255,21.7935541 32.6808511,22.0180483 32.5673759,22.0180483 C32.7375887,22.0741718 32.6808511,22.0180483 32.5673759,21.9058012 C32.7943262,22.0741718 32.9078014,22.1302953 33.1347518,22.2986659 C33.0212766,22.1302953 33.4751773,22.410913 33.5886525,22.410913 C33.7021277,22.5231601 33.4751773,22.4670365 33.7588652,22.5792836 C33.8723404,22.6915306 33.7588652,22.6915306 33.6453901,22.6354071 C33.8478501,22.7191862 34.0241024,22.8547877 34.1560284,23.0282718 L34.0425532,22.9721483 C34.0992908,22.9721483 34.1560284,23.0282718 34.212766,23.0843954 L34.1560284,22.9721483 C34.3262411,23.1966424 34.5531915,22.8037777 34.7234043,23.1966424 C34.4397163,23.0282718 34.7234043,23.3088895 34.4397163,23.1405189 C34.4397163,23.1405189 34.7234043,23.252766 34.5531915,23.252766 C34.7801418,23.4772601 34.7234043,23.252766 35.0070922,23.4211366 C34.9503546,23.4211366 35.0070922,23.5333836 35.0638298,23.5333836 C34.893617,23.3088895 35.4609929,23.6456307 35.4609929,23.6456307 L35.3475177,23.5895072 C35.7446809,23.6456307 35.9148936,24.206866 36.4822695,24.4874837 C36.4255319,24.3752366 36.4255319,24.3752366 36.6524823,24.4313602 L36.2553191,24.2629896 L36.5390071,24.3191131 C36.4200902,24.2744709 36.3060362,24.2180611 36.1985816,24.1507425 C36.3687943,24.1507425 36.3120567,24.206866 36.3120567,24.094619 C36.822695,24.3752366 36.822695,24.6558543 37.5602837,24.9364719 L37.4468085,24.8242249 C37.5657915,24.8687177 37.6798605,24.925135 37.787234,24.9925955 C37.7304965,25.048719 37.787234,25.1048425 37.8439716,25.1609661 C37.8439716,25.1048425 38.070922,25.3293367 38.1843972,25.2170896 C38.3546099,25.5538308 38.6950355,25.4415837 38.9787234,25.6099543 C38.8652482,25.6099543 38.9787234,25.7222014 38.751773,25.6660779 C38.8652482,25.7222014 38.9219858,25.7783249 38.9219858,25.7222014 C39.071288,25.8276889 39.2491973,25.8863502 39.4326241,25.890572 C39.4326241,25.890572 39.6028369,25.9466955 39.5460993,25.8344485 C39.8865248,26.2834367 40.9078014,26.6763015 41.0780142,26.9007956 C41.3049645,27.0691662 41.3049645,26.8446721 41.5886525,27.0691662 C41.248227,27.2936603 41.7021277,27.1814132 41.9858156,27.5181544 L41.929078,27.5181544 C42.0425532,27.686525 42.3262411,27.686525 42.5531915,27.8548956 C42.8311929,27.9066973 43.099238,28.0013916 43.3475177,28.1355133 C42.9503546,28.1355133 43.6879433,28.1355133 43.6312057,28.4722545 L43.4609929,28.3600074 C43.5177305,28.528378 43.6879433,28.528378 43.8014184,28.5845016 L43.7446809,28.6406251 C44.0283688,28.8089957 44.0851064,28.6967486 44.4255319,28.9212428 C44.7092199,28.8089957 44.9361702,29.370231 45.4468085,29.4263545 C45.233948,29.3894722 45.0250123,29.3331064 44.822695,29.2579839 C44.9680349,29.3440681 45.119771,29.4191151 45.2765957,29.4824781 C45.2198582,29.4824781 45.1631206,29.4263545 45.106383,29.4263545 C45.3334076,29.4328794 45.5522624,29.5116017 45.7304965,29.6508487 C46.1276596,30.6049487 47.9432624,30.2682075 47.8297872,29.0896133 C47.7163121,29.2579839 47.5460993,28.7528722 47.5460993,28.6967486 C47.5460993,28.8089957 47.5460993,28.5845016 47.4893617,28.416131 C47.3191489,28.1916368 47.3758865,28.1355133 47.5460993,28.3038839 C47.2624113,28.0232662 47.4326241,28.1355133 47.3191489,27.9671427 C47.3191489,28.0232662 47.2056738,27.9671427 47.0921986,27.9110192 L47.2624113,28.0793898 C46.8652482,27.9671427 47.035461,27.7987721 46.6950355,27.686525 L46.8085106,27.686525 C46.751773,27.6304015 45.787234,27.2375368 46.0141844,27.2375368 C45.6170213,26.9569191 45.0496454,26.7885485 44.7659574,26.5640544 L44.822695,26.5640544 C44.7659574,26.5079309 44.6524823,26.5640544 44.5957447,26.4518073 C44.7092199,26.3956838 44.3687943,26.3956838 44.2553191,26.2273132 L44.3687943,26.2273132 C43.8272352,26.0505929 43.3394107,25.7417641 42.9503546,25.3293367 C42.0628767,24.8868399 41.2095099,24.3803613 40.3971631,23.8140013 C40,24.1507425 40,23.0843954 39.5460993,23.4772601 C39.0611019,23.020316 38.479803,22.6753114 37.8439716,22.4670365 L37.9007092,22.410913 C37.6170213,22.2425424 37.5035461,22.1302953 37.106383,21.9058012 L37.2198582,21.9058012 C36.5390071,21.9619247 36.3120567,21.2884423 35.6312057,21.1200717 C35.6460675,21.1048448 35.6665462,21.0962447 35.6879433,21.0962447 C35.7093404,21.0962447 35.7298191,21.1048448 35.7446809,21.1200717 C35.5744681,21.0078247 35.177305,20.6710835 35.1205674,20.8394541 C35.177305,20.727207 34.7801418,20.6149599 34.5531915,20.5588364 L34.6099291,20.5027129 C34.4397163,20.5027129 34.1560284,20.5027129 34.1560284,20.3343423 C34.0425532,20.2782188 33.9858156,20.3343423 33.8156028,20.1659717 L33.929078,20.1659717 C33.5886525,19.9976011 33.1347518,19.7169834 33.0780142,19.7169834 C32.7943262,19.4924893 32.4539007,19.5486128 32.3971631,19.2679952 C32.964539,19.6608599 32.6241135,19.5486128 32.8510638,19.3802422 C32.6163189,19.3309106 32.3879315,19.2556054 32.1702128,19.1557481 C32.1702128,18.931254 31.035461,18.5383892 31.7163121,18.8751304 C31.7788284,18.934272 31.8579217,18.9733906 31.9432624,18.9873775 C31.7730496,18.9873775 31.6028369,18.7628834 31.4326241,18.931254 C31.2056738,18.3138951 30.4680851,18.2577716 30.070922,17.9771539 C30.1276596,17.9771539 30.1843972,18.0332775 30.2411348,18.0332775 C29.8439716,17.8087833 29.7304965,17.8649069 29.5602837,17.6404127 L29.6170213,17.6404127 C29.1631206,17.1353009 28.5390071,17.3036715 28.0283688,16.7424362 C27.0070922,16.1812009 25.5319149,15.2832244 24.3971631,14.5536184 L24.3971631,14.609742 C24.2836879,14.4974949 23.9432624,14.3852478 24,14.3291243 C23.8467407,14.2211567 23.673079,14.1448091 23.4893617,14.1046302 C23.4893617,13.8801361 22.5815603,13.4311478 22.9219858,13.8801361 L22.8085106,13.8240125 L22.8085106,13.8240125 C22.5489972,13.6707456 22.2255561,13.6700188 21.9653414,13.8221179 C21.7051268,13.974217 21.5497459,14.2548218 21.5602837,14.5536184 C21.5602837,14.609742 21.5602837,14.7781126 21.6170213,14.8342361 C21.5035461,14.7781126 21.5035461,14.7781126 21.5035461,14.721989 Z M31.7163121,18.8190069 L31.7163121,18.8190069 C31.8297872,18.8190069 31.8297872,18.8751304 31.8297872,18.8751304 C31.7730496,18.8751304 31.7163121,18.8751304 31.7163121,18.8190069 Z"></path>
                            <path d="M19.177305,27.1252897 C19.177305,27.4620309 19.5177305,27.4059074 19.5744681,27.6304015 C19.9148936,27.7987721 19.9148936,27.6304015 19.9148936,28.0232662 C19.9716312,27.9110192 20.0851064,27.9671427 20.0283688,28.0793898 C20.141844,28.0232662 20.5390071,28.3038839 20.5390071,28.4722545 C20.6524823,28.4722545 20.4255319,28.3038839 20.5957447,28.416131 C20.822695,28.6406251 20.822695,28.9212428 21.2765957,29.0334898 C21.2198582,29.0334898 21.1631206,29.0334898 21.1631206,29.0896133 C21.2198582,29.0896133 21.2765957,29.0896133 21.2765957,29.0334898 C21.3900709,29.0896133 21.5035461,29.2018604 21.6737589,29.3141075 C21.6170213,29.3141075 22.0141844,29.6508487 22.1843972,29.8192193 C22.2978723,29.7630957 22.4680851,29.9314663 22.6382979,29.9875899 C22.5815603,30.0437134 22.5815603,30.0437134 22.4680851,29.9875899 C22.8085106,30.212084 23.1489362,30.6049487 23.4893617,30.4927017 L23.4326241,30.4927017 C23.5460993,30.4927017 23.6028369,30.5488252 23.4326241,30.5488252 C23.6028369,30.6610723 23.7163121,30.7733193 23.4893617,30.6610723 C23.5800698,30.7035395 23.6437581,30.7875382 23.6595745,30.8855664 C23.7730496,30.7733193 24.4539007,31.6151723 24.5673759,31.3345546 L24.5673759,31.3345546 C24.8914548,31.5075874 25.1958018,31.7145614 25.4751773,31.9519135 C25.7021277,32.1202841 26.0992908,32.1764076 26.0992908,32.3447782 C26.2358017,32.3779563 26.3562511,32.4573868 26.4397163,32.5692724 C26.2695035,32.5131488 26.4397163,32.6253959 26.2695035,32.5131488 C26.3943296,32.631722 26.5526122,32.7100068 26.7234043,32.737643 C26.6099291,32.737643 26.8368794,32.9060136 26.893617,32.9060136 L26.7801418,32.7937665 C26.893617,32.84989 26.9503546,32.9060136 27.0638298,32.9621371 C26.7801418,33.0743842 28.2553191,33.7478665 27.858156,33.4111253 C28.1985816,33.8039901 28.3120567,33.7478665 28.7092199,33.9162371 C28.7659574,33.5233724 29.3900709,34.2529783 28.7659574,34.0284842 C28.822695,34.0284842 29.1631206,34.2529783 29.0496454,34.2529783 C29.2198582,34.3091019 29.106383,34.2529783 29.0496454,34.1407313 C29.2765957,34.3091019 29.3900709,34.3091019 29.6170213,34.4774725 C29.3900709,34.2529783 30.5815603,34.8142137 30.1276596,34.8142137 C30.3254781,34.8788137 30.5019306,34.9951755 30.6382979,35.1509549 L30.5248227,35.0948313 C30.5815603,35.0948313 30.6382979,35.1509549 30.6950355,35.1509549 L30.6382979,35.0387078 C30.8085106,35.2070784 31.035461,34.9264607 31.2056738,35.2070784 C30.9219858,35.0387078 31.2056738,35.3193255 30.9787234,35.2070784 C30.9787234,35.2070784 31.2624113,35.3193255 31.0921986,35.3193255 C31.3191489,35.5438196 31.2624113,35.2632019 31.5460993,35.4315725 C31.4893617,35.4315725 31.5460993,35.5438196 31.6028369,35.5438196 C31.4326241,35.375449 32,35.487696 32,35.5438196 L31.8865248,35.487696 C32.2836879,35.4315725 32.5106383,35.9928078 33.0780142,36.217302 C33.0212766,36.1050549 33.0212766,36.1611784 33.1914894,36.1611784 L32.7943262,36.0489314 L33.0780142,36.0489314 C32.964539,35.9928078 32.7943262,35.9928078 32.7375887,35.9366843 C32.8510638,35.9366843 32.8510638,35.9366843 32.8510638,35.8805608 C33.3617021,36.1611784 33.4184397,36.4417961 34.1560284,36.6101667 C33.8723404,36.4417961 34.2695035,36.6101667 34.3829787,36.6662902 C34.3262411,36.7224138 34.3829787,36.7785373 34.4397163,36.8346608 C34.7801418,36.8907844 35.177305,37.1152785 35.5744681,37.171402 C35.4609929,37.171402 35.5744681,37.2836491 35.3475177,37.2275256 C35.4609929,37.2836491 35.5177305,37.3397726 35.5177305,37.2836491 C35.6879433,37.3958962 35.858156,37.3397726 36.0283688,37.3958962 C36.0283688,37.3958962 36.1985816,37.4520197 36.141844,37.3397726 C36.5390071,37.7326373 37.4468085,38.013255 37.6737589,38.2377491 C37.9007092,38.4061197 37.9007092,38.1816256 38.1276596,38.3499962 C37.787234,38.5183668 38.2411348,38.5183668 38.5248227,38.7428609 L38.4680851,38.7428609 C38.5815603,38.855108 38.8652482,38.855108 39.0921986,39.0234786 C39.351287,39.0461619 39.6026228,39.1226591 39.8297872,39.2479727 C39.4893617,39.3040963 40.1702128,39.2479727 40.1134752,39.5847139 L39.9432624,39.4724669 C40.2269504,39.809208 40.3971631,39.809208 40.8510638,39.9775786 C41.0780142,39.8653316 41.3617021,40.4265669 41.8156028,40.4265669 C41.619563,40.3964627 41.4286457,40.3398074 41.248227,40.2581963 C41.3617021,40.3143198 41.5886525,40.4826904 41.7021277,40.4826904 C41.6453901,40.4826904 41.5886525,40.4265669 41.5319149,40.4265669 C42.3829787,40.7633081 43.6879433,42.2786435 44.2553191,40.538814 C44.0851064,40.7071846 44.1985816,40.2020728 44.141844,40.1459492 L44.141844,40.1459492 C44.1985816,40.0898257 44.0283688,39.3602198 44.2553191,39.809208 C44.141844,39.4724669 44.2553191,39.6408374 44.141844,39.3602198 C44.141844,39.4163433 44.0283688,39.3040963 43.858156,39.1357257 C43.9273075,39.2213264 43.9845542,39.315705 44.0283688,39.4163433 C43.6312057,39.1357257 43.8014184,39.0796021 43.4609929,38.9112315 L43.5744681,38.9112315 C43.5177305,38.855108 42.5531915,38.4622433 42.7801418,38.4622433 C42.3829787,38.1816256 41.8156028,38.0693785 41.5886525,37.7887609 L41.6453901,37.7887609 C41.5886525,37.7326373 41.4751773,37.7887609 41.4184397,37.6765138 C41.5319149,37.6203903 41.1914894,37.5642667 41.0780142,37.5081432 L41.1914894,37.5081432 C40.5673759,37.171402 40.2836879,37.2275256 39.7730496,36.7224138 C38.8703551,36.3601574 37.9977132,35.9285586 37.1631206,35.4315725 C36.3687943,35.2070784 35.0638298,34.3652254 33.9858156,33.8601136 L34.0992908,33.8601136 C33.4751773,33.9723607 33.248227,33.4111253 32.5673759,33.2427547 C32.5822377,33.2275278 32.6027164,33.2189277 32.6241135,33.2189277 C32.6455106,33.2189277 32.6659893,33.2275278 32.6808511,33.2427547 C32.5106383,33.1866312 32.1134752,32.84989 32.0567376,33.0182606 C32.1134752,32.9060136 31.7163121,32.84989 31.4893617,32.7937665 L31.5460993,32.737643 C31.1489362,32.7937665 31.1489362,32.6253959 30.751773,32.5131488 L30.8652482,32.5131488 C30.5579266,32.4396072 30.2685688,32.306035 30.0141844,32.1202841 C29.7304965,31.89579 29.4468085,31.9519135 29.3900709,31.7274194 C29.9574468,32.008037 29.6170213,31.9519135 29.8439716,31.7835429 C29.6737589,31.7274194 29.3333333,31.7274194 29.2198582,31.5590488 C29.2198582,31.3345546 28.2553191,30.9416899 28.7659574,31.2784311 C28.822695,31.3345546 28.8794326,31.3345546 28.9929078,31.3906782 C28.659377,31.4083491 28.356001,31.2005927 28.2553191,30.8855664 C28.0283688,30.7733193 27.0070922,30.4365781 27.4042553,30.4927017 C27.0070922,30.2682075 26.893617,30.3243311 26.7234043,30.0998369 L26.7801418,30.0998369 C26.3262411,29.6508487 25.7588652,29.7630957 25.3049645,29.2018604 C24.4539007,28.7528722 22.9787234,27.4620309 22.1276596,26.9569191 C22.0141844,26.8446721 21.7304965,26.6763015 21.787234,26.6763015 C21.7304965,26.6763015 21.4468085,26.3956838 21.3333333,26.3956838 C21.106383,26.1711897 21.5035461,26.2834367 21.1631206,26.0028191 C20.5390071,25.6660779 21.0496454,26.1711897 20.7092199,26.0028191 L20.7092199,26.0028191 C20.4820745,25.8401318 20.1943989,25.7837583 19.9217062,25.8484962 C19.6490136,25.9132342 19.4185388,26.0926179 19.2907801,26.3395603 L19.2907801,26.3395603 C19.2907801,26.3395603 19.177305,26.732425 19.2340426,26.5640544 C19.1205674,26.732425 19.2340426,26.732425 19.2340426,26.8446721 C19.4042553,26.9007956 19.2907801,27.2936603 19.177305,27.1252897 Z M28.9929078,31.4468017 C28.9361702,31.3345546 29.106383,31.5029252 29.106383,31.5029252 C29.0769335,31.4709048 29.0364741,31.450894 28.9929078,31.4468017 L28.9929078,31.4468017 Z"></path>
                            <path d="M20.8794326,22.3547895 C20.8794326,22.5231601 20.9361702,22.4670365 20.9361702,22.6354071 L21.0496454,22.7476542 C20.9929078,22.7476542 20.9929078,22.8037777 20.9361702,22.7476542 C21.0496454,23.0282718 21.3333333,22.9160248 21.3900709,23.0843954 C21.787234,23.1966424 21.7304965,23.0282718 21.8439716,23.365013 C21.9007092,23.252766 22.0141844,23.3088895 21.9574468,23.4211366 C22.070922,23.365013 22.5248227,23.5895072 22.5248227,23.7017542 C22.6382979,23.5333836 22.9219858,24.094619 23.3758865,24.1507425 C23.035461,24.1507425 23.6595745,24.2629896 23.8297872,24.3752366 C23.7730496,24.3752366 24.2269504,24.6558543 24.3971631,24.8242249 C24.5106383,24.7681014 24.6808511,24.8803484 24.8510638,24.9364719 C24.7943262,24.9925955 24.7943262,24.9925955 24.6808511,24.9925955 C24.964539,24.9364719 25.6453901,25.6660779 25.7021277,25.3293367 C25.7451517,25.3352276 25.7850242,25.354948 25.8156028,25.3854602 L25.7588652,25.3854602 C25.8723404,25.3854602 25.929078,25.4415837 25.7588652,25.4415837 C25.929078,25.5538308 26.0425532,25.6660779 25.8156028,25.5538308 C25.929078,25.6099543 26.0425532,25.7222014 26.0425532,25.7783249 C26.0992908,25.5538308 26.893617,26.3395603 26.9503546,26.1150661 L26.9503546,26.1150661 C27.3475177,26.2273132 27.6312057,26.5640544 27.9716312,26.6763015 C28.1985816,26.7885485 28.6524823,26.9007956 28.6524823,27.0691662 C28.8009892,27.1117958 28.9371207,27.1887433 29.0496454,27.2936603 C28.8794326,27.2375368 29.106383,27.3497838 28.8794326,27.2375368 C29.0117672,27.3451401 29.1669081,27.421871 29.3333333,27.4620309 C29.2198582,27.4620309 29.4468085,27.6304015 29.5602837,27.6304015 L29.4468085,27.5181544 C29.5602837,27.574278 29.6170213,27.6304015 29.7304965,27.686525 C29.5035461,27.8548956 30.9787234,28.4722545 30.5815603,28.1355133 C30.9219858,28.5845016 30.9787234,28.528378 31.4893617,28.7528722 C31.5460993,28.3600074 32.1702128,29.0896133 31.5460993,28.8651192 C31.6028369,28.8651192 31.9432624,29.0896133 31.8297872,29.0896133 C32,29.1457369 31.9432624,29.0896133 31.8297872,28.9773663 C32.0567376,29.1457369 32.1702128,29.2018604 32.3971631,29.370231 C32.3971631,29.2579839 32.6808511,29.4824781 32.8510638,29.4824781 C32.964539,29.5947251 32.7375887,29.5386016 33.0212766,29.6508487 C33.1347518,29.7630957 33.0212766,29.7630957 32.9078014,29.7069722 C33.1347518,29.7630957 33.3049645,29.9875899 33.4184397,30.0437134 L33.3049645,29.9875899 C33.3617021,29.9875899 33.4184397,30.0437134 33.4751773,30.0998369 L33.4184397,29.9875899 C33.5886525,30.212084 33.8156028,29.8192193 33.9858156,30.212084 C33.7021277,29.9875899 33.9858156,30.3243311 33.7021277,30.1559605 C33.7021277,30.1559605 33.9858156,30.2682075 33.8156028,30.2682075 C34.0425532,30.4927017 33.9858156,30.2682075 34.2695035,30.4365781 C34.212766,30.4365781 34.2695035,30.5488252 34.3262411,30.5488252 C34.212766,30.3804546 34.7234043,30.6610723 34.7234043,30.6610723 L34.6099291,30.6049487 C35.0638298,30.6049487 35.177305,31.5590488 35.858156,31.4468017 L35.4609929,31.2784311 L35.7446809,31.3345546 C35.625764,31.2899125 35.5117099,31.2335026 35.4042553,31.166184 C35.5744681,31.166184 35.5177305,31.2223076 35.5177305,31.1100605 C36.0283688,31.4468017 35.9716312,31.6712958 36.7092199,31.9519135 L36.5957447,31.8396664 C36.7830323,31.8660439 36.9379114,31.9973608 36.9929078,32.1764076 C37.3333333,32.3447782 37.7304965,32.5692724 38.1276596,32.737643 C38.0141844,32.737643 38.1276596,32.84989 37.9007092,32.7937665 C38.1843972,33.0182606 38.3546099,32.9621371 38.5815603,33.1305077 C38.5815603,33.1305077 38.751773,33.1866312 38.6950355,33.0743842 C38.9787234,33.5233724 39.9432624,33.9723607 40.1702128,34.1968548 C40.3971631,34.4213489 40.3971631,34.1407313 40.6241135,34.3652254 C40.7375887,34.533596 40.4539007,34.3091019 40.5106383,34.4213489 C40.4539007,34.5897195 40.8510638,34.6458431 40.964539,34.8142137 L40.9078014,34.8142137 C41.0212766,34.9825843 41.3049645,34.9825843 41.5319149,35.1509549 C41.7880208,35.2398014 42.0349972,35.3525568 42.2695035,35.487696 C42.0425532,35.487696 42.212766,35.5438196 42.3829787,35.5438196 C42.5531915,35.7121902 42.5531915,35.9366843 42.3262411,35.7121902 C42.3829787,35.8805608 42.5531915,35.8805608 42.6666667,35.9366843 L42.6099291,35.9366843 C42.893617,36.1050549 42.9503546,36.0489314 43.2907801,36.217302 C43.5177305,36.1611784 43.8014184,36.6101667 44.2553191,36.7224138 C44.0592793,36.6923095 43.868362,36.6356542 43.6879433,36.5540432 C43.8332831,36.6401274 43.9850192,36.7151743 44.141844,36.7785373 C44.0851064,36.7785373 44.0283688,36.7224138 43.9716312,36.7224138 C44.822695,37.3397726 46.2978723,38.4622433 46.5815603,36.4979196 C46.5248227,36.6662902 46.3546099,36.1611784 46.3546099,36.1050549 C46.4680851,36.217302 45.9007092,35.3193255 46.3546099,35.7121902 C46.1276596,35.4315725 46.2978723,35.5438196 46.1276596,35.3193255 C46.1276596,35.375449 46.0141844,35.3193255 45.9007092,35.2070784 L46.0141844,35.375449 C45.6737589,35.2070784 45.8439716,35.0948313 45.4468085,34.9264607 L45.5602837,34.9264607 C45.5035461,34.8142137 44.5957447,34.4774725 44.7659574,34.4774725 C44.3687943,34.1968548 43.8014184,33.9723607 43.5744681,33.7478665 L43.6312057,33.7478665 C43.5744681,33.691743 43.4609929,33.7478665 43.4042553,33.6356195 C43.5177305,33.5794959 43.177305,33.5794959 43.0638298,33.4111253 L43.177305,33.4111253 C42.6099291,33.0743842 42.212766,33.0182606 41.8156028,32.4570253 C40.9453831,31.9739111 40.1111142,31.430003 39.3191489,30.8294429 C38.4680851,30.6049487 37.2198582,29.5386016 36.1985816,28.8089957 L36.3120567,28.8089957 C35.6879433,28.8651192 35.3475177,28.1916368 34.7234043,28.0232662 C34.738266,28.0080392 34.7587448,27.9994392 34.7801418,27.9994392 C34.8015389,27.9994392 34.8220176,28.0080392 34.8368794,28.0232662 C34.6666667,27.9110192 34.2695035,27.574278 34.212766,27.7426486 C34.2695035,27.6304015 33.8723404,27.5181544 33.6453901,27.4620309 L33.7021277,27.4059074 C33.5319149,27.4059074 33.248227,27.4059074 33.248227,27.2375368 C33.1347518,27.1814132 33.0780142,27.2375368 32.9078014,27.0691662 L33.0212766,27.0691662 C32.6808511,26.9007956 32.2269504,26.6201779 32.1702128,26.6201779 C31.8865248,26.3956838 31.6028369,26.4518073 31.5460993,26.1711897 C32.0567376,26.5079309 31.7730496,26.4518073 32,26.2834367 C31.7652551,26.2341051 31.5368677,26.1587999 31.3191489,26.0589426 C31.3191489,25.8344485 30.2978723,25.4977073 30.8652482,25.7783249 C30.9219858,25.8344485 31.035461,25.8344485 31.0921986,25.890572 C30.4680851,25.7783249 29.9007092,25.048719 29.2198582,24.9364719 C29.2765957,24.9364719 29.3333333,24.9925955 29.3900709,24.9925955 C28.9929078,24.7681014 28.8794326,24.8242249 28.7092199,24.5997308 L28.7659574,24.5997308 C28.2553191,24.1507425 27.6879433,24.3191131 27.177305,23.7578778 C26.212766,23.3088895 24.5673759,22.1864189 23.5460993,21.7374306 C23.4326241,21.6813071 23.0921986,21.5129365 23.1489362,21.5129365 C23.0921986,21.56906 22.751773,21.3445659 22.6382979,21.3445659 C22.6382979,21.1200717 21.7304965,20.6710835 22.070922,21.1200717 L21.9574468,21.0639482 L21.9574468,21.0639482 C21.6965193,20.9225399 21.379563,20.9276349 21.1234183,21.077355 C20.8672736,21.2270752 20.7098655,21.4992527 20.7092199,21.7935541 C20.6524823,21.9058012 20.8794326,22.4670365 20.8794326,22.3547895 Z M31.1489362,26.0589426 L31.1489362,26.0589426 C31.2624113,26.0589426 31.2624113,26.1150661 31.2624113,26.1150661 C31.218845,26.1109738 31.1783856,26.0909631 31.1489362,26.0589426 L31.1489362,26.0589426 Z"></path>
                            <path d="M17.3617021,34.8703372 C17.4184397,35.2070784 17.8723404,35.2632019 17.8723404,35.4315725 C18.0103302,35.4737656 18.1434503,35.5301996 18.2695035,35.5999431 C18.0992908,35.5999431 18.3262411,35.6560666 18.0992908,35.5999431 C18.3262411,35.7121902 18.3829787,35.7683137 18.6099291,35.7121902 C18.4964539,35.7683137 18.7801418,35.8244372 18.893617,35.7683137 L18.7234043,35.7121902 C18.8398021,35.7210814 18.9566389,35.7018194 19.0638298,35.6560666 C19.858156,35.6560666 19.4609929,35.9366843 20.4255319,36.329549 C20.5390071,35.9928078 21.0496454,36.6662902 20.4822695,36.4417961 C20.5390071,36.4417961 20.822695,36.6662902 20.7092199,36.6662902 C20.822695,36.7224138 20.7659574,36.6662902 20.7092199,36.5540432 C20.8794326,36.7224138 21.0496454,36.7785373 21.2198582,36.9469079 C21.1631206,36.8346608 21.5035461,37.059155 21.6170213,37.059155 C21.6170213,37.1152785 21.9574468,37.3958962 21.6170213,37.2836491 C21.8439716,37.3397726 21.9574468,37.5642667 22.070922,37.6203903 L21.9574468,37.5642667 C22.0141844,37.5642667 22.070922,37.6203903 22.1276596,37.6765138 L22.1276596,37.5642667 C22.3546099,37.7326373 22.1843972,37.6203903 22.4113475,37.5642667 C22.6950355,37.6765138 22.6382979,37.8448844 22.4113475,37.7326373 C22.4113475,37.7326373 22.6950355,37.8448844 22.5248227,37.8448844 C22.751773,38.0693785 22.6950355,37.8448844 22.9219858,38.013255 C22.8652482,38.013255 22.9219858,38.1255021 22.9787234,38.1255021 C22.8085106,37.9010079 23.3191489,38.2377491 23.3758865,38.2377491 L23.2624113,38.1816256 C23.6595745,38.1816256 23.8865248,39.0796021 24.3971631,39.0234786 L24.0567376,38.855108 L24.3404255,38.9112315 C24.2386861,38.8678912 24.1432749,38.811264 24.0567376,38.7428609 C24.1702128,38.7428609 24.1702128,38.7428609 24.1702128,38.6867374 C24.6808511,39.0234786 24.5673759,39.2479727 25.3049645,39.5285904 C25.0212766,39.2479727 25.5886525,39.5847139 25.5886525,39.7530845 C25.9391189,39.9227898 26.2990351,40.0726934 26.6666667,40.2020728 C26.5531915,40.2020728 26.6666667,40.3143198 26.4397163,40.2581963 C26.4964539,40.3143198 26.6099291,40.3704434 26.6099291,40.3143198 C26.7706669,40.3953994 26.9427971,40.4521552 27.1205674,40.4826904 C27.1205674,40.4826904 27.2907801,40.538814 27.2340426,40.4265669 C27.6516863,40.7924256 28.108264,41.1123346 28.5957447,41.380667 C29.4468085,41.6051611 28.5390071,41.5490376 29.3900709,41.9419023 L29.3333333,41.9419023 C29.4468085,42.0541493 29.6737589,42.0541493 29.9007092,42.2225199 C30.1581791,42.2530552 30.4080097,42.3290942 30.6382979,42.4470141 C30.2978723,42.5031376 30.9787234,42.3908905 30.9219858,42.6715082 L30.751773,42.5592611 C31.3293713,42.8947797 31.9371734,43.1766035 32.5673759,43.4011141 C32.3737779,43.390881 32.1826847,43.353076 32,43.2888671 C32.1449858,43.3604142 32.2971054,43.4168417 32.4539007,43.4572377 C32.391507,43.4649089 32.3289498,43.4442822 32.2836879,43.4011141 C33.0780142,43.6256083 33.7588652,44.3552142 34.6666667,44.7480789 C34.5531915,44.5797083 34.9503546,44.6919554 35.0070922,44.6919554 L35.0070922,44.6919554 C35.3475177,44.9164495 35.1205674,44.972573 35.4042553,45.1970672 C35.4042553,45.1409436 35.5177305,45.1409436 35.6312057,45.2531907 L35.4609929,45.0848201 C35.8014184,45.1409436 35.6879433,45.3654378 36.0283688,45.4215613 L35.9148936,45.4215613 C35.9716312,45.5338084 36.9361702,45.702179 36.7092199,45.702179 C37.1399405,45.8085207 37.558278,45.958997 37.9574468,46.1511672 L37.9007092,46.1511672 C37.9806864,46.142769 38.0610868,46.1626515 38.1276596,46.2072907 C38.0141844,46.3195378 38.3546099,46.2634143 38.4680851,46.3195378 L38.3546099,46.3195378 C38.9787234,46.5440319 39.2624113,46.4317849 39.7730496,46.8807731 C40.3591233,47.1480451 41.0546444,46.937284 41.3888131,46.3911545 C41.7229817,45.8450251 41.5891953,45.1377472 41.0780142,44.7480789 C40.5106383,44.5797083 39.4326241,44.018473 38.5815603,43.7939788 C38.6382979,43.6256083 38.1276596,43.5133612 37.9007092,43.4011141 L38.0141844,43.4011141 C37.3900709,43.5133612 37.1631206,43.0082494 36.4822695,42.8960023 C36.4971313,42.8807753 36.51761,42.8721753 36.5390071,42.8721753 C36.5604042,42.8721753 36.5808829,42.8807753 36.5957447,42.8960023 C36.4255319,42.8398788 36.0283688,42.5592611 36.0283688,42.7276317 C36.141844,42.5592611 35.4042553,42.5592611 35.5744681,42.4470141 C35.2907801,42.5031376 35.1205674,42.3908905 34.8368794,42.2225199 L34.9503546,42.2225199 C34.6666667,42.1663964 34.1560284,41.8857787 34.212766,41.8296552 C33.929078,41.6612846 33.6453901,41.7174081 33.5886525,41.492914 C34.0992908,41.7174081 33.8723404,41.7735317 34.0425532,41.5490376 C33.8234537,41.5461292 33.608695,41.4881925 33.4184397,41.380667 C33.4184397,41.1561728 32.5106383,40.8194316 32.964539,41.1561728 C33.0212766,41.2122964 33.0780142,41.2122964 33.1914894,41.2684199 C32.6241135,41.2684199 32.2269504,40.4265669 31.5460993,40.538814 C31.3758865,40.4826904 31.5460993,40.3704434 31.6028369,40.4826904 C31.2056738,40.3143198 31.0921986,40.3704434 30.9219858,40.1459492 L30.9787234,40.1459492 C30.5248227,39.696961 30.0141844,39.8653316 29.5602837,39.3602198 C28.7092199,38.9673551 27.2340426,37.8448844 26.3829787,37.3958962 C26.2695035,37.2836491 25.9858156,37.171402 26.0425532,37.1152785 C25.7588652,36.9469079 25.5886525,36.8907844 25.4184397,36.5540432 C24.8510638,36.2734255 25.248227,36.7224138 25.0212766,36.6101667 L25.0212766,36.6101667 C24.5858596,36.3176935 24.1690003,35.9990611 23.7730496,35.6560666 C23.684167,35.6543836 23.60079,35.6131463 23.5460993,35.5438196 C23.6595745,35.5438196 23.3758865,35.375449 23.3191489,35.3193255 C23.3758865,35.3193255 23.3758865,35.2632019 23.4326241,35.3193255 C23.0921986,34.8703372 22.6950355,35.0948313 22.6950355,34.7019666 C22.0141844,34.6458431 22.0141844,34.0284842 21.3333333,33.8601136 C21.6170213,33.8601136 21.106383,33.7478665 20.9361702,33.6356195 C20.7706727,33.4740975 20.5788673,33.3412868 20.3687943,33.2427547 C20.3120567,33.2988783 20.0851064,33.1866312 19.9148936,33.1866312 C19.9716312,33.1305077 19.9716312,33.1305077 20.0851064,33.1305077 C19.95923,33.0803966 19.8229692,33.0611415 19.6879433,33.0743842 C19.6879433,32.7937665 18.7801418,33.0743842 19.0070922,33.0182606 C18.893617,33.0743842 18.893617,33.0182606 19.0070922,32.9621371 C18.893617,32.9060136 18.893617,33.0743842 18.7801418,32.9621371 L18.893617,32.9621371 C18.7801418,32.9621371 18.6099291,32.9621371 18.5531915,32.9060136 C18.3829787,33.0743842 17.7588652,33.2988783 17.8723404,33.6356195 C17.929078,34.0284842 17.4751773,34.6458431 17.3617021,34.8703372 Z M32.9078014,41.4367905 C32.9078014,41.380667 33.0780142,41.492914 33.0212766,41.492914 C32.964539,41.4367905 32.964539,41.4367905 32.9078014,41.4367905 Z"></path>
                            <path d="M16.964539,41.2684199 L16.964539,41.2684199 C17.248227,41.4367905 17.1347518,41.1561728 17.3049645,41.380667 C17.3049645,41.6051611 17.5319149,41.4367905 17.4751773,41.5490376 C17.5886525,41.4367905 17.9858156,41.7174081 17.9858156,41.8296552 C18.0992908,41.6612846 18.3829787,42.2225199 18.7234043,42.2786435 C18.6666667,42.2786435 18.6099291,42.2786435 18.6099291,42.334767 C18.7234043,42.2225199 18.893617,42.3908905 19.1205674,42.4470141 C19.0638298,42.4470141 19.4609929,42.6715082 19.5744681,42.8398788 C19.6312057,42.7837553 20.1985816,43.0082494 19.8014184,43.0082494 C20.141844,43.17662 20.4255319,43.4572377 20.7659574,43.3449906 C20.7092199,43.4011141 20.7092199,43.2888671 20.822695,43.4011141 L20.7092199,43.4011141 C20.822695,43.4011141 21.0496454,43.6256083 20.7659574,43.5133612 C20.822695,43.5694847 20.9361702,43.6817318 20.9361702,43.7378553 C21.106383,43.5694847 21.5602837,44.1868436 21.7304965,44.0745965 L21.7304965,44.0745965 C22.0141844,44.1868436 22.2411348,44.4674612 22.5248227,44.5797083 C22.8275569,44.714477 23.1132088,44.8840131 23.3758865,45.0848201 C23.2056738,45.0286966 23.3758865,45.1409436 23.2056738,45.0286966 C23.3758865,45.1409436 23.3758865,45.1970672 23.5460993,45.2531907 C23.3758865,45.2531907 23.8297872,45.5899319 23.6595745,45.3093142 C24.1106851,45.8068025 24.6745535,46.1914685 25.3049645,46.4317849 C25.248227,46.1511672 25.7588652,46.6001555 25.4751773,46.5440319 C25.4184397,46.5440319 25.3617021,46.4317849 25.3049645,46.4879084 C25.3617021,46.4317849 25.5886525,46.7124025 25.5319149,46.7124025 C25.6453901,46.7685261 25.5886525,46.7124025 25.5319149,46.656279 C25.7559367,46.8674814 26.0285572,47.0215785 26.3262411,47.1052673 C26.2695035,47.1613908 26.6666667,47.4420085 26.3262411,47.3297614 C26.5531915,47.3858849 26.6099291,47.6103791 26.7234043,47.6665026 L26.6099291,47.6103791 C26.6666667,47.6103791 26.7234043,47.6665026 26.7801418,47.7226261 L26.7801418,47.6103791 C26.8368794,47.6665026 26.893617,47.6665026 26.8368794,47.7226261 C27.0070922,47.4420085 27.4042553,47.8909967 27.0070922,47.8348732 C27.177305,48.0032438 27.0638298,48.0593673 27.4609929,48.0593673 C27.4042553,48.0593673 27.4609929,48.1716144 27.5177305,48.1716144 C27.3475177,48.0032438 27.858156,48.2277379 27.858156,48.2277379 L27.8014184,48.1716144 C28.1985816,48.1716144 28.4255319,49.0134674 28.822695,48.9573438 L28.4822695,48.7889732 L28.7092199,48.8450968 C28.6213346,48.792914 28.5255548,48.7550167 28.4255319,48.7328497 C28.5390071,48.7328497 28.5390071,48.7328497 28.5390071,48.6767262 C28.9361702,49.0134674 28.8794326,49.181838 29.5035461,49.4624556 C29.3900709,49.2379615 29.787234,49.5747027 29.7304965,49.7430733 C30.070922,49.7991968 30.2978723,50.135938 30.6950355,50.135938 C30.5815603,50.135938 30.6950355,50.2481851 30.5248227,50.1920615 C30.5815603,50.2481851 30.6382979,50.3043086 30.6950355,50.2481851 C30.8315326,50.3375098 30.9867192,50.395075 31.1489362,50.4165557 C31.1489362,50.4165557 31.3191489,50.4726792 31.2624113,50.3604321 C31.4326241,50.7532969 32.4539007,51.0339145 32.5106383,51.2584087 C32.6808511,51.4267793 32.7375887,51.2022851 32.9078014,51.3706557 C32.4539007,51.4829028 33.248227,51.6512734 33.1347518,51.7635205 C33.248227,51.8757675 33.4751773,51.8757675 33.6453901,51.9880146 C34.0992908,51.9880146 34.212766,52.2686322 34.4397163,52.2125087 C34.6099291,52.3808793 34.6099291,52.4931264 34.3829787,52.3247558 C34.9503546,52.773744 35.3475177,52.661497 36.0283688,53.0543617 C35.9148936,53.0543617 35.6879433,52.9982382 35.5177305,52.9982382 C35.6437837,53.0679817 35.7769039,53.1244157 35.9148936,53.1666088 C36.0283688,52.9982382 37.8439716,54.5135735 38.2978723,52.9421146 C38.1843972,53.0543617 38.1843972,52.5492499 38.2411348,52.5492499 C38.3546099,52.0441381 38.4113475,52.2125087 38.3546099,51.819644 C38.3546099,51.8757675 38.2411348,51.7635205 38.070922,51.5951499 C38.3546099,52.1002617 37.8439716,51.3145322 37.6170213,51.3706557 L37.7304965,51.3706557 C37.6170213,51.2584087 36.7659574,51.0900381 37.0496454,51.0900381 C36.6703071,50.9670718 36.3081229,50.7973676 35.9716312,50.5849263 L36.0283688,50.5849263 C35.9483916,50.5933245 35.8679912,50.5734419 35.8014184,50.5288027 C35.9148936,50.4726792 35.5744681,50.4165557 35.5177305,50.3604321 L35.6312057,50.3604321 C35.1205674,50.0798145 34.8368794,50.135938 34.4964539,49.6308262 C33.7255584,49.3511324 33.0137665,48.9324853 32.3971631,48.3961085 C31.8865248,48.339985 30.9219858,47.498132 30.2978723,47.2175143 C30.3546099,46.9930202 29.9574468,46.9368967 29.7304965,46.7124025 L29.8439716,46.7124025 C29.5035461,46.7685261 28.5957447,46.0389201 28.6524823,45.9827966 C28.5390071,45.8705495 28.1985816,45.5899319 28.141844,45.7583025 C28.2553191,45.5899319 27.5744681,45.5338084 27.7446809,45.4215613 C27.4042553,45.4215613 27.4042553,45.3093142 27.0638298,45.1970672 L27.177305,45.1970672 C27.0070922,45.0848201 26.6099291,45.0848201 26.6666667,44.860326 C26.6099291,44.9164495 26.3262411,44.7480789 26.4964539,44.8042024 C26.2695035,44.5797083 26.0425532,44.6358318 25.9858156,44.4113377 C26.3829787,44.6919554 26.212766,44.6358318 26.3829787,44.4674612 C26.0992908,44.5797083 25.0212766,43.4572377 25.4184397,43.9623494 C25.4751773,44.018473 25.5319149,44.018473 25.5886525,44.0745965 C25.1047822,43.8444623 24.6481089,43.5621306 24.2269504,43.2327435 C23.8297872,43.0643729 23.7730496,43.1204965 23.6028369,42.8960023 C23.5460993,42.5031376 22.6950355,42.6153847 22.3546099,42.1102729 C21.5602837,41.5490376 19.9148936,40.5949375 19.0070922,40.0898257 C18.7216987,40.0461952 18.4827268,39.8527888 18.3829787,39.5847139 C18.1560284,39.5285904 17.8723404,39.4724669 18.0992908,39.696961 L17.9858156,39.6408374 L17.9858156,39.6408374 C17.7695301,39.5307503 17.5161331,39.5167935 17.2888292,39.6024483 C17.0615253,39.6881031 16.8817434,39.8652945 16.7943262,40.0898257 C16.7943262,40.0898257 16.7375887,40.4265669 16.7375887,40.2581963 C16.5673759,40.538814 16.9078014,41.0439258 16.964539,41.2684199 Z M25.4751773,44.018473 L25.4751773,44.018473 C25.5886525,44.018473 25.5886525,44.0745965 25.5886525,44.0745965 C25.5580738,44.0440843 25.5182013,44.0243639 25.4751773,44.018473 L25.4751773,44.018473 Z"></path>
                            <path d="M16.2269504,55.4676736 L16.2269504,55.4676736 L16.3971631,55.6360442 C16.2269504,55.6921677 16.5106383,55.7482913 16.5106383,55.8044148 L16.6808511,55.8044148 C16.6241135,55.8044148 16.6808511,55.9166619 16.6241135,55.8605383 C16.7943262,56.0850325 17.0212766,55.8044148 17.1914894,55.9166619 C17.4751773,55.8044148 17.248227,55.7482913 17.4751773,55.6921677 C17.7021277,55.8044148 17.5886525,55.5799207 17.7588652,55.6360442 C17.7021277,55.5237971 18.0992908,55.2431795 18.212766,55.3554265 C18.0425532,55.1870559 18.6666667,55.1870559 18.893617,54.8503147 C18.893617,54.9064383 18.893617,54.9064383 18.8368794,54.9625618 C18.8368794,55.0748089 20.1985816,53.8962147 19.858156,54.3452029 C20.0283688,54.2890794 20.0851064,54.45745 20.141844,54.7380677 C20.3120567,54.5135735 20.3687943,54.7941912 20.2553191,54.6819441 C20.2861652,54.7121919 20.3061014,54.7516328 20.3120567,54.7941912 L20.2553191,54.7380677 C20.3120567,54.9064383 20.3120567,54.7941912 20.2553191,54.9064383 L20.2553191,54.7941912 C20.2553191,54.9064383 20.2553191,55.0186853 20.1985816,55.0186853 C20.4255319,54.9625618 20.141844,55.8044148 20.3687943,55.8044148 C20.3687943,56.4217736 20.3120567,57.2075031 20.2553191,57.7687384 C20.1985816,57.6003678 20.1985816,57.824862 20.1985816,57.6003678 C20.1416133,57.7447261 20.1416133,57.9049978 20.1985816,58.0493561 C20.141844,57.9932326 20.0851064,58.2177267 20.141844,58.3299738 L20.1985816,58.1616032 C20.0283688,59.1157032 21.2198582,59.5646915 21.9574468,58.8912091 C21.6737589,58.8350855 22.3546099,58.3299738 22.1276596,58.7228385 C21.9574468,59.0034561 22.3546099,58.4983444 22.3546099,58.6105914 C22.4113475,58.4983444 22.3546099,58.5544679 22.2978723,58.6105914 C22.4291313,58.4749675 22.5434269,58.3242227 22.6382979,58.1616032 C22.4680851,58.1616032 23.2056738,57.3197502 22.9787234,57.824862 C23.035461,57.6003678 23.2624113,57.6564914 23.1489362,57.6003678 C23.1489362,57.5442443 23.2624113,56.983009 23.2056738,57.5442443 L23.2056738,57.5442443 C23.2056738,57.7687384 23.2056738,57.4319972 23.2624113,57.3197502 C23.2589264,57.3975905 23.2396303,57.4739395 23.2056738,57.5442443 C23.2301413,57.4518885 23.2490866,57.3581869 23.2624113,57.2636266 C23.2624113,57.4319972 23.3191489,57.2636266 23.3191489,57.3197502 C23.3758865,57.095256 23.3758865,57.4319972 23.3191489,57.3197502 C23.3758865,57.3197502 23.3191489,57.7126149 23.2056738,57.6564914 C23.3191489,57.8809855 23.1489362,57.937109 23.3758865,58.1054796 L23.2624113,57.7687384 L23.3758865,57.9932326 C23.3758865,57.8809855 23.2624113,57.7687384 23.2624113,57.7126149 C23.3191489,57.824862 23.3191489,57.824862 23.3758865,57.7126149 C23.4326241,58.2177267 23.2056738,58.3299738 23.4326241,58.8912091 L23.4326241,58.778962 C23.4893617,58.8350855 23.4893617,59.0034561 23.5460993,59.0595797 C23.4893617,59.0595797 23.4893617,59.1157032 23.4326241,59.1718267 C23.6028369,59.3963209 23.6028369,59.7891856 23.7730496,60.0698033 C23.7163121,60.0136797 23.6595745,60.1259268 23.6028369,59.9575562 C23.6595745,60.1820503 23.7163121,60.5187915 23.9432624,60.5749151 C23.9204196,61.4141327 24.1157816,62.2450974 24.5106383,62.9882269 C24.6241135,63.1565975 24.964539,63.1565975 25.1914894,63.100474 C25.3617021,62.9882269 25.7021277,62.8759799 25.8156028,62.7076093 C25.7588652,63.0443505 25.8723404,62.4269916 26.1560284,62.4831152 L26.0425532,62.6514858 C26.4397163,62.3708681 26.3829787,62.3147446 26.5531915,61.8657563 C26.4397163,61.6973857 27.0070922,61.416768 26.9503546,61.0239033 C26.9339025,61.1962852 26.8957833,61.3659649 26.8368794,61.5290151 C26.907386,61.4043261 26.9644375,61.2726467 27.0070922,61.1361504 C26.8368794,61.0800268 27.9716312,59.7330621 28.141844,59.1157032 C28.0283688,59.2279503 28.0283688,58.8350855 28.0851064,58.8350855 L28.0851064,58.8350855 C28.3120567,58.4983444 28.3687943,58.7228385 28.5957447,58.4422208 C28.5390071,58.4422208 28.5390071,58.3299738 28.5957447,58.1054796 L28.4822695,58.3299738 C28.4255319,57.8809855 28.7092199,57.937109 28.4255319,57.4881208 L28.5390071,57.6003678 C28.4822695,57.2075031 27.6879433,56.983009 27.6312057,56.983009 C27.1064365,56.883583 26.5773886,57.1338675 26.3262411,57.6003678 L26.3262411,57.5442443 C26.2695035,57.7687384 26.212766,57.8809855 26.1560284,58.1054796 L26.1560284,57.9932326 C25.9858156,58.2177267 26.0425532,58.3860973 26.0425532,58.6667149 C25.9858156,58.4422208 25.929078,58.4983444 25.929078,58.3860973 C25.7588652,59.0034561 25.8156028,57.9932326 25.7021277,57.7126149 C25.5886525,57.8809855 25.5319149,57.2636266 25.5886525,57.4881208 C25.5886525,56.983009 25.248227,56.0850325 25.1914894,55.5237971 C25.3049645,55.3554265 25.1347518,55.0748089 25.1347518,54.7941912 L25.1914894,54.8503147 C24.6808511,54.5135735 25.3049645,53.7839676 24.6241135,53.3911029 C24.6676798,53.3951952 24.7081392,53.4152059 24.7375887,53.4472264 C24.7375887,53.3349794 24,52.9421146 24,53.2227323 C23.8865248,52.9982382 23.3191489,53.50335 23.3758865,53.2227323 C23.2056738,53.50335 22.9787234,53.5594735 22.8652482,53.8400912 L22.8652482,53.7278441 C22.751773,53.8962147 22.751773,54.2329559 22.5248227,54.1768324 C22.5515046,54.1967735 22.5671879,54.2279382 22.5671879,54.2610177 C22.5671879,54.2940971 22.5515046,54.3252618 22.5248227,54.3452029 L22.5248227,54.2890794 C22.4113475,54.6258206 22.1276596,54.5696971 22.4113475,54.3452029 C22.4113475,54.2329559 22.3546099,54.2329559 22.3546099,54.1207088 C22.3546099,54.2329559 22.2411348,54.5696971 22.2411348,54.4013265 L22.1843972,54.45745 L22.1843972,54.1768324 C22.1276596,54.3452029 22.1276596,54.2890794 22.070922,54.45745 L22.070922,54.45745 C22.070922,54.5135735 22.0141844,54.7380677 22.0141844,54.5135735 C21.9574468,54.6258206 21.9007092,54.6819441 21.9007092,54.7380677 C22.0433656,54.3816395 22.0826638,53.9929103 22.0141844,53.615597 C22.070922,53.9523382 22.0141844,53.2227323 21.9007092,53.2788558 C21.9007092,53.0543617 22.0141844,53.3911029 21.9574468,53.1104852 L22.0141844,53.1666088 C22.0141844,52.5492499 21.3333333,52.3247558 20.9361702,51.9880146 C19.9716312,51.5951499 18.6099291,52.3808793 17.7588652,53.0543617 L17.8156028,53.0543617 C17.7021277,53.1104852 17.5319149,53.3349794 17.4751773,53.2788558 C17.4184397,53.3349794 17.248227,53.3911029 17.1914894,53.5594735 C17.0212766,53.50335 16.6241135,53.7278441 16.6808511,53.9523382 C16.7943262,53.8400912 16.9078014,53.9523382 16.7943262,54.0645853 C16,54.5696971 16,55.1309324 16.2269504,55.4676736 Z M22.0141844,54.45745 L22.0141844,54.5696971 C21.9574468,54.5135735 21.9574468,54.5135735 22.0141844,54.45745 L22.0141844,54.45745 Z"></path>
                        </g>
                    </g>
                </g>
            </g>
        </g>
    </g>
</svg>