<?xml version="1.0" encoding="UTF-8"?>
<svg width="24px" height="24px" viewBox="0 0 24 24" version="1.1" xmlns="http://www.w3.org/2000/svg" xmlns:xlink="http://www.w3.org/1999/xlink">
    <title>Icon/home</title>
    <defs>
        <path d="M11.9959415,3 L20.4962948,10.5524638 C20.8166785,10.837121 21,11.2452271 21,11.6738009 L21,11.6738009 L21,19.5 C21,20.3284271 20.3284271,21 19.5,21 L19.5,21 L4.5,21 C3.67157288,21 3,20.3284271 3,19.5 L3,19.5 L3,11.6733973 C3,11.2450577 3.18312191,10.8371515 3.50320317,10.5525065 L3.50320317,10.5525065 L11.9959415,3 Z M11.9968403,7.01386496 L6,12.3467945 L6,18 L18,18 L18,12.3476017 L11.9968403,7.01386496 Z" id="path-1"></path>
    </defs>
    <g id="Icon/home" stroke="none" stroke-width="1" fill="none" fill-rule="evenodd">
        <g id="Rectangle">
            <mask id="mask-2" fill="white">
                <use xlink:href="#path-1"></use>
            </mask>
            <use id="Combined-Shape" fill="#D8D8D8" xlink:href="#path-1"></use>
            <rect fill="#003478" mask="url(#mask-2)" x="0" y="0" width="24" height="24"></rect>
        </g>
    </g>
</svg>