<?xml version="1.0" encoding="UTF-8"?>
<svg width="40px" height="40px" viewBox="0 0 40 40" version="1.1" xmlns="http://www.w3.org/2000/svg" xmlns:xlink="http://www.w3.org/1999/xlink">
    <title>543F8505-FCE9-4706-A6CE-6384B1F517F4</title>
    <defs>
        <path d="M15.0545513,13.1723479 C18.2051176,13.1747141 21.3646321,13.2098104 24.4882943,13.5464802 C25.9544314,13.7042281 27.1725543,14.763997 27.5156773,16.2006669 C28.0032922,18.246448 27.9996342,20.479268 28,22.5861014 C28,24.6925819 27.9970736,26.9254019 27.5098244,28.9711831 C27.1674331,30.4075 25.9493102,31.467269 24.4839047,31.6253697 C21.0113399,31.9998002 17.4978052,32.0015647 13.9985368,31.9998002 L12.9484633,31.9997688 C9.79720893,31.9971993 6.63822115,31.9623572 3.5139005,31.6253697 C2.04776338,31.467269 0.830372074,30.4075 0.487980769,28.9711831 C1.61648472e-13,26.9254019 1.61648472e-13,24.6925819 1.61648472e-13,22.5861014 L0.00039755638,22.0570236 C0.0043235844,20.1087267 0.0465179069,18.0759663 0.493833612,16.2006669 C0.836224916,14.7643499 2.05361622,13.704581 3.51902174,13.5464802 C6.99122074,13.1724026 10.505487,13.1706381 14.0047554,13.1724026 Z M23.3938127,19.0570672 C22.5297868,19.0570672 21.8563441,19.3640932 21.3676317,19.9806154 C21.0080477,20.4358609 20.8445339,21.1402561 20.8445339,22.1033295 L20.8445339,22.1033295 L20.8445339,25.258639 C20.8445339,26.216066 21.0285326,26.9261077 21.3877508,27.3771183 C21.876829,27.992229 22.5506375,28.2996078 23.43588,28.2996078 C24.3196593,28.2996078 25.0139528,27.9770541 25.4821802,27.3227712 C25.6877613,27.0344491 25.8209135,26.7062489 25.8772471,26.3448758 C25.8926108,26.1818344 25.9138273,25.8194026 25.9138273,25.2932236 L25.9138273,25.2932236 L25.9138273,25.0550138 L24.1876045,25.0550138 C24.1876045,25.7096496 24.1652906,26.0724343 24.149561,26.1610131 C24.0529891,26.5972017 23.810462,26.8156489 23.3934469,26.8156489 C22.8118207,26.8156489 22.529421,26.3992229 22.529421,25.5653121 L22.529421,25.5653121 L22.529421,23.9684241 L25.9141931,23.9684241 L25.9141931,22.1033295 C25.9141931,21.1402561 25.7448265,20.4358609 25.3899979,19.9806154 C24.9159176,19.3640932 24.2432065,19.0570672 23.3938127,19.0570672 Z M16.2559051,16.0845616 L14.5640677,16.0845616 L14.5640677,28.1757387 L16.2559051,28.1757387 L16.2559051,27.3026557 C16.8218018,27.9767012 17.4023307,28.2992549 18.0048077,28.2992549 C18.6778846,28.2992549 19.1303825,27.9569386 19.3564486,27.286775 C19.4694816,26.9049335 19.5276442,26.3046448 19.5276442,25.4714398 L19.5276442,25.4714398 L19.5276442,21.8834707 C19.5276442,21.0305031 19.4702132,20.4348021 19.3564486,20.0723703 C19.1307483,19.3979719 18.6778846,19.0560085 18.0048077,19.0560085 C17.3825773,19.0560085 16.8024143,19.3842087 16.2559051,20.033198 L16.2559051,20.033198 L16.2559051,16.0845616 Z M9.92495819,19.1664672 L8.23312082,19.1664672 L8.23312082,26.2901757 C8.23312082,26.9261077 8.29018604,27.3573557 8.38236831,27.6297971 C8.55173495,28.0861013 8.92704849,28.2992549 9.47246028,28.2992549 C10.0946906,28.2992549 10.7333821,27.9364702 11.4060932,27.1925498 L11.4060932,27.1925498 L11.4060932,28.1753858 L13.0993938,28.1753858 L13.099028,19.1664672 L11.4057274,19.1664672 L11.4057274,26.051613 C11.0304139,26.5636759 10.6755853,26.8160018 10.3361204,26.8160018 C10.1093227,26.8160018 9.980926,26.687545 9.94032191,26.4341603 C9.92495819,26.380519 9.92495819,26.1818344 9.92495819,25.7992871 L9.92495819,19.1664672 Z M7.98656982,16.0845616 L2.08800167,16.0845616 L2.08800167,17.786262 L4.07760242,17.786262 L4.07760242,28.1750329 L5.96002299,28.1750329 L5.96002299,17.786262 L7.98656982,17.786262 L7.98656982,16.0845616 Z M17.09919,20.5258865 C17.5875366,20.5258865 17.8355508,20.9426655 17.8355508,21.7550491 L17.8355508,21.7550491 L17.8355508,25.6002848 C17.8355508,26.4137272 17.5875366,26.8160371 17.09919,26.8160371 C16.8204484,26.8160371 16.5380487,26.6868745 16.2552832,26.4137272 L16.2552832,26.4137272 L16.2552832,20.9229029 C16.5384145,20.6529318 16.8204484,20.5258865 17.09919,20.5258865 Z M23.3785587,20.5258865 C23.9382368,20.5258865 24.2213681,20.9426655 24.2217339,21.7755175 L24.2217339,21.7755175 L24.2217339,22.6090754 L22.5298965,22.6090754 L22.5298965,21.7755175 C22.5298965,20.9426655 22.8130278,20.5258865 23.3785587,20.5258865 Z M18.4958246,3.11260819 L18.4958653,9.95194133 C18.4961504,10.2499917 18.498431,10.4096364 18.5166754,10.4568813 C18.5543531,10.7127363 18.6889684,10.8433106 18.9179609,10.8433106 C19.2596206,10.8433106 19.6192046,10.5878085 19.9981762,10.0711579 L19.9981762,10.0711579 L19.9981762,3.11260819 L21.7083037,3.11260819 L21.7083037,12.2171636 L19.9981762,12.2171636 L19.9981762,11.2240934 C19.3174174,11.9764835 18.6681177,12.3420914 18.0447899,12.3420914 C17.4938911,12.3420914 17.1145537,12.1268203 16.9426265,11.6655756 C16.8482494,11.389958 16.7911842,10.9548281 16.7911842,10.311838 L16.7911842,10.311838 L16.7911842,3.11260819 L18.4958246,3.11260819 Z M12.8585493,3.00243174 C13.715625,3.00243174 14.3810201,3.31333966 14.8532713,3.9362142 C15.2128554,4.39604736 15.384051,5.10750066 15.384051,6.08080831 L15.384051,6.08080831 L15.384051,9.26893783 C15.384051,10.236599 15.2124895,10.9544046 14.8532713,11.4100029 C14.3810201,12.0311129 13.7152592,12.3420208 12.8585493,12.3420208 C12.0062291,12.3420208 11.3404682,12.0311129 10.8674854,11.4100029 C10.5042433,10.9544046 10.3323161,10.236599 10.3323161,9.26893783 L10.3323161,9.26893783 L10.3323161,6.08080831 C10.3323161,5.10750066 10.5042433,4.39604736 10.8674854,3.9362142 C11.340834,3.31333966 12.0062291,3.00243174 12.8585493,3.00243174 Z M5.75952655,8.8817842e-16 L7.10568039,4.79772204 L8.39952446,8.8817842e-16 L10.3170621,8.8817842e-16 L8.0359166,7.26910471 L8.0359166,12.2171636 L6.13959553,12.2171636 L6.13959553,7.26910471 C5.96766827,6.39249261 5.58796509,5.10792415 4.97963524,3.40410642 C4.57981292,2.27058063 4.16389528,1.13246709 3.76407295,8.8817842e-16 L3.76407295,8.8817842e-16 L5.75952655,8.8817842e-16 Z M12.8585493,4.48780225 C12.3072847,4.48780225 12.0424436,4.90775733 12.0424436,5.7501378 L12.0424436,5.7501378 L12.0424436,9.57984575 C12.0424436,10.4222262 12.3072847,10.8435929 12.8585493,10.8435929 C13.409814,10.8435929 13.6739235,10.4222262 13.6739235,9.57984575 L13.6739235,9.57984575 L13.6739235,5.7501378 C13.6739235,4.90740442 13.409814,4.48780225 12.8585493,4.48780225 Z" id="path-1"></path>
    </defs>
    <g id="Design2" stroke="none" stroke-width="1" fill="none" fill-rule="evenodd">
        <g id="Homepage_sostenibilità" transform="translate(-596.000000, -9984.000000)">
            <rect fill="#003478" x="0" y="0" width="1440" height="10568"></rect>
            <path d="M0,9256 C239.666667,9277.33333 479.5,9288 719.5,9288 C959.5,9288 1199.66667,9277.33333 1440,9256 L1440,10196 L0,10196 L0,9256 Z" id="Rectangle" fill="#C5F4FF"></path>
            <g id="Social/Follow_on-Copy-4" transform="translate(596.000000, 9984.000000)">
                <g id="Icon/Social" transform="translate(6.000000, 4.000000)">
                    <mask id="mask-2" fill="white">
                        <use xlink:href="#path-1"></use>
                    </mask>
                    <use id="Path" fill="#FFFFFF" xlink:href="#path-1"></use>
                    <rect id="Rectangle" fill="#003478" mask="url(#mask-2)" x="-6" y="-4" width="40" height="40"></rect>
                </g>
            </g>
        </g>
    </g>
</svg>