<?xml version="1.0" encoding="utf-8"?>
<!-- Generator: Adobe Illustrator 24.0.1, SVG Export Plug-In . SVG Version: 6.00 Build 0)  -->
<svg version="1.1" id="Livello_1" xmlns="http://www.w3.org/2000/svg" xmlns:xlink="http://www.w3.org/1999/xlink" x="0px" y="0px"
	 viewBox="0 0 32 24" style="enable-background:new 0 0 32 24;" xml:space="preserve">
<style type="text/css">
	.st0{filter:url(#Adobe_OpacityMaskFilter);}
	.st1{fill-rule:evenodd;clip-rule:evenodd;fill:#FFFFFF;}
	.st2{mask:url(#mask-2_1_);fill-rule:evenodd;clip-rule:evenodd;fill:#00A9E0;}
</style>
<title>Arrow/Button/internal_page</title>
<g id="Arrow_x2F_Button_x2F_internal_x5F_page">
	<g id="Path">
	</g>
	<defs>
		<filter id="Adobe_OpacityMaskFilter" filterUnits="userSpaceOnUse" x="0" y="0" width="32" height="24">
			<feColorMatrix  type="matrix" values="1 0 0 0 0  0 1 0 0 0  0 0 1 0 0  0 0 0 1 0"/>
		</filter>
	</defs>
	<mask maskUnits="userSpaceOnUse" x="0" y="0" width="32" height="24" id="mask-2_1_">
		<g class="st0">
			<path id="path-1_1_" class="st1" d="M31.9,11.6c0.4-0.5-0.9-2.5-0.2-1.9c-1.1-0.9-2.2-1.8-3.4-2.5c0.1,0.6-0.9-0.1-0.3,0.1
				c-0.5-0.2-0.1-0.1,0.1-0.1C28,7.1,27.8,7.1,27.7,7c-0.2-0.9-2.6-1.7-3.7-2.4h0.3C23.9,4.4,23.4,4.2,23,4
				c-1.6-0.1-2.5,1.5-1.8,3.1c0,0.1-0.1,0.1-0.1,0.1c0.1,0.1,0.2,0.1,0.3,0.2c0.5,0.8,1.4,1.7,3.1,2.2c1.6,0.5,1,0.7-0.3,0.8l0,0
				c-0.1,0-0.7,0-0.3-0.1c-1.2,0.3-2.9-0.2-4,0.1H20c-2.2,0.2-4.6,0.3-7.5,0.3c-1.6,0.7-5.9,0-8.3,0.8l0.1-0.2
				c-1.8,0.2-4.6,0.5-4.1,3c-0.1-0.1-0.1-0.1-0.1-0.3c-0.5,1.6,2.3,2,2.2,2.1c0.2-0.1,1-0.1,0.8-0.2c0.9,0,1.8-0.1,2.7-0.3
				c0,0.2,1,0.1,1.4,0c0,0.2,1.1,0.2,0.9,0c4.5,0.2,5.4-0.9,6.9-0.4c1-0.2,2.1-0.1,3-0.3c-0.1,0.1-0.1,0.1-0.2,0.1
				c0.2,0,0.5,0,0.4-0.1c-0.8,0,0.5-0.4,0.6-0.4c-0.3,0.3,0.9,0,0.5,0.4c0.1,0,0.7-0.4,0.4-0.1c0.5-0.1,1.3-0.3,0.9-0.1
				c0.1,0,1.2-0.4,1-0.1l0,0c0.7,0,1.9-0.2,2.2,0c-0.2,0-0.4,0-0.6,0.1c0.5,0.1,0.9,0.1,1.3,0.2c0.6-0.3,0.8-0.1,1.6-0.3
				c-0.9,0.2-0.3,0.1-0.6,0.4c0.5-0.1,0.1,0.1,0.2,0.1c-0.4,0.2-0.7,0.5-1,0.7c-0.5,0.3-1.6,2.4-1.4,1.8c-0.4,0.3-0.6,0.4-0.8,0.7
				c-0.3-0.3-0.4,0.7-0.4,0.6c0.4,0.8,1.3,1.3,2.4,0.4c0.2,0.3-0.1,0.2-0.2,0.5c0.5-0.3,1-0.6,1.4-1l-0.4,0.4
				c0.9-0.5,1.3-1.8,1.8-1.5c0.7-0.9,1.3-1.1,1.9-2c-0.2,0.6,0.8-0.6,0.9-0.5c0.1-0.4,0.9-1,1.2-1.8c0,0.1,0,0.1-0.1,0.2
				c0.8-0.3,0.3-2.3,1-1.6C32,12.2,32,11.5,31.9,11.6z"/>
		</g>
	</mask>
	<rect id="Rectangle" class="st2" width="32" height="24"/>
</g>
</svg>
