<?xml version="1.0" encoding="UTF-8"?>
<svg width="56px" height="57px" viewBox="0 0 56 57" version="1.1" xmlns="http://www.w3.org/2000/svg" xmlns:xlink="http://www.w3.org/1999/xlink">
    <title>A91F9527-E560-48AB-ABD2-DBAD4E09D822</title>
    <g id="Nuovi-moduli" stroke="none" stroke-width="1" fill="none" fill-rule="evenodd">
        <g id="Desktop---Archivio-bilancio" transform="translate(-230.000000, -2644.000000)">
            <g id="Desktop/Download_File/white-Copy-36" transform="translate(230.000000, 2638.200000)">
                <g id="icon_download_white" transform="translate(0.000000, 6.000000)">
                    <rect id="bg_download" fill="#FFFFFF" x="0" y="0" width="56" height="56" rx="4"></rect>
                    <g id="feed_black_24dp" transform="translate(9.000000, 9.000000)">
                        <polygon id="Path" points="0 0 38 0 38 38 0 38"></polygon>
                        <path d="M25.3333333,4.75 L7.91666667,4.75 C6.175,4.75 4.75,6.175 4.75,7.91666667 L4.75,30.0833333 C4.75,31.825 6.175,33.25 7.91666667,33.25 L30.0833333,33.25 C31.825,33.25 33.25,31.825 33.25,30.0833333 L33.25,12.6666667 L25.3333333,4.75 Z M11.0833333,11.0833333 L19,11.0833333 L19,14.25 L11.0833333,14.25 L11.0833333,11.0833333 Z M26.9166667,26.9166667 L11.0833333,26.9166667 L11.0833333,23.75 L26.9166667,23.75 L26.9166667,26.9166667 Z M26.9166667,20.5833333 L11.0833333,20.5833333 L11.0833333,17.4166667 L26.9166667,17.4166667 L26.9166667,20.5833333 Z M23.75,14.25 L23.75,7.91666667 L30.0833333,14.25 L23.75,14.25 Z" id="Shape" fill="#003478" fill-rule="nonzero"></path>
                    </g>
                </g>
            </g>
        </g>
    </g>
</svg>