<?xml version="1.0" encoding="UTF-8"?>
<svg width="16px" height="56px" viewBox="0 0 16 56" version="1.1" xmlns="http://www.w3.org/2000/svg" xmlns:xlink="http://www.w3.org/1999/xlink">
    <title>Path 2</title>
    <defs>
        <filter id="filter-1">
            <feColorMatrix in="SourceGraphic" type="matrix" values="0 0 0 0 0.745098 0 0 0 0 0.839216 0 0 0 0 0.000000 0 0 0 1.000000 0"></feColorMatrix>
        </filter>
        <path d="M14.9289612,9.95631427 C15.1131943,10.4304245 13.8235625,10.4304245 12.9945136,10.2407804 C14.2841453,10.5252465 16.1264764,9.29255998 14.8368446,7.58576325 C15.1131943,7.39611917 15.0210777,7.68058529 15.2974274,7.77540733 C15.0211416,7.25798877 14.6805111,6.77985033 14.2841453,6.35307672 L14.6526115,6.73236489 C14.1920288,5.78414448 12.9945136,5.40485632 13.2708632,4.93074611 C12.3496977,4.26699183 12.1654646,3.60323754 11.3364156,3.0343053 C11.8891149,3.22394938 10.6915997,2.27572898 10.8758328,2.18090693 C10.5073666,2.08608489 9.86255075,1.23268653 9.21773488,0.948220406 C9.2884672,0.955134437 9.35415519,0.988943069 9.40196798,1.04304245 C9.12561832,0.189644081 7.09905415,0.758576325 7.92810313,0 C8.02021968,0.0948220406 7.09905415,0.0948220406 7.1911707,0.189644081 C6.73058794,-0.189644081 4.79614031,1.04304245 5.34883963,0.379288163 C4.48550566,1.46730764 3.68575229,2.60718165 2.95380925,3.79288163 C3.50650857,3.69805958 2.86169269,4.74110203 3.0459258,4.07734775 C2.86169269,4.64627999 2.95380925,4.17216979 3.0459258,3.98252571 C2.76957614,4.45663591 2.58534303,5.02556815 2.40110993,5.31003428 C2.21687682,5.31003428 2.86169269,4.55145795 2.49322648,4.83592407 L2.86169269,4.36181387 C1.94052716,4.55145795 1.29571128,6.92200897 0.558778857,8.05987345 L0.558778857,7.77540733 C0.341198327,8.20239731 0.156401473,8.64625421 0.00607953704,9.1029159 C-0.17815357,11.568289 3.87497478,12.5165094 5.34883963,7.68058529 C6.63847138,3.60323754 5.99365551,13.7491959 5.90153895,15.1715265 C5.91749893,15.0723024 5.94858769,14.9762969 5.99365551,14.8870604 C5.90153895,15.7404587 6.08577206,18.0161877 5.99365551,17.0679673 C6.17788861,17.7317216 5.8094224,17.1627894 5.99365551,17.8265436 C6.17788861,17.9213657 5.90153895,18.9644081 6.08577206,19.4385183 C5.8094224,19.8178065 6.17788861,21.5246032 6.17788861,22.3780016 C6.17788861,21.8090693 6.63847138,22.3780016 6.27000517,22.4728236 C6.54635483,22.3780016 6.36212172,23.2314 6.27000517,22.5676457 L6.36212172,23.0417559 L6.27000517,22.9469338 C6.17788861,25.1278408 7.09905415,28.3517902 6.82270449,29.8689428 C6.91482104,30.8171632 6.91482104,31.0068073 7.09905415,32.1446718 C7.28328726,31.4809175 7.1911707,32.8084261 7.09905415,32.3343159 C7.37540381,33.5670024 6.91482104,35.2737991 7.1911707,36.3168416 L7.1911707,36.2220195 C7.37540381,38.4029265 7.46752036,40.8682995 7.46752036,43.7129607 C8.20445279,45.3249354 7.46752036,49.5919273 8.29656934,52.0573003 L8.11233624,51.7728342 C8.29656934,53.574453 8.572919,56.4191142 10.9679494,55.8501819 C10.8758328,55.945004 10.8758328,55.945004 10.6915997,55.945004 C12.1654646,56.4191142 12.6260474,53.669275 12.7181639,53.764097 C12.6260474,53.574453 12.6260474,52.7210546 12.5339308,53.0055207 C12.4921993,52.0842817 12.3999357,51.1662056 12.2575811,50.2556815 C12.4418142,50.2556815 12.3496977,49.2126391 12.2575811,48.8333509 C12.4418142,48.8333509 12.4418142,47.6954864 12.2575811,47.8851305 C12.4418142,43.4284946 11.3364156,42.4802742 11.8891149,40.9631216 C11.7048818,39.9200791 11.7969984,38.8770367 11.6127653,37.9288163 C11.6628454,37.9799205 11.695213,38.0465569 11.7048818,38.1184603 C11.7048818,37.9288163 11.7048818,37.6443501 11.6127653,37.7391722 C11.6127653,38.4977485 11.2442991,37.265062 11.2442991,37.1702399 C11.5206487,37.4547061 11.2442991,36.2220195 11.6127653,36.6961297 C11.6127653,36.6013077 11.2442991,36.0323754 11.5206487,36.3168416 C11.4285322,35.8427314 11.2442991,34.989333 11.4285322,35.4634432 C11.4285322,35.3686212 11.0600659,34.2307567 11.3364156,34.4204008 C11.1886477,33.5743444 11.0963228,32.7190161 11.0600659,31.8602057 C11.3364156,32.0498497 11.1521825,31.1016293 11.1521825,30.9119852 L11.0600659,31.1016293 C11.0600659,30.6275191 10.8758328,30.248231 10.9679494,29.8689428 L11.0600659,30.248231 L10.9679494,29.3948326 L10.9679494,29.8689428 C10.8758328,29.3948326 10.7837163,29.9637648 10.7837163,29.3000106 C10.8885714,28.3206434 10.8575552,27.330902 10.6915997,26.3605273 C11.0600659,26.8346375 10.5994832,25.8864171 10.8758328,26.0760612 C10.8758328,25.4123069 10.6915997,26.2657053 10.6915997,25.5071289 C10.6915997,25.601951 10.6915997,25.5071289 10.7837163,25.696773 C10.6915997,23.421044 10.7837163,23.421044 10.5994832,20.7660269 C10.4152501,21.3349591 10.5994832,20.1022726 10.5994832,19.7229845 C10.8758328,19.9126285 10.5073666,18.2058318 10.5073666,17.4472555 C10.6915997,17.7317216 10.6915997,15.7404587 10.4152501,15.8352808 C10.6915997,14.5077722 10.1389004,13.2750857 10.4152501,12.1372212 C10.5994832,12.8957975 10.4152501,11.3786449 10.4152501,11.2838228 C10.1389004,11.757933 10.1389004,11.663111 10.1389004,10.9993567 C10.5073666,11.2838228 9.9546673,8.72362774 10.231017,8.24951754 C10.2164236,8.44404613 10.2480388,8.63930823 10.3231335,8.81844978 C10.4152501,8.24951754 10.4152501,7.87022937 10.5073666,7.39611917 L10.5073666,7.58576325 C10.1389004,6.92200897 10.4152501,6.73236489 10.231017,5.97378856 C10.4152501,6.92200897 10.3231335,6.25825468 10.5994832,6.5427208 C10.5073666,6.0686106 10.6915997,6.44789876 10.6915997,6.35307672 C10.9134407,6.71793374 11.1596797,7.0664565 11.4285322,7.39611917 C11.7048818,7.87022937 13.731446,9.00809386 13.0866301,8.81844978 C13.3629798,9.19773794 13.4550963,9.38738202 13.8235625,9.5770261 C13.4550963,9.95631427 15.1131943,9.95631427 14.0999122,10.0511363 C14.560495,10.2407804 16.0343598,9.5770261 15.0210777,10.1459583 C16.6791757,9.29255998 15.9422433,9.00809386 14.9289612,9.95631427 Z" id="path-2"></path>
    </defs>
    <g id="Symbols" stroke="none" stroke-width="1" fill="none" fill-rule="evenodd">
        <g id="Arrow" transform="translate(-4.000000, 0.000000)" filter="url(#filter-1)">
            <g id="Path-2" transform="translate(4.000000, 0.000000)">
                <mask id="mask-3" fill="white">
                    <use xlink:href="#path-2"></use>
                </mask>
                <use id="Path" fill="#BED600" transform="translate(8.000000, 28.000000) scale(-1, -1) translate(-8.000000, -28.000000) " xlink:href="#path-2"></use>
            </g>
        </g>
    </g>
</svg>