<?xml version="1.0" encoding="UTF-8"?>
<svg width="24px" height="32px" viewBox="0 0 24 32" version="1.1" xmlns="http://www.w3.org/2000/svg" xmlns:xlink="http://www.w3.org/1999/xlink">
    <title>Arrow/Vertical_scroll</title>
    <defs>
        <path d="M27.8998744,15.6365748 C28.3003769,15.1138608 26.9987438,13.1275473 27.6996231,13.7548042 C26.5982413,12.8139189 25.4968594,11.9775763 24.2953519,11.2457766 C24.3954776,11.8730335 23.3942213,11.1412338 23.9949751,11.3503194 C23.4943469,11.1412338 23.8948494,11.2457766 24.0951007,11.2457766 C23.9949751,11.1412338 23.7947238,11.1412338 23.6945982,11.036691 C23.4943469,10.0958057 21.091332,9.36400597 19.9899501,8.63220627 L20.290327,8.63220627 C19.8898245,8.42312064 19.3891964,8.21403501 18.9886939,8.00494938 C17.3866839,7.90040657 16.4855533,9.46854879 17.1864327,11.1412338 C17.1864327,11.2457766 17.086307,11.2457766 17.086307,11.2457766 C17.1864327,11.3503194 17.2865583,11.3503194 17.3866839,11.4548623 C17.887312,12.2912048 18.7884426,13.1275473 20.4905782,13.6502614 C22.0925882,14.1729754 21.4918345,14.3820611 20.1902014,14.4866039 L20.1902014,14.4866039 C20.0900758,14.4866039 19.489322,14.4866039 19.8898245,14.3820611 C18.688317,14.6956895 16.9861814,14.1729754 15.8847996,14.4866039 L15.9849252,14.4866039 C13.7821615,14.6956895 11.3791465,14.8002323 8.47550344,14.8002323 C6.87349346,15.532032 2.56809165,14.8002323 0.165076692,15.6365748 L0.265202316,15.4274892 C-1.53705891,15.6365748 -4.34057636,15.9502033 -3.83994824,18.4592308 C-3.94007387,18.354688 -3.94007387,18.354688 -3.94007387,18.1456024 C-4.44070198,19.7137446 -1.63718453,20.1319159 -1.73731015,20.2364587 C-1.53705891,20.1319159 -0.736053918,20.1319159 -0.936305165,20.027373 C-0.0351745545,20.027373 0.865956056,19.9228302 1.76708667,19.7137446 C1.76708667,19.9228302 2.7683429,19.8182874 3.16884539,19.7137446 C3.16884539,19.9228302 4.27022725,19.9228302 4.06997601,19.7137446 C8.57562906,19.9228302 9.47675967,18.7728593 10.978644,19.2955733 C11.9799003,19.0864877 13.0812821,19.1910305 13.9824127,18.9819449 C13.8822871,19.0864877 13.8822871,19.0864877 13.7821615,19.0864877 C13.9824127,19.0864877 14.2827896,19.0864877 14.182664,18.9819449 C13.381659,18.9819449 14.6832921,18.5637736 14.7834177,18.5637736 C14.4830408,18.8774021 15.6845483,18.5637736 15.2840458,18.9819449 C15.3841715,18.9819449 15.9849252,18.5637736 15.6845483,18.8774021 C16.1851764,18.7728593 16.9861814,18.5637736 16.5856789,18.7728593 C16.6858046,18.7728593 17.7871864,18.354688 17.5869352,18.6683165 L17.5869352,18.6683165 C18.2878145,18.6683165 19.489322,18.4592308 19.7896989,18.6683165 C19.5894476,18.6683165 19.3891964,18.6683165 19.1889451,18.7728593 C19.6895733,18.8774021 20.0900758,18.8774021 20.4905782,18.9819449 C21.091332,18.6683165 21.2915832,18.8774021 22.0925882,18.6683165 C21.1914576,18.8774021 21.7922113,18.7728593 21.4918345,19.0864877 C21.9924626,18.9819449 21.5919601,19.1910305 21.6920857,19.1910305 C21.2915832,19.4001162 20.9912064,19.7137446 20.6908295,19.9228302 C20.1902014,20.2364587 19.0888195,22.327315 19.2890708,21.7000581 C18.8885683,22.0136865 18.688317,22.1182293 18.4880658,22.4318578 C18.1876889,22.1182293 18.0875633,23.1636575 18.0875633,23.0591147 C18.4880658,23.8954572 19.3891964,24.3136284 20.4905782,23.4772859 C20.6908295,23.7909144 20.3904526,23.6863716 20.290327,24 C20.7909551,23.6863716 21.2915832,23.3727431 21.6920857,22.9545719 L21.2915832,23.3727431 C22.1927138,22.850029 22.5932163,21.5955153 23.0938445,21.9091437 C23.7947238,20.9682584 24.3954776,20.7591728 24.9962313,19.9228302 C24.7959801,20.5500871 25.7972363,19.2955733 25.8973619,19.4001162 C25.9974875,18.9819449 26.7984925,18.354688 27.0988694,17.6228883 C27.0988694,17.7274311 27.0988694,17.7274311 26.9987438,17.8319739 C27.7997488,17.5183455 27.2991206,15.532032 28,16.2638317 C28,16.1592889 28,15.532032 27.8998744,15.6365748 Z" id="path-1"></path>
    </defs>
    <g id="Arrow/Vertical_scroll" stroke="none" stroke-width="1" fill="none" fill-rule="evenodd">
        <mask id="mask-2" fill="white">
            <use xlink:href="#path-1"></use>
        </mask>
        <g id="Path" fill-rule="nonzero" transform="translate(12.000000, 16.000000) rotate(90.000000) translate(-12.000000, -16.000000) "></g>
        <rect id="Rectangle" fill="#BED600" mask="url(#mask-2)" transform="translate(12.000000, 16.000000) rotate(90.000000) translate(-12.000000, -16.000000) " x="-4" y="4" width="32" height="24"></rect>
    </g>
</svg>