<?xml version="1.0" encoding="UTF-8"?>
<svg width="24px" height="24px" viewBox="0 0 24 24" version="1.1" xmlns="http://www.w3.org/2000/svg" xmlns:xlink="http://www.w3.org/1999/xlink">
    <title>F0DE357A-4B18-4004-B346-FEECD3958532</title>
    <defs>
        <rect id="path-1" x="0" y="0" width="1000" height="280" rx="12"></rect>
        <filter x="-5.2%" y="-15.7%" width="110.4%" height="137.1%" filterUnits="objectBoundingBox" id="filter-2">
            <feMorphology radius="4" operator="dilate" in="SourceAlpha" result="shadowSpreadOuter1"></feMorphology>
            <feOffset dx="0" dy="8" in="shadowSpreadOuter1" result="shadowOffsetOuter1"></feOffset>
            <feGaussianBlur stdDeviation="12" in="shadowOffsetOuter1" result="shadowBlurOuter1"></feGaussianBlur>
            <feColorMatrix values="0 0 0 0 0   0 0 0 0 0   0 0 0 0 0  0 0 0 0.16 0" type="matrix" in="shadowBlurOuter1"></feColorMatrix>
        </filter>
        <path d="M6.26017635,8.52864288 C6.95291369,8.21295173 4.67677672,10.8437113 5.56743901,10.6332505 C4.57781425,10.8437113 5.27055158,10.7384809 4.87470168,11.054172 C5.36951406,10.9489417 4.97366415,11.1594024 5.07262663,11.1594024 C4.67677672,11.3698632 4.28092682,11.6855543 3.98403939,11.8960151 C3.489227,12.2117062 2.30167728,14.3163139 2.49960223,13.6849316 C2.10375233,14.0006227 1.8068649,14.1058531 1.60893994,14.4215443 C1.31205251,14.1058531 1.21309004,15.1581569 1.21309004,15.0529266 C1.60893994,15.8947696 2.59856471,16.3156911 3.78611443,15.4738481 C3.98403939,15.7895392 3.68715196,15.6843089 3.58818948,16 C4.08300186,15.6843089 4.67677672,15.3686177 5.07262663,14.9476962 L4.67677672,15.3686177 C5.66640149,14.8424658 6.0622514,13.5797012 6.65602626,13.8953924 C7.44772607,12.9483189 8.04150093,12.7378582 8.73423827,11.8960151 C8.53631331,12.5273974 9.62490056,11.2646328 9.72386304,11.3698632 C9.82282551,10.9489417 10.7134878,10.3175594 11.0103752,9.5809467 C11.0103752,9.68617708 11.0103752,9.68617708 10.9114128,9.79140746 C11.802075,9.47571632 11.2083002,7.47633906 12,8.21295173 C12,8.10772135 12,7.47633906 11.9010375,7.58156944 C12.2968874,7.05541753 10.9114128,5.05604027 11.7031126,5.68742256 C10.5155628,4.74034913 9.32801313,3.89850607 8.04150093,3.1618934 C8.14046341,3.79327569 7.05187616,3.05666301 7.7446135,3.26712378 C7.24980112,3.05666301 7.64565102,3.1618934 7.84357598,3.1618934 C7.64565102,3.1618934 7.34876359,3.1618934 7.24980112,3.05666301 C7.05187616,2.10958958 4.47885177,1.3729769 3.29130205,0.636364227 L3.58818948,0.636364227 C3.19233957,0.425903463 2.69752719,0.215442699 2.2027148,0.00498193535 C0.5203527,-0.100248447 -0.469272067,1.47820728 0.22346527,3.1618934 C0.22346527,3.26712378 0.124502793,3.26712378 0.124502793,3.26712378 C0.22346527,3.37235416 0.322427746,3.37235416 0.421390223,3.47758454 C1.01516508,4.3194276 2.00478985,5.16127065 3.78611443,5.68742256 C5.46847654,6.21357447 8.04150093,8.10772135 6.55706378,8.21295173 L6.26017635,8.52864288 Z" id="path-3"></path>
    </defs>
    <g id="Nuovi-moduli" stroke="none" stroke-width="1" fill="none" fill-rule="evenodd">
        <g id="Desktop---Calendario-v2" transform="translate(-575.000000, -1251.000000)">
            <rect id="Rectangle-Copy-14" fill="#003478" x="0" y="441" width="1440" height="1934"></rect>
            <g id="Rectangle-Copy-60" transform="translate(220.000000, 1062.000000)">
                <use fill="black" fill-opacity="1" filter="url(#filter-2)" xlink:href="#path-1"></use>
                <use fill="#FFFFFF" fill-rule="evenodd" xlink:href="#path-1"></use>
            </g>
            <g id="Button/2nd/white" transform="translate(408.000000, 1251.000000)">
                <g id="Button/arrow/internal_page" transform="translate(173.000000, 3.995266)">
                    <mask id="mask-4" fill="white">
                        <use xlink:href="#path-3"></use>
                    </mask>
                    <use id="Path" fill="#1D1D1B" fill-rule="nonzero" xlink:href="#path-3"></use>
                    <rect id="Rectangle" fill="#003478" mask="url(#mask-4)" x="-6" y="-3.99526569" width="24" height="24"></rect>
                </g>
            </g>
        </g>
    </g>
</svg>