<?xml version="1.0" encoding="UTF-8"?>
<svg width="40px" height="40px" viewBox="0 0 40 40" version="1.1" xmlns="http://www.w3.org/2000/svg" xmlns:xlink="http://www.w3.org/1999/xlink">
    <title>2A64EFD3-1F8C-4C9D-B019-46625A6DABF4</title>
    <defs>
        <path d="M36,3.78822617 C34.6772318,4.43076934 33.2530372,4.86529411 31.7591123,5.0594437 C33.284733,4.06096056 34.4553615,2.47771745 35.0068672,0.591693565 C33.5784472,1.51621511 32,2.18880467 30.313788,2.54936785 C28.9698892,0.979992742 27.049128,0 24.9234022,0 C20.8473323,0 17.540412,3.61719018 17.540412,8.07800592 C17.540412,8.71130348 17.6038035,9.32610984 17.7305865,9.91780341 C11.5921815,9.58035303 6.151083,6.36764122 2.50607475,1.47461191 C1.87004775,2.67186704 1.506603,4.06096056 1.506603,5.54019487 C1.506603,8.3414947 2.81035425,10.8145898 4.79239275,12.2637769 C3.5837295,12.2244849 2.44268325,11.8569873 1.445325,11.2560481 L1.445325,11.3554345 C1.445325,15.2707831 3.991548,18.5366549 7.372425,19.2762717 C6.7533015,19.4657988 6.1003695,19.560562 5.42630775,19.560562 C4.9508715,19.560562 4.48600125,19.5120252 4.03592175,19.4172612 C4.97622825,22.6253507 7.7020605,24.9620785 10.935024,25.0244841 C8.407818,27.1924864 5.22134175,28.4845055 1.76228175,28.4845055 C1.16640225,28.4845055 0.57686175,28.4475247 0,28.3735631 C3.2688855,30.6617534 7.1526675,32 11.3217113,32 C24.9086107,32 32.3359748,19.6923068 32.3359748,9.01639546 C32.3359748,8.66507708 32.3296357,8.3137587 32.316957,7.96937472 C33.7601692,6.82990199 35.0132063,5.40845008 36,3.78822617" id="path-1"></path>
    </defs>
    <g id="Pagine-UI" stroke="none" stroke-width="1" fill="none" fill-rule="evenodd">
        <g id="Pagina--dettaglio-evento" transform="translate(-670.000000, -565.000000)">
            <g id="Group-5" transform="translate(0.000000, 530.000000)">
                <rect id="Rectangle" x="0" y="0" width="1440" height="110"></rect>
                <g id="Icon/Social/Facebook-Copy-5" transform="translate(672.000000, 39.000000)">
                    <mask id="mask-2" fill="white">
                        <use xlink:href="#path-1"></use>
                    </mask>
                    <use id="Path" xlink:href="#path-1"></use>
                    <rect id="Rectangle" fill="#003478" mask="url(#mask-2)" x="-2" y="-4" width="40" height="40"></rect>
                </g>
            </g>
        </g>
    </g>
</svg>