<?xml version="1.0" encoding="UTF-8"?>
<svg width="163px" height="162px" viewBox="0 0 163 162" version="1.1" xmlns="http://www.w3.org/2000/svg" xmlns:xlink="http://www.w3.org/1999/xlink">
    <title>26703DD5-DD0D-4E73-848B-8F29D1624FA8</title>
    <defs>
        <filter id="filter-1">
            <feColorMatrix in="SourceGraphic" type="matrix" values="0 0 0 0 0.745098 0 0 0 0 0.839216 0 0 0 0 0.000000 0 0 0 1.000000 0"></feColorMatrix>
        </filter>
    </defs>
    <g id="Design2" stroke="none" stroke-width="1" fill="none" fill-rule="evenodd">
        <g id="Homepage_sostenibilità" transform="translate(-268.000000, -1849.000000)">
            <g id="balloon" transform="translate(220.000000, 1728.000000)" filter="url(#filter-1)">
                <g transform="translate(129.368592, 201.869516) rotate(25.000000) translate(-129.368592, -201.869516) translate(68.368592, 141.869516)">
                    <g id="Слой_20uo_QeNPq_eNUxScWUhPA" transform="translate(0.462932, 0.109569)" fill="#66C3D2" fill-rule="nonzero">
                        <g id="Слой_1-20uo_QeNPq_eNUxScWUhPA">
                            <path d="M0.602931624,52.1662936 C0.913188034,54.2338002 2.36105128,59.9194434 2.67130769,60.9531968 C3.35878591,62.8237221 4.22459277,64.6238434 5.25677778,66.328714 C4.63626496,64.6747087 6.08412821,67.4658426 5.46361538,66.7422153 C7.11831624,69.4299739 9.29011111,73.2548612 11.5653248,75.2189925 L11.461906,75.1156172 C16.0304332,79.6774312 21.2176194,83.5748852 26.8713077,86.6936543 L26.7678889,86.590279 C27.1697968,86.7523903 27.5515475,86.9605304 27.9054957,87.210531 C32.1456667,88.7611609 40.936265,93.3096755 47.5550684,94.0333029 L46.8311368,94.0333029 C52.1054957,93.7231769 52.1054957,97.8581901 53.3465214,101.889828 C53.201148,101.706848 53.0954864,101.495614 53.036265,101.269576 C53.4499402,103.337083 54.8978034,106.645093 54.7943846,107.16197 C55.0012222,107.885597 55.5183162,109.436227 55.5183162,108.919351 C56.2422479,110.986857 56.9661795,113.984742 57.7935299,115.638747 C57.5866923,116.46575 58.8277179,119.153508 60.2755812,118.843382 C59.861906,119.050133 61.5166068,118.843382 60.896094,118.946758 C61.7234444,118.946758 62.6542137,117.396128 62.3439573,116.982626 C63.7918205,111.710485 64.6191709,107.678847 65.653359,102.820206 C64.7225897,109.126101 65.8601966,101.476327 66.5841282,98.7885681 C66.7909658,98.0649408 66.5841282,99.2020694 66.5841282,99.4088201 C66.5841282,95.5839328 69.1695983,97.5480641 71.7550684,97.2379381 L71.2379744,97.2379381 C72.2721624,97.1345628 71.444812,97.1345628 73.9268632,96.9278121 C73.0995128,97.2379381 76.4089145,96.9278121 75.0644701,97.3413135 C75.3747265,97.3413135 75.7884017,97.2379381 75.6849829,97.1345628 C76.2020769,97.1345628 76.3054957,97.1345628 75.7884017,97.2379381 C77.0294274,97.2379381 79.0978034,96.6176861 78.0636154,97.0311875 C78.8909658,96.8244368 79.7183162,96.7210615 81.0627607,96.5143108 C80.9593419,96.5143108 81.1661795,96.6176861 80.7525043,96.6176861 C83.1311368,96.2041848 84.6824188,95.5839328 87.0610513,94.9636808 C86.6473761,95.3771822 89.1294274,94.6535548 89.4396838,94.4468042 L88.9225897,94.5501795 C90.0601966,94.1366782 90.9909658,93.7231769 92.0251538,93.3096755 L91.1978034,93.7231769 L93.2661795,92.7927989 L92.0251538,93.2063002 C93.1627607,92.6894235 91.8183162,92.9995495 93.2661795,92.4826729 C93.2661795,92.5860482 94.7140427,91.7590456 94.9208803,91.7590456 C96.3687436,90.8286676 98.1268632,90.3117909 99.8849829,88.9679116 C99.2644701,89.6915389 100.919171,88.0375336 100.712333,88.5544103 C102.160197,87.6240323 100.091821,88.6577856 101.84994,87.6240323 C101.746521,87.7274076 101.84994,87.7274076 101.539684,87.9341583 C106.296949,84.5227723 106.607205,84.3160217 111.054214,79.3540058 L110.743957,79.7675071 C110.743957,79.3540058 112.088402,78.3202525 112.708915,77.2864991 C112.915752,77.5966251 114.880709,74.0818639 115.811479,72.2211079 L115.70806,72.5312339 C116.225154,71.6008559 117.673017,69.1198479 117.569598,68.499596 C119.224299,65.6050867 119.534556,62.2970761 120.258487,59.1958161 C120.155068,61.4700734 120.465325,57.3350601 120.568744,57.2316848 C120.465325,57.4384355 120.465325,57.5418108 120.258487,58.0586875 C120.252218,57.4712072 120.286774,56.8840009 120.361906,56.3013068 C120.258487,57.4384355 120.568744,56.3013068 120.672162,55.7844302 C120.672162,54.5439262 120.568744,55.4743042 120.568744,53.6135482 L120.672162,53.7169235 C120.672162,52.9932962 120.465325,50.5122883 120.775581,52.4764196 C120.672162,51.4426662 120.465325,50.4089129 120.465325,49.4785349 C120.465325,49.8920363 120.568744,50.5122883 120.568744,51.0291649 C120.672195,50.0670992 120.672195,49.0967213 120.568744,48.1346556 L120.568744,48.7549076 C120.568744,48.4447816 120.465325,47.307653 120.465325,47.307653 L120.465325,47.7211543 C119.948231,46.4806503 120.05165,45.0333957 119.431137,43.3793904 C120.05165,45.0333957 119.637974,43.586141 119.844812,43.6895164 C119.855507,43.376024 119.820671,43.0626379 119.741393,42.7591384 C119.404826,41.7075346 119.128593,40.6375821 118.914043,39.5545031 C118.500368,39.7612538 117.879855,36.0397418 116.638829,33.7654845 C116.018316,32.6283559 113.846521,29.21697 114.673872,30.2507233 C114.287987,29.3914934 113.838595,28.5621955 113.329427,27.7697153 C113.639684,27.4595893 112.708915,27.046088 112.398658,26.2190853 C112.587221,26.412186 112.795153,26.5853895 113.019171,26.735962 C112.605496,26.2190853 110.330282,23.2212007 111.881564,25.185332 C111.283306,24.2864331 110.58984,23.4546243 109.813188,22.7043241 L110.226863,23.3245761 C110.226863,22.7043241 111.984983,25.7022087 110.743957,23.9448281 C111.440906,25.1784976 112.236368,26.3539037 113.12259,27.4595893 C110.743957,24.56508 108.882419,21.1536941 106.090111,18.5693108 C106.400368,18.4659355 106.710624,18.9828121 107.124299,19.0861875 L106.503786,18.4659355 C106.607205,17.8456835 104.43541,16.5018042 104.021735,15.8815522 L104.952504,16.8119302 C103.912554,15.6271669 102.690746,14.6152372 101.332846,13.8140456 C101.126009,13.4005442 99.6781453,12.3667909 100.712333,13.0904182 C98.3337009,11.5397883 97.0926752,10.2992843 94.8174615,9.16215564 C96.0584872,9.57565696 92.5422479,7.81827633 92.9559231,7.71490099 C91.7148974,7.404775 89.5431026,5.95752036 88.0952393,5.64739436 C88.1986581,5.64739436 88.4054957,5.75076969 88.5089145,5.75076969 C87.5781453,4.92376704 83.0277179,4.51026572 84.9926752,4.09676439 C84.9926752,4.30351505 83.0277179,3.57988773 83.3379744,3.89001373 C81.9193398,3.29471771 80.4693303,2.77707485 78.9943846,2.33938375 C78.3738718,2.13263309 79.6148974,2.33938375 79.6148974,2.33938375 C77.3396838,1.92588243 75.9952393,1.5123811 74.5473761,1.30563044 C73.0995128,1.09887977 71.0311368,0.892129111 69.5832735,0.685378448 C70.4106239,1.30563044 68.1354103,0.78875378 68.3422479,0.78875378 C68.7559231,0.892129111 68.7559231,0.78875378 68.9627607,0.78875378 C67.6183162,0.685378448 68.3422479,0.78875378 69.1695983,0.685378448 C67.8251538,0.582003117 66.2738718,0.685378448 65.2396838,0.478627785 C65.0328462,0.271877122 67.6183162,0.582003117 66.2738718,0.375252454 L67.8251538,0.582003117 C65.9636154,-0.348374867 60.0687436,0.0651264589 56.2422479,0.271877122 L56.7593419,0.0651264589 C54.6909658,0.0651264589 55.621735,0.375252454 53.553359,0.375252454 C56.4490855,-0.141624204 47.6584872,0.892129111 45.9003675,1.40900577 C44.1422479,1.40900577 37.7302821,3.16638641 35.661906,3.99338906 C34.5242991,4.30351505 35.661906,4.09676439 35.144812,4.30351505 C34.5242991,4.51026572 34.3174615,4.51026572 34.7311368,4.30351505 C32.8695983,5.13051771 29.5601966,6.68114768 27.6986581,7.50815033 L28.0089145,7.30139967 C26.5610513,8.02502699 26.5610513,8.43852832 25.113188,9.05878031 L25.3200256,8.85202964 C18.5372001,12.6585623 12.6204749,17.8335207 7.94566667,24.0482034 C8.9798547,23.0144501 5.04994017,28.1832166 4.94652137,29.1135946 C4.99373594,28.8667015 5.06295784,28.6245266 5.15335897,28.3899673 C4.63626496,29.527096 4.94652137,28.3899673 4.32600855,29.7338466 C4.22258974,30.3540986 3.08498291,32.2148546 2.67130769,33.5587339 L2.67130769,33.2486079 C1.79861969,35.7023534 1.14115505,38.2273399 0.706350427,40.7950071 C1.01660684,39.4511278 1.12002564,40.6916318 0.706350427,41.2085084 C0.706350427,41.7253851 0.913188034,40.3815058 0.809769231,41.4152591 C0.706350427,42.3456371 0.602931624,42.1388864 0.499512821,41.5186344 C0.499512821,41.6220097 0.396094017,43.4827657 0.292675214,42.4490124 C-0.178129917,45.6810424 -0.0730919367,48.9708491 0.602931624,52.1662936 Z M107.434556,25.805584 C106.19353,24.3583294 108.365325,26.5292113 108.572162,26.8393373 C107.848231,26.425836 109.813188,28.7000933 108.779,27.976466 C108.985838,28.1832166 109.192675,28.4933426 109.192675,28.3899673 C109.399513,28.8034686 109.399513,28.906844 109.192675,28.596718 C109.720057,29.2534603 110.203719,29.9441155 110.640538,30.6642246 L110.330282,30.3540986 C110.930342,31.0307618 111.419053,31.7984139 111.778145,32.6283559 C111.674726,32.5249806 111.778145,32.7317312 111.571308,32.4216052 C112.611003,34.1381184 113.510225,35.9358083 114.260197,37.7971225 C113.846521,37.3836212 114.570453,39.5545031 114.777291,39.8646291 L114.673872,39.3477525 C115.109566,40.2776579 115.455853,41.2468525 115.70806,42.2422617 L115.397803,41.4152591 L115.914897,43.3793904 L115.70806,42.2422617 C116.121735,43.2760151 115.914897,42.0355111 116.225154,43.4827657 C116.638829,45.136771 116.845667,48.0312803 117.155923,50.2021623 C116.638829,49.4785349 117.466179,51.3392909 117.052504,51.0291649 C117.052504,52.5797949 117.362761,50.5122883 117.259342,52.3730442 L117.259342,51.9595429 C117.155923,57.3350601 117.155923,57.7485615 115.70806,63.6409554 L115.811479,63.227454 C115.914897,63.6409554 115.190966,64.8814594 114.880709,66.018588 C114.570453,65.708462 113.639684,69.3265986 112.605496,70.9806039 L112.708915,70.6704779 C112.398658,71.4974806 110.743957,73.7717379 110.640538,74.1852392 C108.675581,76.4594965 107.124299,78.9405044 104.745667,80.9046357 C106.090111,79.4573811 103.401222,82.1451397 103.297803,82.1451397 C103.504641,82.1451397 103.60806,82.0417644 104.021735,81.7316384 C103.669627,82.1368293 103.28949,82.5168066 102.884128,82.868767 C103.60806,82.1451397 102.780709,82.7653917 102.367034,82.9721424 C101.436265,83.6957697 102.263615,83.2822684 100.919171,84.3160217 L100.919171,84.2126464 C100.402077,84.6261477 98.6439573,86.280153 99.8849829,84.8328983 C99.2235654,85.506512 98.4546701,86.0654735 97.6097692,86.4869036 C97.9200256,86.280153 98.4371197,85.8666517 98.7473761,85.659901 C98.1757936,85.8935943 97.6226579,86.1700459 97.0926752,86.4869036 L97.196094,86.4869036 L95.7482308,87.3139063 L96.161906,87.1071556 C95.3345556,88.0375336 93.9901111,88.3476596 92.6456667,89.2780376 C93.9901111,88.3476596 92.8525043,89.0712869 92.8525043,88.8645363 C92.4388291,89.0712869 91.8183162,89.2780376 92.0251538,89.0712869 C91.404641,89.2780376 90.0601966,90.2084156 89.2328462,90.2084156 C88.7157521,90.9320429 82.6140427,92.2759222 79.9251538,93.1029249 C79.304641,93.1029249 80.3388291,92.8961742 80.3388291,92.8961742 C79.4080598,92.9995495 78.6841282,93.1029249 77.753359,93.2063002 C77.6499402,92.7927989 76.7191709,93.4130509 75.9952393,93.3096755 C76.2149426,93.18013 76.4641625,93.1089543 76.7191709,93.1029249 C76.0986581,93.2063002 72.7892564,93.6198015 74.9610513,93.2063002 C73.9268632,93.3096755 72.3755812,93.3096755 72.0653248,93.4130509 L72.6858376,93.5164262 C71.961906,93.3096755 74.4439573,93.4130509 74.1337009,93.5164262 L73.513188,93.5164262 C74.1337009,93.9299275 76.0986581,93.4130509 77.3396838,93.3096755 C73.9268632,94.0333029 70.3072051,93.5164262 66.8943846,93.2063002 C67.204641,92.8961742 67.5148974,93.2063002 67.9285726,92.9995495 L67.1012222,92.9995495 C67.0454847,92.9433484 66.9728069,92.9070248 66.8943846,92.8961742 C66.0670342,91.8624209 64.1020769,92.4826729 63.6884017,93.7231769 C63.5849829,93.5164262 64.7225897,92.3792975 64.8260085,92.4826729 C62.8610513,93.5164262 63.7918205,95.4805575 62.9644701,96.3075601 C62.8610513,96.9278121 63.2747265,95.7906835 63.1713077,96.8244368 C62.9644701,97.1345628 62.5507949,98.7885681 62.7576325,97.6514395 C62.4473761,98.9953188 62.1371197,101.476327 61.6200256,102.199954 C61.586137,102.829807 61.482075,103.453917 61.3097692,104.06071 C61.3097692,102.820206 60.6892564,106.438343 60.4824188,106.024841 C60.4022955,107.03786 60.2292029,108.041375 59.9653248,109.022726 L59.9653248,108.195723 C59.861906,108.7126 59.5516496,108.299099 59.344812,107.678847 C59.2413932,106.541718 59.7584872,108.195723 59.861906,107.885597 C59.7584872,107.988973 59.1379744,106.128217 59.1379744,106.541718 C58.9311368,104.887713 58.4140427,104.164085 58.1037863,102.406705 C58.0003675,101.786453 58.4140427,102.923581 58.4140427,102.923581 C57.8158073,101.411295 57.3318301,99.8563075 56.9661795,98.2716914 C56.4062845,96.8513394 55.9229699,95.4020049 55.5183162,93.9299275 C55.3114786,94.7569302 54.8978034,92.6894235 54.8978034,92.7927989 C55.0012222,93.1029249 55.104641,93.2063002 55.104641,93.3096755 C54.6909658,92.0691716 55.0012222,92.7927989 55.3114786,93.4130509 C54.8978034,92.3792975 54.587547,90.7252922 53.2431026,90.7252922 C53.036265,90.7252922 52.7260085,90.7252922 53.1396838,90.6219169 C53.4499402,90.4151662 55.0012222,91.4489196 54.070453,90.7252922 C54.5326735,91.1343443 54.8576577,91.6757569 55.0012222,92.2759222 L55.0012222,91.8624209 C55.8285726,92.6894235 54.1738718,89.5881636 52.9328462,90.2084156 C49.6234444,89.6915389 48.1755812,89.3814129 44.6593419,88.6577856 L45.1764359,88.5544103 C43.4183162,88.0375336 44.0388291,88.5544103 42.2807094,87.9341583 C44.9695983,88.4510349 37.1097692,86.3835283 35.4550684,85.5565257 C34.0072051,84.5227723 28.4225897,82.4552657 26.7678889,81.1113864 C25.9405385,80.4911344 26.6644701,81.2147617 26.2507949,81.0080111 C25.7337009,80.6978851 25.6302821,80.4911344 25.9405385,80.6978851 C23.8055252,79.6080209 21.7944457,78.290971 19.9422479,76.7696225 L20.2525043,76.9763731 C19.1148974,75.9426198 18.804641,76.1493705 17.770453,75.1156172 L17.9772906,75.2189925 C12.8614476,70.7018731 9.01183006,64.929874 6.80805983,58.4721888 L6.49780342,57.7485615 C6.80805983,59.5059421 5.56703419,54.9574275 5.8772906,55.3709288 C5.77387179,55.3709288 4.73968376,50.9257896 5.36019658,53.0966716 C5.04994017,52.0629182 5.56703419,52.9932962 5.15335897,51.6494169 C4.84310256,51.2359156 5.04994017,49.168409 4.73968376,47.927905 L4.84310256,48.1346556 C4.66815214,45.7835152 4.80726704,43.419556 5.25677778,41.1051331 C5.04994017,42.3456371 4.84310256,41.2085084 5.25677778,40.7950071 C5.25677778,40.2781304 5.04994017,41.5186344 5.15335897,40.5882564 C5.36019658,39.6578784 5.46361538,39.9680044 5.36019658,40.5882564 C5.46361538,40.4848811 5.36019658,38.7275005 5.56703419,39.7612538 C6.49780342,35.0059885 10.0140427,27.976466 12.496094,25.185332 C13.8405385,23.5313267 14.1507949,23.0144501 16.0123333,20.9469434 C14.8747265,21.7739461 16.4260085,20.2233161 16.4260085,20.4300668 L16.3225897,20.5334421 C23.4584872,13.9174209 29.4567778,9.88578296 39.2815641,7.09464901 L39.0747265,7.09464901 C39.4263915,6.90863715 39.8148839,6.80272923 40.2123333,6.78452301 C44.1422479,5.02714237 53.1396838,4.40689038 59.0345556,3.89001373 L58.3106239,4.09676439 C62.2136695,3.90528432 66.1260757,4.07832686 69.9969487,4.61364105 C69.7901111,4.61364105 69.7901111,4.71701638 69.3764359,4.61364105 C70.6174615,4.92376704 75.4781453,5.4406437 74.8576325,5.64739436 C75.3747265,5.64739436 77.236265,6.26764635 76.7191709,5.95752036 C78.6841282,6.47439702 81.2695983,7.30139967 83.0277179,7.71490099 C82.8208803,7.92165166 85.3029316,8.85202964 86.1302821,9.05878031 C85.8200256,8.95540497 86.8542137,9.47228163 86.4405385,9.3689063 C87.3713077,9.78240763 88.1986581,10.195909 88.0952393,9.98915829 C92.1172434,12.0369624 95.957597,14.4232058 99.5747265,17.1220562 C94.5072051,13.8140456 100.608915,17.7423082 102.263615,19.7064395 C102.677291,20.2233161 101.953359,19.4996888 101.746521,19.3963135 C103.561042,21.033808 105.222604,22.8330775 106.710624,24.7718307 L106.400368,24.4617047 C107.02088,25.3920827 107.331137,26.0123347 107.434556,25.805584 Z M107.537974,78.9405044 L106.917462,79.5607564 C106.917462,79.4573811 107.02088,79.3540058 107.434556,78.8371291 C107.434556,78.8942217 107.480858,78.9405044 107.537974,78.9405044 L107.537974,78.9405044 Z M87.1644701,91.8624209 L87.1644701,91.8624209 C87.2428924,91.8515703 87.3155702,91.8152467 87.3713077,91.7590456 C87.3713077,91.8624209 87.2678889,91.8624209 87.1644701,91.8624209 L87.1644701,91.8624209 Z M84.2687436,92.6894235 C84.6114255,92.481638 85.0055813,92.3741862 85.4063504,92.3792975 C85.0595613,92.5773515 84.6681085,92.6840665 84.2687436,92.6894235 L84.2687436,92.6894235 Z M78.3738718,93.8265522 C77.8958642,93.9088347 77.4108632,93.9434631 76.9260085,93.9299275 C77.0294274,93.9299275 78.4772906,93.5164262 78.3738718,93.8265522 L78.3738718,93.8265522 Z M33.0764359,85.349775 C33.1798547,85.4531503 34.7311368,85.970027 33.8003675,85.7632763 C34.0072051,85.7632763 33.3866923,85.5565257 33.0764359,85.349775 L33.0764359,85.349775 Z M35.4550684,86.3835283 L35.4550684,86.3835283 C35.6501092,86.4837642 35.8593818,86.5534924 36.0755812,86.590279 C35.9721624,86.4869036 35.7653248,86.4869036 35.4550684,86.3835283 L35.4550684,86.3835283 Z M119.431137,63.3308294 C119.414351,63.0511475 119.449413,62.7707729 119.534556,62.5038267 C119.534913,62.7827385 119.500168,63.0605875 119.431137,63.3308294 L119.431137,63.3308294 Z M117.052504,35.3161145 L117.052504,35.6262405 C116.8968,35.2890476 116.758722,34.9439984 116.638829,34.5924872 C116.806533,34.8154021 116.945516,35.0585199 117.052504,35.3161145 L117.052504,35.3161145 Z M113.329427,27.976466 C114.260197,29.3203453 113.432846,28.596718 113.12259,27.7697153 C113.12259,27.8730906 113.226009,27.8730906 113.329427,27.976466 L113.329427,27.976466 Z M46.7277179,1.71913176 C46.4904532,1.77760037 46.2479386,1.81223075 46.0037863,1.8225071 L46.0037863,1.8225071 C46.2470231,1.80322348 46.488809,1.76869715 46.7277179,1.71913176 L46.7277179,1.71913176 Z M44.4525043,2.23600842 C44.5559231,2.23600842 44.4525043,2.33938375 44.1422479,2.44275908 C44.2456667,2.33938375 43.6251538,2.44275908 43.2114786,2.54613442 C43.6115522,2.39445905 44.0280915,2.290368 44.4525043,2.23600842 L44.4525043,2.23600842 Z" id="Shape"></path>
                        </g>
                    </g>
                </g>
            </g>
        </g>
    </g>
</svg>