<?xml version="1.0" encoding="UTF-8"?>
<svg width="136px" height="76px" viewBox="0 0 136 76" version="1.1" xmlns="http://www.w3.org/2000/svg" xmlns:xlink="http://www.w3.org/1999/xlink">
    <title>C5B26928-97B5-4CB6-B312-050164E223DF</title>
    <defs>
        <filter id="filter-1">
            <feColorMatrix in="SourceGraphic" type="matrix" values="0 0 0 0 0.745098 0 0 0 0 0.839216 0 0 0 0 0.000000 0 0 0 1.000000 0"></feColorMatrix>
        </filter>
    </defs>
    <g id="Guida-desktop" stroke="none" stroke-width="1" fill="none" fill-rule="evenodd">
        <g id="Lanci_img" transform="translate(-180.000000, -238.000000)">
            <g id="Desktop/Featured_content" transform="translate(116.000000, 192.000000)">
                <g id="arrow_4" transform="translate(64.000000, 46.000000)" filter="url(#filter-1)">
                    <g transform="translate(68.000000, 38.000000) rotate(-16.000000) translate(-68.000000, -38.000000) translate(4.000000, 17.000000)">
                        <g id="Слой_2rXCO5sXBDvBfOr4AdY2rI" transform="translate(0.169533, 0.331841)" fill="#BED600" fill-rule="nonzero">
                            <g id="Слой_1-2rXCO5sXBDvBfOr4AdY2rI">
                                <path d="M125.673443,38.1794872 C125.673443,37.8410256 126.23082,38.1794872 126.565246,38.0666667 C126.565246,38.0666667 125.896393,37.6153846 125.896393,37.7282051 C125.673443,37.1641026 123.889836,36.9384615 123.332459,36.6 L124.335738,36.9384615 C122.775082,36.1487179 119.65377,35.9230769 119.988197,35.5846154 C117.870164,35.1333333 116.532459,34.4564103 114.748852,34.0051282 C115.752131,34.0051282 112.742295,33.3282051 113.188197,33.1025641 C112.407869,33.1025641 110.624262,32.425641 109.286557,32.2 L109.620984,32.2 C108.952131,31.6358974 105.273443,31.6358974 106.834098,31.0717949 C106.834098,31.2974359 105.273443,30.7333333 105.496393,30.9589744 C104.827541,30.5076923 101.371803,29.6051282 102.598033,29.7179487 C101.254186,29.5813961 99.9386321,29.2390291 98.6963934,28.7025641 C97.0242623,28.1384615 95.1291803,28.025641 94.0144262,27.6871795 C94.3488525,27.8 94.3488525,27.6871795 94.4603279,27.6871795 C93.3455738,27.4615385 94.0144262,27.4615385 94.6832787,27.574359 C93.68,27.3487179 92.4537705,27.1230769 91.784918,26.8974359 C91.6734426,26.6717949 93.5685246,27.3487179 92.5652459,26.8974359 L93.68,27.3487179 C93.2340984,25.9948718 85.9881967,25.6564103 85.5422951,24.5282051 C84.0931148,24.0769231 84.6504918,24.5282051 83.0898361,23.9641026 C85.4308197,24.5282051 78.8537705,22.6102564 77.2931148,22.2717949 C76.1783607,21.3692308 70.9390164,20.2410256 69.4898361,19.5641026 C68.8209836,19.3384615 68.5980328,19.5641026 68.7095082,19.3384615 C66.7506801,18.9175477 64.8156437,18.3902901 62.9127869,17.7589744 L63.2472131,17.7589744 C62.0209836,17.3076923 61.7980328,17.6461538 60.6832787,17.1948718 L60.9062295,17.1948718 C54.5521311,15.1641026 49.6472131,13.8102564 43.8504918,12.0051282 C44.4078689,12.4564103 40.3947541,10.7641026 39.3914754,10.7641026 C39.655832,10.7598882 39.9191869,10.7979643 40.1718033,10.8769231 C38.8340984,10.6512821 39.9488525,10.6512821 38.722623,10.425641 C36.2701639,9.97435897 33.3718033,8.62051282 30.1390164,7.94358974 C31.1422951,8.28205128 30.027541,8.39487179 29.8045902,7.94358974 C29.3586885,7.94358974 30.3619672,8.16923077 29.5816393,8.05641026 C28.8013115,7.83076923 29.1357377,7.71794872 29.5816393,7.83076923 C26.1259016,6.25128205 18.88,5.12307692 15.5357377,3.76923077 L11.0767213,2.64102564 C12.1914754,3.20512821 10.0734426,2.41538462 10.7422951,2.52820513 C8.17836066,2.07692308 5.16852459,0.497435897 3.0504918,0.271794872 L3.16196721,0.271794872 C-0.182295082,0.497435897 0.258430992,4.46420319 0.263606557,4.44615385 C1.09612263,4.35562109 1.93789663,4.47179352 2.71606557,4.78461538 L2.15868852,4.78461538 C5.39147541,5.46153846 8.6242623,6.58974359 11.7455738,7.26666667 L11.1881967,7.26666667 C13.1947541,7.94358974 14.532459,8.05641026 15.9816393,8.62051282 L15.6472131,8.62051282 C16.0931148,8.73333333 17.6537705,9.18461538 17.2078689,8.95897436 C18.956216,9.54259215 20.74466,9.99509815 22.5586885,10.3128205 C22.4472131,10.5384615 24.5652459,11.1025641 25.3455738,11.2153846 C25.122623,11.2153846 26.0144262,11.4410256 25.68,11.4410256 C26.4603279,11.6666667 27.2406557,11.8923077 27.1291803,11.6666667 C35.7127869,14.6 37.4963934,13.9230769 40.5062295,15.5025641 C42.6242623,16.0666667 44.5193443,16.7435897 46.5259016,17.0820513 L46.08,17.0820513 C47.3062295,17.3076923 46.1914754,16.7435897 48.3095082,17.0820513 C47.6406557,17.1948718 50.0931148,17.7589744 48.9783607,17.8717949 C49.3127869,17.8717949 50.2045902,17.9846154 49.6472131,18.0974359 C50.984918,18.4358974 50.5390164,18.2102564 51.7652459,18.5487179 L51.3193443,18.5487179 C52.075796,18.6216606 52.8228689,18.7728781 53.5488525,19 C53.437377,19 53.5488525,19.1128205 53.3259016,19 C54.9825459,19.3203949 56.6200983,19.7347229 58.2308197,20.2410256 C57.6734426,20.3538462 59.68,20.8051282 59.9029508,20.9179487 L59.5685246,20.6923077 C60.4059645,20.8360184 61.227406,21.0627511 62.0209836,21.3692308 L61.3521311,21.2564103 L63.0242623,21.7076923 L62.132459,21.3692308 C63.0242623,21.4820513 62.132459,21.0307692 63.2472131,21.4820513 C63.0242623,21.4820513 64.1390164,21.7076923 64.584918,22.0461538 C65.922623,22.1589744 67.037377,23.0615385 68.7095082,23.174359 C67.9291803,23.2871795 69.7127869,23.4 69.2668852,23.5128205 C70.4931148,23.9641026 68.932459,23.174359 70.3816393,23.7384615 L70.0472131,23.7384615 C74.3947541,25.0923077 74.6177049,25.3179487 79.522623,26.5589744 C78.6308197,25.9948718 80.637377,26.8974359 81.5291803,27.2358974 C81.1947541,27.4615385 84.3160656,28.1384615 85.8767213,28.4769231 L85.6537705,28.4769231 C86.683992,28.9303533 87.7723416,29.2342104 88.8865574,29.3794872 C91.3390164,30.6205128 93.7914754,30.6205128 96.0209836,31.7487179 C94.1259016,31.1846154 99.1422951,32.7641026 97.0242623,31.8615385 C97.4744124,31.9081791 97.9212032,31.9835428 98.3619672,32.0871795 C97.4701639,32.2 99.3652459,32.425641 100.368525,32.6512821 L100.257049,32.6512821 C102.152131,33.1025641 101.148852,32.8769231 103.489836,33.5538462 C103.130906,33.4247723 102.755454,33.348776 102.375082,33.3282051 C102.760437,33.6385443 103.22371,33.8339038 103.712787,33.8923077 L105.050492,34.3435897 L104.716066,34.2307692 C105.83082,34.1179487 106.722623,34.7948718 108.171803,34.9076923 C106.388197,34.5692308 108.50623,35.3589744 108.394754,35.4717949 C110.066885,36.1487179 117.312787,38.0666667 118.316066,38.2923077 C119.00516,38.568958 119.71299,38.7951806 120.434098,38.9692308 C120.657049,39.5333333 121.214426,39.0820513 121.883279,39.4205128 L121.214426,39.4205128 C121.771803,39.5333333 124.447213,40.0974359 122.552131,39.8717949 C122.998033,40.2102564 126.23082,40.2102564 124.447213,40.0974359 C125.116066,40.5487179 122.10623,39.5333333 123.889836,39.8717949 C123.443934,39.4205128 121.771803,39.3076923 120.768525,38.9692308 C122.886557,39.1948718 129.686557,42.2410256 125.673443,38.1794872 Z M77.2931148,22.6102564 C77.4674405,22.6920577 77.6584888,22.7307284 77.8504918,22.7230769 C77.6584888,22.7307284 77.4674405,22.6920577 77.2931148,22.6102564 L77.2931148,22.6102564 Z M76.0668852,22.2717949 C76.1783607,22.3846154 76.0668852,22.3846154 75.8439344,22.2717949 C75.9554098,22.2717949 75.5095082,22.0461538 75.175082,21.9333333 C75.465145,22.064717 75.7629853,22.1777548 76.0668852,22.2717949 L76.0668852,22.2717949 Z M94.1259016,31.8615385 C94.1259016,31.6358974 94.5718033,31.974359 94.7947541,31.974359 C94.5684166,31.9614457 94.3441428,31.9236157 94.1259016,31.8615385 L94.1259016,31.8615385 Z M115.30623,38.5179487 L115.083279,38.2923077 C115.52918,38.4051282 116.420984,38.7435897 115.30623,38.5179487 Z M120.88,40.3230769 C120.434098,39.8717949 121.437377,40.3230769 121.771803,40.4358974 L120.88,40.3230769 Z" id="Shape"></path>
                            </g>
                        </g>
                    </g>
                </g>
            </g>
        </g>
    </g>
</svg>