<svg id="Livello_1" data-name="Livello 1" xmlns="http://www.w3.org/2000/svg" xmlns:xlink="http://www.w3.org/1999/xlink" viewBox="0 0 40 40"><defs><style>.cls-1{fill:#fff;fill-rule:evenodd;}.cls-2{mask:url(#mask);}.cls-3{fill:#1f3a6e;}</style><mask id="mask" x="0" y="0" width="40" height="40" maskUnits="userSpaceOnUse"><g transform="translate(-121.5 -263)"><g id="mask-2"><path id="path-1" class="cls-1" d="M158.7,299h-7.78V287.75c0-2.94-1.22-4.95-3.89-4.95a3.92,3.92,0,0,0-3.72,2.66,4.92,4.92,0,0,0-.17,1.78V299h-7.7s.1-19.93,0-21.74h7.7v3.41c.46-1.49,2.92-3.62,6.85-3.62,4.88,0,8.71,3.13,8.71,9.86V299Zm-31.06-24.46h0a3.79,3.79,0,0,1-4.09-3.77c0-2.14,1.66-3.77,4.19-3.77a3.81,3.81,0,0,1,4.14,3.77c0,2.1-1.61,3.77-4.19,3.77Zm-3.25,2.72h6.86V299h-6.86V277.26Z"/></g></g></mask></defs><title>linkedin-alpha</title><g class="cls-2"><rect id="Rectangle" class="cls-3" width="40" height="40"/></g></svg>