<?xml version="1.0" encoding="utf-8"?>
<!-- Generator: Adobe Illustrator 24.0.1, SVG Export Plug-In . SVG Version: 6.00 Build 0)  -->
<svg version="1.1" id="Livello_1" xmlns="http://www.w3.org/2000/svg" xmlns:xlink="http://www.w3.org/1999/xlink" x="0px" y="0px"
	 viewBox="0 0 80 80" style="enable-background:new 0 0 80 80;" xml:space="preserve">
<style type="text/css">
	.st0{filter:url(#filter-1);}
	.st1{fill:#FFFFFF;}
</style>
<filter  color-interpolation-filters="auto" id="filter-1">
	<feColorMatrix  in="SourceGraphic" type="matrix" values="0 0 0 0 1.000000 0 0 0 0 1.000000 0 0 0 0 1.000000 0 0 0 1.000000 0">
		</feColorMatrix>
</filter>
<title>181E64B3-A8B9-4DCD-9D33-90D5C002439A</title>
<g id="Nuovi-moduli">
	<g id="Desktop---Header-pagine-di-dettaglio" transform="translate(-470.000000, -3553.000000)">
		<g id="news" transform="translate(470.000000, 3544.000000)" class="st0">
			
				<g transform="translate(38.216594, 44.313630) rotate(18.000000) translate(-38.216594, -44.313630) translate(10.216594, 6.817274)">
				<path id="Path_57_" class="st1" d="M31.5,71.5c0.3,0.9,0.6,0.9,0.9,0.5c-0.1,0-0.1,0.1-0.1,0.1C32,72.3,31.8,72.2,31.5,71.5z"/>
				<path id="Path_56_" class="st1" d="M33.5,72c-0.3,0.3-0.6,0.8-0.9,1C32.9,72.9,33.3,72.6,33.5,72z"/>
				<path id="Path_55_" class="st1" d="M31.2,70.4c0,0.4,0.4,0.8,0.9,1C31.5,71.1,31.2,70.7,31.2,70.4L31.2,70.4z"/>
				<path id="Path_54_" class="st1" d="M25.2,72.9c0.9,0.1,1.3,0.1,1.6,0.1h0.1C26.3,72.9,25.8,72.8,25.2,72.9
					C25.1,72.8,25.2,72.9,25.2,72.9z"/>
				<path id="Path_53_" class="st1" d="M32.5,63l-0.6,0.8c0.3-0.3,0.5-0.6,0.8-1C32.7,62.7,32.5,62.8,32.5,63z"/>
				<path id="Path_52_" class="st1" d="M33.6,59c0.1-0.2,0.2-0.5,0.3-0.8C33.8,58.5,33.7,58.8,33.6,59L33.6,59z"/>
				<path id="Path_51_" class="st1" d="M34.8,56.4c0-0.1,0.1-0.3,0.1-0.6l0,0C34.9,56,34.9,56.2,34.8,56.4z"/>
				<path id="Path_50_" class="st1" d="M23.6,60c-0.1,0,0.3,0.1,0.5,0.1C23.8,60.1,23.6,60.1,23.6,60C23.4,60.1,23.4,60,23.6,60z"/>
				<path id="Shape_23_" class="st1" d="M9.3,35.5c0.1,0.1,0.2,0.2,0.3,0.3c0.1,0,1-0.3,1.1-0.3c0.1-0.1,0.6-0.3,0.6-0.2
					c0.1,0,0.2,0,0.1-0.1c0,0.1,0.2-0.1,0.1,0c0,0,0.1,0,0.1-0.1c0.1-0.1,0.3-0.1,0.3-0.2c0,0.1,0.1,0,0.2,0c0,0,0.1,0,0,0
					c0.1,0,0.1,0,0.1-0.1c0.5,0,0.7-0.4,0.9-0.2c0.1,0,0.4-0.2,0.3-0.1c0.1,0,0-0.1,0.1-0.2c0,0,0.1,0.2,0.1,0.1
					c0.1,0.1,0.2-0.2,0.1,0c0.1-0.2,0.6-0.2,0.5-0.2c0.1,0,0.1-0.1,0.2-0.1l0,0l0.1,0h-0.1c0.1,0,0-0.1,0.1-0.1c0,0,0.1,0,0.1,0
					c0-0.1,0.1-0.1,0.1,0c0-0.1,0.1-0.1,0.2-0.1c0,0,0,0,0,0.1c0,0,0.1-0.1,0.1,0c0.1,0,0-0.1,0.1-0.1c0,0,0,0,0,0
					c0.3-0.1,0.3,0,0.6-0.2c-0.1-0.1,0.1,0,0.1,0c0,0.1,0.5-0.1,0.5-0.2c0.2,0.1,0.3-0.2,0.5-0.1c-0.1,0.1,0.1,0,0.1,0
					c-0.1-0.1-0.1-0.1,0-0.1c-0.1,0,0.1,0.1,0,0c0.1,0.1,0-0.2,0.1,0c0.1-0.1,0.3,0,0.1,0c0.1,0,0.1,0,0.1,0h0.1
					c-0.1-0.1,0.1-0.1,0.2-0.2c-0.1,0.1,0.1,0.1,0.1,0.2c0,0,0.2-0.2,0.2,0c0-0.1,0-0.1,0.1-0.2c0.3-0.1,0-0.7,0.1-0.6
					c0-0.1,0-0.2-0.1-0.2c0.1,0-0.1-0.1,0-0.1c-0.1,0-0.2-0.2-0.1-0.1c0-0.1-0.3-0.2-0.2,0c0-0.1,0.1,0,0.1,0
					c-0.1-0.1,0.1,0.1,0.1,0.2c-0.1-0.1-0.3-0.4-0.5-0.3c0-0.1,0,0,0.1-0.2l-0.1,0c0-0.2-0.1,0-0.2,0c0.1,0,0-0.1,0,0
					c0-0.1-0.1,0.1-0.1,0.1c0,0,0-0.1,0-0.1c0,0.2,0,0-0.1,0.1c0-0.1-0.2,0.1-0.3,0c0,0-0.1,0.1-0.1,0.1c0.1-0.1-0.1,0-0.1-0.1
					c0,0.1-0.2,0.1-0.2,0.2c0,0,0,0,0,0c-0.1,0-0.1,0-0.1,0c0,0.2-0.1,0.2-0.1,0c0,0.1-0.1,0.1-0.1,0.1c-0.1,0,0,0-0.1-0.1
					c0,0.1-0.2,0-0.1,0c-0.1,0.2-0.1,0-0.2,0.2c0,0,0,0,0,0c-0.1,0.1-0.2,0-0.2,0.2l0,0c0.1,0.1,0,0.1-0.1,0.1c0,0,0,0,0,0
					c-0.1,0.1,0,0,0,0c-0.1,0.1-0.2,0.2-0.1,0h0.1c0-0.2-0.2-0.1-0.2,0c-0.1,0.1-0.1-0.1-0.2,0c0,0.1-0.1,0.2-0.1,0
					c-0.1,0.2-0.9,0.3-1.1,0.4c-0.1,0.1-0.3,0.2-0.4,0.2l0,0c-0.1,0-0.1,0.2-0.1,0.1c-0.4,0.1-0.7,0.2-1,0.3c0,0.1-0.1,0-0.1,0.1
					c0.1,0.1-0.3,0-0.3,0.2c0,0,0,0,0-0.1c-0.2,0.1-0.4,0.1-0.7,0.2c0.1,0,0,0.1,0,0c0.1,0.1-0.1,0.1,0,0c0,0-0.1,0.1-0.1,0
					c-0.3,0-0.7,0.5-0.9,0.3c-0.1,0-0.1,0.1-0.3,0.2c0,0.1-0.5,0-0.6,0.2c0,0-0.1,0.2-0.1,0.2c-0.1,0-0.1,0.4-0.1,0.6
					C9.1,35.2,9.2,35.4,9.3,35.5z M16.7,33.3C16.7,33.2,16.8,33.2,16.7,33.3C16.8,33.2,16.7,33.3,16.7,33.3z M18.1,32.7
					C18.1,32.6,18.1,32.6,18.1,32.7C18.1,32.6,18.1,32.6,18.1,32.7C18.1,32.7,18.1,32.7,18.1,32.7z M18.1,32.2L18.1,32.2
					C18,32.1,18.1,32.1,18.1,32.2z M14.3,32.6L14.3,32.6L14.3,32.6C14.3,32.6,14.3,32.6,14.3,32.6z M14.2,32.6
					C14.2,32.7,14.2,32.7,14.2,32.6C14.2,32.6,14.2,32.6,14.2,32.6z"/>
				<path id="Path_49_" class="st1" d="M12.5,34.6L12.5,34.6C12.4,34.7,12.5,34.7,12.5,34.6z"/>
				<path id="Shape_22_" class="st1" d="M19.2,36.2C19.2,36.1,19.2,36.2,19.2,36.2C19.2,36.1,19,36,19.2,36.2c0-0.2-0.1,0.1,0.1,0.2
					C19.1,36.3,19,36,18.7,36c0-0.1,0-0.1,0.1-0.1l-0.1,0c0-0.2-0.4,0.1-0.1-0.1c-0.1,0-0.1,0-0.1,0c-0.1-0.1-0.1,0.2-0.2,0
					c0.1,0.2,0,0-0.1,0.1c0,0,0,0,0,0c-0.1,0-0.2,0.2-0.3,0.1c0,0-0.1,0.1-0.1,0.1c0.1-0.1-0.2,0-0.1-0.1c-0.1,0.1-0.2,0.1-0.3,0.2
					c0,0,0,0,0,0c-0.1,0-0.1,0-0.1,0c0,0.1-0.2,0.2-0.1,0c0,0.1-0.1,0.1-0.1,0.1c-0.1,0-0.1,0-0.1-0.1c0,0.1-0.3,0.1-0.2,0
					c-0.1,0.1-0.1,0.2-0.1,0c-0.1,0-0.2,0.2-0.1,0.1c-0.1,0.1-0.2,0.1-0.3,0.1l0,0c0.1,0.1,0,0.1-0.1,0.1c0,0,0,0,0,0
					c-0.1,0.1,0,0,0,0c-0.1,0-0.2,0.1-0.2,0.1c0-0.1,0.1-0.1,0.1-0.1h0.1c0-0.2-0.3-0.1-0.3,0c-0.2,0.1-0.2-0.1-0.3,0
					c0,0.1-0.1,0.2-0.1,0c-0.1,0-0.1,0.1-0.2,0.1c0-0.1-1.1,0.2-1.2,0.2c-0.1,0.1-0.3,0.2-0.5,0.2l0,0c-0.1,0-0.1,0.1-0.2,0.1h0
					c-0.5,0.1-0.9,0.2-1.2,0.3c-0.1,0.1-0.1,0-0.2,0.1c0.2,0-0.5,0.2-0.3,0.1c-0.1,0.1,0,0-0.1,0c-0.1,0.1-0.4,0.1-0.7,0.2
					c0.1,0,0,0.1,0,0c0.1,0.1-0.1,0.1,0,0c0,0-0.1,0.1-0.1,0c-0.3,0.1-0.8,0.4-1.1,0.4c-0.1,0-0.2,0.1-0.3,0.1
					c0.1,0.1-0.6,0-0.7,0.1c-0.5,0.1-0.7,1.1-0.1,1.4c0.2,0.1,1.2-0.3,1.3-0.3c0.2-0.1,0.7-0.2,0.7-0.2c0.1,0,0.2-0.1,0.2-0.1
					c0,0.1,0.2-0.1,0.1,0c0,0,0.2,0,0.1-0.1c0.1,0,0.3-0.1,0.4-0.2c0,0.1,0.2,0,0.2,0c0,0,0.1,0,0,0c0.9-0.4,1-0.3,1.6-0.5
					c0.1,0,0-0.1,0.1-0.2c0.1,0.1,0.1,0.1,0.3,0l0,0c0,0,0.2-0.2,0.1-0.1c0.1,0,0.2-0.1,0.4-0.2c0.1,0.2,0.2-0.1,0.3-0.1l-0.1,0.1
					l0.1,0h-0.1c0.1-0.1,0-0.1,0.1-0.1c0,0,0.1,0,0.1,0c0,0,0.2-0.1,0.1,0c0-0.1,0.2-0.1,0.2-0.1c0,0,0,0,0,0.1c0,0,0.1-0.1,0.1,0
					c0.1,0-0.1-0.1,0.1-0.1c0,0,0,0,0,0c0.4-0.1,0.3-0.1,0.7-0.2c-0.1-0.1,0.1,0,0.2,0c0,0.1,0.2,0,0.4-0.1l0,0c0.1,0,0.3,0,0.3-0.1
					c0.2,0.1,0.4-0.2,0.6-0.1c-0.1,0.1,0.2-0.1,0.1-0.1c0,0,0.1-0.1,0.1-0.1c-0.1,0.2,0.2-0.1,0.2,0c0.1-0.1,0.3,0,0.2,0
					c0.1,0,0.1,0,0.1,0h0.1c-0.1-0.1,0.1-0.1,0.2-0.2c-0.1,0.1,0.1,0.1,0.1,0.1c0.1-0.1,0.3,0,0.2-0.1c0.5,0,0.4-0.5,0.5-0.5
					c0.1-0.1-0.1-0.5,0.1-0.3C19.3,36.3,19.2,36.2,19.2,36.2z M14.8,36.8L14.8,36.8L14.8,36.8C14.8,36.9,14.8,36.9,14.8,36.8z
					 M14.7,36.9C14.7,36.9,14.7,36.9,14.7,36.9C14.6,36.9,14.7,36.9,14.7,36.9z M17.4,37.4C17.4,37.4,17.4,37.4,17.4,37.4
					C17.4,37.4,17.4,37.4,17.4,37.4z M19,36.9C19.1,36.9,19.1,36.9,19,36.9C19.1,37,19,37,19,36.9z M19.2,36.5
					C19.2,36.5,19.2,36.4,19.2,36.5C19.2,36.5,19.3,36.5,19.2,36.5z"/>
				<polygon id="Path_48_" class="st1" points="15.2,37.9 15.4,37.9 15.4,37.8 				"/>
				<path id="Shape_21_" class="st1" d="M16.3,42.3C16.3,42.3,16.3,42.3,16.3,42.3C16.3,42.3,16.3,42.3,16.3,42.3
					c0.1-0.1,0.1-0.1,0-0.2c0.1,0,0,0-0.1-0.1c0,0,0.1,0,0.1,0c-0.1,0-0.2-0.2-0.1-0.1c-0.1-0.1-0.2-0.1-0.1,0
					c0.1-0.2,0.1,0.2,0.2,0.2c-0.1,0-0.3-0.3-0.5-0.2c0,0,0-0.1,0-0.1c0,0,0,0,0-0.1l-0.1,0c0-0.2-0.3,0.1-0.1-0.1c0,0-0.1,0-0.1,0
					c0-0.1-0.1,0.1-0.1,0.1c0,0,0-0.1,0-0.1c0,0.2,0,0-0.1,0.1c0-0.1-0.1,0-0.1,0.1c-0.1,0-0.1,0.1-0.1,0c0,0-0.1,0.1-0.1,0.1
					c0-0.1-0.1,0-0.1-0.1c0,0.1-0.1,0.1-0.2,0.2c0,0,0,0,0,0c-0.1-0.1-0.2,0.5-0.2,0c0,0-0.1,0.1-0.1,0.2c-0.1,0,0,0-0.1-0.1
					c0,0.2-0.2,0.1-0.1,0c-0.1,0.3-0.1,0-0.2,0.2c0,0,0,0,0,0c0,0.1-0.1,0.1-0.2,0.2l0,0c0.1,0.1-0.1,0.2,0,0.1c-0.1,0.1,0,0,0,0
					c-0.1,0-0.1,0.1-0.2,0.1c0-0.1,0.1-0.1,0-0.1h0.1c0-0.2-0.2-0.1-0.2,0c-0.1,0.1-0.1-0.1-0.2,0c0,0.1-0.1,0.2-0.1,0
					c-0.1,0.1-0.2,0.2-0.1,0.1c-0.2,0.1-0.8,0.2-0.9,0.2c-0.1,0.1-0.2,0.2-0.3,0.2l0,0c-0.1,0-0.1,0.2-0.1,0.1
					c-0.4,0.2-0.6,0-0.9,0.2v-0.1c-0.1,0.2-0.1,0-0.1,0c0.1,0.1-0.2,0.1-0.1,0c0,0-0.3,0.2-0.2,0c-0.1,0.1-0.1-0.1-0.1,0
					c-0.2,0-0.3,0-0.5,0c0.1,0,0,0.2,0,0c0,0.1-0.1,0.1,0,0l-0.1,0v0c0,0-0.1,0-0.1,0c-0.2,0.1-0.5,0.1-0.6,0.3c0,0-0.1,0-0.1-0.1
					c-0.1,0-0.1,0-0.3,0.1c-0.6-0.2-1,1.6-0.1,1.8c0-0.1,0.1,0,0.1,0c0-0.1,1-0.2,0.9-0.1c0.2-0.1,0.4-0.1,0.6-0.2c0,0,0,0,0,0
					c0.1,0,0.3-0.2,0.3,0c0,0,0.1,0,0.1-0.1c0.1,0,0.3,0,0.3-0.1c0,0.1,0.1,0,0.2,0c0,0.1,0.1,0,0.1,0c0.2,0.1,0.8-0.4,0.5,0
					c0.1,0,0.4-0.3,0.3-0.1c0.1-0.1,0.3-0.1,0.4-0.2c0,0,0,0,0,0c0.1,0,0-0.1,0.1-0.2c0,0.1,0.1,0,0.1,0.2c0,0,0.2-0.2,0.1-0.1
					c0,0,0.1-0.1,0.1-0.1c0.1,0.1,0.2-0.2,0.3-0.1c0,0.1,0.1,0,0.1,0.1c0,0,0.1,0,0-0.1c0.1,0,0.1-0.1,0.1-0.1l0,0l0.1,0h-0.1
					c0-0.1,0-0.1,0.1-0.1c0.1-0.1,0.1,0,0.3-0.1c0,0,0,0,0,0.1c0,0,0,0,0,0c0.1,0,0-0.1,0.1-0.1c0,0,0,0,0,0c0.3-0.1,0.3,0,0.6-0.2
					c-0.1-0.1,0.1,0,0.1,0c0,0.1,0.1,0,0.3-0.1c0,0.1,0.2,0,0.2-0.1c0.2,0.1,0.3-0.2,0.4-0.1c0,0,0,0,0,0c0.2-0.1,0-0.2,0.1-0.2
					c0,0.2,0.2-0.1,0.1,0c0.1-0.1,0.1-0.1,0.1,0c0.1,0,0.1-0.1,0.1-0.1c0,0-0.1,0-0.1,0c0.1,0,0.1,0,0.1,0h0.1
					c-0.1-0.1,0.1-0.1,0.1-0.2c-0.1,0.3,0.1,0,0.2,0C16,42.9,16.3,42.5,16.3,42.3z M16.3,42.2C16.3,42.2,16.2,42.2,16.3,42.2
					C16.2,42.2,16.2,42.2,16.3,42.2C16.2,42.1,16.3,42.1,16.3,42.2z M12.9,42.9L12.9,42.9L12.9,42.9C12.9,42.9,12.9,42.9,12.9,42.9z
					 M12.8,43C12.8,43,12.8,43,12.8,43C12.7,43,12.8,43,12.8,43z M15.1,43.5C15.1,43.5,15.1,43.5,15.1,43.5
					C15.2,43.5,15.2,43.5,15.1,43.5z M16.3,42.7C16.3,42.7,16.3,42.7,16.3,42.7L16.3,42.7C16.3,42.7,16.3,42.7,16.3,42.7z"/>
				<path id="Shape_20_" class="st1" d="M32.2,52.9c0.1-0.3,0.1-1.6,0.2-1.3c0.1-0.6,0.2-1.1,0.3-1.6c0,0,0,0.1,0,0.1
					c0-0.4,0,0,0-0.6c0.1,0.2,0.1-0.5,0.2-0.2c0-0.1,0-0.2,0-0.1c0-0.1,0-0.1,0.1,0c0-0.4,0-0.2,0.1-0.6c0,0,0,0.1,0,0.1
					c0-0.2,0-0.3,0.1-0.6c0,0,0,0,0,0.1c0.1-0.5,0.1-0.8,0.2-1.3c0.1,0.1,0.1-0.4,0.1-0.5l0,0.1c0-0.2,0-0.5,0.1-0.7V46l0.1-0.5
					l-0.1,0.3c0-0.3-0.1,0,0-0.3c0.1,0,0.1-0.8,0.2-0.7c0-0.1,0.1-0.6,0.1-0.7c0,0.1,0,0,0-0.1c0-0.1,0-0.1,0.1-0.1
					c0.1-0.3-0.1,0.1,0-0.3c0,0,0,0,0,0.1c0.2-1.2,0.2-1.2,0.4-2.6l0,0.1c-0.1-0.1,0.1-0.4,0.1-0.7c0.1,0.1,0.1-0.7,0.1-1.2v0.1
					c0-0.2,0.2-0.8,0.1-0.9c0.2-0.7,0.1-1.3,0.3-1.9c0,0.5,0.1-0.4,0.1-0.4c0,0,0,0.1-0.1,0.2c0-0.1,0-0.2,0-0.4
					c0,0.3,0.1-0.1,0.1-0.1c0.1-0.2-0.1-0.3,0.1-0.4c0-0.5,0.1-0.3,0.1-0.9c0,0.1,0,0.2,0,0.3c0.1-0.3,0.1-0.5,0.1-0.7l0,0.1
					c-0.1-0.3,0.1-0.6,0-0.9c0,0.5,0.1-0.1,0.1-0.1c0-0.1,0-0.6,0.1-0.7c-0.1,0.1,0.1-2.2,0.1-2c0.1-0.2,0.1-0.4,0.1-0.6
					c0.1,0,0-0.2,0.1-0.4c0,0,0,0.1,0,0.2c0-0.2,0-0.9,0.1-0.4c0-0.2,0.1-0.6,0-0.7l0,0.1c0.1-0.1,0,0.4,0,0.3v-0.1
					c-0.1,0.1-0.1,0.6-0.1,0.8c-0.1-0.6,0.5-1.9-0.4-1.8c0-0.1,0.1,0,0.2-0.1c-0.2,0-0.5,0.1-0.8,0.1l0.2,0c-0.3,0-1.1,0.3-1,0.1
					c-0.3,0-0.7,0.2-0.9,0.2c0,0-0.2,0.1-0.3,0.1c0.2-0.1-0.5,0.1-0.4,0c-0.1,0.1-0.6,0.1-0.9,0.2c0,0,0.1,0,0.1,0
					c-0.3-0.1-0.9,0.4-0.7,0.1c0,0.1-0.3,0.1-0.3,0.1c-0.2,0-1,0.1-0.7,0c-0.4,0.2-0.6,0.2-0.9,0.2c-0.2,0.1-0.6,0.1-0.9,0.2
					c0.1,0.1-0.2,0.1-0.2,0.1c0.1,0,0.1,0,0.1,0c-0.3,0.1-0.1,0,0-0.1c-0.2,0.1-0.5,0.2-0.7,0.2c-0.1,0,0.4-0.1,0.2-0.1l0.3,0
					c-0.3-0.2-1.4,0.3-2.1,0.4l0.1-0.1c-0.3,0.1-0.2,0.1-0.6,0.2c0.1,0,0.3-0.1,0.2-0.1c-0.6,0.1-1.4,0-1.2,1
					c-0.1,0.3,0.1,1.8,0,2.1c0.1,0.1,0.1,0.3,0,0.2c0,0.4,0.1,1.1,0,1.6l0-0.1c0,0.3,0.1,0.4,0,0.7v-0.1c-0.1,1.6-0.3,3.1-0.6,4.6
					c0.1-0.2-0.2,0.9-0.1,1.2c0,0,0-0.1,0-0.2c0,0.4-0.1,0.1-0.1,0.4c0.1,0.1-0.1,0.6-0.1,0.8l0-0.1c-0.1,0.5-0.2,1-0.3,1.5
					c0.1-0.3,0.1,0,0,0.1c0.1-0.1,0,0.4,0,0.1c0,0,0,0.4-0.1,0.2c-0.2,1.1-0.4,2.7-0.6,3.5c-0.1,0.5-0.1,0.6-0.2,1.2
					c0.1-0.3,0,0.2,0,0.1v0c-0.1,0.7-0.3,1.5-0.3,2v0c-0.1,1.1-0.8,2.6-0.1,3.9v0c0.1,0.1,0.1,0.2,0.2,0.3c0.7,0.5,2.6,0.5,3.7,0.2
					L25,55.1c0.7-0.2,1.5-0.1,2.2-0.2c-0.1,0-0.1,0-0.1,0c0.5,0,0.8-0.1,1.1-0.1c-0.2,0.1,0.5,0,0.3,0c0.4,0,0.9,0,1.3-0.1
					c0,0.1,0.5,0,0.7,0c-0.1,0,0.1,0,0.1,0.1c0.2,0,0.4,0,0.3-0.1C32.4,55.3,32.2,51.5,32.2,52.9z M23.8,30.8c0-0.1,0-0.1,0-0.1
					C23.8,30.7,23.8,30.8,23.8,30.8z M32.4,44.8c0,0.1,0,0.1,0,0.2C32.4,44.9,32.4,44.9,32.4,44.8z M22.4,52.1c0,0.1,0,0.1,0,0.1
					C22.3,52.2,22.3,52.1,22.4,52.1z M22.4,51.7c0,0,0-0.1,0.1-0.2C22.4,51.6,22.4,51.9,22.4,51.7z M31,53.5c0,0,0-0.1-0.1-0.2
					c-0.1,0-0.4,0.1-0.5,0h0.2c-0.4-0.1-0.9,0.2-0.9,0.1c-0.2,0-0.7,0.1-0.8,0c0,0-0.2,0.1-0.3,0.1c0.2-0.1-0.4,0-0.4-0.1
					c-0.1,0.1-0.5,0.1-0.8,0.1c0,0,0.1,0,0.1,0c-0.2-0.1-0.9,0.3-0.6,0c0,0.1-0.3,0.1-0.3,0.1c-0.1-0.1-0.9,0-0.7-0.1
					c-0.3,0.1-0.6,0.1-0.8,0.1c-0.2,0.1-0.6,0-0.8,0.1c0.1,0.1-0.2,0.1-0.2,0.1c0.1,0,0.1,0,0.1,0c-0.2,0.1-0.1,0,0,0
					c-0.2,0-0.5,0.1-0.6,0.1c0-0.1,0.4,0,0.2-0.1H24c-0.1-0.3-1.7,0.3-1.8,0c-0.1,0-0.1-0.1-0.1-0.3c0,0.5,0.1-1,0.1-1.4
					c0.2-0.2,0.2-1.5,0.4-1.9c0-0.1,0-0.4,0-0.2c0-0.4,0.1-1,0.2-1.4v0.1c0.1-0.3,0-0.4,0.1-0.6v0.1c0.3-1.5,0.5-2.8,0.8-4.1
					c0,0.1-0.1,0.1-0.1,0.1c0.1-0.6,0.2-0.7,0.2-1.2c0,0,0,0.1,0,0.2c0-0.3,0.1,0,0.1-0.3c-0.1-0.1,0.1-0.5,0.1-0.7l0,0.1
					c0.1-0.4,0.1-0.9,0.2-1.4c0,0.3-0.1,0,0-0.1c0-0.1,0,0.1-0.1-0.1c0-0.2,0.1-0.1,0.1,0c0,0,0-0.4,0.1-0.2c0.3-1,0.2-2.4,0.5-3.3
					c0-0.4,0.1-0.6,0.1-1.1c-0.1,0.3,0-0.3,0-0.1c0-0.6,0.2-1.4,0.1-1.9v0c0-0.9,0-1.7,0-2.8c0-0.1,0.1,0,0.3-0.1
					c0.7-0.3,2.4-0.3,3.5-0.7l-0.1,0.1c0.7-0.2,1.4-0.2,2-0.4c0,0,0,0-0.1,0c0.4-0.1,0.7-0.1,1-0.2c0,0,0,0-0.1,0
					c0.1,0,0.4-0.1,0.3-0.1c0.4-0.1,0.8-0.1,1.1-0.2c0,0.1,0.4,0,0.6-0.1c-0.1,0,0.1,0,0.1,0c0.2,0,0.3-0.1,0.3-0.1
					c0.1,0,0.5-0.1,0.3,0.1c-0.2,1.7,0,1.3-0.2,2.3c0,0.5-0.1,1-0.1,1.5c0,0,0-0.1,0-0.1c0,0.1,0,0.2,0,0.2c0-0.4,0.1,0.2,0.1,0.3
					c-0.1-0.2-0.1,0.5-0.1,0.2c0,0.1,0,0.3,0,0.2c0,0.3,0,0.2,0,0.5c0,0,0-0.1,0-0.1c0,0,0,0.6,0,0.5c-0.1,0.4,0,0.7-0.1,1.2
					c-0.1-0.1-0.1,0.4-0.1,0.4l0-0.1c0,0.2,0,0.4-0.1,0.6v-0.2l-0.1,0.4l0.1-0.2c0,0.2,0.1,0,0,0.3c-0.1,0-0.1,0.8-0.2,0.7
					c0,0.1-0.1,0.5,0,0.7c-0.1-0.1,0,0,0,0.1c0,0.1,0,0.1-0.1,0.1c-0.1,0.3,0.1-0.1,0,0.3c0,0,0,0,0-0.1c-0.1,1.1-0.2,1.1-0.3,2.3
					c0.1-0.3-0.1,0.3-0.1,0.5c-0.1-0.1-0.1,0.7-0.1,1.1v-0.1c0,0.2-0.2,0.7-0.1,0.8c-0.2,0.6-0.1,1.2-0.3,1.7c0-0.4-0.1,0.4-0.1,0.4
					c0,0,0-0.1,0.1-0.2c0,0.1,0,0.2,0,0.3c0-0.3-0.1,0.1-0.1,0.1c-0.1,0.1,0.1,0.3-0.1,0.4c0,0.1,0,0.6-0.1,0.2c0,0.2,0,0.4-0.1,0.6
					c0-0.1,0-0.2,0-0.3c-0.1,0.2-0.1,0.4-0.1,0.7l0-0.1c0.1,0.3-0.1,0.5-0.1,0.8c0-0.4-0.1,0.1-0.1,0.1c0,0.2,0,0.5-0.1,0.6
					c0.1-0.2-0.2,2.1-0.2,1.8c-0.1,0.2-0.1,0.3-0.1,0.5c-0.1,0,0,0.2-0.1,0.3c0,0,0-0.1,0-0.2c0,0.1,0,0.8-0.1,0.4
					c0,0.2-0.1,0.5-0.1,0.6l0-0.1c-0.1,0.1,0-0.3,0.1-0.3v0.1c0.1-0.1,0.1-0.5,0.1-0.7C31.4,52.1,31.1,52.7,31,53.5z M31.4,51.5
					l0-0.2C31.4,51.2,31.4,51.4,31.4,51.5z M31.6,50.1c0,0,0-0.1,0-0.2C31.6,49.9,31.6,50,31.6,50.1z M34.4,37.5c0-0.1,0-0.1,0-0.2
					C34.4,37.3,34.4,37.4,34.4,37.5z M35.1,31.8L35.1,31.8C35,31.7,35.1,31.5,35.1,31.8z M35.2,30.3c-0.1,0.2,0-0.2,0-0.2L35.2,30.3
					z M23.9,31.4c0,0,0-0.4,0-0.2C23.9,31.2,23.9,31.3,23.9,31.4z"/>
				<path id="Shape_19_" class="st1" d="M16.1,48.4C16.1,48.3,16.2,48.4,16.1,48.4C16.2,48.3,16,48.2,16.1,48.4
					C16.1,48.3,16.2,48.2,16.1,48.4c-0.1-0.1,0.1,0.2,0.1,0.3c-0.1-0.1-0.2-0.5-0.4-0.4c0-0.1,0,0,0.1-0.2l-0.1,0c0-0.2-0.1,0-0.2,0
					h0.1c0,0-0.1,0-0.1,0c0-0.1-0.1,0.1-0.1,0.1c0-0.2-0.1,0,0,0c0,0,0-0.1-0.1,0c0,0,0,0,0,0c-0.1,0-0.2,0.1-0.2,0
					c0,0-0.1,0.1-0.1,0.1c0.1-0.1-0.1,0-0.1-0.1c0,0.1-0.2,0.1-0.2,0.2c0,0,0,0,0,0c-0.1-0.1-0.2,0.4-0.2,0c0,0.1-0.1,0.1-0.1,0.1
					c-0.1,0,0,0-0.1-0.1c0,0.2-0.2,0-0.1,0c-0.1,0.3-0.1-0.1-0.2,0.2c0,0,0,0,0,0c-0.1,0.1-0.2,0-0.2,0.1c0,0,0,0.1,0,0.1
					c-0.1,0,0,0,0,0c-0.1,0.1,0,0,0,0c-0.1,0.1-0.2,0.1-0.1,0H14c0-0.2-0.2-0.2-0.2,0c-0.2,0-0.2-0.1-0.3,0.1l0-0.1
					c-0.1,0,0,0.1-0.1,0.1c0.1-0.2-0.1,0.1-0.1,0c-0.2,0.2-0.6,0.1-0.8,0.2c-0.1,0,0,0,0,0.1c0,0-0.1,0,0,0
					c-0.1,0.1-0.2,0.2-0.4,0.1l0,0c-0.1,0-0.1,0.1-0.1,0.1c-0.4,0.1-0.7,0-0.9,0.2v-0.1c-0.1,0.2-0.1,0-0.1,0c0.1,0.1-0.2,0.1-0.1,0
					c0,0-0.2,0.2-0.1,0c-0.1,0.1-0.1-0.1-0.1,0c-0.2,0-0.3,0-0.5,0.1c0.1,0,0,0.2,0,0c0,0.1-0.1,0.1,0,0l-0.1,0v0c0,0-0.1,0-0.1,0
					c-0.2,0.1-0.5,0.2-0.6,0.4c0,0-0.1,0-0.1-0.1c-0.1,0-0.1,0-0.2,0.1c0,0.1-0.5-0.1-0.5,0.2c-0.3,0.3-0.4,1.3,0,1.8
					c0-0.1,0,0,0.1,0c0.2,0.1,0.9-0.2,1-0.2c0.2-0.1,0.4-0.1,0.6-0.3c0,0,0,0,0,0c0.1,0.1,0.1-0.1,0.2,0c0.1,0,0.1-0.1,0.1,0
					c0,0,0.1,0,0.1-0.1c0.1,0,0.2,0,0.3-0.1c0,0.1,0.1,0,0.2,0c0,0,0.1,0,0,0c0.1,0,0.1,0,0.1-0.1c0.2,0.1,0.8-0.4,0.5-0.1
					c0.1,0,0.4-0.3,0.3-0.1c0.1-0.1,0.2,0,0.4-0.1c0,0,0,0,0,0c0.1,0,0-0.2,0.1-0.2c0,0.1,0.1,0,0.1,0.2c0,0,0.1-0.2,0,0
					c0.1,0,0.1-0.1,0.1,0c0.1,0,0.4-0.3,0.5-0.1c0,0,0.1,0,0-0.1c0.1,0,0.1-0.1,0.1-0.1l0,0l0.1,0h-0.1c0.1,0,0-0.1,0.1-0.1
					c0,0,0.1,0,0.1,0c0.1-0.1,0.1,0,0.1,0c0-0.1,0.1,0,0.2-0.1c0,0,0,0,0,0.1c0,0,0.1-0.1,0.1,0c0.1,0,0-0.1,0.1-0.1c0,0,0,0,0,0
					c0.3-0.1,0.3,0,0.6-0.2c-0.1-0.1,0.1,0,0.1,0c0,0.1,0.2,0,0.3-0.1c0,0.1,0.2,0,0.2,0c0.2,0.1,0.3-0.2,0.4,0
					c-0.1,0.1,0.1,0,0.1,0c-0.1-0.1-0.1,0,0-0.1c-0.1,0,0.1,0.1,0,0c0.1,0.1,0-0.1,0.1,0c0,0.1,0.1,0,0.1,0c-0.1,0.2,0.1,0,0.1,0
					c-0.1,0,0,0.1,0,0.1h0.1h0c0.1-0.2,0.1,0,0.2-0.2c-0.1,0.4,0.2,0,0.2,0.1c0.1,0,0,0,0,0c0.3-0.1,0.2-0.7,0.2-0.8
					c0-0.1,0-0.1,0-0.2c0.1,0-0.1-0.3,0-0.1C16.2,48.5,16.2,48.4,16.1,48.4z M12.9,48.7L12.9,48.7L12.9,48.7L12.9,48.7z M12.7,48.8
					C12.7,48.8,12.7,48.8,12.7,48.8C12.7,48.8,12.7,48.8,12.7,48.8z M14.9,49.9C14.9,49.8,14.9,49.8,14.9,49.9
					C14.9,49.8,14.9,49.9,14.9,49.9z M16.1,49.3C16.1,49.3,16.1,49.3,16.1,49.3C16.1,49.3,16.1,49.3,16.1,49.3z M16.2,48.7
					C16.2,48.7,16.2,48.7,16.2,48.7C16.2,48.7,16.2,48.7,16.2,48.7C16.2,48.7,16.2,48.7,16.2,48.7z"/>
				<path id="Shape_18_" class="st1" d="M42.9,21.1L42.9,21.1c0.1-0.1,0.1,0,0.1,0c0.3-0.3,1-1,1.3-1.6v0.1c0.2-0.4,0.5-0.7,0.7-1
					c0,0,0,0,0,0.1c0.2-0.1,0.3-0.5,0.4-0.4c0-0.1,0.1-0.2,0.1-0.2c0.1-0.2,0.3-0.4,0.4-0.6c0,0.1,0.2-0.2,0.2-0.3c0,0,0.1,0,0.1,0
					c0.1-0.1,0.1-0.2,0.1-0.2c0.3-0.4,0.5-0.7,0.8-1.1c0,0.1-0.2,0.3-0.1,0.3c0.1-0.1,0.4-0.7,0.4-0.5c0.1-0.2,0.3-0.4,0.4-0.6
					c0,0,0,0,0,0.1c0.1,0,0.1-0.1,0-0.1c-0.1-0.1,0.1-0.4,0.2-0.2c0,0,0-0.1,0-0.1c0,0,0.1,0,0,0c0.1-0.1,0-0.1,0.1-0.2
					c0,0,0,0,0,0.1c0,0,0.1-0.3,0.1-0.2c0.1-0.2,0.2-0.4,0.3-0.5c0,0.1,0.1-0.1,0.2-0.1l-0.1,0c0.1-0.1,0.1-0.2,0.2-0.3l0,0.1
					l0.1-0.2l-0.1,0.1c0.1-0.1-0.1,0,0.1-0.2c0,0,0.1-0.1,0.1-0.1c0.1-0.2,0.3-0.1,0.3-0.4c0,0.1,0-0.2,0.1,0c0.1-0.1-0.1,0,0.1-0.1
					c0,0,0,0,0,0c0.3-0.5,0.4-0.4,0.7-1l0,0c0-0.1,0.1-0.1,0.2-0.2c0,0,0,0.1,0,0.1c0.1-0.1,0.2-0.3,0.3-0.5v0
					c0.1-0.1,0.3-0.3,0.2-0.3c0.3-0.2,0.3-0.5,0.6-0.7c0,0,0,0.1,0,0.1l0.1-0.2c0,0,0,0-0.1,0c0,0,0-0.1,0.1-0.2
					c-0.1,0.1,0.1,0,0.1,0c0.1-0.1,0-0.1,0.1-0.2v0c0.1-0.2,0.1,0,0.2-0.3c0,0-0.1,0.1-0.1,0.1c0.1,0,0.1-0.1,0.1-0.1l0.1-0.1l0,0
					c0-0.2,0.1-0.2,0.2-0.4c-0.1,0.2,0,0,0,0.1c0,0,0.1-0.1,0.1,0c0.1-0.1,0.1-0.2,0.2-0.2c-0.1-0.1,0.2-0.3,0.3-0.5
					C52.9,8.2,53,7.8,53,7.9c0.1-0.1,0.1-0.2,0.1-0.3c0.1,0-0.1-0.3,0.1-0.1c0-0.1-0.3-0.4-0.1-0.2c-0.1-0.1-0.2-0.2-0.3-0.2
					c0,0,0.2,0,0.2,0.1l-0.1,0c0,0.1,0.2,0.2,0.2,0.4c-0.2-0.3-0.5-0.7-0.8-0.3c-0.1-0.1,0-0.1,0-0.2l-0.1,0.1
					c-0.1-0.1-0.2,0.2-0.3,0.2l0.1-0.1c-0.1,0.1-0.2,0.2-0.2,0.3c0,0,0-0.1-0.1,0c0.1,0.1-0.2,0.2-0.1,0.1c-0.1,0.1-0.2,0.4-0.3,0.4
					c0,0,0,0.1-0.1,0.2c0-0.2-0.1,0.2-0.2,0.1c0,0.1-0.2,0.3-0.2,0.4c0,0,0,0,0,0c-0.2,0-0.2,0.6-0.3,0.3c0,0-0.1,0.2,0,0.2
					c-0.1,0-0.1,0-0.1,0c0.1,0.1-0.3,0.4-0.2,0.2c-0.1,0.3-0.3,0.6-0.5,0.9c0.1,0,0,0.2,0,0.1c0,0,0,0,0-0.1c-0.1,0.2-0.1,0,0,0
					c-0.1,0.1-0.1,0.3-0.2,0.3c-0.1,0,0.1-0.2,0-0.1l0.1-0.1c0-0.1-0.3,0.2-0.3,0.4c-0.3,0.3-0.2,0.2-0.4,0.5v-0.1
					c-0.1,0.1,0,0.1-0.1,0.3c0.1-0.3-0.3,0.4-0.4,0.6c-0.1,0-0.5,0.7-0.6,0.7c-0.1,0.1,0,0,0,0.1c0,0.1-0.1,0-0.1,0
					c-0.1,0.2-0.3,0.5-0.4,0.6v0c-0.1,0.1,0,0.2-0.1,0.3v0c-0.4,0.6-0.8,0.9-1.1,1.5l0,0c0,0.2-0.1,0.1-0.1,0.2c0,0,0.1,0,0.1,0
					c-0.1,0.2-0.3,0.2-0.4,0.5c0,0,0-0.1,0-0.1c-0.1,0.2-0.1,0-0.1,0.1c0,0,0,0,0,0c-0.1,0-0.2,0.2-0.2,0.3v0
					c-0.1,0.2-0.3,0.4-0.4,0.6c0.1-0.1,0.1,0.1,0,0.1c0.1,0.1-0.1,0.2,0,0c0,0-0.1,0.2-0.1,0c-0.3,0.4-0.8,0.9-0.9,1.3
					c0,0-0.1,0.1-0.1,0c-0.1,0.2-0.2,0.2-0.3,0.5c0.1,0,0,0.1,0,0.1c-0.1,0.3-0.5,0.5-0.6,0.8C42.6,19.9,41.7,20.9,42.9,21.1z
					 M51.1,10.3C51.1,10.3,51.1,10.3,51.1,10.3C51.1,10.3,51.1,10.2,51.1,10.3C51.1,10.2,51.1,10.2,51.1,10.3z M52.7,8.2L52.7,8.2
					C52.7,8.1,52.7,8,52.7,8.2z M53,7.4C53.1,7.5,53.1,7.5,53,7.4C53,7.5,53,7.4,53,7.4z M48.6,11.9L48.6,11.9
					C48.5,11.9,48.6,11.9,48.6,11.9z M48.4,12.1C48.5,12.1,48.4,12.1,48.4,12.1C48.4,12.1,48.4,12.1,48.4,12.1z"/>
				<path id="Shape_17_" class="st1" d="M52.9,14.7c0-0.1-0.1,0-0.1-0.1C52.9,14.5,52.9,14.5,52.9,14.7c0-0.2-0.3-0.4-0.1-0.2
					c-0.1-0.1-0.2-0.2-0.3-0.1l0.1,0c0-0.1,0.1,0,0.1,0.1l-0.1,0c0.5,0.6-0.2-0.4-0.5,0.1c-0.1-0.1,0-0.1,0-0.2l-0.1,0.1
					c-0.1-0.1-0.2,0.2-0.2,0.2l0.1-0.1c-0.1,0.1-0.2,0.1-0.2,0.3c0,0,0-0.1-0.1,0c0,0.1,0.1,0,0,0.1c-0.1,0-0.1,0.1-0.1,0
					c-0.1,0.1-0.1,0.3-0.2,0.3c0,0,0,0.1-0.1,0.2c0-0.1-0.1,0.2-0.2,0.1c0,0.1-0.2,0.2-0.2,0.4v0c-0.1,0-0.2,0.5-0.2,0.2
					c0,0-0.1,0.2,0,0.2c-0.1,0-0.1,0-0.1,0c0.1,0.1-0.3,0.3-0.2,0.1c-0.1,0.2-0.3,0.4-0.5,0.7c0.1,0,0,0.1,0,0.1c0,0,0,0,0-0.1
					c-0.1,0.1,0,0,0,0c-0.1,0.1-0.1,0.2-0.2,0.3c-0.1,0,0.1-0.2,0-0.1l0.1-0.1c-0.1-0.1-0.3,0.2-0.2,0.3c-0.2,0.2-0.2,0.1-0.3,0.4
					v-0.1c-0.1,0.1,0,0.1-0.1,0.2c0.1-0.2-0.2,0.3-0.4,0.5c-0.1,0-0.6,0.6-0.6,0.6c-0.1,0.2-0.2,0.4-0.4,0.5v0
					c-0.1,0.1,0,0.2-0.1,0.2v0c-0.4,0.4-0.8,0.8-1.1,1.1c0,0.2-0.1,0.1-0.1,0.2c0.2,0-0.3,0.2-0.3,0.4c0,0,0-0.1,0-0.1
					c-0.1,0.1-0.1,0-0.1,0.1c0,0,0,0,0,0c-0.1,0-0.2,0.1-0.2,0.2v0c-0.1,0.1-0.3,0.3-0.4,0.5c0.1-0.1,0.1,0.1,0,0
					c0.1,0.1-0.1,0.2,0,0L45.4,22c0,0,0,0,0-0.1c0,0.1-0.1,0.1-0.2,0.2c-0.2,0.3-0.6,0.8-0.8,0.9c-0.1,0.1-0.2,0.2-0.3,0.4
					c0.1,0.1-0.5,0.4-0.6,0.6c-0.5,0.3-0.9,1.3,0.1,1.4l0,0c0.4-0.1,1-0.7,1.3-1.1v0.1c0.2-0.3,0.5-0.5,0.7-0.8c0,0,0,0,0,0.1
					c0.2-0.1,0.2-0.4,0.3-0.3c0,0,0.1-0.2,0.1-0.2c0.1-0.1,0.3-0.3,0.4-0.4c0,0.1,0.2-0.1,0.2-0.2c0,0,0.1,0,0.1,0
					c0.1-0.1,0.1-0.1,0.1-0.2c0.3-0.3,0.5-0.5,0.7-0.9c-0.3,0.6,0.2-0.4,0.2-0.2c0.1-0.2,0.3-0.3,0.4-0.5c0,0,0,0,0,0
					c0,0,0.1-0.1,0.1-0.1c-0.1,0.1,0-0.2,0-0.2c0,0.1,0.1-0.1,0.1,0c0,0,0-0.1,0-0.1c0,0,0.1,0,0,0c0.1-0.1,0-0.1,0.1-0.2
					c0,0,0,0,0,0.1c0,0,0.1-0.3,0.1-0.2c0.1-0.2,0.2-0.3,0.3-0.4c0,0.1,0.1,0,0.2-0.1h-0.1c0.1-0.1,0.1-0.2,0.2-0.2l0,0.1l0.1-0.2
					L49,19.5c0.1-0.1-0.1,0,0.1-0.1c0,0,0.1-0.1,0.1-0.1c0.1-0.2,0.2-0.1,0.3-0.3c0,0.1,0.1-0.2,0.1,0c0.1-0.1-0.1,0,0.1-0.1
					c0,0,0,0,0,0c0.3-0.4,0.4-0.3,0.7-0.8l0,0c0-0.1,0.1-0.1,0.2-0.2c0,0.1,0.2-0.2,0.3-0.4v0c0-0.1,0.2-0.2,0.2-0.3
					c0.2-0.1,0.3-0.5,0.5-0.6c0,0,0,0.1,0,0.1l0.1-0.2c0,0,0,0-0.1,0c0,0,0-0.1,0.1-0.1c-0.1,0.1,0.1,0,0.1,0c0.1,0,0-0.1,0.1-0.2v0
					c0.1-0.2,0.1,0,0.2-0.3c0,0-0.1,0.1-0.1,0.1c0.1,0,0.1-0.1,0.1-0.1l0.1-0.1l0,0c0-0.2,0.1-0.2,0.2-0.3c-0.1,0.2,0,0,0,0.1
					c0,0,0.1-0.1,0.1,0c0.1-0.1,0.1-0.2,0.2-0.2c-0.1-0.2,0.4-0.4,0.3-0.8c0-0.1,0-0.1,0,0c0.1-0.1,0-0.2,0-0.3
					C52.9,14.7,52.9,14.7,52.9,14.7z M48.9,18.3L48.9,18.3L48.9,18.3C48.9,18.3,48.9,18.3,48.9,18.3z M48.8,18.4
					C48.9,18.5,48.8,18.5,48.8,18.4C48.8,18.5,48.8,18.5,48.8,18.4z M51.3,17C51.3,17,51.3,17,51.3,17C51.3,17,51.3,17,51.3,17
					C51.3,17,51.3,17,51.3,17z M52.7,15.3C52.7,15.3,52.7,15.2,52.7,15.3C52.7,15.2,52.7,15.3,52.7,15.3z M52.9,14.8
					c0,0,0-0.1,0-0.1C52.9,14.7,52.9,14.7,52.9,14.8z"/>
				<path id="Shape_16_" class="st1" d="M52.5,23c0.1-0.1,0,0.4,0,0.3v-0.1c-0.1,0.1-0.1,0.6-0.1,0.9c-0.1-0.5,0.5-2.1-0.5-1.7
					c-0.1-0.1,0.1-0.1,0.1-0.2l-0.2,0.1c-0.1-0.1-0.5,0.2-0.6,0.2l0.2-0.1c-0.4,0.1-1,0.6-1,0.5c-0.4,0.3-0.8,0.4-1.1,0.8
					c0.2-0.2-0.4,0.3-0.4,0.2c-0.1,0.2-0.5,0.4-0.8,0.6c0,0,0,0,0.1-0.1c-0.3,0.1-0.7,0.8-0.6,0.4c0,0-0.3,0.3-0.2,0.3
					c-0.1,0-0.9,0.7-0.7,0.4c-0.3,0.4-0.4,0.4-0.7,0.7c-0.2,0.2-0.5,0.5-0.7,0.7c0.2,0-0.1,0.3-0.1,0.2c0.1-0.1,0.1-0.1,0.1-0.1
					c-0.2,0.2-0.1,0.1,0-0.1c-0.2,0.2-0.3,0.4-0.5,0.6c-0.1,0,0.3-0.4,0.1-0.2c0,0,0.2-0.2,0.2-0.2c-0.3,0.1-1,1.1-1.5,1.7l0-0.1
					c-0.3,0.3-0.1,0.2-0.4,0.5c0.3-0.5-0.7,0.9-1,1.2c-0.4,0.2-1.3,1.6-0.4,2l0,0c0.1,0.2-0.1,1.2-0.1,1.5v-0.1
					c-0.1,0.3,0.1,0.4,0,0.7v-0.1c-0.2,1.8-0.4,3.1-0.6,4.8c0.1-0.2-0.2,1-0.1,1.2c0,0,0-0.1,0-0.2c0,0.4-0.1,0.1-0.1,0.4
					c0.1,0.1-0.1,0.6-0.1,0.8l0-0.1c-0.1,0.5-0.2,1-0.3,1.6c0.1-0.3,0.1,0,0,0.1c0.1-0.1,0,0.4,0,0.1c0,0,0,0.4-0.1,0.2
					c-0.3,1.1-0.4,2.7-0.8,3.6c-0.1,0.5-0.1,0.6-0.2,1.2c0.1-0.3,0,0.3,0,0.1c-0.1,0.7-0.5,1.5-0.5,2v0c0.1,1.1-1.4,2.9-0.6,4l0,0
					c0.1,0.1,0.2,0.1,0.3,0.1c0.6-0.4,2.6-0.9,3.6-1.6l-0.1,0.1c0.7-0.4,1.4-0.8,2.1-1.3c0,0,0,0.1-0.1,0.1c0.4-0.2,0.8-0.6,1-0.6
					c0.1-0.1,0.4-0.3,0.3-0.2c0.4-0.2,0.8-0.6,1.1-0.8c0,0.1,0.4-0.2,0.6-0.4c0,0.1,0.1-0.1,0.1,0c0.2-0.1,0.3-0.3,0.3-0.3
					c1.9-1.4,1.7-2,2.1-3c0.1-0.6,0.2-1.1,0.2-1.6c0,0,0,0.1,0,0.1c0-0.3,0,0-0.1-0.6c0.1,0.2,0.1-0.5,0.1-0.2c0-0.1,0-0.2,0-0.1
					c0-0.1,0-0.1,0.1,0c0-0.4,0-0.2,0-0.6c0,0,0,0.1,0,0.1c0-0.2,0-0.3,0-0.6c0,0,0,0,0,0.1c0.1-0.5,0-0.8,0.1-1.3
					c0.1,0.1,0.1-0.4,0.1-0.5l0,0.1c0-0.2,0-0.5,0.1-0.7v0.2l0.1-0.5l-0.1,0.3c0-0.3-0.1,0,0-0.3c0.1,0,0.1-0.9,0.2-0.8
					c0-0.1,0.1-0.6,0-0.7c0,0.1,0,0,0-0.1c0-0.1,0-0.1,0.1-0.1c0.1-0.3-0.1,0.1,0-0.3c0,0,0,0,0,0.1c0.1-1.2,0.2-1.3,0.3-2.6
					c-0.1,0.3,0.1-0.3,0.1-0.6c0.1,0.1,0.1-0.8,0.1-1.2v0.1c0-0.2,0.2-0.8,0.1-0.9c0.2-0.7,0.1-1.3,0.3-2c0,0.5,0.1-0.4,0.1-0.4
					c0,0,0,0.1-0.1,0.2c0-0.1,0-0.2,0-0.4c0,0.3,0.1-0.1,0.1-0.1c0.1-0.2-0.1-0.3,0.1-0.4c0-0.5,0-0.3,0.1-0.9c0,0.1,0,0.2,0,0.3
					c0.1-0.3,0.1-0.5,0.1-0.8l0,0.1c-0.1-0.3,0.1-0.6,0-0.9c0,0.5,0.1-0.1,0.1-0.1c0-0.1,0-0.6,0.1-0.7c-0.2,0,0.1-0.7,0.1-1.3
					c0-0.3,0-1.1,0.1-0.8c0.1-0.2,0.1-0.4,0.1-0.6c0.1,0,0-0.2,0.1-0.4c0,0,0,0.1,0,0.2c0-0.2,0-0.9,0.1-0.4
					C52.3,23.2,52.3,22.6,52.5,23z M43,50.6c0.1,0,0.3-0.2,0.1,0C43.1,50.5,43,50.6,43,50.6z M43.4,50.3
					C43.4,50.3,43.5,50.3,43.4,50.3C43.5,50.3,43.4,50.3,43.4,50.3L43.4,50.3z M49.1,41.3C49.1,41.3,49.1,41.3,49.1,41.3
					c-0.1,0,0-0.1-0.1-0.2c0,0.2-0.1,0.6-0.1,0.8l0-0.2c-0.1,0.4-0.1,1.1-0.2,1.1c0,0.5-0.1,0.8-0.1,1.3c-0.1-0.3-0.1,0.5-0.1,0.4
					c0,0.2-0.1,0.6-0.1,0.9c0,0,0-0.1,0-0.1c-0.1,0.2-0.1,1-0.2,0.6c0.1,0-0.1,0.3,0,0.3c-0.1,0.1-0.5,0.8-0.4,0.5
					c-0.2,0.5-0.7,0.9-1.1,1.3c0.1,0.1-0.2,0.3-0.1,0.1c-0.1,0.2-0.1,0.1,0,0c-0.2,0.2-0.3,0.3-0.5,0.4c-0.1,0,0.3-0.3,0.1-0.2
					l0.2-0.1c-0.3,0-1.1,0.8-1.6,1.2l0-0.1c-0.3,0.2-0.1,0.2-0.4,0.4c0.2-0.1-2.1,1.3-2.7,1.5c-0.2,0.1,0,0-0.1,0.1
					c-0.1,0.1-0.1,0-0.1,0c-0.3,0.2-0.8,0.5-1.1,0.6l0.1,0c-0.3,0.1-0.2,0.2-0.5,0.3l0,0c-0.2,0.1-0.4,0.2-0.6,0.3
					c0.3-1,0.5-1.9,0.8-2.9c-0.1,0.1,0.3-0.8,0.2-1.1c0,0,0,0.1,0,0.2c0-0.3,0.1,0,0.1-0.3c-0.1-0.1,0.1-0.5,0.1-0.7l0,0.1
					c0.1-0.4,0.2-0.9,0.3-1.4c-0.1,0.3-0.1,0,0-0.1c0-0.1-0.1,0.1-0.1-0.1c0-0.2,0.1-0.1,0.1,0c0,0,0-0.4,0.1-0.2
					c0.2-1,0.4-2.5,0.6-3.3c0.1-0.4,0.1-0.6,0.1-1.1c-0.1,0.3,0-0.3,0-0.1c0.1-0.6,0.3-1.4,0.3-1.9v0c0.1-1.1,0.3-2.2,0.5-3.5l0,0
					c0-1,0.4-2.7,0.4-4l0,0.1c0-0.3,0-0.6-0.1-0.8c0-0.2,0.5-0.7,0.7-1c0,0,0,0.1-0.1,0.1c0.3-0.4,0.5-0.6,0.7-0.9c0,0,0,0,0,0.1
					c0.1-0.1,0.3-0.3,0.2-0.3c0.3-0.3,0.6-0.6,0.8-0.9c0,0.1,0.3-0.3,0.5-0.4c0,0.1,0.1-0.1,0.1,0C45.9,28.1,46,28,46,28
					c1.5-1.3,1.7-1.7,2.3-2c0.4-0.3,0.8-0.5,1.1-0.8c0,0,0,0-0.1,0.1c0.2-0.2,0,0,0.3-0.4c-0.1,0.2,0.3-0.2,0.2,0
					c0-0.1,0.2-0.2,0.1-0.1c0.2-0.2,0.1-0.2,0.4-0.3c0,0,0,0-0.1,0.1c0,0,0.4-0.4,0.4-0.3c0.5-0.3,0.6-0.6,0.4,0.1l0-0.1
					c0,0.2,0,0.4-0.1,0.6l0-0.2L51,25.2l0.1-0.2c0,0.2,0.1,0,0,0.3c-0.1,0-0.1,0.8-0.2,0.7c0,0.1-0.1,0.5,0,0.7c-0.1-0.1,0,0,0,0.1
					c0,0.1,0,0.1-0.1,0.1c-0.1,0.3,0.1-0.1,0,0.3c0,0,0,0,0-0.1c-0.1,1.1-0.2,1.1-0.3,2.3c0.1-0.3-0.1,0.3-0.1,0.5
					c-0.1-0.1-0.1,0.7-0.1,1.1v-0.1c0,0.2-0.2,0.7-0.1,0.8c-0.2,0.6-0.1,1.2-0.3,1.7c0-0.4-0.1,0.4-0.1,0.4c0,0,0-0.1,0.1-0.2
					c0,0.1,0,0.2,0,0.3c0-0.3-0.1,0.1-0.1,0.1c-0.1,0.1,0.1,0.3-0.1,0.4c0,0.5-0.1,0.2-0.1,0.8c0-0.1,0-0.2,0-0.3
					c-0.1,0.3-0.1,0.5-0.1,0.7l0-0.1c0.1,0.3-0.1,0.5,0,0.8c0-0.4-0.1,0.1-0.1,0.1c-0.1,0.5-0.2,2.3-0.2,2.5
					c-0.1,0.2-0.1,0.3-0.1,0.5c-0.1,0,0,0.2-0.1,0.4c0,0,0-0.1,0-0.2c0,0.1,0,0.8-0.1,0.4c0,0.2-0.1,0.5,0,0.6l0-0.1
					c-0.1,0.1,0-0.4,0-0.3v0.1c0.1-0.1,0.1-0.5,0.1-0.8C49.3,40,49.2,40.6,49.1,41.3z M49.4,39.3c0,0,0-0.3,0.1-0.2
					C49.4,39.2,49.4,39.3,49.4,39.3z M49.6,37.9c0,0-0.1-0.1,0-0.2C49.6,37.8,49.6,37.8,49.6,37.9z M50.3,32.7c0,0-0.1-0.2,0-0.2
					C50.3,32.6,50.3,32.6,50.3,32.7z M42.3,30.1C42.3,30.2,42.3,30.2,42.3,30.1L42.3,30.1C42.3,30.2,42.3,30.2,42.3,30.1z
					 M42.1,30.5C42.1,30.5,42.1,30.6,42.1,30.5c0,0-0.1,0.1-0.1,0.2C42,30.7,42,30.6,42.1,30.5z M51.3,31.6v-0.2
					C51.3,31.4,51.3,31.4,51.3,31.6z M52.1,25.7L52.1,25.7C52,25.7,52.1,25.3,52.1,25.7z M52.3,24.2l0-0.3
					C52.3,24,52.3,24.3,52.3,24.2z"/>
				<path id="Shape_15_" class="st1" d="M39.5,55.3c0.2,0.1,0.3,0,0.4,0c0-0.1,1-0.4,1.1-0.5c0.1-0.1,0.6-0.3,0.6-0.3
					c0.1,0,0.4-0.2,0.3-0.1c0.1-0.1,0.3-0.1,0.5-0.3c0,0.1,0.2,0,0.2-0.1c0,0.1,0.2,0,0.1-0.1c0.6-0.2,0.7-0.6,0.9-0.5
					c0.1-0.1,0.3-0.1,0.4-0.3c0,0,0,0,0,0c0,0,0.1,0,0.1-0.1c-0.1,0.1,0-0.1,0-0.1c0.1,0.1,0.3-0.1,0.3,0c0.1-0.2,0.4-0.3,0.6-0.4h0
					c0,0,0.2-0.2,0.1-0.1l0.1-0.1l-0.1,0c0-0.1,0-0.1,0.2-0.1c0,0,0.1-0.1,0.1,0c0-0.1,0.1-0.1,0.1-0.2c0,0,0,0,0,0.1
					c0.2-0.2,0.3-0.2,0.7-0.5c-0.1-0.1,0.1-0.1,0.1-0.1c0,0.1,0.2-0.1,0.3-0.2c0,0.1,0.2-0.1,0.2-0.1c0.2,0,0.3-0.3,0.5-0.3
					c-0.1,0.1,0.1-0.1,0.1-0.1c-0.1,0-0.1,0,0-0.1c-0.1,0.1,0.1,0,0,0c0.1,0,0-0.1,0.1-0.1c0.1-0.1,0.1,0,0.2-0.2
					c-0.1,0.1,0,0.1,0.1,0.1l0.1-0.1c-0.1-0.1,0.1-0.1,0.1-0.2c-0.1,0.1,0.1,0.1,0.1,0.1c0.4-0.3,0.4-0.4,0.3-0.8
					c0-0.1-0.1-0.1-0.1-0.1c0.1,0-0.1,0-0.1-0.1c0,0,0.1,0,0.1,0c-0.1,0-0.3-0.1-0.1-0.1c-0.1,0-0.3,0-0.2,0c0.1-0.1,0,0.1,0.2,0.1
					c-0.2,0-0.4-0.2-0.6,0c-0.1-0.1,0-0.1,0-0.1c-0.1,0-0.2,0.1-0.2,0.1l0.1-0.1c-0.1,0-0.1,0.2-0.2,0.2c0.1,0.1-0.1,0.1-0.1,0.1
					c-0.1,0.1-0.2,0.2-0.2,0.2c0,0,0,0.1-0.1,0.1c0-0.1-0.1,0.1-0.2,0c0,0.1-0.1,0.1-0.2,0.2c-0.1-0.1-0.2,0.4-0.2,0.1
					c0,0-0.1,0.1,0,0.1c-0.1,0-0.2,0.3-0.2,0.1c0,0.1,0,0.2-0.1,0.1c-0.1,0.1-0.1,0.2-0.1,0.1c-0.1,0.1-0.2,0.1-0.2,0.2
					c0.1,0,0.1,0.1,0,0.1c0,0,0,0,0,0c-0.1,0.1,0,0,0-0.1c-0.1,0.1-0.2,0.3-0.1,0.1l0.1,0c0-0.1-0.2,0-0.2,0.1
					c-0.2,0.1-0.2,0.1-0.3,0.2c0-0.1-0.2,0.2-0.1,0c-0.2,0.2-0.9,0.6-1,0.6c-0.1,0.1-0.2,0.2-0.3,0.3l0,0c-0.4,0.3-0.9,0.5-1.3,0.7
					c0,0,0.1,0,0.1,0c-0.1,0-0.4,0.2-0.3,0.1c-0.1,0.1,0,0-0.1,0c-0.1,0.1-0.4,0.2-0.6,0.3c0.1,0,0,0.1,0,0c0.1,0.1-0.1,0.1,0,0
					l-0.1,0.1v0c-0.3,0.1-0.6,0.4-0.9,0.4c-0.1,0.1-0.2,0.1-0.3,0.2c0.1,0-0.1,0.1-0.1,0c-0.5,0.1-1,0.5-0.7,1.1
					C39.3,55.1,39.4,55.2,39.5,55.3z M46.9,51.1L46.9,51.1C47,51,47,51,46.9,51.1z M48.1,49.9C48.1,49.9,48.2,49.9,48.1,49.9
					C48.2,49.9,48.2,50,48.1,49.9z M48.1,49.5C48.1,49.5,48.1,49.5,48.1,49.5C48.1,49.4,48.1,49.5,48.1,49.5z M44.4,51.7
					C44.4,51.7,44.4,51.7,44.4,51.7C44.3,51.7,44.4,51.7,44.4,51.7z"/>
				<path id="Shape_14_" class="st1" d="M49.5,52.7c-0.1-0.1-0.2-0.1-0.3-0.1c0,0,0,0,0,0c0-0.1,0.2,0,0.1,0.1l-0.1,0
					c0,0.1,0.2,0.1,0.3,0.2c-0.2-0.1-0.5-0.4-0.8-0.1c-0.1-0.1,0-0.1,0-0.2l-0.1,0.1c-0.1-0.1-0.2,0.2-0.3,0.1l0.1-0.1
					c-0.1,0.1-0.2,0.2-0.3,0.2c0,0.1,0.1,0,0,0.1c-0.1,0-0.1,0.1-0.1,0c-0.1,0.1-0.2,0.2-0.3,0.2c0,0-0.1,0.1-0.1,0.2
					c0-0.1-0.2,0.1-0.2,0c0,0.1-0.2,0.2-0.3,0.3c0,0,0,0,0,0c-0.2,0-0.2,0.5-0.3,0.2c0,0-0.1,0.1,0,0.2c-0.1,0-0.1,0-0.1,0
					c0.1,0.1-0.3,0.2-0.2,0.1c-0.1,0.1,0,0.1,0,0.1c-0.1,0.1-0.1,0-0.1,0c-0.1,0.1-0.1,0.2-0.2,0.2c-0.1,0.1-0.2,0.2-0.3,0.3
					c0.2,0-0.1,0.2,0,0.1c-0.1,0.1,0,0,0-0.1c-0.1,0.1-0.2,0.2-0.2,0.2c0,0,0.1-0.1,0-0.1l0.1-0.1c0-0.1-0.3,0.1-0.3,0.2
					c-0.2,0.2-0.2,0-0.3,0.2c0,0.1-0.1,0.2-0.1,0.1c-0.2,0.2-0.2,0.2-0.6,0.6c-0.2,0-0.7,0.5-0.8,0.5c-0.1,0.1-0.3,0.3-0.5,0.4l0,0
					c-0.1,0-0.1,0.2-0.2,0.2c-0.6,0.4-1.1,0.7-1.5,1c0.2,0-0.2,0.2-0.2,0.1l-0.2,0.2c0,0,0-0.1,0-0.1c-0.1,0.1-0.1,0-0.1,0.1
					c0,0.1-0.2,0.1-0.3,0.2v0c-0.2,0.1-0.3,0.2-0.5,0.4c0.1,0,0,0.1,0,0c0.1,0.1,0,0.1,0,0l-0.1,0.1c0,0,0,0,0-0.1
					c0,0.1-0.2,0.1-0.2,0.1c-0.3,0.2-0.7,0.6-0.9,0.7c-0.2,0.1-0.2,0.1-0.4,0.3c0,0,0.1,0,0.1,0c0,0-0.1,0-0.1,0
					c-0.2,0.2-0.5,0.2-0.7,0.4c-0.6,0.2-0.7,1.4,0.3,1.4c-0.1-0.1,0.1,0,0.1-0.1c0.1-0.3,1-0.6,1.3-0.9l0,0.1
					c0.2-0.2,0.5-0.4,0.8-0.6c0,0,0,0,0,0.1c0.1,0,0.2-0.2,0.2-0.2c0.1,0,0.3-0.2,0.2-0.1c0,0,0.2-0.1,0.1-0.1
					c0.2-0.1,0.4-0.2,0.4-0.3c0,0.1,0.2-0.1,0.2-0.2c0,0,0.1,0,0.1,0c0.1-0.1,0.1-0.1,0.1-0.1c0.8-0.5,0.9-0.7,1.2-0.8
					c0.2-0.2,0.3-0.2,0.5-0.4c0,0,0,0,0,0c0,0,0.1,0,0.1-0.1c-0.1,0.1,0-0.1,0-0.2c0,0.1,0.2-0.1,0.2,0.1c0-0.1,0.1-0.1,0.1,0
					c0.1-0.1,0-0.1,0.2-0.2c0,0,0,0,0,0.1c0,0,0.2-0.2,0.2-0.2c0.2-0.1,0.2-0.2,0.4-0.3c0,0.1,0.2,0,0.2-0.1h-0.1
					c0.1-0.1,0.1-0.2,0.2-0.2l0,0.1l0.1-0.1l-0.1,0c0.1-0.1-0.1-0.1,0.1-0.1c0,0,0.1-0.1,0.1-0.1c0,0,0.2-0.2,0.2-0.1
					c0-0.1,0.2-0.2,0.2-0.2c0,0,0,0,0,0.1c0,0,0-0.1,0.1-0.1c0.1-0.1-0.1,0,0.1-0.1c0,0,0,0,0,0c0.3-0.3,0.4-0.2,0.8-0.6l0,0
					c0-0.1,0.2-0.1,0.2-0.2c0,0.1,0.2-0.2,0.4-0.3v0c0,0,0.3-0.2,0.2-0.2c0.3-0.1,0.4-0.4,0.6-0.4c-0.1,0.1,0.1-0.1,0.1-0.1
					c-0.1,0-0.1,0,0-0.1c-0.1,0.1,0.2,0,0.1,0c0.1,0,0-0.2,0.1-0.1c0-0.1,0.2-0.2,0.1,0c0.1-0.1,0.1-0.2,0.2-0.2
					c0,0-0.1,0.1-0.1,0.1c0.1,0,0.1,0,0.2-0.1l0.1-0.1c-0.1-0.1,0.2-0.2,0.2-0.3c0,0.3,0.2-0.1,0.3-0.1c-0.1-0.1,0.2-0.2,0.4-0.3
					c0.1-0.1,0.1-0.5,0.1-0.3c0-0.1,0-0.2,0-0.2C49.6,52.8,49.5,52.8,49.5,52.7C49.5,52.7,49.5,52.7,49.5,52.7c0,0-0.1,0-0.1,0
					C49.4,52.6,49.4,52.7,49.5,52.7z M44.6,55.9C44.6,56,44.6,55.9,44.6,55.9C44.6,55.9,44.6,55.9,44.6,55.9z M47.6,54.9
					C47.6,54.9,47.6,54.9,47.6,54.9C47.6,54.9,47.6,54.8,47.6,54.9C47.7,54.8,47.7,54.9,47.6,54.9z M49.4,53.5L49.4,53.5
					C49.4,53.4,49.4,53.4,49.4,53.5z M49.6,53C49.5,53.1,49.5,52.9,49.6,53C49.5,52.9,49.6,52.9,49.6,53z"/>
				<g id="Group_1_" transform="translate(0.000000, 0.000000)">
					<path id="Shape_13_" class="st1" d="M55.9,10.9v1c0-0.3,0,0.1,0,0.5c0,1.8,0,2.5-0.1,2.6v-1.3c-0.1,0.7-0.1,2-0.1,3.5
						s-0.1,3.1-0.1,4.4v-0.9c0.3-6.7,0.3-13.4-0.3-20.1c0-0.1,0-0.2-0.1-0.3c0.1,0.1,0.1,0.2,0.1,0.2c0,0.1,0,0.1,0,0.1
						c0,0.2,0,0.4,0.1,0.8l0.1,0.7l-0.1-1.6c0,0,0-0.1,0-0.2c-0.1-0.1-0.2-0.4-0.4-0.4c-0.1,0-0.3,0-0.4,0.1
						c-0.1,0.1-0.2,0.2-0.4,0.3c-0.2,0.3-0.5,0.5-0.9,0.9c0,0-0.5,0.5-0.9,1s-0.9,1-0.9,1L50.9,4c-0.2,0.2-0.4,0.5-0.6,0.7
						c-0.1,0.2-0.4,0.5-0.8,0.8c0,0-0.4,0.5-0.9,1.1c-0.4,0.5-0.9,1.1-0.9,1.1c-0.2,0.2,0.8-1-0.4,0.4c-0.8,1,0.8-0.9-0.5,0.7
						c-0.9,1-0.6,0.7-1.6,2c-0.1,0.2,0.1-0.1,0.4-0.6c-0.9,1.1-2.3,2.9-2.7,3.5c-0.4,0.5-1.1,1.5-1.7,2.3c-0.6,0.8-1.1,1.5-1,1.4
						c-0.1,0.2-0.4,0.5-0.6,1c-0.3,0.1-0.7,0.2-1.1,0.3c-0.4,0.1-0.8,0.2-1.1,0.3c1.1-0.4,0,0-1.3,0.3c-1.3,0.4-2.8,0.8-2.5,0.6
						c-1.6,0.5-5.8,1.5-8.6,2.3c0.1,0,0.5-0.1,0.7-0.2c-1.6,0.4-2.1,0.5-3.1,0.7c-0.1,0.1-0.6,0.2-1.3,0.4c-0.6,0.2-1.4,0.4-2.1,0.5
						c0,0,0,0-0.1,0c-0.4,0.1-0.9,0.3-1.3,0.4v0c0,0,0,0-0.1,0c0,0-0.1,0-0.1,0l-0.1,0c-0.1,0-0.3,0.1-0.4,0.1
						c-0.3,0.1-0.6,0.1-0.8,0.2c0-0.1,0.8-0.2,0.7-0.2c-0.7,0.2-1.1,0.3-1.7,0.4c-0.1,0,0,0,0.1,0c-0.6,0.2-1.2,0.3-1.8,0.4
						c0,0,0,0,0,0c-0.1,0-0.2,0-0.2,0l0.1,0c0.2,0-0.4,0.2-0.5,0.2c0.2-0.1-0.6,0.1-0.3-0.1c-0.1,0-0.2,0.1-0.1,0.1
						c-0.1,0-0.1,0,0,0c-0.4,0.1-0.3,0.1-0.6,0.2c0,0,0.1,0,0.1-0.1c-0.2,0.1-0.4,0.1-0.7,0.2l0,0c-0.5,0.1-0.9,0.3-1.5,0.3
						c0.2-0.1-0.2,0-0.3,0l-0.3,0.1h0.1C9,25.9,8.8,26,8.5,26L8.8,26l-0.5,0.1l0.3,0c-0.3,0.1,0,0.1-0.4,0.1c0.1,0-0.3,0.1-0.4,0.1
						c-0.1,0-0.3,0.1-0.5,0.1c-0.1,0,0-0.1,0-0.1c-0.1,0.1-0.7,0.2-0.9,0.2c0.1,0,0.1-0.1,0-0.1l-0.1,0.1c-0.1,0-0.1,0-0.1,0
						c-0.3,0.1,0.1,0.1-0.2,0.1c0,0,0,0,0.1,0c0,0-0.1,0-0.1,0c0,0,0-0.1,0-0.1c0,0-0.1,0-0.1,0c-0.2,0-0.3,0.1-0.5,0.1l0,0l0,0
						c-0.4,0-0.7,0.1-1.1,0c-0.2,0-0.3,0.2-0.4,0.3c0,0.1-0.1,0.2-0.1,0.2v0.4v0v0.2c0,0.2,0,0.4,0,0.5c0,0.3,0,0.6,0,0.9
						c0,0.6,0,1.1,0,1.7c0,1.1,0,2.3,0,4.3c0-0.4,0-0.9,0.1-0.7c0,0.7-0.1,1.6-0.1,1.5v-0.2c0,1-0.1,2.1-0.1,3.3
						c0,0.6-0.1,1.1-0.1,1.7l-0.1,0.9l0,0.3v0.1L3.5,42c0,0.6-0.1,1.2-0.2,1.8c0,0,0,0,0,0v0c0,0,0,0,0,0.1c0,0,0,0,0,0v0l0,0
						c0,0,0,0.1,0,0.1c0,0.1,0,0.1,0,0.2c0,0,0,0,0,0.2v0c0,0.1,0,0.2,0,0.3c0,0.3,0,0.6-0.1,0.9c-0.1,0.1,0-0.2,0-0.2
						c0,0.1,0,0.2,0,0.3c0,0.5-0.1,1-0.1,1.5L3,47c0.1,0.1-0.1,0.4-0.1,0.7c0-0.1,0-0.1,0-0.1c-0.1,0.4-0.1,0.8-0.1,1.4V49
						c-0.1,0.2-0.1,0.6-0.1,0.8c0,0.1,0,0.2,0,0.1c-0.2,0.7-0.1,1.4-0.3,2.1v-0.1l-0.1,0.6c0,0,0-0.1,0.1-0.2c0,0.1,0,0.2,0,0.4
						c0-0.3-0.1,0-0.1,0.1c0,0,0,0,0,0c-0.1,0.3,0.1,0.1-0.1,0.5v0c0,0.2,0,0.3-0.1,0.5c-0.1,0.1,0-0.2,0-0.2c0,0.2,0,0.5-0.1,0.7
						c0-0.1,0-0.2,0-0.3C2,54.1,2,54.1,2,54.2v0l-0.1,0.4l0-0.1c0,0.2,0,0.3,0,0.4c0,0,0.1,0,0.1,0c0,0,0,0.1,0,0.1
						c-0.1,0.1,0,0.3-0.1,0.3c0,0,0.1,0.2,0,0.2c-0.1-0.2-0.1,0.3-0.2,0.2c0.1,0.1,0,0.4,0,0.5c0,0,0,0,0-0.1c0,0.1-0.1,0.1-0.1,0.2
						c0.1,0,0.1,0.2,0.1,0.3c-0.1,0.1-0.1-0.1-0.2-0.1c0.1,0,0,0.2,0.1,0.2C1.6,57,1.7,57,1.6,57c0.1,0,0,0.1,0.1,0.2
						c-0.1,0.1-0.1,0-0.1,0.2c-0.1,0.1-0.1-0.1-0.1-0.1c0,0.2,0.1,0.1,0.1,0.1c0,0.2-0.1,0.1-0.1,0.1c0,0.1,0.1,0.2,0,0.3
						c0,0,0,0,0,0c0,0.1-0.1,0.4,0,0.5h0c0,0,0.1,0,0.1,0c0,0.1,0,0.1,0,0.2c0,0,0-0.1,0-0.1v0.1c-0.1,0.1,0-0.1-0.1-0.1
						c0,0.1,0,0.3,0,0.4c-0.1,0,0-0.3-0.1-0.1l0.1-0.2c-0.1,0.1,0-0.1-0.1,0c-0.1,0.2,0,0.3-0.1,0.5c0,0.1,0.1,0,0.1,0.1
						c0,0.3-0.2,0.2-0.2,0.5c0,0.1,0.1,0.1,0.1,0.3l-0.1-0.1c0,0.2,0.1,0.1,0,0.4c0,0,0-0.2,0-0.1c-0.1,0.1,0,0.1,0,0.2H1.1
						c0,0.2,0,0.5,0,0.7c0,0,0-0.1-0.1,0c0,0.3-0.1,0.7-0.2,1l0.1,0.1c0,0,0,0-0.1,0c0,0.1,0,0,0.1,0.1c0,0.1-0.1,0.1-0.1,0
						c0,0.2,0,0.6-0.1,0.8l0,0c-0.1,0.2,0.1,0.2,0,0.4v0c-0.1,0.4-0.1,0.8-0.2,1.1c0.1,0.1-0.1,0.4,0.1,0.4
						c-0.1,0.2-0.1,0.1-0.2,0.5c0,0.1,0.1,0.1,0.1,0.2H0.5l0.1,0.1l-0.1,0.1v0.1c0,0,0-0.1,0.1-0.1c0,0.2-0.1,0.4-0.1,0.4l0,0.4
						c0,0,0-0.1,0-0.1c0.1,0.2-0.1,0,0,0.2c0,0,0,0,0.1,0c-0.1,0.1-0.1,0.3-0.1,0.4l-0.1,0c0,0.3,0,0.5-0.1,0.8c0-0.1,0.1-0.1,0.1,0
						l-0.1,0c0,0.1,0-0.1,0.1,0c0,0.1-0.1,0.1-0.1,0l0,0.1c0,0,0,0-0.1,0c0,0.1-0.1,0.2,0,0.3h0c0,0.3,0,0.4,0,0.6
						c0.1,0,0,0.1,0.1,0.2c0,0.2-0.1,0.4-0.1,0.6c0,0.2,0.1,0,0.1,0.1c-0.1,0-0.1,0.2-0.1,0.1c0,0.3,0,0.3,0,0.6c0,0,0-0.1,0.1-0.1
						c0,0.1,0,0.1-0.1,0.1l0,0c0.1,0.4-0.2,0.8-0.1,1.1l0,0l0.1,0.3c0,0.1,0-0.1-0.1,0c0.1,0.3,0,0.5,0,0.8c0,0.1-0.1,0.2,0,0.3
						s0.1,0.2,0.2,0.3c0,0.1,0,0.1,0,0.2c0,0.2,0,0.5,0.1,0.7c0.1,0.2,0.2,0.5,0.4,0.6c0.4,0.3,0.8,0.4,1.2,0.5s0.9,0,1.3,0
						c0.5,0,0.9,0,1.4,0c1-0.1,2.1-0.2,3.2-0.3l-0.6,0.1c1.8-0.2,4.7-0.6,6.6-0.9c0.6-0.1,1.7-0.2,1-0.2c2.8-0.3,5.5-0.5,8-0.6
						c1.3,0,2.6,0,3.8,0.1c0.6,0,1.2,0.2,1.9,0.2c0.3,0,0.6,0,0.9-0.1c0.1,0,0.3-0.1,0.5-0.2c0.1,0,0.1-0.1,0.2-0.1l0.1-0.1l0,0h0
						c0,0,0,0,0,0s0,0.1,0,0.1l0,0c0,0,0,0,0.1,0c0.1,0.1,0.2,0.1,0.3,0.1c0.1,0,0.1,0,0.2-0.1c-0.1,0-0.2,0.1-0.2,0.1
						c-0.1,0-0.2,0-0.3-0.1L30.4,73c0,0,0,0.1,0,0.1l0,0c0,0,0.1,0,0.1,0.1c0.1,0.1,0.2,0.1,0.4,0l0.5-0.2c0.4-0.2,0.7-0.3,1-0.5
						c0.7-0.4,1.3-0.7,2-1.1c-0.3,0.2-0.5,0.3-1.4,0.7c0.5-0.3,1.5-0.9,2.4-1.4c-1.4,0.9,0.3-0.1,1-0.6c-0.1,0.1,0.1-0.1,0.1-0.1
						c1-0.7,1.1-0.8,1.2-0.9c0.1-0.2,0.4-0.4,1.7-1.4l-0.1,0.1c0.9-0.8,1.8-1.6,2.8-2.5c0.4-0.4-0.9,0.9-1,1
						c1.4-1.3,2.6-2.6,3.8-3.9c-0.6,0.6-1.3,1.4-1.9,2c1.3-1.3,1.5-1.4,2.3-2.4c0,0,0.6-0.6,1.1-1.2c0.6-0.6,1.1-1.2,1.1-1.2
						l-0.6,0.6c0.8-0.9,1.6-1.8,2.5-2.8c0.4-0.5,0.9-1,1.3-1.6s0.9-1.2,1.2-2c-0.3,0.7-0.6,1.1-0.7,1.3c-0.1,0.2-0.1,0.2,0,0.1
						c0.1-0.2,0.5-0.7,0.4-0.6c0.2-0.4,0.4-0.9,0.6-1.2s0.2-0.6,0.1-0.4c0.4-1.5,0.6-2.6,0.8-4.8c0-0.1,0.2-1.7,0.2-1.3
						c0.2-2.1-0.1,0.5-0.1,0.3c0.2-1.6,0.4-3.4,0.7-5.4c0.1-1,0.3-2.1,0.4-3.2c0.1-1.1,0.2-2.2,0.4-3.3c0.4-3.5,0.4-4.5,0.6-7.3
						c0-0.4,0.1-0.8,0.1-1.2c0.1-0.8-0.1,1.2-0.1,1.2c0.1-1.6,0.3-3,0.3-4.4c0,0.2,0,0.4,0,0.3c0.1-0.8,0.1-1.7,0.1-2.5
						c0,0.2,0,0.5,0,0.7c0,0.3,0,0.5,0,0.7c0,0.4,0,0,0.1-0.6c0.1-1.5,0-1,0.1-3v1.5c0.1-1.8,0.1-3.5,0.1-5.4c0-0.5,0,1.1,0,1.8
						c0-1,0-2.4,0-3.5C55.9,12.2,55.9,11.2,55.9,10.9z M3.2,54.9L3.2,54.9C3.2,54.9,3.2,54.8,3.2,54.9C3.2,54.8,3.2,54.8,3.2,54.9z
						 M2.7,57.9C2.7,57.9,2.6,57.9,2.7,57.9C2.6,57.8,2.6,57.8,2.7,57.9C2.7,57.8,2.7,57.8,2.7,57.9z M1.1,60.8
						C1.1,60.8,1.1,60.8,1.1,60.8L1.1,60.8C1.1,60.8,1.1,60.8,1.1,60.8z M1,61C1.1,61,1.1,61,1,61c0,0,0,0.1,0,0.1
						C1,61.1,1,61.1,1,61z M30.3,71.1C30.3,71.1,30.3,71.1,30.3,71.1C30.3,71.1,30.3,71,30.3,71.1c0-0.1,0-0.2,0.1-0.3l0.1-0.3
						c0,0-0.1,0.1-0.1,0.3C30.3,70.9,30.3,71,30.3,71.1c-0.1,0-0.1,0-0.2,0.1c0,0.1-0.1,0.1-0.2,0.2c0,0-0.1,0.1-0.1,0.1
						c-0.1,0-0.1,0.1-0.1,0.1c0,0,0,0-0.1,0.1c-0.1,0-0.1,0.1-0.2,0.2C29.3,72,29.2,72,29.1,72C29,72,29,72.1,29,72.1l-0.3,0
						c0,0,0.1,0,0.1,0c0.1,0,0.1,0,0.2-0.1c0.1,0,0.2-0.1,0.2-0.1s0.1-0.1,0.1-0.1c-0.4,0.2-0.6,0.2-0.9,0.3c-0.1,0-0.2,0-0.4,0
						c0,0-0.2,0-0.4,0c-0.2,0-0.4,0-0.4,0c-0.1,0,0.4,0-0.2-0.1c-0.4,0,0.4,0.1-0.3,0.1C26.4,72,26.5,72,26,72c-0.1,0,0,0,0.2,0
						c-0.5,0-1.2-0.1-1.4,0c-0.4-0.1-1.5,0-1.5-0.1c-0.1,0-0.8,0.1-1.2,0.1c0.8-0.1-1.6,0-1.3-0.1c-0.5,0.1-1.9,0.1-2.9,0.3
						c0.1,0,0.1,0,0.2,0c-0.6,0-0.7,0-1.1,0.1c-0.1,0.1-0.9,0.2-1.4,0.3c-0.7,0,0.4-0.1,0.2-0.2c0,0-1.2,0.2-0.9,0.2
						c-0.5,0-0.4,0-0.7,0c-0.1,0.1-0.5,0.1-0.9,0.2c-0.8,0.1-0.2,0-1,0.1c-0.4,0,0.3-0.1,0.3-0.1c-0.8,0.1-0.4,0.1-0.6,0.2
						c-1,0.2-0.5,0-0.8,0.1c-0.6,0.1-1.1,0.3-1.6,0.3c0,0-0.1,0,0,0c-0.6,0.2-1.9,0.3-2.7,0.4c-0.1,0-0.1,0-0.1,0
						c0.1,0,0.1,0,0.1,0.1c-0.4,0-0.7,0.1-0.9,0.1c0.2,0,0.2,0,0.4-0.1l-0.4,0.1c-0.4,0,0.5-0.1,0.5-0.1c-0.4,0-0.8,0.1-1.2,0.1
						c-0.4,0-0.8,0-1.1,0c-0.1-0.1,1.4-0.1,0.6-0.1c0,0,0.2,0,0.5,0c0.2,0,0.5,0,0.5,0c-0.7,0,0.6,0-0.1-0.1c-1.2,0-1.3,0.1-2.5,0.1
						c-0.3,0,0.1,0-0.2,0.1c-0.4,0-0.7,0-0.9-0.1c-0.2-0.1-0.3-0.2-0.4-0.3s-0.1-0.2-0.1-0.3s-0.1-0.4-0.1-0.7c0-0.1,0-0.1,0-0.2
						c0-0.1,0-0.2,0-0.2c0-0.3,0.1-0.6,0.1-0.9c0-0.2-0.2-0.1-0.1-0.4l0.1,0.1c-0.1-0.5,0.1-0.9,0-1.4c0,0,0,0,0,0.1
						c0.1-0.1,0-0.4,0-0.4c0-0.1,0,0,0.1-0.1c0-0.1-0.1-0.2,0-0.3l0,0c0-0.1,0-0.3,0-0.2c0-0.2,0-0.3,0-0.5c-0.1-0.1,0.1-0.3,0-0.3
						c0.1,0,0.1-0.3,0.1-0.4c0,0,0-0.1,0.1,0c0-0.1,0-0.2-0.1-0.2c0.1-0.2-0.1-0.5,0.1-0.5c0-0.4,0-0.7,0-1c0.1,0,0,0.4,0.1,0.4
						c0-0.3-0.1-0.5,0-0.8c0-0.1,0,0.1,0.1,0.1c0-0.3,0.1-0.6,0-0.8c0,0,0,0,0,0.1c0-0.1,0-0.1,0-0.1v0.1c-0.1,0.1-0.1-0.2-0.1-0.2
						c0.1,0.1,0.1-0.3,0.2-0.1c0,0,0-0.1-0.1-0.1c0-0.1,0-0.1,0.1,0c0-0.2-0.1-0.1,0-0.3c0,0,0,0,0.1,0.1c0-0.1-0.1-0.2,0-0.3
						c0,0,0,0,0,0c0-0.3-0.1-0.5,0-0.7C2,63,2,62.8,2.1,62.8v-0.2L2,62.7c0-0.1,0-0.3,0-0.4l0,0.1l0-0.2L2,62.4c0-0.1-0.1,0-0.1-0.2
						c0,0,0-0.1,0.1-0.2l0,0c0-0.1,0-0.1,0-0.2c0,0,0.1,0,0.1,0c-0.1-0.1,0-0.3,0-0.4c0,0,0.1,0,0.1,0l-0.1-0.1c0-0.1,0-0.1,0.1,0
						c0-0.2-0.1,0,0-0.2c0,0,0,0,0,0c0.1-0.2,0-0.4,0.1-0.6c0.1,0,0,0.2,0.1,0.1c0-0.3,0-0.6,0.1-0.9l0,0.1
						c-0.1-0.1,0.1-0.2,0.1-0.3c0,0,0.1,0.1,0.1,0c0.1-0.2,0-0.4,0-0.7l0,0c0-0.1,0.1-0.3,0.1-0.4c0,0,0-0.1-0.1-0.1
						c0.2-0.3,0-0.7,0.2-1c0,0,0,0.1,0,0.1l0-0.3c-0.1,0,0,0-0.1,0.1c0,0,0-0.1,0-0.2c0,0.1,0.1,0,0.1,0c0,0,0,0-0.1,0
						c0.1-0.1-0.1,0,0-0.2h0c0-0.1,0-0.2,0-0.2c0.1,0,0,0.1,0.1,0.1c0-0.1-0.1-0.3,0-0.3c0,0.1,0,0.1,0,0.2C3,56.6,3,56.6,3,56.5
						l0,0l0.1-0.2l0,0c-0.1-0.2,0-0.3,0-0.5c0.1,0.2,0.1,0,0.1,0.1c0,0,0.1-0.1,0.1-0.1c0-0.1,0.1-0.1,0-0.3c0,0,0-0.1,0.1-0.1
						c0-0.1,0,0-0.1,0c0-0.2,0.2-0.4,0.1-0.7c0-0.1,0-0.2,0-0.2c0,0,0,0,0.1,0c0.1-0.3,0.1-0.6,0.2-0.9c0.1-0.7,0.3-1.5,0.4-2.3
						c0.2-1.5,0.4-3.1,0.6-4.6c0.1-1.3,0-0.8,0.2-2.4l0,0.5c0.2-2.7,0.4-5.5,0.5-8.1c0,0.1,0,0.2,0,0.3c0-0.3,0.1-0.7,0.1-1.1v-0.6
						c0-0.2,0-0.3,0-0.3c0-0.4,0-0.1,0.1-0.4c0-0.5,0-1.4,0-1.7c0-0.5,0-1.4,0-1.1c0-1,0-1.9,0-2.7c0-0.2,0-0.5,0-0.8s0-0.7,0-0.6
						c0,0,0.1,0,0.1,0c-0.1,0.1,1.6-0.2,2.1-0.4c-0.2,0.1,0.5-0.1,0.3,0c0.6-0.1,1.2-0.2,1.1-0.3c1.2-0.1,2.3-0.5,3.1-0.5
						c1.9-0.4,3.6-0.8,5.3-1.2c-0.1,0.1-1.9,0.4-1.8,0.5c1.6-0.4,2.5-0.6,4.1-1c0.4-0.1-0.2,0.1-0.4,0.1c1.6-0.4,3.1-0.7,4.5-1.1
						c-0.1,0,1-0.3,1.2-0.4c-0.4,0.2,1.4-0.3,0.7,0c0.2-0.1,0.4-0.1,0.4-0.1c0.3-0.1,0.4-0.1,0.1,0c1-0.3,0.6-0.2,1.6-0.4
						c0,0,0,0,0,0c0.4-0.1,0.8-0.2,1.4-0.4c0,0,0,0,0,0c1.3-0.3,2.2-0.6,3.6-1c-0.4,0.2,0.5-0.1,0.6-0.1l0.8-0.2l-0.3,0.1
						c0.7-0.2,1.3-0.4,1.9-0.5l-0.5,0.2l1.3-0.4L35.4,21c0.7-0.2-0.1-0.1,0.8-0.3c-0.2,0.1,0.7-0.2,1.1-0.3c0.3-0.1,0.7-0.2,1.2-0.4
						c0.1,0-0.1,0.1,0,0.1c0.1-0.1,0.6-0.2,1-0.3c0.1,0,0.1,0,0.2-0.1c0,0,0,0,0.1,0v0.1c0,0,0,0.1,0,0.1c0,0.1,0.1,0.3,0.1,0.4
						c0-0.1,0-0.1,0,0l0.1,0.3c0,0.4,0,0.4,0,0.4c0.1,1,0-0.3,0.1,0.8c0,0,0-0.1,0-0.1c0.1,1.3,0.1,2.4,0.1,3.6
						c-0.1,0.4,0-1-0.1-0.6c0,1.6-0.1,3.3-0.2,4.9c0,0.2-0.1,1.1-0.2,1.9c0-0.1,0-0.1,0-0.1c-0.1,1.1-0.3,2.3-0.5,4v-0.2
						c-0.1,0.6-0.3,1.7-0.4,2.4c0,0.2-0.1,0.6,0,0.4c-0.5,2.2-0.7,4.2-1.1,6c0,0,0-0.1,0-0.1l-0.3,1.4c0.1-0.1,0.1-0.2,0.1-0.5
						c0,0.2-0.1,0.7-0.2,1.1c0.1-0.7-0.1,0-0.1,0.3c0-0.1,0,0.1,0,0c-0.2,0.8,0,0.2-0.2,1.3v-0.1c-0.1,0.5-0.1,0.8-0.3,1.3
						c-0.1,0.2,0.1-0.5,0.1-0.5c-0.1,0.6-0.2,1.3-0.4,1.9c0.1-0.3,0.1-0.7,0.2-1c-0.2,0.6-0.2,0.7-0.3,1.2l-0.3,1.1l0.1-0.3
						c-0.1,0.8-0.4,1.7-0.6,2.8c0.2-1.1,0-0.2,0-0.3c-0.1,0.3-0.2,0.7-0.2,0.6c-0.1,0.5-0.2,0.9-0.4,1.6c0,0-0.1,0.5-0.1,0.4
						c0,0.1,0,0.2-0.1,0.3c0,0,0.1-0.4,0.1-0.4c-0.2,0.8-0.5,1.8-0.8,2.9l0-0.1c-0.1,0.3-0.1,0.5-0.2,0.8c0,0.1-0.1,0.2-0.1,0.4
						c-0.3,1.3-0.3,1.5-0.6,2.7c0,0,0,0.1,0,0.1c-0.1,0.3,0.1-0.4,0.1-0.4c-0.2,0.6-0.3,1.1-0.5,1.7c0-0.1,0,0-0.1,0.2
						c0,0.1-0.1,0.2-0.1,0.3c0-0.1,0-0.1,0.1-0.2l0,0.4c-0.2,0.8-0.5,1.5-0.7,2.3c-0.1,0.2-0.1,0.3-0.2,0.5c0,0,0-0.1,0-0.2
						c0.1-0.5,0.2-0.7,0.3-0.8l-0.1,0.4c0.1-0.3,0.3-1,0.5-1.7c0-0.1,0-0.3,0.1-0.5c-0.1,0.6-0.3,1.2-0.5,1.7
						c-0.1,0.2,0.1-0.4,0.1-0.6c-0.2,0.7-0.5,1.7-0.5,2C31.1,68.9,30.8,70.1,30.3,71.1z M45.5,60.1c0.1-0.1-0.1,0.1-0.3,0.3
						L45.5,60.1C45.6,60,45.6,60,45.5,60.1z M50.9,53.3c-0.1,0.1,0.4-0.9,0.1-0.4c0,0,0.1-0.2,0.1-0.3c0.1-0.1,0.1-0.3,0.1-0.3
						C51.1,52.7,51,53.1,50.9,53.3z M54.3,37.4c0,0-0.1,0.3-0.1,0.7c0.1-0.7,0.2-1.4,0.2-2.2C54.4,36.1,54.4,36.5,54.3,37.4z
						 M54.8,17.4C54.8,17.3,54.8,17.4,54.8,17.4c-0.1,0.6,0.1,0.1,0,0.9l0,0v0.9c0,0,0,0,0,0c0,0.3,0,0.6,0,1v-0.6
						c-0.1,0.5-0.1,0.5-0.1,0.8l0,0.3c0,0,0,0,0-0.1l0,0.5l0-0.2c0.1,0.5,0,1.1,0,1.9c0-0.7,0-0.1-0.1-0.2c0,0.2-0.1,0.5-0.1,0.4
						c0,0.4-0.1,0.6,0,1.1c0,0,0,0.4-0.1,0.3c0,0.5,0-0.1,0.1-0.1c0,0.5-0.1,1.2-0.1,1.9l0.1-0.2c0,0.2,0,0.3-0.1,0.5v-0.3
						c0,0.3,0,0.5,0,0.8c0,0.8,0,1,0,1.7c-0.1-0.3-0.1-0.2-0.1-0.1c0,0.1,0-0.3,0-0.3c-0.1,0.4-0.1,0.7-0.1,1.1c0-0.1,0-0.1,0.1-0.1
						c0,0.2,0,0.4-0.1,0.6v-0.4c0-0.1,0,0-0.1,0.1c0,0.1,0,0.1,0,0.2c0,0,0-0.1,0-0.1l0,0.2c0,0.4-0.1,0.8-0.1,1.2
						c0-0.3,0-0.5,0.1-0.9c0-0.1,0-0.2,0-0.3c0,0.4,0,0.8-0.1,1.2c0,0.1,0-0.3,0-0.4c0,0.2,0,0.5-0.1,0.7c0-0.2,0.1-0.3,0.1-0.3
						l0,0.3c0-0.1,0.1-0.2,0.1-0.3c-0.1,1.1-0.2,2.2-0.3,3.2c0,0,0,0,0,0.1c0,0,0-0.1-0.1-0.1c0,0,0-0.1,0-0.2l0-0.2l0,0.4
						c0,0.1-0.1,0.2-0.1,0.6l0,0.6l-0.1,0.2c0,0.1,0,0.1,0,0.2c0,0.1-0.1,0.1-0.1,0.3v0.6c0,0.1,0-0.3-0.1,0.1
						c0,0.3,0.1-0.3,0.1,0.2c-0.1,0.3-0.1,0.2-0.1,0.6c0,0.1,0,0,0-0.2c0,0.3-0.1,0.9-0.1,1c-0.1,0.3-0.1,1.1-0.2,1.1
						c0,0.1,0,0.6-0.1,0.9c0-0.5-0.1,1.1-0.2,1c0,0.4-0.1,1.4-0.2,2.2v-0.2c-0.1,0.4-0.1,0.5-0.1,0.8c0.1,0.1,0,0.7,0,1
						c-0.1,0.5,0-0.3-0.1-0.2c0.1,0-0.1,0.9,0,0.7c-0.1,0.4-0.1,0.3-0.1,0.5c0.1,0.1,0,0.4,0,0.7c-0.1,0.5-0.1,0.1-0.1,0.7
						c-0.1,0.3,0-0.3,0-0.3c-0.1,0.6,0,0.3,0,0.4c-0.1,0.7-0.1,0.3-0.1,0.6c-0.1,0.5-0.1,0.8-0.1,1.1c0,0,0,0.1,0,0
						c0,0.5-0.2,1.4-0.3,2l0,0c0,0,0,0,0.1,0c-0.1,0.3-0.1,0.5-0.1,0.6c0-0.2,0-0.2,0-0.3l-0.1,0.3c-0.1,0.2,0.1-0.4,0-0.4
						c0,0.2-0.1,0.4-0.1,0.5c-0.2,0.4,0.1-0.4-0.1,0c-0.1,0.4-0.2,0.6-0.3,0.8c-0.1,0.1-0.1,0.2-0.1,0.4c-0.1,0.1-0.1,0.3-0.2,0.5
						c-0.1,0.2,0.1,0,0,0.2c-0.3,0.5-0.4,0.7-0.6,0.8s-0.2,0.3-0.5,0.6c-0.1,0.2-0.1,0.3-0.6,0.8l0.1-0.2c-0.5,0.6-0.2,0.4-0.8,1
						c0.1-0.1,0.4-0.5,0.3-0.4c-0.4,0.4-0.2,0.3-0.5,0.6l-0.1,0c-0.6,0.6-1.2,1.4-1.8,2.1c0,0,0-0.1,0-0.1l0,0l0,0c0,0,0-0.1-0.1,0
						c-0.8,0.9-1.7,1.9-2.5,2.7l-0.3,0.4c-0.1,0.1-0.1,0.1-0.1,0c-0.3,0.3,0,0-0.1,0.2c-0.2,0.2-0.3,0.2-0.1,0.1
						c-0.5,0.6-1.6,1.7-2.2,2.2l0.1-0.1c-0.5,0.4-0.5,0.6-0.9,0.9l0.1-0.1c-1.1,0.9-2.2,1.9-3.1,2.5c-0.1,0.2-1.1,0.8-1.2,0.9
						c-0.7,0.4-0.5,0.3-1.4,0.8c-0.3,0.2-0.4,0.3-0.7,0.5l0,0c0,0-0.1,0.1-0.2,0.2c-0.1,0.1-0.2,0.2-0.2,0.2l-0.3,0.1l-0.3,0.2
						c0.1-0.1,0.3-0.1,0.3-0.1c-0.5,0.3-1.2,0.6-1.2,0.5l-0.2,0.1l0,0c0,0-0.1,0.1-0.1,0.1l0-0.1c0,0,0,0,0,0c0,0,0,0,0,0h0
						c0,0,0-0.1,0.1-0.3c0,0.1,0-0.1,0-0.1c0.1-0.3,0.4-1,0.5-1.5v0.1c0.3-1,0.6-2,0.9-3.1c-0.1,0.4-0.1,0.3-0.1,0l0,0
						c0,0,0-0.1,0-0.2c0.1-0.4,0.1-0.3,0.1,0l0.1-0.5c0,0,0,0.1,0,0.1c0-0.2,0.3-0.8,0.3-1.2l0,0c0.3-1.1,0.4-1.6,0.7-2.5
						c0,0,0.1-0.4,0.1-0.6c0.2-0.6,0.4-1.4,0.6-2.2c0.1-0.5,0-0.2,0.1-0.4c0.1,0,0.3-0.8,0.2-0.4c0.2-1,0.3-1.2,0.6-2.4
						c-0.1,0.1-0.1,0.3-0.1,0.2c0.1-0.2,0.1-0.5,0.1-0.5v0.1c0.3-1.4,0.9-3.1,1-4.2v0.1l0.2-1.1c0.1-0.5,0,0.3,0.1-0.1
						c0.2-1.2,0.4-1.9,0.6-2.9c0.3-0.7,0.6-2.8,0.8-3.8l0,0.1c0-0.3,0.1-0.3,0.1-0.5c0,0-0.1,0.3-0.1,0.1c0.4-2.3,0.9-4.7,1.3-7.1
						c0.1-0.9-0.1-0.5,0.2-1.6v0.3c0.2-1.8,0.6-3.6,0.7-5.3c0,0.1,0,0.1,0,0.3c0.1-0.4,0.1-1.4,0.1-1.4c0-0.3,0-0.1,0.1-0.2
						c0.1-0.4,0-0.9,0.1-1.1v0.1c0-0.3,0.1-1,0-0.8c0.1-0.6,0-1.3,0.1-1.8c0-0.4,0-1.1-0.1-1.2c0,0,0.1-0.3,0-0.6
						c0-0.4-0.1-0.7-0.1-1c0,0.1,0-0.4,0-0.2c0-0.5-0.1-0.9-0.1-0.8c0-0.2,0-0.5,0-0.6c0-0.2-0.1-0.4-0.1-0.6s-0.1-0.4-0.1-0.5
						c0-0.1,0-0.2,0-0.2c0,0,0,0,0,0c0,0,0,0,0.1,0c0.7-1.1,1.4-2.2,2.1-3.2c0,0,0,0,0,0.1c0.3-0.5,0.6-0.9,1-1.4
						c0.2-0.2-0.1,0.2-0.1,0.3c0.7-0.9,1.3-1.7,1.9-2.6c0-0.1,0.5-0.7,0.5-0.8c-0.1,0.3,0.6-0.8,0.4-0.3c0.1-0.1,0.2-0.3,0.1-0.2
						c0.1-0.2,0.2-0.2,0.1,0c0.4-0.6,0.3-0.4,0.7-0.9c0,0-0.1,0.1-0.1,0.2c0.2-0.3,0.4-0.5,0.7-1c0,0,0,0-0.1,0.1
						c0.6-0.7,1-1.3,1.7-2.1c-0.1,0.3,0.2-0.3,0.3-0.3L50.2,7L50,7.1c0.3-0.4,0.6-0.7,0.9-1l-0.2,0.3l0.6-0.7l-0.4,0.4
						c0.3-0.4-0.1,0,0.4-0.5c-0.1,0.1,0.3-0.4,0.5-0.5c0.1-0.2,0.3-0.4,0.6-0.6c0.1-0.1,0,0.1,0,0.1c0.1-0.2,0.8-0.8,0.9-1.1
						c-0.1,0.1,0,0.1,0,0.1l0.1-0.2c0.2-0.2,0.2-0.2,0.2-0.1c0.5-0.5-0.2,0.1,0.4-0.5v0c0.1-0.1,0.2-0.2,0.2-0.3l0.2-0.3
						c0,0.2,0,0.4,0.1,0.5c0,0.2,0,0.5,0,0.7c0,0.2-0.1-0.7-0.1-0.4c0.1,1.1,0.2,2.3,0.2,3.4V6.2c0.1,0.2,0,0.8,0.1,1.4
						c0-0.1-0.1-0.2,0-0.1c0,0.7,0.1,1.5,0.1,2.6l0-0.1v1.6c0,0.1,0,0.4,0.1,0.3c-0.1,1.4,0.1,2.8-0.1,4.1v0.3c0,0.3,0,0.5,0,0.5
						c0-0.1,0-0.1,0.1-0.4c0,0.1,0,0.5,0,0.7C54.9,16.7,54.8,17.1,54.8,17.4z"/>
					<path id="Shape_12_" class="st1" d="M29.5,58.7C29.5,58.7,29.6,58.7,29.5,58.7L29.5,58.7c-0.2,0-0.3,0.1-0.4,0.1l-0.2,0
						c-0.3,0,0.5,0-0.1,0.1c-0.6,0-0.4,0-0.1-0.1L28,58.8c0,0,0.1,0,0.2-0.1c-0.3,0-1.2,0-1.6,0.1h0c-1.6,0-2.3,0.1-3.5,0.1
						c0,0-0.5,0-0.9,0.1c-0.9,0-2-0.1-3.1-0.1c-0.8,0-0.2,0-0.6,0c-0.1,0-1.2-0.1-0.6-0.1c-1.3-0.1-1.7-0.1-3.3-0.1l0,0
						c0,0-0.1,0-0.1,0l0,0h0h0c0,0,0,0,0.1,0.1c-0.1,0-0.1,0-0.2,0c0,0,0-0.1,0-0.1s0,0,0.1,0c0,0,0-0.1,0.1-0.1l-0.1,0l0,0
						c0,0-0.1-0.1-0.1-0.1L14,58.6l-0.1-0.1l0.1,0c-0.1,0-0.1,0-0.1,0c0,0,0,0-0.1-0.1l-0.1,0.1c0,0,0.1-0.1,0-0.1
						c-0.1,0,0,0.1,0,0.1c0,0,0,0-0.1,0c0,0,0-0.1-0.1,0c0,0,0,0,0-0.1c-0.1,0-0.2,0-0.2,0.1c-0.1-0.1-0.2,0-0.2-0.1
						c0,0-0.1,0.1-0.2,0.1c0.1-0.1-0.2,0-0.2-0.1c-0.1,0.1-0.3,0.1-0.4,0.1l0,0c-0.1,0-0.1,0-0.2-0.1c0,0.1-0.1,0.1-0.2,0.2
						c-0.1-0.1,0.1-0.1,0-0.2c0,0.1-0.2,0.1-0.1,0.2c-0.1-0.1-0.1,0-0.1-0.1c0,0.1-0.1,0-0.1,0.1c-0.1-0.1,0-0.1-0.1-0.1
						c-0.1,0,0.1-0.1,0.1-0.1c-0.1,0-0.1,0.1-0.1,0.1c-0.1,0-0.1-0.1-0.1-0.1c-0.1,0-0.2,0.1-0.2,0.1c0,0,0,0,0,0
						c-0.1,0.1-0.3,0-0.4,0.1c0,0,0,0,0,0c0,0,0,0.1,0,0.1c-0.1,0-0.1,0.1-0.1,0c0,0,0,0,0.1,0l-0.1,0c-0.1-0.1,0.1,0,0.1-0.1
						c-0.1,0-0.3,0.1-0.4,0.1c0-0.1,0.2,0,0.1-0.1l0.1,0c-0.1-0.1,0.1,0,0-0.1c-0.2,0-0.2,0-0.4,0c0,0,0,0.1,0,0.1
						c-0.3,0.1-0.2-0.2-0.4-0.1c-0.1,0.1-0.1,0.2-0.2,0.1l0.1-0.1c-0.2,0-0.1,0.1-0.3,0.1c0,0,0.1,0,0.1,0c-0.1-0.1-0.1,0-0.2,0
						v-0.1c-0.2,0-0.4,0-0.6,0c0,0,0.1,0,0-0.1c-0.3,0-0.5-0.1-0.8-0.1c0,0-0.1,0-0.1,0c-0.1,0-0.1,0.1-0.1,0.1c0,0-0.1,0,0,0
						c-0.2,0.1,0,0-0.1,0.1c-0.1,0.1-0.1,0-0.1,0c-0.1,0.1-0.2,0.3-0.2,0.5c0,0,0,0.1,0,0.1c0,0,0,0.1,0,0.1c0,0.1,0,0.1,0,0.2l0,0
						c0,0.2,0.1,0.2,0.1,0.3v0c-0.1,0.3,0,0.7-0.1,1c0.1,0.1-0.1,0.3,0.1,0.4C7,61.3,7,61.2,6.9,61.5c0,0.1,0.1,0.1,0.1,0.2H6.9
						l0.1,0.1l-0.1,0.1V62c0,0,0-0.1,0.1-0.1c0,0.1-0.1,0.3-0.1,0.3v0.3c0,0,0-0.1,0-0.1c0,0.2-0.1,0,0,0.2c0,0,0,0,0.1,0
						c-0.1,0.1-0.1,0.2-0.1,0.4l0,0c-0.1,0.2-0.1,0.5-0.1,0.7c0-0.1,0.1,0,0.1,0H6.6c0,0.1,0-0.1,0.1,0c0,0.1-0.1,0-0.1,0v0.1
						c0,0,0,0-0.1,0c0,0.1-0.1,0.2-0.1,0.3h0c-0.1,0.3-0.1,0.4-0.1,0.6c0.1,0,0,0.1,0.1,0.2c-0.1,0.2-0.1,0.3-0.2,0.5
						c0,0.1,0,0.1,0.1,0.1c-0.1,0-0.1,0.2-0.1,0.1c0,0.2-0.1,0.3-0.1,0.6c0,0,0.1-0.1,0.1,0c0,0.1-0.1,0.1-0.1,0.1l0,0
						c0,0.3-0.4,0.6-0.3,0.9l0,0v0.3c0,0.1,0-0.1-0.1,0c0,0.3-0.1,0.4-0.1,0.7c-0.1,0.1-0.1,0.2-0.2,0.4l0,0.1l0,0.1
						c0,0.1,0,0.1,0,0.2c0,0.2,0,0.3,0.1,0.4l0,0l0,0c0,0,0,0,0,0.1c0,0.1,0,0.1,0,0.2v0.2c0,0.1,0.1,0.3,0.1,0.4
						c0.1,0.1,0.2,0.2,0.4,0.2h0.3c0.2,0,0.4,0,0.6,0l0.6-0.1c0.1,0,0.3,0,0.1,0c0.6,0,0,0,0.4-0.1c0.4,0,0.5,0,0.3,0
						c1.1-0.1,3.3-0.3,4.5-0.3l-0.2,0c0.9,0,1.1-0.2,1.9-0.2l-0.2,0c2.1-0.1,4.3-0.4,5.9-0.4c0.3-0.1,2-0.1,2.1-0.3
						c1.2-0.1,0.9,0,2.5-0.1c0.4,0,0.6-0.1,1.2-0.2l0,0l0.7-0.1l0.4,0l0.4-0.1c-0.2,0-0.4,0-0.3,0c0.8-0.1,1.9-0.2,2-0.1
						c0,0,0.2,0,0.4-0.2c0.1-0.1,0.2-0.3,0.2-0.4c0-0.2,0-0.3,0-0.4c0.1-0.5,0.1-1,0.1-1v0.4c0.1-0.6,0.1,0,0.1-0.9
						c0,0.1,0-0.1,0-0.1c0.1-0.5,0.2-1.6,0.2-2.5l0,0.2c0.1-0.8,0.1-1.6,0.1-2.4c0-0.4,0-0.8,0-1.3v-0.4c0-0.2-0.1-0.3-0.2-0.4
						C29.8,58.8,29.6,58.7,29.5,58.7z M11.3,59.8C11.4,59.8,11.4,59.8,11.3,59.8C11.4,59.9,11.4,59.9,11.3,59.8
						C11.3,59.9,11.3,59.9,11.3,59.8z M14.5,58.6c0.1,0,0.2,0,0.1,0C14.6,58.7,14.5,58.7,14.5,58.6C14.5,58.7,14.5,58.7,14.5,58.6z
						 M8.5,58.6C8.5,58.6,8.5,58.6,8.5,58.6C8.5,58.6,8.5,58.6,8.5,58.6L8.5,58.6z M8.3,58.6C8.3,58.6,8.3,58.6,8.3,58.6
						c0,0-0.1,0-0.1,0C8.3,58.6,8.3,58.6,8.3,58.6z M28.8,60L28.8,60C28.7,60,28.8,60,28.8,60l-0.1,0.2v0.1c0-0.1,0-0.1,0-0.1
						c0,0.2,0,0.5-0.1,0.5l0,0.5c0,0,0,0,0-0.1c0,0.1-0.1,0,0,0.2c0,0,0,0,0,0c0,0.1,0,0.4,0,0.6l0,0c0,0.4,0,0.8-0.1,1.3
						c0-0.2,0.1-0.1,0.1,0l-0.1,0.1c0,0.1,0-0.1,0.1,0c0,0.2-0.1,0.1-0.1,0v0.2c0,0,0,0,0-0.1c0,0.1-0.1,0.4,0,0.5h0
						c0,0.5,0,0.6-0.1,1c0,0,0,0.2,0,0.3c0,0.3-0.1,0.5-0.1,0.9c0,0.2,0,0.1,0,0.2c0,0-0.1,0.3-0.1,0.2c0,0.1,0,0.2,0,0.3
						s0,0.1,0,0.1c0,0,0,0-0.1,0c-0.1,0-0.1,0-0.2,0c0.1,0,0.1,0,0.1,0c-0.1,0-0.2,0-0.2,0c-0.5,0.1-1.1,0-1.5,0.1h0l-0.4,0.1
						c-0.2,0,0.1,0,0-0.1c-0.4,0.1-0.7,0.1-1.1,0.1c-0.3-0.1-1,0.1-1.4,0.1l0,0c-0.1,0-0.1,0-0.2,0c0,0,0.1,0,0.1,0
						c-0.8,0.1-1.7,0.1-2.6,0.2c-0.3,0-0.2,0.2-0.6,0.1l0.1-0.1c-0.6,0.1-1.3,0.1-1.9,0.2c0,0,0,0,0.1,0c-0.1,0-0.5,0-0.5,0.1
						c-0.1,0,0,0-0.1,0c-0.1,0-0.3,0.1-0.4,0c0,0,0,0,0.1,0c-0.1,0-0.4,0-0.3,0.1c-0.2,0-0.4,0.1-0.6,0c-0.1,0.1-0.4,0-0.4,0.1
						c0-0.1-0.4,0-0.6,0c0.1,0-0.1,0-0.1,0c-0.2,0-0.3,0-0.3,0.1c-0.3-0.1-0.6,0.1-0.8,0c-0.5,0.1-1,0.1-1.4,0.2
						c0-0.1,0.5,0,0.5-0.1c-0.4,0.1-0.7,0.1-1.1,0.2c-0.1,0,0.1,0,0.1-0.1c-0.4,0.1-0.8,0.1-1.2,0.1c0,0,0,0,0.1,0
						c-0.1,0-0.2,0-0.2,0h0.1c0.1,0-0.3,0.1-0.3,0.2c0.1-0.1-0.4,0-0.2-0.1c-0.1,0-0.1,0-0.1,0.1c-0.1,0-0.1,0,0,0
						c-0.3,0-0.2,0.1-0.4,0.1l0.1,0c-0.1,0-0.2,0.1-0.4,0.1c0,0,0,0,0.1,0c-0.4,0-0.6,0.1-1,0.1c0.1-0.1-0.1,0-0.1-0.1l-0.2,0l0.1,0
						c-0.2,0-0.4,0.1-0.5,0.1c-0.2,0,0,0.1-0.2,0.1c0,0-0.2,0-0.3,0c-0.1,0-0.2,0.1-0.3,0c0,0,0-0.1,0-0.1c-0.1,0.1-0.4,0-0.5,0.1
						c0,0,0,0,0-0.1l-0.1,0c-0.1,0-0.1,0-0.1,0c-0.2,0,0.1,0.1-0.2,0.1c0,0,0,0,0.1,0H6.7l0,0c0.1-0.1,0.1-0.3,0.2-0.4
						c0.1-0.2-0.1-0.2,0-0.4L6.9,68c0-0.4,0.2-0.8,0.3-1.2c0,0,0,0,0,0.1c0.1-0.1,0.1-0.3,0-0.3c0-0.1,0,0,0.1,0
						c0.1-0.1,0-0.2,0.1-0.3v0c0-0.1,0.1-0.3,0-0.2c0.1-0.1,0-0.3,0.1-0.4c-0.1-0.1,0.1-0.3,0-0.3c0.1,0,0.1-0.2,0.1-0.4
						c0,0,0.1-0.1,0.1,0c0-0.1,0-0.2,0-0.2c0.1-0.2,0-0.4,0.1-0.5c0-0.3,0-0.6,0.1-0.9c0.1,0-0.1,0.3,0.1,0.3c0-0.3-0.1-0.5,0-0.7
						C8,62.9,8,63,8,63c0-0.3,0.1-0.5,0.1-0.8c0,0,0,0,0,0.1c0-0.1,0-0.1,0-0.1v0.1C8,62.4,8,62.1,7.9,62.1C8,62.2,8,61.8,8.1,62
						c0,0,0-0.1-0.1-0.1c0,0,0-0.1,0.1,0c0-0.2-0.1-0.1,0-0.3c0,0,0,0,0.1,0.1c0-0.1-0.1-0.2,0-0.3c0,0,0,0,0,0c0-0.2-0.1-0.4,0-0.6
						c0.1,0.1,0-0.1,0.1-0.1v-0.1l-0.1,0.1c0-0.1,0-0.2,0-0.3l0,0.1v-0.2l0,0.1c0-0.1-0.1,0-0.1-0.2c0,0,0-0.1,0.1-0.1l0,0
						c0-0.1,0-0.1,0-0.2l0,0c0,0,0.1,0.1,0.1,0.1c0-0.1,0.1,0,0.2-0.1c0,0,0,0.1,0,0.1c0,0,0,0,0-0.1c0,0,0.1,0,0,0.1
						c0.1,0,0-0.1,0.1-0.1c0,0,0,0,0,0c0.2,0,0.4,0,0.5,0C9.2,60,9,59.9,9,60c0.2,0,0.5-0.1,0.7,0h0c0-0.1,0.2,0.1,0.3,0
						c0,0,0,0.1,0,0.1c0.1,0,0.3,0,0.6-0.1l0,0c0.1,0,0.2,0,0.4,0c0,0,0.1,0,0.1-0.1c0.3,0.2,0.6-0.1,0.9,0c0,0-0.1,0-0.1,0l0.2,0
						c0-0.1,0,0-0.1-0.1c0,0,0.1-0.1,0.1-0.1c-0.1,0,0,0.1,0.1,0.1c0,0,0,0,0-0.1c0.1,0.1,0-0.1,0.2-0.1v0c0.1,0,0.1-0.1,0.2-0.1
						c0,0.1-0.1,0-0.1,0.1c0.1,0,0.2-0.1,0.3-0.1c0,0-0.1,0-0.1,0c0.1,0.1,0.1,0.1,0.2,0.1l0,0l0.1,0l0,0c0.1-0.2,0.2-0.1,0.4-0.2
						c-0.1,0.1,0,0.1,0,0.1c0,0,0.1,0,0.1,0.1c0.1-0.1,0.1,0,0.2-0.1c0,0,0.1,0,0.1,0.1c0.1,0,0,0,0-0.1c0.1,0,0.1,0,0.2,0
						c0,0,0,0,0.1,0h0c0.1,0,0.2,0,0.3-0.1c0,0,0,0,0,0c0,0,0,0-0.1,0c0.1,0,0.3,0,0.4,0c0.1,0.1,0.4,0,0.4,0.1c0,0,0.2,0,0.3,0
						c-0.2,0.1,0.4,0,0.4,0.1c0.1-0.1,0.5,0,0.7,0l0,0h0h0l0,0c0.1,0,0.1,0,0.2,0.1c0-0.1,0.2-0.1,0.4-0.1c0.2,0.1-0.1,0.1-0.1,0.1
						c0-0.1,0.3,0,0.3-0.1c0.1,0,0.1,0,0.2,0.1c0-0.1,0.1,0,0.2-0.1c0.2,0,0.1,0.1,0.3,0.1c0.1,0-0.1,0.1-0.1,0.1
						c0.2,0,0.1-0.1,0.1-0.1c0.3,0,0.1,0.1,0.2,0.1c0.2,0,0.3-0.1,0.4-0.1c0,0,0,0,0,0c0.2,0,0.5,0,0.7,0c0,0,0,0,0,0
						c0,0,0-0.1,0-0.1c0.1,0,0.2,0,0.2,0c-0.1,0-0.1,0-0.1,0h0.1c0.1,0.1-0.1,0-0.1,0.1c0.2,0,0.4-0.1,0.6,0c0,0.1-0.4,0-0.1,0.1
						l-0.2,0c0.2,0.1-0.1,0,0,0.1c0.3,0,0.4,0,0.7,0c0.1,0,0,0,0.1-0.1c0.4,0,0.4,0.1,0.7,0.1c0.1,0,0.1-0.1,0.4-0.1l-0.1,0.1
						c0.3,0,0.2-0.1,0.5,0c-0.1,0-0.2,0-0.2,0c0.2,0.1,0.1,0,0.3,0l0,0.1c0.3,0,0.7,0,1-0.1c0,0-0.1,0,0,0.1c0.4,0,1,0,1.4,0
						l0.2-0.1c0,0,0.1,0,0,0c0.2,0,0,0,0.1-0.1c0.1,0,0.1,0,0.1,0c0.3,0,0.8-0.1,1.1-0.1c0.2,0,0.2-0.1,0.5-0.1c0.5,0,1.1-0.1,1.5,0
						c0.1-0.1,0.5,0,0.6-0.1C28.5,60,28.4,60,28.8,60c0,0.1,0.1,0,0.1,0C28.8,59.9,28.8,59.9,28.8,60z"/>
					<path id="Path_47_" class="st1" d="M1.4,58.4C1.4,58.3,1.4,58.3,1.4,58.4C1.4,58.3,1.4,58.2,1.4,58.4z"/>
					<path id="Path_46_" class="st1" d="M1.7,67.5l0,0.2C1.7,67.6,1.7,67.5,1.7,67.5z"/>
					<path id="Path_45_" class="st1" d="M1.6,68.1C1.6,68.2,1.6,68.2,1.6,68.1c-0.1,0.1-0.1,0.1-0.1,0.1L1.6,68.1z"/>
					<polygon id="Path_44_" class="st1" points="0.4,65.3 0.4,65.3 0.4,65.3 					"/>
					<path id="Path_43_" class="st1" d="M3.2,55.9C3.1,55.9,3.1,55.9,3.2,55.9L3.2,55.9L3.2,55.9z"/>
					<path id="Path_42_" class="st1" d="M1.9,64.5C1.9,64.5,1.9,64.6,1.9,64.5C1.9,64.6,1.9,64.6,1.9,64.5z"/>
					<path id="Path_41_" class="st1" d="M2.1,61.9C2.1,62,2.1,62,2.1,61.9C2.1,62,2.1,61.9,2.1,61.9z"/>
					<path id="Path_40_" class="st1" d="M2.1,62c0,0,0,0.1,0,0.1C2.1,62.1,2.1,62.1,2.1,62z"/>
					<path id="Path_39_" class="st1" d="M3.5,54.3C3.4,54.4,3.4,54.4,3.5,54.3c0,0,0.1,0,0-0.1h0C3.5,54.2,3.5,54.3,3.5,54.3z"/>
					<polygon id="Path_38_" class="st1" points="2.3,60.8 2.3,60.8 2.3,60.7 					"/>
					<path id="Path_37_" class="st1" d="M10.5,58.6C10.5,58.7,10.5,58.7,10.5,58.6C10.5,58.6,10.7,58.6,10.5,58.6z"/>
					<path id="Path_36_" class="st1" d="M7.6,65l0,0.1C7.6,65.1,7.6,65.1,7.6,65z"/>
					<path id="Path_35_" class="st1" d="M7.5,65.6C7.5,65.6,7.5,65.6,7.5,65.6C7.5,65.6,7.5,65.6,7.5,65.6L7.5,65.6z"/>
					<polygon id="Path_34_" class="st1" points="6.7,61.6 6.8,61.6 6.7,61.6 					"/>
					<path id="Path_33_" class="st1" d="M8,62.3C8,62.3,8,62.4,8,62.3C8,62.4,8,62.4,8,62.3z"/>
					<path id="Path_32_" class="st1" d="M8.2,60C8.2,60,8.2,60,8.2,60C8.2,60,8.2,60,8.2,60z"/>
					<polygon id="Path_31_" class="st1" points="7.7,65 7.7,65 7.6,65 					"/>
					<path id="Path_30_" class="st1" d="M8.2,60.1C8.2,60.1,8.2,60.1,8.2,60.1C8.2,60.1,8.2,60.1,8.2,60.1z"/>
					<polygon id="Path_29_" class="st1" points="8.9,60 8.9,59.9 8.8,59.9 					"/>
				</g>
			</g>
		</g>
	</g>
</g>
</svg>
