<svg id="Livello_1" data-name="Livello 1" xmlns="http://www.w3.org/2000/svg" xmlns:xlink="http://www.w3.org/1999/xlink" viewBox="0 0 40 40"><defs><style>.cls-1{fill:#fff;fill-rule:evenodd;}.cls-2{mask:url(#mask);}.cls-3{fill:#1f3a6e;}</style><mask id="mask" x="0" y="0" width="40" height="40" maskUnits="userSpaceOnUse"><g transform="translate(-121.5 -263)"><g id="mask-2"><path id="path-1" class="cls-1" d="M159.5,270.79a13.7,13.7,0,0,1-4.24,1.27,8,8,0,0,0,3.25-4.47,13.92,13.92,0,0,1-4.7,2,7.07,7.07,0,0,0-5.39-2.55c-4.07,0-7.38,3.62-7.38,8.08a8.57,8.57,0,0,0,.19,1.84A20.4,20.4,0,0,1,126,268.47a8.63,8.63,0,0,0-1,4.07,8.3,8.3,0,0,0,3.28,6.72,6.87,6.87,0,0,1-3.34-1v.1a7.93,7.93,0,0,0,5.92,7.92,6.6,6.6,0,0,1-1.94.28,7,7,0,0,1-1.39-.14,7.49,7.49,0,0,0,6.9,5.6,14,14,0,0,1-9.18,3.46,12.9,12.9,0,0,1-1.76-.11A19.64,19.64,0,0,0,134.82,299c13.59,0,21-12.31,21-23,0-.35,0-.71,0-1a15.91,15.91,0,0,0,3.68-4.18"/></g></g></mask></defs><title>twitter-alpha</title><g class="cls-2"><rect id="Rectangle" class="cls-3" width="40" height="40"/></g></svg>