<?xml version="1.0" encoding="UTF-8"?>
<svg width="25px" height="24px" viewBox="0 0 25 24" version="1.1" xmlns="http://www.w3.org/2000/svg" xmlns:xlink="http://www.w3.org/1999/xlink">
    <title>21E1C834-177F-4BB9-837D-4DA9AC08E6FD</title>
    <defs>
        <rect id="path-1" x="0" y="0" width="1000" height="280" rx="12"></rect>
        <filter x="-5.2%" y="-15.7%" width="110.4%" height="137.1%" filterUnits="objectBoundingBox" id="filter-2">
            <feMorphology radius="4" operator="dilate" in="SourceAlpha" result="shadowSpreadOuter1"></feMorphology>
            <feOffset dx="0" dy="8" in="shadowSpreadOuter1" result="shadowOffsetOuter1"></feOffset>
            <feGaussianBlur stdDeviation="12" in="shadowOffsetOuter1" result="shadowBlurOuter1"></feGaussianBlur>
            <feColorMatrix values="0 0 0 0 0   0 0 0 0 0   0 0 0 0 0  0 0 0 0.16 0" type="matrix" in="shadowBlurOuter1"></feColorMatrix>
        </filter>
        <path d="M4.19238816,15.6923882 L14.1923882,15.6923882 C15.0208153,15.6923882 15.6923882,15.0208153 15.6923882,14.1923882 C15.6923882,13.363961 15.0208153,12.6923882 14.1923882,12.6923882 L5.69238816,12.6923882 L5.69238816,12.6923882 L5.69238816,4.19238816 C5.69238816,3.36396103 5.02081528,2.69238816 4.19238816,2.69238816 C3.36396103,2.69238816 2.69238816,3.36396103 2.69238816,4.19238816 L2.69238816,14.1923882 C2.69238816,15.0208153 3.36396103,15.6923882 4.19238816,15.6923882 Z" id="path-3"></path>
    </defs>
    <g id="Nuovi-moduli" stroke="none" stroke-width="1" fill="none" fill-rule="evenodd">
        <g id="Desktop---Calendario-v2" transform="translate(-683.000000, -1318.000000)">
            <rect id="Rectangle-Copy-14" fill="#003478" x="0" y="441" width="1440" height="1934"></rect>
            <g id="Rectangle-Copy-60" transform="translate(220.000000, 1062.000000)">
                <use fill="black" fill-opacity="1" filter="url(#filter-2)" xlink:href="#path-1"></use>
                <use fill="#FFFFFF" fill-rule="evenodd" xlink:href="#path-1"></use>
            </g>
            <g id="Icon/Arrow_left-Copy-2" transform="translate(695.502388, 1331.500000) scale(1, -1) rotate(-90.000000) translate(-695.502388, -1331.500000) translate(686.310000, 1322.307612)">
                <mask id="mask-4" fill="white">
                    <use xlink:href="#path-3"></use>
                </mask>
                <use id="Combined-Shape" fill="#003478" transform="translate(9.192388, 9.192388) rotate(45.000000) translate(-9.192388, -9.192388) " xlink:href="#path-3"></use>
                <rect id="Rectangle" fill="#003478" mask="url(#mask-4)" x="-4.30761184" y="-2.81" width="24" height="24"></rect>
            </g>
        </g>
    </g>
</svg>