<?xml version="1.0" encoding="UTF-8"?>
<svg width="80px" height="80px" viewBox="0 0 80 80" version="1.1" xmlns="http://www.w3.org/2000/svg" xmlns:xlink="http://www.w3.org/1999/xlink">
    <title>DF9E6AA1-79A4-4B80-8F49-F9F77C3BEC90</title>
    <defs>
        <rect id="path-1" x="0" y="0" width="63" height="52"></rect>
    </defs>
    <g id="Nuovi-moduli" stroke="none" stroke-width="1" fill="none" fill-rule="evenodd">
        <g id="Desktop---Calendario-v2" transform="translate(-220.000000, -2481.000000)">
            <g id="icon/calendar" transform="translate(220.000000, 2481.000000)">
                <g id="vector-creator" transform="translate(9.000000, 14.000000)">
                    <mask id="mask-2" fill="white">
                        <use xlink:href="#path-1"></use>
                    </mask>
                    <g id="Rectangle"></g>
                    <g id="1" mask="url(#mask-2)" fill="#003478" fill-rule="nonzero">
                        <g id="Group">
                            <path d="M52.739996,24.447152 C52.7822182,24.4893437 52.8244405,24.5737271 52.9088849,24.5315354 C52.8666627,24.4893437 52.8666627,24.447152 52.739996,24.447152 C52.7822182,24.3627686 52.7822182,24.320577 52.8244405,24.320577 C52.8244405,24.320577 52.8244405,24.2361936 52.7822182,24.2361936 C52.7481219,24.3009877 52.7334613,24.3742376 52.739996,24.447152 C52.8244405,24.4893437 52.8244405,24.447152 52.739996,24.447152 Z" id="Path"></path>
                            <path d="" id="Path"></path>
                            <path d="M43.3244367,24.7003021 C43.3244367,24.6581104 43.366659,24.6581104 43.366659,24.6159187 L43.366659,24.6159187 L43.3244367,24.7003021 Z" id="Path"></path>
                            <path d="M52.9511072,23.6877017 L52.8666627,23.5611267 C52.9088849,23.5611267 52.9511072,23.6033183 52.9511072,23.518935 C52.9088849,23.4767433 52.8666627,23.6033183 52.8244405,23.4767433 C52.8666627,23.3923599 52.9088849,23.4345516 52.8666627,23.3501682 C52.9088849,23.3501682 52.9088849,23.3501682 52.9088849,23.3923599 C52.8666627,23.3079766 52.8666627,23.2235932 52.8244405,23.1814015 C52.8666627,23.0970181 52.7822182,22.9704431 52.8666627,22.9282514 C52.8244405,22.9282514 52.7822182,22.8016764 52.7822182,22.7594847 C52.9088849,22.843868 52.7822182,22.5063346 52.8666627,22.5485263 C52.739996,22.4641429 52.7822182,22.2531845 52.6977737,22.0844177 L52.739996,22.1266094 C52.739996,22.0422261 52.7822182,22.0000344 52.7822182,21.9578427 C52.6977737,21.9578427 52.6555515,21.8312676 52.6133293,21.7468843 C52.6977737,21.6203092 52.6977737,21.789076 52.7822182,21.7468843 C52.6977737,21.7468843 52.6977737,21.5781175 52.6555515,21.6203092 C52.6977737,21.5359259 52.6555515,21.5359259 52.739996,21.4937342 C52.6555515,21.4937342 52.6977737,21.4093508 52.6555515,21.3671591 C52.6977737,21.2405841 52.739996,21.3249674 52.6977737,21.1983924 C52.739996,21.114009 52.7822182,21.2405841 52.7822182,21.2405841 C52.7822182,21.114009 52.6977737,21.1983924 52.6555515,21.1562007 C52.6133293,20.987434 52.6977737,21.0718173 52.739996,21.0296257 C52.6977737,20.9452423 52.6133293,20.8608589 52.6133293,20.8186672 C52.6133293,20.8186672 52.6133293,20.7764755 52.6555515,20.8186672 C52.571107,20.7342839 52.6133293,20.5233254 52.4866588,20.3967504 L52.4866588,20.3967504 C52.4647547,20.4208322 52.4346421,20.4358776 52.4022181,20.4389421 C52.4022181,20.3967504 52.3177736,20.3545587 52.3599958,20.312367 C52.3597562,20.3236287 52.3641276,20.3345 52.3720983,20.342465 C52.3800691,20.3504299 52.3909483,20.3547982 52.4022181,20.3545587 L52.3599958,20.312367 C52.4022181,20.2279837 52.4022181,20.3967504 52.4444403,20.3967504 C52.3906157,20.2889344 52.3481648,20.1758141 52.3177736,20.0592169 C52.4022181,20.0170252 52.3599958,20.2701753 52.4022181,20.1436003 L52.4022181,20.2701753 C52.4866588,20.1436003 52.4022181,20.3545587 52.5288848,20.2279837 C52.5288848,20.0592169 52.4444403,20.0170252 52.4444403,19.8482585 C52.4022181,19.8060668 52.4022181,19.8904502 52.3599958,19.8482585 C52.2333291,19.5951084 52.4866588,19.5951084 52.3599958,19.4263417 C52.3177736,19.38415 52.2333291,19.38415 52.2333291,19.2575749 L52.3177736,19.2997666 C52.2755514,19.1309999 52.1911069,19.2153833 52.1911069,19.0044248 C52.224456,19.0429105 52.252827,19.0854362 52.2755514,19.1309999 C52.3177736,18.9622332 52.1911069,19.0466165 52.1911069,18.9622332 L52.2333291,18.9200415 C52.1307508,18.7108106 51.9871719,18.5242931 51.8111067,18.3715496 C51.853329,18.3715496 51.8955512,18.3715496 51.853329,18.3293579 C51.5995049,18.1140842 51.2938976,17.9686622 50.966662,17.9074411 C50.9244397,17.9074411 50.8822175,17.9496328 50.8399952,17.9496328 C50.797773,17.9496328 50.797773,17.9074411 50.8399952,17.9074411 C50.7133285,17.8652494 50.8399952,17.9496328 50.797773,17.9918244 C50.7555508,17.9918244 50.7133285,17.9496328 50.7555508,17.9496328 C50.5252718,18.0324423 50.282507,18.0752522 50.0377727,18.0762078 L50.0799949,18.0340161 C49.911106,18.0340161 49.9533282,18.2027829 49.7844393,18.1605912 L49.8266615,18.1605912 C49.534502,18.2157435 49.2360766,18.2299439 48.9399945,18.2027829 C48.8977723,18.2871662 48.6444388,18.2027829 48.6022166,18.3293579 C48.4333276,18.2871662 48.4755499,18.2449745 48.2222164,18.2449745 C48.137772,18.2449745 48.137772,18.3293579 48.0533275,18.3293579 L48.0533275,18.2449745 L47.9266608,18.3293579 L47.8844385,18.2449745 L47.7999941,18.2871662 C47.8422163,18.2871662 47.8844385,18.3293579 47.8422163,18.3293579 C47.7417331,18.3480523 47.6378863,18.3332278 47.5466606,18.2871662 L47.2511049,18.3293579 C47.2511049,18.2871662 47.2933272,18.2871662 47.3355494,18.2871662 C47.1666605,18.3715496 47.2933272,18.2027829 47.1666605,18.2871662 L47.1666605,18.3293579 C47.058094,18.2868061 46.937449,18.2868061 46.8288826,18.3293579 L46.8711048,18.2871662 L46.195549,18.2871662 C46.2799935,18.3293579 46.2799935,18.3715496 46.195549,18.4137413 L46.1533267,18.3293579 C46.1111045,18.3715496 46.2377712,18.3715496 46.1111045,18.4137413 C46.02666,18.4137413 46.0688823,18.3293579 46.1111045,18.3293579 L45.9844378,18.3293579 C45.9841981,18.3180963 45.9885695,18.307225 45.9965403,18.29926 C46.004511,18.291295 46.0153902,18.2869268 46.02666,18.2871662 C45.9844378,18.3293579 45.8577711,18.2027829 45.7733266,18.2871662 L45.2244375,18.2871662 C45.2244375,18.3293579 45.139993,18.3293579 45.0977708,18.3715496 C44.948307,18.3193907 44.7915975,18.2909186 44.6333261,18.2871662 C44.5066594,18.2871662 44.5911039,18.3293579 44.5488817,18.3715496 C44.5488817,18.3293579 44.3799927,18.2871662 44.4644372,18.2871662 L43.9577703,18.2871662 L43.9999926,18.3293579 C43.9679767,18.3249254 43.9383062,18.3101009 43.9155481,18.2871662 L43.9155481,18.2871662 C43.6880758,18.2926161 43.4674647,18.3661 43.2822145,18.4981246 C43.1108449,18.6073379 43.0134932,18.8019005 43.0288811,19.0044248 L43.0288811,19.0044248 C43.0369312,19.1210253 43.0655181,19.23529 43.1133256,19.3419583 C43.1555478,19.510725 43.0288811,19.2575749 43.0288811,19.38415 L43.0711033,19.4263417 L43.0711033,19.4263417 L43.0711033,19.9326419 C42.9022144,20.1014086 43.0711033,20.5233254 42.9866588,20.7764755 L43.0288811,20.7764755 C43.0711033,20.8186672 43.0288811,20.8608589 42.9866588,20.9030506 C43.0288811,20.9030506 43.0288811,20.8186672 43.0288811,20.8608589 C43.0711033,21.3671591 43.0288811,21.8734593 43.0288811,22.4219512 C43.0288811,22.5907179 43.2399923,22.5063346 43.1555478,22.7594847 L43.0711033,22.717293 C43.1480158,23.0936794 43.2043953,23.4739656 43.2399923,23.8564684 C43.2287225,23.8567079 43.2178433,23.8523397 43.2098725,23.8443747 C43.2019018,23.8364097 43.1975304,23.8255384 43.19777,23.8142768 C43.1555478,23.8986601 43.2399923,24.1096185 43.2822145,24.1096185 C43.2822145,24.1518102 43.2399923,24.1096185 43.2399923,24.1518102 C43.2399923,24.2361936 43.3244367,24.320577 43.2822145,24.4049603 L43.2399923,24.3627686 C43.2822145,24.4049603 43.2822145,24.6159187 43.3244367,24.5315354 C43.3244367,24.6581104 43.366659,24.7846855 43.366659,24.9112605 C43.4511035,24.9534522 43.366659,25.1644106 43.4933257,25.1644106 C43.4088812,25.1644106 43.4511035,25.4175607 43.5355479,25.5019441 C43.4933257,25.4597524 43.5355479,25.5863275 43.4933257,25.5441358 C43.5355479,25.6285191 43.5777702,25.7129025 43.6199924,25.7129025 C43.5777702,25.9238609 43.8311036,26.050436 43.7044369,26.2192027 C43.8733258,26.5145445 44.0422148,26.7255029 44.2111038,26.978653 C44.1266593,27.0208447 44.0422148,26.7255029 43.9577703,26.7676946 C44.1266593,26.978653 44.2955482,27.0630364 44.4644372,27.2739948 C44.5066594,27.3161865 44.422215,27.2739948 44.3799927,27.2739948 C44.5673857,27.4675693 44.799307,27.6124152 45.0555485,27.6959116 L45.0133263,27.6959116 C45.0555485,27.6959116 45.0977708,27.7381033 45.139993,27.6959116 L45.0977708,27.6959116 C45.0555485,27.6115283 45.308882,27.65372 45.3511042,27.6115283 C45.2244375,27.6959116 45.5622154,27.6959116 45.3933264,27.822496 C45.4355487,27.822496 45.4777709,27.822496 45.4777709,27.780295 C45.5199932,27.780295 45.5199932,27.822496 45.4777709,27.822496 C45.6466599,27.822496 45.6044376,27.780295 45.7733266,27.780295 L45.7311044,27.822496 C45.8182142,27.7646029 45.9268154,27.7490997 46.02666,27.780295 C46.0268997,27.7915566 46.0225283,27.802428 46.0145575,27.8103929 C46.0065868,27.8183579 45.9957076,27.8227262 45.9844378,27.822496 C46.195549,27.822496 46.3644379,27.6959116 46.5755491,27.7381033 C46.5333269,27.822496 46.6599936,27.780295 46.6599936,27.822496 L46.7866603,27.780295 L46.7444381,27.7381033 C46.8711048,27.7381033 46.9555493,27.65372 47.0399938,27.6959116 L46.9555493,27.7381033 L47.1666605,27.6959116 L47.0399938,27.6959116 C47.1244382,27.65372 46.9977715,27.6115283 47.1666605,27.6115283 C47.1244382,27.6115283 47.2933272,27.6115283 47.3355494,27.65372 L47.3355494,27.65372 C47.3777717,27.6115283 47.4199939,27.6115283 47.5044384,27.6115283 C47.5159487,27.6225499 47.5224571,27.6377897 47.5224571,27.65372 C47.5224571,27.6696502 47.5159487,27.68489 47.5044384,27.6959116 C47.5466606,27.6115283 47.7577718,27.65372 47.7999941,27.5693366 L47.7999941,27.65372 L47.8422163,27.6115283 C47.8844385,27.6115283 47.8844385,27.6115283 47.8844385,27.65372 C48.0533275,27.65372 47.8422163,27.5693366 48.0111052,27.5693366 L47.968883,27.6115283 C48.137772,27.6115283 48.3066609,27.5693366 48.4755499,27.5693366 C48.5177721,27.65372 48.3488832,27.6115283 48.3911054,27.65372 C48.6263136,27.5911459 48.866449,27.5487997 49.1088835,27.5271449 L49.0666612,27.5271449 C49.1088835,27.4005699 49.2355502,27.5693366 49.3622169,27.5271449 C49.3199946,27.5271449 49.3199946,27.6115283 49.3199946,27.5693366 C49.5052341,27.5587845 49.6890363,27.5305277 49.8688838,27.4849532 L49.8266615,27.5271449 L50.1644394,27.5271449 C50.2066617,27.4849532 50.2488839,27.4849532 50.2066617,27.4427615 C50.5444396,27.5693366 50.797773,27.3161865 51.0511064,27.4427615 C51.0088842,27.4427615 50.966662,27.4849532 51.0088842,27.4849532 L51.2622176,27.4427615 C51.2199954,27.4005699 51.2199954,27.4005699 51.1777732,27.4005699 C51.2199954,27.3583782 51.2622176,27.3583782 51.3044399,27.3161865 C51.2199954,27.3583782 51.3044399,27.4005699 51.3466621,27.4005699 L51.3466621,27.3583782 C51.4733288,27.4427615 51.3466621,27.2739948 51.5155511,27.2739948 L51.5155511,27.3161865 C51.5620757,27.2717288 51.6209333,27.2423213 51.68444,27.2318031 C51.7266623,27.2739948 51.6422178,27.2739948 51.6422178,27.3161865 C51.7266623,27.2739948 51.8111067,27.1474198 51.8955512,27.1896114 C51.853329,27.2318031 51.8111067,27.2318031 51.7688845,27.2739948 C51.8955512,27.3161865 51.8955512,27.2739948 51.9799957,27.2739948 L51.9799957,27.2739948 C52.0222179,27.2739948 52.1066624,27.2318031 52.1488846,27.2318031 L52.1066624,27.2318031 C52.1488846,27.0630364 52.3177736,27.0630364 52.4022181,26.8942697 C52.3177736,27.0630364 52.4022181,26.9364613 52.4444403,27.0208447 C52.4866588,27.0208447 52.571107,26.978653 52.571107,27.0208447 C52.571107,26.9364613 52.6977737,26.9364613 52.6977737,26.8098863 C52.6977737,26.8098863 52.739996,26.7255029 52.7822182,26.7676946 C52.8244405,26.6833112 52.739996,26.7676946 52.739996,26.7676946 C52.7822182,26.5989279 52.9933294,26.4723528 52.9933294,26.177011 C52.9901295,26.0461567 52.9614469,25.9171788 52.9088849,25.7972859 L52.9088849,25.7550942 C52.9511072,25.7129025 52.9511072,25.7972859 52.9511072,25.7972859 C52.9933287,25.7181763 52.9933287,25.6232454 52.9511072,25.5441358 C52.962377,25.5443752 52.9732562,25.540007 52.9812269,25.532042 C52.9891977,25.5240771 52.9935691,25.5132057 52.9933294,25.5019441 C52.9933294,25.4175607 52.9088849,25.4597524 52.9511072,25.375369 C52.9933294,25.375369 52.9933294,25.4175607 53.0355517,25.4597524 C53.0267873,25.3701024 52.9979246,25.2835771 52.9511072,25.2066023 C52.9933294,25.1644106 52.9933294,25.248794 53.0355517,25.2909857 C53.0330827,25.1869511 53.0040124,25.0852786 52.9511072,24.9956439 L52.9511072,25.0800273 C52.9511072,25.0378356 52.9933294,25.0378356 52.9933294,25.0800273 C53.0355517,25.1644106 52.9933294,25.2066023 52.9511072,25.2066023 L52.9511072,25.1644106 C52.8244405,25.248794 52.9933294,25.4175607 52.9933294,25.5441358 L52.9088849,25.5019441 C52.9088849,25.1644106 52.8666627,24.8690688 52.8666627,24.5737271 L52.9511072,24.5737271 L52.9511072,24.6159187 L53.0355517,24.6581104 L52.9933294,24.5737271 L52.9933294,24.5737271 C53.0355517,24.5737271 53.0777739,24.5315354 53.0777739,24.447152 L52.9933294,24.320577 L53.0355517,24.2783853 L53.0355517,24.4049603 C53.0777739,24.320577 53.0355517,24.2783853 52.9933294,24.2361936 C52.9511072,23.7298934 52.9511072,23.7298934 52.9511072,23.6877017 Z M51.6422178,18.2449745 C51.6422178,18.2871662 51.5999955,18.2871662 51.6422178,18.2449745 C51.596917,18.2418978 51.5608523,18.2058592 51.5577733,18.1605912 L51.6422178,18.2449745 Z M50.628884,27.0630364 L50.628884,27.0630364 L50.7133285,27.0208447 C50.7133285,27.0208447 50.7133285,27.0630364 50.628884,27.0630364 L50.628884,27.0630364 Z M52.739996,25.8816692 L52.739996,25.8816692 C52.6977737,25.8394776 52.6977737,25.8394776 52.739996,25.7972859 C52.6977737,25.7972859 52.6977737,25.8394776 52.739996,25.8816692 L52.739996,25.8816692 Z M52.8666627,25.2066023 L52.8666627,25.2066023 C52.8342067,25.1729323 52.8186923,25.1264227 52.8244405,25.0800273 L52.8666627,25.2066023 Z" id="Shape"></path>
                            <polygon id="Path" points="48.0111052 18.160414 48.0111052 18.2026057 48.0533275 18.160414"></polygon>
                            <path d="M47.2088827,27.3583782 C47.1666605,27.3583782 47.1666605,27.4005699 47.1244382,27.4005699 C47.1666605,27.4005741 47.2088827,27.4005741 47.2088827,27.3583782 Z" id="Path"></path>
                            <path d="M52.9088849,25.5019441 C52.9088849,25.4597524 52.9511072,25.375369 52.9511072,25.3331774 L52.9511072,25.3331774 C53.0355517,25.375369 52.8666627,25.4597524 52.9088849,25.5019441 Z" id="Path"></path>
                            <polygon id="Path" points="48.2222164 27.358201 48.2222164 27.3160093 48.0955497 27.358201"></polygon>
                            <g transform="translate(25.661589, 18.809288)">
                                <path d="M10.1472896,3.73923795 C10.1895118,3.78142963 10.2739563,3.865813 10.3161785,3.82362131 C10.231734,3.78142963 10.2739563,3.73923795 10.1472896,3.73923795 C10.1895118,3.65485458 10.1895118,3.6126629 10.231734,3.6126629 C10.231734,3.6126629 10.231734,3.52827953 10.1895118,3.52827953 C10.1589032,3.59426069 10.1444312,3.66656825 10.1472896,3.73923795 L10.1472896,3.73923795 Z" id="Path"></path>
                                <path d="M8.03617761,0.195136536 L8.03617761,0.195136536 C8.07839985,0.237328219 8.20506657,0.237328219 8.03617761,0.195136536 Z" id="Path"></path>
                                <polygon id="Path" points="2.54728658 10.658674 2.4628421 10.5742907 2.42061986 10.5742907"></polygon>
                                <path d="M10.400623,5.80663044 C10.400623,5.80663044 10.400623,5.72224707 10.4428452,5.72224707 C10.4428452,5.6378637 10.400623,5.76443875 10.400623,5.72224707 C10.3161785,5.55348034 10.4850675,5.34252192 10.3584007,5.1315635 C10.3161785,4.92060508 10.231734,4.92060508 10.1895118,4.75183835 L10.1895118,4.75183835 C10.231734,4.70964667 10.2739563,4.79403003 10.2739563,4.79403003 C10.3018624,4.7078024 10.2861177,4.61340251 10.231734,4.54087993 C10.2430038,4.5411194 10.253883,4.53675116 10.2618538,4.52878618 C10.2698245,4.5208212 10.2741959,4.50994988 10.2739563,4.49868825 C10.2739563,4.41430488 10.1895118,4.45649657 10.231734,4.3721132 C10.2739563,4.3721132 10.2739563,4.41430488 10.3161785,4.45649657 C10.2693615,4.37952156 10.2404988,4.29299637 10.231734,4.20334646 C10.2739563,4.16115478 10.2739563,4.24553815 10.3161785,4.28772983 C10.2739563,4.20334646 10.2739563,4.03457973 10.1895118,3.99238805 L10.1895118,4.07677141 C10.1895118,4.03457973 10.231734,4.03457973 10.231734,4.07677141 C10.2739563,4.16115478 10.231734,4.20334646 10.1895118,4.20334646 L10.1895118,4.1189631 C10.0628451,4.20334646 10.231734,4.3721132 10.231734,4.49868825 L10.1472896,4.45649657 L10.0206228,3.44389616 L10.1050673,3.44389616 L10.1050673,3.48608785 L10.1895118,3.52827953 L10.1472896,3.44389616 L10.1472896,3.44389616 C10.1895118,3.44389616 10.231734,3.40170448 10.231734,3.27512943 L10.1895118,3.10636269 L10.231734,3.06417101 L10.231734,3.19074606 C10.2739563,3.10636269 10.231734,3.06417101 10.1895118,3.02197933 C10.231734,3.02197933 10.231734,2.97978764 10.231734,2.93759596 L10.1050673,2.81102091 C10.1472896,2.76882923 10.1895118,2.85321259 10.1895118,2.76882923 C10.1472896,2.72663754 10.1050673,2.85321259 10.0628451,2.72663754 C10.1050673,2.64225418 10.1472896,2.68444586 10.1050673,2.60006249 C10.1472896,2.60006249 10.1472896,2.60006249 10.1472896,2.64225418 C10.1050673,2.55787081 10.1050673,2.43129576 10.0628451,2.43129576 C10.1050673,2.34691239 10.0206228,2.17814566 10.1050673,2.17814566 C10.0628451,2.17814566 10.0206228,2.05157061 9.9784006,2.00937892 C10.1050673,2.09376229 9.89395612,1.75622882 10.0206228,1.75622882 C9.89395612,1.71403714 9.85173388,1.41869536 9.72506716,1.29212031 C9.73633695,1.29188084 9.74721615,1.29624908 9.75518689,1.30421406 C9.76315764,1.31217904 9.76752904,1.32305035 9.7672894,1.33431199 C9.73319308,1.26951785 9.7185325,1.19626802 9.72506716,1.12335357 C9.64062269,1.16554526 9.55617821,1.03897021 9.42951149,0.996778522 C9.42951149,0.828011788 9.55617821,0.996778522 9.59840045,0.912395155 C9.55617821,0.954586838 9.38728925,0.785820104 9.38728925,0.870203471 C9.35374864,0.820679374 9.33879469,0.760906865 9.34506701,0.701436737 C9.26062254,0.785820104 9.26062254,0.659245054 9.17617806,0.659245054 C9.09173358,0.532670004 9.17617806,0.574861687 9.04951134,0.49047832 C9.0072891,0.406094953 9.13395582,0.448286637 9.13395582,0.448286637 C8.96506687,0.36390327 9.04951134,0.49047832 8.96506687,0.49047832 C8.79617791,0.448286637 8.92284463,0.406094953 8.88062239,0.321711586 C8.78326089,0.300373688 8.68242822,0.300373688 8.58506672,0.321711586 L8.58506672,0.279519903 C8.4584,0.321711586 8.24728881,0.195136536 8.07839985,0.279519903 L8.07839985,0.36390327 C8.03617761,0.36390327 7.95173314,0.406094953 7.95173314,0.36390327 C7.99395537,0.36390327 7.99395537,0.36390327 7.99395537,0.321711586 L7.9095109,0.321711586 C7.86728866,0.237328219 7.99395537,0.321711586 7.99395537,0.237328219 C7.86728866,0.237328219 7.6983997,0.279519903 7.61395523,0.279519903 C7.61395523,0.195136536 7.82506642,0.279519903 7.6983997,0.195136536 L7.86728866,0.237328219 C7.74062194,0.110753169 7.95173314,0.237328219 7.86728866,0.110753169 C7.72733951,0.0896576244 7.58501542,0.0896576244 7.44506627,0.110753169 C7.40284403,0.152944853 7.44506627,0.152944853 7.40284403,0.195136536 C7.10728836,0.237328219 7.19173284,0.0263698022 6.98062164,0.110753169 C6.93839941,0.152944853 6.89617717,0.237328219 6.76951045,0.195136536 L6.81173269,0.110753169 C6.6006215,0.110753169 6.68506597,0.237328219 6.51617702,0.152944853 C6.55839926,0.110753169 6.68506597,0.110753169 6.64284373,0.110753169 C6.51617702,0.0263698022 6.55839926,0.152944853 6.43173254,0.152944853 L6.43173254,0.0685614856 C6.20463682,0.0784186704 5.97871302,0.106638709 5.75617672,0.152944853 C5.75617672,0.110753169 5.79839896,0.110753169 5.75617672,0.0685614856 C5.46011614,0.0966651433 5.16155824,0.0824583891 4.86950971,0.0263698022 L4.78506523,0.152944853 C4.74284299,0.152944853 4.74284299,0.110753169 4.78506523,0.110753169 C4.65839851,0.110753169 4.78506523,0.152944853 4.74284299,0.195136536 C4.70062075,0.195136536 4.65839851,0.152944853 4.70062075,0.152944853 C4.46807388,0.222478868 4.22518943,0.25103283 3.98284269,0.237328219 L4.02506493,0.237328219 C3.85617598,0.237328219 3.85617598,0.36390327 3.72950926,0.321711586 L3.7717315,0.321711586 C3.4491563,0.355073863 3.12487563,0.369162819 2.80062001,0.36390327 C2.75839777,0.448286637 2.4628421,0.36390327 2.4628421,0.49047832 C2.25173091,0.448286637 2.33617538,0.406094953 2.04061971,0.406094953 C1.95617523,0.406094953 1.95617523,0.49047832 1.87173076,0.532670004 L1.87173076,0.448286637 L1.74506404,0.532670004 L1.66061956,0.448286637 L1.57617509,0.49047832 C1.61839732,0.49047832 1.66061956,0.49047832 1.66061956,0.532670004 C1.53395285,0.574861687 1.32284165,0.532670004 1.32284165,0.49047832 L0.942841505,0.574861687 C0.942841505,0.532670004 0.985063743,0.532670004 1.02728598,0.49047832 C0.858397027,0.574861687 0.985063743,0.448286637 0.858397027,0.532670004 C0.900619266,0.532670004 0.858397027,0.574861687 0.858397027,0.574861687 L0.689508072,0.574861687 C0.598493369,0.5768937 0.510206493,0.606301361 0.43617464,0.659245054 L0.43617464,0.617053371 C0.259385276,0.702913563 0.123064155,0.854271862 0.0561744911,1.03897021 C0.000308406819,1.21616819 -0.0141360894,1.40381075 0.0139522523,1.58746209 C0.0139522523,1.46088704 0.0983967298,1.46088704 0.0983967298,1.58746209 L0.0983967298,1.62965377 C0.140618969,1.67184546 0.0983967298,1.58746209 0.182841207,1.62965377 C0.182841207,1.67184546 0.0983967298,1.67184546 0.0983967298,1.62965377 L0.0983967298,1.62965377 L0.0983967298,1.67184546 L0.0561744911,1.62965377 C0.0983967298,1.67184546 -0.0282699864,1.84061219 0.0561744911,1.88280387 L0.0561744911,1.88280387 L0.0561744911,2.47348744 C0.0983967298,2.47348744 0.0983967298,2.55787081 0.140618969,2.64225418 C0.140618969,2.81102091 0.0561744911,2.97978764 0.0983967298,3.14855438 C0.140618969,3.27512943 0.140618969,3.19074606 0.182841207,3.23293774 C0.140618969,3.23293774 0.140618969,3.44389616 0.0983967298,3.31732111 C0.0879577386,3.50403585 0.11672195,3.69086792 0.182841207,3.865813 C0.182841207,3.82362131 0.225063446,3.78142963 0.225063446,3.82362131 C0.225063446,3.865813 0.225063446,3.95019636 0.182841207,3.95019636 L0.182841207,3.95019636 C0.267285685,4.24553815 0.0561744911,4.70964667 0.182841207,4.92060508 L0.182841207,4.92060508 L0.267285685,5.17375518 C0.267285685,5.30033023 0.225063446,5.08937182 0.182841207,5.21594687 C0.309507924,5.46909697 0.225063446,5.68005539 0.309507924,5.8910138 C0.182841207,6.10197222 0.393952401,6.52388905 0.309507924,6.77703916 L0.351730162,6.77703916 C0.393952401,6.81923084 0.351730162,6.86142252 0.351730162,6.90361421 C0.393952401,6.90361421 0.393952401,6.81923084 0.393952401,6.86142252 C0.520619117,7.36772272 0.520619117,7.95840629 0.605063595,8.50689818 C0.647285833,8.71785659 0.816174788,8.54908986 0.816174788,8.84443164 L0.647285833,8.84443164 C0.810335214,9.26495594 1.07078372,9.64088709 1.40728613,9.94141541 C1.36506389,9.94141541 1.36506389,9.94141541 1.32284165,9.89922373 C1.38606147,10.0090657 1.49391376,10.0860473 1.61839732,10.1101821 C1.66061956,10.1523738 1.61839732,10.1523738 1.61839732,10.1945655 C1.66061956,10.2789489 1.82950852,10.2789489 1.87173076,10.3211406 L1.78728628,10.3211406 C1.87173076,10.3211406 2.04061971,10.4477156 1.99839747,10.3633322 C2.12506419,10.4477156 2.29395314,10.4477156 2.42061986,10.532099 C2.50506434,10.4899073 2.67395329,10.6164824 2.71617553,10.532099 C2.71617553,10.7008657 3.0117312,10.7008657 3.09617568,10.658674 C3.05395344,10.7008657 3.18062016,10.7008657 3.13839792,10.7430574 C3.26506464,10.7430574 3.34950911,10.7430574 3.34950911,10.7008657 C3.56062031,10.8274408 3.7717315,10.658674 3.85617598,10.7852491 C4.14986448,10.7401274 4.44591076,10.7119529 4.74284299,10.7008657 C4.74284299,10.7852491 4.44728732,10.7008657 4.44728732,10.8274408 C4.67931685,10.7554392 4.92264876,10.7268326 5.16506538,10.7430574 C5.24950986,10.7430574 5.12284314,10.7852491 5.12284314,10.7852491 C5.37617657,10.7430574 5.62951001,10.7852491 5.88284344,10.7430574 C5.87157365,10.7428179 5.86069446,10.7471862 5.85272371,10.7551512 C5.84475296,10.7631161 5.84038156,10.7739874 5.8406212,10.7852491 C5.88284344,10.7852491 5.96728791,10.7852491 5.92506568,10.7430574 L5.88284344,10.7430574 C5.79839896,10.7008657 6.05173239,10.6164824 6.09395463,10.5742907 C6.00951015,10.7008657 6.34728806,10.6164824 6.22062135,10.7430574 C6.26284359,10.7430574 6.30506582,10.7008657 6.26284359,10.7008657 C6.30506582,10.7008657 6.30506582,10.7430574 6.26284359,10.7430574 C6.43173254,10.7430574 6.3895103,10.658674 6.51617702,10.7008657 L6.47395478,10.7430574 C6.56106465,10.6851736 6.66966579,10.6696704 6.76951045,10.7008657 C6.76975009,10.7121274 6.76537869,10.7229987 6.75740794,10.7309636 C6.74943719,10.7389286 6.738558,10.7432969 6.72728821,10.7430574 C6.93630387,10.7065827 7.14861055,10.6924392 7.36062179,10.7008657 C7.27617732,10.7852491 7.44506627,10.7430574 7.44506627,10.8274408 L7.57173299,10.7852491 L7.48728851,10.7008657 C7.61395523,10.7008657 7.6983997,10.658674 7.82506642,10.658674 L7.6983997,10.7008657 L7.9095109,10.658674 L7.78284418,10.6164824 C7.9095109,10.5742907 7.78284418,10.532099 7.9095109,10.532099 C7.86728866,10.532099 8.03617761,10.532099 8.07839985,10.5742907 L8.07839985,10.5742907 C8.13259526,10.5167315 8.21733033,10.4997967 8.28951105,10.532099 C8.30102137,10.5431207 8.30752978,10.5583604 8.30752978,10.5742907 C8.30752978,10.5902209 8.30102137,10.6054607 8.28951105,10.6164824 C8.33173328,10.532099 8.58506672,10.532099 8.62728896,10.4477156 L8.62728896,10.532099 L8.66951119,10.4899073 C8.71173343,10.4899073 8.75395567,10.4899073 8.75395567,10.532099 C8.92284463,10.4899073 8.66951119,10.4477156 8.88062239,10.4477156 L8.83840015,10.4899073 C9.01901264,10.4313303 9.18980401,10.3459964 9.34506701,10.2367572 C9.42951149,10.2789489 9.2184003,10.3633322 9.30284478,10.3633322 C9.51915549,10.1837313 9.70457224,9.96994375 9.85173388,9.730457 L9.80951164,9.77264868 C9.72506716,9.68826531 9.9784006,9.64607363 9.9784006,9.4773069 C9.9784006,9.51949858 10.0206228,9.56169026 10.0206228,9.51949858 C10.1115163,9.33625343 10.1550619,9.13318754 10.1472896,8.92881501 L10.1472896,8.9710067 C10.199852,8.85111389 10.2285345,8.72213594 10.231734,8.59128154 C10.1895118,8.54908986 10.231734,8.50689818 10.1895118,8.50689818 C10.400623,8.16936471 10.1472896,7.87402293 10.3161785,7.57868114 C10.3161785,7.62087282 10.3584007,7.66306451 10.3584007,7.62087282 L10.3584007,7.36772272 C10.3161785,7.36772272 10.3161785,7.40991441 10.2739563,7.45210609 C10.231734,7.40991441 10.231734,7.36772272 10.231734,7.28333936 C10.2739563,7.40991441 10.3161785,7.28333936 10.3584007,7.24114767 L10.3161785,7.24114767 C10.400623,7.11457262 10.231734,7.19895599 10.2739563,7.03018926 L10.3161785,7.03018926 C10.3161785,6.94580589 10.2739563,6.90361421 10.2739563,6.81923084 C10.3161785,6.77703916 10.3161785,6.90361421 10.3584007,6.90361421 C10.3584007,6.81923084 10.2739563,6.69265579 10.3161785,6.60827242 C10.3104303,6.65466789 10.3259448,6.70117751 10.3584007,6.73484747 C10.4428452,6.65046411 10.400623,6.60827242 10.4428452,6.56608074 L10.4428452,6.56608074 L10.4850675,6.397314 L10.4850675,6.43950569 C10.3584007,6.31293064 10.4428452,6.18635559 10.3584007,6.01758885 C10.4428452,6.18635559 10.400623,6.05978054 10.4850675,6.05978054 C10.4850675,6.01758885 10.5272897,5.93320549 10.5272897,5.97539717 C10.400623,5.97539717 10.5272897,5.93320549 10.400623,5.80663044 Z M10.2739563,4.54087993 L10.2739563,4.54087993 C10.231734,4.54087993 10.231734,4.49868825 10.231734,4.45649657 L10.2739563,4.54087993 Z M5.67173224,0.237328219 L5.67173224,0.237328219 C5.67173224,0.279519903 5.58728777,0.237328219 5.54506553,0.237328219 L5.67173224,0.237328219 Z M10.3161785,8.00059798 L10.3161785,8.00059798 C10.2739563,7.95840629 10.2739563,7.95840629 10.2739563,7.91621461 L10.3161785,8.00059798 Z M10.2739563,5.30033023 L10.2739563,5.17375518 C10.2739563,5.17375518 10.3161785,5.21594687 10.2739563,5.30033023 Z" id="Shape"></path>
                                <path d="M8.16284433,10.6164824 C8.12062209,10.6164824 8.12062209,10.658674 8.07839985,10.658674 C8.07839985,10.658674 8.16284433,10.658674 8.16284433,10.6164824 Z" id="Path"></path>
                                <path d="M10.3584007,4.83622172 C10.3584007,4.79403003 10.400623,4.70964667 10.3584007,4.66745498 L10.3584007,4.66745498 C10.400623,4.70964667 10.3161785,4.79403003 10.3584007,4.83622172 Z" id="Path"></path>
                                <polygon id="Path" points="9.30284478 10.4053467 9.30284478 10.363155 9.2184003 10.4053467"></polygon>
                            </g>
                            <path d="M17.3999822,23.64551 C17.4422044,23.6877017 17.4844266,23.7720851 17.5688711,23.7298934 C17.4844266,23.6877017 17.5266489,23.64551 17.4422044,23.6033183 C17.4422044,23.5611267 17.4422044,23.518935 17.4844266,23.518935 C17.4844266,23.518935 17.4844266,23.4345516 17.4422044,23.4345516 C17.3990938,23.4982732 17.3990938,23.5817884 17.4422044,23.64551 L17.3999822,23.64551 Z" id="Path"></path>
                            <path d="M10.475535,30.4805627 C10.3910905,30.4383711 10.3910905,30.4383711 10.3488683,30.4383711 L10.3488683,30.4383711 L10.475535,30.4805627 Z" id="Path"></path>
                            <path d="M17.7377601,25.5019441 C17.7377601,25.4175607 17.6955378,25.5441358 17.7377601,25.5019441 C17.6110934,25.3331774 17.7799823,25.1644106 17.6955378,24.9112605 C17.6533156,24.7424938 17.5688711,24.7003021 17.5266489,24.5315354 L17.5266489,24.4893437 C17.5688711,24.447152 17.6110934,24.5315354 17.6110934,24.5315354 C17.6533156,24.447152 17.6110934,24.3627686 17.6110934,24.2783853 C17.6223631,24.2786247 17.6332423,24.2742565 17.6412131,24.2662915 C17.6491838,24.2583265 17.6535552,24.2474552 17.6533156,24.2361936 C17.6533156,24.1518102 17.5688711,24.1940019 17.6110934,24.1096185 C17.6533156,24.1096185 17.6533156,24.1518102 17.6955378,24.1940019 C17.6487209,24.1170268 17.6198583,24.0305017 17.6110934,23.9408518 C17.6533156,23.8986601 17.6533156,23.9830435 17.6955378,24.0252352 C17.6533156,23.9408518 17.6533156,23.7720851 17.5688711,23.7298934 L17.5688711,23.8142768 C17.5688711,23.7720851 17.6110934,23.7720851 17.6110934,23.8142768 C17.6533156,23.8986601 17.6110934,23.9408518 17.5688711,23.9408518 L17.5688711,23.8986601 C17.4422044,23.9830435 17.6110934,24.1518102 17.6110934,24.2783853 L17.5266489,24.2361936 C17.5194716,23.9252395 17.4912591,23.6151264 17.4422044,23.3079766 L17.5266489,23.3079766 L17.5266489,23.3501682 L17.6110934,23.3923599 L17.5688711,23.3079766 L17.5688711,23.3079766 C17.6110934,23.3079766 17.6533156,23.2657849 17.6533156,23.1814015 L17.5688711,23.0548265 L17.6110934,23.0126348 L17.6110934,23.1392098 C17.6533156,23.0548265 17.6110934,23.0126348 17.5688711,22.9704431 C17.5801409,22.9706826 17.5910201,22.9663143 17.5989908,22.9583493 C17.6069616,22.9503844 17.611333,22.939513 17.6110934,22.9282514 L17.5266489,22.7594847 C17.5688711,22.7594847 17.6110934,22.8016764 17.6110934,22.717293 C17.5688711,22.6751013 17.5266489,22.8016764 17.4844266,22.6751013 C17.5266489,22.5907179 17.5688711,22.6329096 17.5266489,22.5485263 C17.5688711,22.5485263 17.5688711,22.5485263 17.5688711,22.5907179 C17.5266489,22.5063346 17.5266489,22.4219512 17.4844266,22.3797595 C17.5266489,22.2953762 17.4422044,22.1266094 17.5266489,22.1266094 C17.4844266,22.1266094 17.4422044,22.0000344 17.3999822,21.9578427 C17.5266489,22.0422261 17.3577599,21.7046926 17.4844266,21.7046926 C17.3577599,21.6625009 17.3155377,21.4093508 17.188871,21.2827758 C17.2001408,21.2825363 17.2110199,21.2869045 17.2189907,21.2948695 C17.2269614,21.3028345 17.2313328,21.3137058 17.2310932,21.3249674 C17.1969969,21.2601733 17.1823363,21.1869235 17.188871,21.114009 C17.1044265,21.1562007 17.019982,21.0296257 16.8933153,21.0296257 C16.8510931,20.9030506 17.019982,21.0296257 17.0622042,20.9452423 C17.019982,20.987434 16.8510931,20.8186672 16.8510931,20.9030506 C16.8175524,20.8535265 16.8025985,20.793754 16.8088708,20.7342839 C16.7244263,20.8186672 16.7244263,20.6920922 16.6399819,20.7342839 C16.5555374,20.6499005 16.6399819,20.6499005 16.4710929,20.6077088 C16.4288707,20.5655171 16.5555374,20.5655171 16.5555374,20.5655171 C16.3866484,20.5233254 16.4710929,20.6077088 16.4288707,20.6499005 C16.2599817,20.6077088 16.3866484,20.5655171 16.302204,20.5233254 C16.1755372,20.5233254 16.0910928,20.5655171 16.0066483,20.5655171 L16.0066483,20.5233254 C15.8799816,20.5655171 15.6688704,20.4811338 15.5422037,20.5655171 L15.5422037,20.5655171 C15.5422037,20.6077088 15.5844259,20.6499005 15.5422037,20.6920922 C15.4999814,20.6920922 15.4155369,20.7342839 15.4155369,20.6920922 C15.4577592,20.6920922 15.4577592,20.6920922 15.4577592,20.6499005 L15.4155369,20.6920922 C15.3733147,20.6077088 15.4999814,20.6499005 15.4999814,20.6077088 C15.3916651,20.6507839 15.278062,20.6791641 15.1622035,20.6920922 C15.1199813,20.6077088 15.3733147,20.6499005 15.246648,20.6077088 L15.3733147,20.6499005 C15.246648,20.5233254 15.4577592,20.6499005 15.3733147,20.5233254 C15.1622035,20.5233254 15.1622035,20.5655171 14.9933146,20.5655171 C14.9510923,20.6077088 14.9933146,20.6077088 14.9510923,20.6499005 C14.6977589,20.7342839 14.7399811,20.4811338 14.5710922,20.5655171 C14.5288699,20.6077088 14.4866477,20.6920922 14.359981,20.6499005 L14.4022032,20.5655171 C14.2333143,20.5655171 14.3177587,20.6920922 14.1066475,20.6499005 C14.1430993,20.6223408 14.187605,20.6075163 14.2333143,20.6077088 C14.1066475,20.5655171 14.1488698,20.6499005 14.0644253,20.6499005 L14.0222031,20.5655171 C13.8110919,20.5655171 13.6422029,20.6499005 13.4310917,20.6499005 C13.4310917,20.6077088 13.473314,20.6077088 13.4310917,20.5655171 C13.1500059,20.5866126 12.8677327,20.5866126 12.5866469,20.5655171 L12.5022025,20.6499005 C12.4599802,20.6499005 12.4599802,20.6077088 12.5022025,20.6077088 C12.417758,20.6077088 12.5022025,20.6499005 12.4599802,20.6920922 C12.417758,20.6920922 12.3755357,20.6499005 12.417758,20.6499005 C12.208213,20.7524902 11.9747054,20.7962412 11.7422022,20.7764755 L11.7844244,20.7342839 C11.6155355,20.7342839 11.6155355,20.8608589 11.4888687,20.8186672 L11.531091,20.8186672 C11.1933131,20.8186672 10.8555352,20.9452423 10.644424,20.8608589 C10.6022017,20.9452423 10.3488683,20.8608589 10.3488683,20.987434 C10.2264487,20.9474261 10.0970905,20.9330634 9.96886814,20.9452423 C9.88442366,20.9452423 9.88442366,21.0296257 9.79997919,21.0718173 L9.79997919,20.987434 L9.71553471,21.0718173 L9.63109023,20.987434 L9.41997904,20.987434 C9.46220128,20.987434 9.50442351,20.987434 9.50442351,21.0296257 C9.40730741,21.0531176 9.30598395,21.0531176 9.20886784,21.0296257 L8.87108993,21.1562007 C8.87108993,21.114009 8.91331217,21.114009 8.95553441,21.0718173 C8.82886769,21.1562007 8.91331217,21.0296257 8.78664546,21.114009 C8.82886769,21.114009 8.78664546,21.1562007 8.78664546,21.1562007 C8.62609564,21.1351331 8.4661434,21.1990677 8.36442307,21.3249674 L8.36442307,21.2827758 C8.31227226,21.3308575 8.269346,21.3880511 8.23775635,21.4515425 C8.19553411,21.4937342 8.15331187,21.6203092 8.15331187,21.5781175 C8.13036063,21.6008591 8.11552534,21.6305082 8.11108964,21.6625009 C8.07863312,21.6961705 8.0631186,21.7426804 8.0688674,21.789076 C8.03425507,21.8834833 8.01987052,21.9841023 8.02664516,22.0844177 C8.0688674,21.9578427 8.11108964,22.0000344 8.15331187,22.0844177 L8.0688674,22.1266094 C8.11108964,22.1688011 8.11108964,22.0422261 8.15331187,22.1266094 C8.15331187,22.2109928 8.0688674,22.1688011 8.0688674,22.1266094 L8.11108964,22.2531845 C8.09981984,22.2534239 8.08894065,22.2490557 8.08096991,22.2410907 C8.07299916,22.2331257 8.06862775,22.2222544 8.0688674,22.2109928 C8.11108964,22.2531845 8.02664516,22.3797595 8.0688674,22.4641429 L8.0688674,22.4641429 C8.0688674,22.717293 8.11108964,22.8016764 8.11108964,23.0126348 C8.15331187,23.0126348 8.15331187,23.0970181 8.19553411,23.1392098 C8.19553411,23.2657849 8.15331187,23.4345516 8.15331187,23.6033183 C8.19553411,23.7298934 8.19553411,23.64551 8.23775635,23.6877017 C8.19553411,23.6877017 8.19553411,23.8564684 8.15331187,23.7720851 C8.14569971,23.9586523 8.17437758,24.1449235 8.23775635,24.320577 L8.27997859,24.2783853 C8.27997859,24.320577 8.27997859,24.4049603 8.23775635,24.3627686 L8.23775635,24.3627686 C8.32220083,24.6581104 8.11108964,25.0378356 8.23775635,25.2909857 L8.23775635,25.2909857 L8.32220083,25.5441358 C8.32220083,25.6707108 8.27997859,25.4597524 8.23775635,25.5441358 C8.36442307,25.7972859 8.23775635,25.9660526 8.32220083,26.177011 C8.15331187,26.3457778 8.36442307,26.7676946 8.27997859,27.0208447 L8.32220083,27.0208447 C8.36442307,27.0630364 8.32220083,27.1052281 8.32220083,27.1474198 C8.36442307,27.1474198 8.36442307,27.0630364 8.36442307,27.1052281 C8.44886755,27.6115283 8.40664531,28.1600202 8.53331202,28.708512 C8.57553426,28.9194705 8.74442322,28.7507037 8.74442322,29.0460455 L8.65997874,29.0038538 C8.84187741,29.3893295 9.11771731,29.7229993 9.46220128,29.9742625 L9.3777568,29.9742625 C9.41997904,30.0586459 9.63109023,30.185221 9.67331247,30.1430293 C9.71553471,30.185221 9.67331247,30.185221 9.67331247,30.2274126 C9.75775695,30.311796 9.88442366,30.2696043 9.9266459,30.3539877 L9.88442366,30.3539877 C9.9266459,30.3539877 10.1377571,30.4383711 10.0955349,30.3961794 C10.2222016,30.4805627 10.3910905,30.4383711 10.475535,30.5227544 C10.5599795,30.4805627 10.7288684,30.6071378 10.7710907,30.4805627 C10.7710907,30.5649461 11.0244241,30.5649461 11.1088686,30.5227544 C11.0666463,30.5649461 11.1933131,30.5649461 11.1510908,30.6071378 C11.2355353,30.6071378 11.362202,30.6071378 11.3199798,30.5227544 C11.4888687,30.6493295 11.6999799,30.4383711 11.7844244,30.5649461 C12.0629944,30.5052279 12.345025,30.4629539 12.6288692,30.4383711 C12.6288692,30.5227544 12.3333135,30.4805627 12.3333135,30.5649461 C12.5398765,30.502566 12.7519638,30.4601792 12.9666471,30.4383711 C13.0510916,30.4383711 12.9244249,30.4805627 12.9244249,30.4805627 C13.1777583,30.4383711 13.4310917,30.4383711 13.6422029,30.3961794 C13.6309331,30.3959399 13.6200539,30.4003082 13.6120832,30.4082731 C13.6041124,30.4162381 13.599741,30.4271094 13.5999807,30.4383711 C13.6422029,30.4383711 13.6844251,30.4383711 13.6844251,30.3961794 L13.6422029,30.3961794 C13.5577584,30.3539877 13.8110919,30.2696043 13.8110919,30.2274126 C13.7266474,30.3539877 14.0222031,30.2274126 13.9377586,30.3961794 C13.9799808,30.3961794 14.0222031,30.3539877 13.9799808,30.3539877 C14.0222031,30.3539877 14.0222031,30.3961794 13.9799808,30.3961794 C14.1488698,30.3539877 14.0644253,30.311796 14.2333143,30.311796 L14.191092,30.3539877 C14.2651243,30.3010449 14.3534109,30.2716374 14.4444254,30.2696043 C14.4446651,30.280866 14.4402937,30.2917373 14.4323229,30.2997023 C14.4243522,30.3076672 14.413473,30.3120355 14.4022032,30.311796 C14.6133144,30.311796 14.7399811,30.185221 14.9933146,30.2274126 C14.9088701,30.311796 15.077759,30.2696043 15.077759,30.311796 L15.2044257,30.2696043 L15.2044257,30.2274126 C15.3310925,30.2274126 15.4155369,30.1430293 15.4999814,30.185221 L15.3310925,30.2274126 L15.5422037,30.185221 L15.4155369,30.1430293 C15.5422037,30.1008376 15.4155369,30.0586459 15.5422037,30.0586459 C15.4999814,30.0586459 15.6688704,30.0586459 15.7110926,30.1008376 L15.7110926,30.1008376 C15.7533148,30.0586459 15.7955371,30.0586459 15.8799816,30.0586459 C15.8914919,30.0696676 15.8980003,30.0849073 15.8980003,30.1008376 C15.8980003,30.1167679 15.8914919,30.1320076 15.8799816,30.1430293 C15.9222038,30.0586459 16.133315,30.1008376 16.1755372,30.0164542 L16.1755372,30.1008376 L16.2177595,30.0586459 C16.2599817,30.0586459 16.302204,30.0586459 16.2599817,30.1008376 C16.4288707,30.0586459 16.1755372,30.0164542 16.3866484,30.0164542 L16.3444262,30.0586459 C16.5250383,30.0000681 16.6958296,29.9147343 16.8510931,29.8054958 C16.9355375,29.8476875 16.7244263,29.9320709 16.8088708,29.9320709 C17.002585,29.744813 17.1475356,29.5130598 17.2310932,29.2570039 L17.188871,29.2991956 C17.1044265,29.2148122 17.3155377,29.1304289 17.2733154,29.0038538 C17.2730758,29.0151155 17.2774472,29.0259868 17.285418,29.0339518 C17.2933887,29.0419167 17.3042679,29.046285 17.3155377,29.0460455 C17.3538178,28.8516287 17.3679986,28.6532419 17.3577599,28.4553619 L17.3999822,28.4975536 C17.4422044,28.4131703 17.4422044,28.2444035 17.4844266,28.1600202 C17.4422044,28.1178285 17.4844266,28.0756368 17.4422044,28.1178285 C17.6533156,27.8224867 17.3999822,27.5271449 17.5688711,27.2739948 L17.5688711,27.0630364 C17.5266489,27.0630364 17.5266489,27.1052281 17.4844266,27.1474198 C17.4422044,27.1052281 17.4422044,27.0630364 17.4422044,26.978653 C17.4844266,27.1052281 17.5266489,26.978653 17.5688711,26.9364613 L17.5266489,26.9364613 C17.6110934,26.8098863 17.4422044,26.8942697 17.4844266,26.7676946 L17.5266489,26.7676946 C17.5266489,26.7255029 17.4844266,26.6411196 17.4844266,26.5989279 C17.5266489,26.5567362 17.5266489,26.6833112 17.5688711,26.6833112 C17.5688711,26.5989279 17.4844266,26.4723528 17.5266489,26.4301611 C17.5209007,26.4765566 17.5364151,26.5230662 17.5688711,26.5567362 C17.6533156,26.4723528 17.6110934,26.4723528 17.6533156,26.3879694 L17.6533156,26.3879694 L17.6955378,26.2192027 L17.6955378,26.2613944 C17.5688711,26.1348193 17.6955378,26.0082443 17.5688711,25.8394776 C17.6533156,26.0082443 17.6110934,25.8816692 17.6955378,25.8816692 C17.6999741,25.8496768 17.7148093,25.8200279 17.7377601,25.7972859 C17.6955378,25.7129025 17.7799823,25.6707108 17.7377601,25.5019441 C17.6533156,25.5441358 17.6533156,25.4597524 17.7377601,25.5019441 Z M17.5266489,24.3627686 L17.5266489,24.3627686 C17.4844266,24.3627686 17.4844266,24.320577 17.4844266,24.2783853 L17.5266489,24.3627686 Z M13.304425,20.6077088 L13.304425,20.6077088 C13.304425,20.6499005 13.2199805,20.6077088 13.1777583,20.6077088 L13.304425,20.6077088 Z M17.3999822,27.5693366 L17.3999822,27.4849532 C17.3999822,27.5271449 17.4422044,27.5693366 17.3999822,27.5693366 C17.4422044,27.6115325 17.3999822,27.6115325 17.3999822,27.5693366 Z" id="Shape"></path>
                            <path d="M13.5155362,30.3539919 L13.5155362,30.3539919 C13.473314,30.3961794 13.473314,30.3539919 13.5155362,30.3539919 Z" id="Path"></path>
                            <path d="M15.7110926,30.1430335 C15.6688704,30.1430335 15.6688704,30.1852252 15.6266481,30.1852252 C15.6266481,30.185221 15.7110926,30.185221 15.7110926,30.1430335 Z" id="Path"></path>
                            <path d="M17.6110934,23.7720851 L17.6110934,23.7720851 C17.6533156,23.8142768 17.6533156,23.7720851 17.6110934,23.7720851 Z" id="Path"></path>
                            <path d="M17.6533156,24.6581104 C17.6533156,24.6159187 17.6955378,24.5315354 17.6955378,24.4893437 L17.6955378,24.4893437 C17.7377601,24.5315354 17.6533156,24.6159187 17.6533156,24.6581104 Z" id="Path"></path>
                            <path d="M16.7666486,29.9742625 L16.7666486,29.9742625 C16.7244263,29.9742625 16.7244263,29.9742625 16.6822041,30.0164542 C16.6822041,29.9742625 16.6822041,29.9742625 16.7666486,29.9742625 Z" id="Path"></path>
                            <path d="M6.84442247,41.5769755 L6.84442247,41.5769755 C6.88664471,41.6613589 6.92886695,41.6613589 6.97108919,41.7035505 C7.33846404,42.0204227 7.73420227,42.3028883 8.15331187,42.5473842 L8.15331187,42.5473842 C8.19553411,42.5895759 8.19553411,42.5895759 8.23775635,42.5895759 C8.23899474,42.6556784 8.2700236,42.7176912 8.32220083,42.7583426 C8.49108978,42.8849177 8.74442322,43.0114927 8.91331217,43.1380678 C8.99775665,43.1802595 9.12442337,43.2646428 9.20886784,43.3068345 C9.2086282,43.3180962 9.21299961,43.3289675 9.22097035,43.3369324 C9.2289411,43.3448974 9.23982029,43.3492657 9.25109008,43.3490262 C9.25109008,43.3490262 9.3777568,43.4756013 9.46220128,43.4756013 L9.71553471,43.6021763 C9.8903925,43.7149759 10.0739315,43.813733 10.2644238,43.8975181 C10.7288684,44.1506682 11.1933131,44.3616266 11.6155355,44.572585 C11.7532572,44.6361076 11.8941879,44.6924391 12.0377578,44.7413518 C12.0799801,44.7413518 12.1644246,44.7835434 12.2066468,44.7835434 L12.3333135,44.8679268 L12.3755357,44.8679268 C12.417758,44.9101185 12.5022025,44.9101185 12.5444247,44.9523102 L12.7133137,45.0366935 C12.8787583,45.1390717 13.0677808,45.1971903 13.2622028,45.2054603 C13.473084,45.3337948 13.7003154,45.4331366 13.9377586,45.5008021 C14.1869519,45.5852453 14.4406827,45.655675 14.6977589,45.7117605 C14.797806,45.7342378 14.8964855,45.7624116 14.9933146,45.7961438 C15.0270089,45.8285763 15.0735522,45.8440795 15.1199813,45.8383355 L15.1199813,45.8383355 L15.1622035,45.8805272 C15.4809309,45.9623604 15.8056537,46.0187931 16.133315,46.0492939 C16.6036549,46.1839418 17.0835557,46.2826734 17.5688711,46.3446357 C17.9162414,46.3564884 18.2589973,46.4278442 18.5822048,46.5555941 L18.6244271,46.5555941 C19.5775598,46.6618368 20.5367468,46.7041232 21.4955393,46.6821692 L21.4955393,46.6821692 C21.4955393,46.7243609 21.5377616,46.7243609 21.5799838,46.7243609 C22.8044287,46.6821692 23.564429,46.5977858 24.6622072,46.5134025 C24.7044295,46.5555941 24.7044295,46.5555941 24.7466517,46.5555941 C24.9577629,46.5555941 25.1688741,46.5134025 25.3799853,46.5134025 C25.5931157,46.5033452 25.804997,46.4751148 26.0133189,46.4290191 L26.9844304,46.302444 L27.279986,46.7243609 L27.279986,46.7243609 C27.1955415,46.8087442 27.279986,46.8931276 27.4066527,47.0197027 L27.448875,47.0618943 L27.448875,47.104086 C27.7444307,47.6103862 27.7866529,47.6103862 27.8710974,47.5681945 L27.8710974,47.5681945 L28.0399863,47.7369613 C28.1244308,47.8213446 28.166653,47.905728 28.2088753,47.9479197 C28.2088753,48.0323031 28.2933198,48.1166864 28.4199865,48.3276448 C28.4622087,48.3698365 28.4622087,48.4120282 28.5044309,48.4542199 L28.5044309,48.4542199 C28.4844963,48.4691601 28.4727643,48.4926072 28.4727643,48.5175074 C28.4727643,48.5424077 28.4844963,48.5658548 28.5044309,48.5807949 C28.5767784,48.6764577 28.6620323,48.76165 28.7577644,48.833945 C28.7577644,48.8761367 28.7577644,48.8761367 28.7999866,48.9183284 C29.0955423,49.2558619 29.1799868,49.3402453 29.2644312,49.4246286 L29.4755424,49.635587 C29.4333202,49.6777787 29.4755424,49.7199704 29.4755424,49.7621621 C29.777999,50.0216687 30.0602927,50.303758 30.3199872,50.6059958 C30.3199872,50.6481874 30.3199872,50.6481874 30.3622095,50.6903791 C30.7098824,51.0625917 31.091535,51.4015929 31.5022099,51.7029795 C31.6114591,51.8109328 31.7404698,51.8968777 31.88221,51.9561296 C32.0057011,51.9909382 32.1340847,52.0051927 32.2622102,51.9983213 L32.3466547,51.9983213 C32.5275838,51.9745811 32.6931697,51.8843269 32.8110993,51.7451712 C32.9076382,51.657711 32.9678928,51.5372891 32.9799883,51.4076377 C33.0222105,51.3654461 33.0222105,51.2810627 33.0644327,51.112296 C33.1066053,51.0184035 33.1350446,50.9189379 33.1488772,50.8169542 L33.1910994,50.7747625 L33.3177662,50.1418872 L33.3177662,50.0575039 C33.3599884,49.8887371 33.3599884,49.7621621 33.4022106,49.635587 C33.4022106,49.5512037 33.4444329,49.4246286 33.4444329,49.3402453 C33.4866551,49.3402453 33.4866551,49.2980536 33.4866551,49.2558619 L33.6977663,48.2010698 C33.6977663,48.1588781 33.6555441,48.0744947 33.6133218,48.0744947 L33.6133218,48.0744947 C33.6555441,47.9479197 33.7399886,47.4838112 33.824433,47.2306611 C33.8666553,46.977511 33.9088775,46.7243609 33.9510997,46.3868274 L33.993322,46.3868274 C34.0355442,46.3868274 34.0777665,46.3446357 34.0777665,46.2602524 C34.0968668,45.9898986 34.1392458,45.7216925 34.2044332,45.4586104 L34.2044332,45.374227 C34.2044332,45.3320353 34.2466554,45.2898436 34.2466554,45.247652 L34.2888777,45.247652 C34.3733221,45.247652 34.4155444,45.247652 34.4577666,45.2054603 C34.5061465,45.2476513 34.5782757,45.2476513 34.6266556,45.2054603 L34.7533223,45.1210769 L34.879989,45.1210769 C34.9222112,45.1632686 34.9222112,45.1632686 34.9644335,45.1632686 C35.2599891,45.1210769 35.3444336,45.1210769 35.3866559,45.0366935 L35.4711003,45.0366935 C36.0199894,44.9523102 36.5266563,44.8679268 37.0333232,44.7413518 L37.3711011,44.7413518 L37.4555456,44.6991601 C37.4977678,44.6991601 37.53999,44.6569684 37.5822123,44.6569684 C37.6317722,44.6904847 37.691588,44.7054279 37.7511012,44.6991601 L37.7933235,44.6991601 C38.7971262,44.4185425 39.7839421,44.0804505 40.7488802,43.6865597 C40.8755469,43.644368 41.0444359,43.5599846 41.1711026,43.5177929 L41.2133248,43.5177929 L41.424436,43.4334096 C41.4357058,43.433649 41.446585,43.4292808 41.4545557,43.4213158 C41.4625265,43.4133508 41.4668979,43.4024795 41.4666582,43.3912179 C41.5511027,43.3490262 41.6355472,43.3490262 41.6777694,43.3068345 C41.921173,43.2346782 42.1607424,43.1501855 42.3955475,43.0536844 L42.479992,43.0536844 C43.2146094,42.753131 43.93333,42.4151543 44.6333261,42.041084 L44.9711041,41.8723173 L45.0133263,41.8723173 C45.2666597,41.7457422 45.5622154,41.6191672 45.8577711,41.4504004 C46.1533267,41.3238254 46.4488824,41.1550587 46.7022158,41.0284836 C46.7936747,40.9670291 46.8785658,40.8963377 46.9555493,40.8175252 C47.7555162,40.4718861 48.5192465,40.0478986 49.2355502,39.5517747 C49.6569989,39.2738932 50.0940091,39.0203289 50.5444396,38.7923244 L50.5444396,38.7923244 C50.5866618,38.8345161 50.6711063,38.7923244 50.7133285,38.7501327 L51.7688845,38.0750658 C51.8013405,38.0413958 51.8168549,37.9948862 51.8111067,37.9484907 L51.8111067,37.9484907 C51.9941095,37.9184821 52.1675903,37.8462507 52.3177736,37.7375323 C52.3290434,37.7377718 52.3399226,37.7334035 52.3478933,37.7254385 C52.3558641,37.7174736 52.3602355,37.7066023 52.3599958,37.6953406 C52.571107,37.6109572 52.6555515,37.5687656 52.6977737,37.4843822 C52.739996,37.4421905 52.739996,37.3999988 53.0777739,37.2312321 L53.1622184,37.2312321 C53.2466629,37.1890404 53.3311073,37.104657 53.457774,37.0202737 C53.5,36.978082 53.5422185,36.978082 53.5844408,36.9358903 L53.6688852,36.9358903 C53.7533297,36.8936986 53.8377742,36.8093153 53.9222187,36.7671236 C53.9644409,36.7249319 54.0066631,36.7249319 54.0066631,36.6827402 C54.0488854,36.6405485 54.0911076,36.6405485 54.0911076,36.5983568 L54.1755521,36.5139735 L54.2177743,36.5139735 C54.4818962,36.3936818 54.7360302,36.2525984 54.9777746,36.0920566 L55.0622191,36.049865 L55.1044414,36.0076733 C55.1888858,35.9654816 55.2733303,35.8810982 55.3577748,35.8389065 C55.399997,35.7967149 55.4422193,35.7967149 55.4844415,35.7545232 L55.5266637,35.7545232 L55.6955527,35.6279481 C55.7377749,35.5857564 55.7377749,35.5857564 55.7377749,35.5435648 C55.9019336,35.3800537 56.0864016,35.2382579 56.286664,35.1216479 C56.455553,34.9950729 56.6244419,34.8684978 56.8355531,34.6997311 C56.8777754,34.6997311 56.9199976,34.6575394 56.9622199,34.6575394 C56.9849785,34.6346055 57.0146488,34.6197811 57.0466643,34.6153477 L57.1311088,34.6153477 C57.2510996,34.5412995 57.3641516,34.4565719 57.4688867,34.3621976 C57.511109,34.3621976 57.511109,34.3621976 57.5533312,34.3200059 C57.6621512,34.232421 57.7612385,34.1334054 57.8488869,34.0246642 C58.0526191,33.8638376 58.236833,33.679757 58.397776,33.4761723 C58.4399982,33.4761723 58.4822205,33.4339806 58.5244427,33.3495972 L58.6088872,33.2652139 C58.6511094,33.2652139 58.6511094,33.2652139 58.6933316,33.2230222 C58.8199984,33.0964471 58.9044428,33.0120638 58.8622206,32.9698721 L59.0311096,32.8011053 C59.6348962,32.2412859 60.1603728,31.6026552 60.5933324,30.9024796 C60.8022479,30.6091503 60.98587,30.29863 61.1422215,29.9742625 C61.1844437,29.8898792 61.226666,29.8476875 61.226666,29.7633041 L61.226666,29.7633041 C61.2688882,29.7633041 61.3111105,29.7633041 61.3111105,29.7211124 C61.3533327,29.6789208 61.3955549,29.5945374 61.4377772,29.5523457 C61.5749328,29.3705296 61.6884329,29.1720481 61.7755551,28.9616621 C61.7755551,28.9194705 61.7755551,28.9194705 61.8177773,28.9194705 L61.8177773,28.8350871 C61.9414657,28.6219271 62.0406151,28.3954636 62.113333,28.1600202 C62.1647935,28.0956688 62.2073947,28.0247182 62.2399997,27.9490617 C62.2399997,27.9068701 62.2822219,27.8646784 62.2822219,27.8224867 L62.2822219,27.8224867 C62.3157639,27.7729632 62.330718,27.7131902 62.3244442,27.65372 C62.3697458,27.650645 62.4058114,27.6146054 62.4088887,27.5693366 C62.4933331,27.3161865 62.5355554,27.0208447 62.6199999,26.7676946 C62.6622221,26.7676946 62.6622221,26.7255029 62.6622221,26.6833112 C62.6622221,26.5989279 62.7044443,26.5567362 62.7044443,26.5145445 C62.7530323,26.3498236 62.7813887,26.1798082 62.7888888,26.0082443 C62.831111,25.8816692 62.831111,25.7129025 62.8733333,25.5441358 L62.8733333,25.5019441 L62.8733333,25.5019441 L62.8733333,25.2909857 C62.8733333,25.2066023 62.9155555,25.1222189 62.8733333,25.0378356 L62.831111,24.9956439 L62.831111,24.9534522 C62.8733333,24.9112605 62.9155555,24.8690688 62.9155555,24.8268772 L62.9155555,24.7846855 C62.9155555,24.6581104 62.9155555,24.5737271 62.8733333,24.5315354 C62.8800178,24.4449788 62.865527,24.3580967 62.831111,24.2783853 C62.8522234,23.8708052 62.8522234,23.4624066 62.831111,23.0548265 C62.8733333,23.0970181 62.8733333,23.0970181 62.9155555,23.0970181 C62.9577778,23.0970181 63,23.0548265 63,22.9704431 L62.9577778,22.5907179 C63.0060522,22.3256811 63.0060522,22.0541128 62.9577778,21.789076 C62.9497261,21.6724758 62.9211393,21.5582113 62.8733333,21.4515425 C62.8811057,21.24717 62.83756,21.0441041 62.7466666,20.8608589 L62.7466666,20.8186672 C62.7466666,20.7764755 62.7466666,20.7764755 62.7044443,20.7764755 L62.7044443,20.7764755 C62.7044443,20.7342839 62.6622221,20.7342839 62.6622221,20.6920922 C62.6662567,20.5918974 62.6519479,20.4918085 62.6199999,20.3967504 C62.5809322,20.2764243 62.5240009,20.1626441 62.4511109,20.0592169 C62.4088887,20.0170252 62.4088887,19.9326419 62.3666664,19.8904502 C62.4088887,19.8482585 62.3666664,19.7216835 62.3244442,19.5529167 L62.3244442,19.510725 C62.2822219,19.4685334 62.2399997,19.38415 62.1555552,19.38415 L62.1555552,19.38415 C62.1249454,19.3181692 62.1104734,19.2458614 62.113333,19.1731916 C62.113333,19.0888082 62.113333,19.0466165 62.0711107,19.0044248 L62.0711107,18.9200415 C61.9866663,18.7934664 61.944444,18.6246997 61.8599996,18.4981246 C61.7333328,18.2449745 61.6488884,17.9918244 61.5644439,17.8652494 C61.4811827,17.5926402 61.3527323,17.3359254 61.1844437,17.1057991 C61.1336929,17.0259529 61.0912497,16.941128 61.057777,16.852649 C61.057777,16.8104573 61.057777,16.7682656 61.0155548,16.7682656 L61.0155548,16.7682656 C61.0111188,16.736273 60.9962835,16.706624 60.9733325,16.6838823 C60.9218716,16.6195311 60.8792705,16.5485805 60.8466658,16.4729238 C60.7725654,16.3530189 60.6877764,16.2400486 60.5933324,16.1353904 C60.5933324,16.051007 60.5088879,15.924432 60.2977767,15.6290902 C60.2133322,15.5025151 60.17111,15.4181318 60.0866655,15.2915567 C60.0444433,15.2071733 59.9599988,15.12279 59.9177766,15.0384066 C59.9177766,14.9962149 59.9177766,14.9540232 59.8755543,14.9540232 C59.6747616,14.7591901 59.491121,14.5474504 59.3266652,14.321148 C59.0412061,13.9490105 58.730867,13.5966077 58.397776,13.2663559 C58.397776,13.2241642 58.397776,13.2241642 58.3555537,13.1819725 C58.2572464,13.0962996 58.1719114,12.9968141 58.1022203,12.8866307 C57.9755536,12.7600557 57.8911091,12.6334806 57.7644424,12.5069056 L57.7222202,12.4647139 C57.5944218,12.4027595 57.4797451,12.3168142 57.3844422,12.2115638 C57.336325,12.1594515 57.2790901,12.1165564 57.2155533,12.0849888 C57.1733311,12.0427971 57.1311088,12.0006054 57.0888866,12.0006054 L57.0888866,12.0006054 C57.1132975,11.9469941 57.1132975,11.8854499 57.0888866,11.8318387 C57.0888866,11.789647 57.0466643,11.7474553 57.0044421,11.789647 C56.9622199,11.7474553 56.8355531,11.6630719 56.7933309,11.6208802 L56.7088864,11.5364969 C56.6090647,11.4475659 56.4948464,11.3762312 56.3711085,11.3255385 C56.1599973,11.11458 56.1599973,11.11458 56.1177751,11.0301967 L56.0755528,10.9458133 C56.0418585,10.9133808 55.9953152,10.8978776 55.9488861,10.9036216 C55.9066639,10.9036216 55.8222194,10.8192383 55.7377749,10.7348549 C55.6330398,10.6404806 55.5199878,10.555753 55.399997,10.4817048 L55.1466636,10.2285547 L55.0622191,10.1441713 C55.0622191,10.1019796 55.0622191,10.1019796 55.0199969,10.059788 C54.7244412,9.80663785 54.6399967,9.80663785 54.5555523,9.80663785 C54.5442825,9.80639838 54.5334033,9.81076662 54.5254325,9.8187316 C54.5174618,9.82669658 54.5130904,9.8375679 54.51333,9.84882953 C54.3444411,9.72225448 54.2177743,9.63787112 54.1755521,9.59567943 C54.1755521,9.55348775 54.1333299,9.51129607 54.0488854,9.4269127 C53.8377742,9.30033765 53.626663,9.21595428 53.457774,9.08937923 L52.9511072,8.83622913 C52.9511072,8.79403745 52.9088849,8.79403745 52.9088849,8.75184576 C52.6759317,8.63959457 52.4502982,8.51276757 52.2333291,8.37212061 C51.8476804,8.12027325 51.437426,7.90822626 51.0088842,7.73924536 L51.0088842,7.73924536 C51.0511064,7.65486199 51.0511064,7.65486199 50.628884,7.40171189 C50.6176143,7.40195136 50.6067351,7.39758312 50.5987643,7.38961814 C50.5907936,7.38165316 50.5864222,7.37078185 50.5866618,7.35952021 C50.5653878,7.34340015 50.5375246,7.33880639 50.5121961,7.34724314 C50.4868675,7.35567988 50.4673353,7.37606066 50.4599951,7.40171189 L50.4599951,7.44390358 C50.4177729,7.40171189 50.3755506,7.40171189 50.2911061,7.35952021 C50.2911061,7.27513684 50.2066617,7.23294516 50.1222172,7.14856179 C49.821467,6.97671483 49.5113552,6.82177115 49.1933279,6.68445327 C48.8753006,6.54713557 48.5651888,6.39219189 48.2644387,6.22034476 C48.2004015,6.17815344 48.1173647,6.17815344 48.0533275,6.22034476 L48.0533275,6.22034476 C47.6888234,6.09181912 47.3468545,5.90672003 47.0399938,5.67185287 C46.7993232,5.48543511 46.5278039,5.34263363 46.2377712,5.24993604 C46.186475,5.22050537 46.1280034,5.20589806 46.0688823,5.20774435 C45.8878034,5.1712417 45.7156585,5.09956656 45.5622154,4.99678594 L45.5622154,4.99678594 C45.5679636,4.95039047 45.5524491,4.90388085 45.5199932,4.87021089 C45.3073564,4.74528043 45.0805701,4.64613322 44.8444373,4.5748691 C44.8022151,4.5748691 44.7599929,4.5748691 44.7599929,4.53267742 C44.7599929,4.49048573 44.6333261,4.44829405 44.5488817,4.36391068 C44.418076,4.28545853 44.2755247,4.22847928 44.1266593,4.19514395 C44.0258191,4.17588204 43.9269061,4.14764163 43.8311036,4.11076058 L43.915603,4.02637722 C43.9158426,4.01511558 43.9114712,4.00424426 43.9035005,3.99627928 C43.8955297,3.98831431 43.8846505,3.98394606 43.8733807,3.98418553 C42.9867137,3.60446038 42.0578245,3.14035186 41.1289352,2.71843503 L41.1289352,2.71843503 C41.1291749,2.70717339 41.1248035,2.69630208 41.1168327,2.6883371 C41.108862,2.68037212 41.0979828,2.67600388 41.086713,2.67624335 C40.989032,2.5941303 40.8732817,2.53629705 40.7489351,2.50747661 L40.7067128,2.50747661 C40.5378239,2.42309325 40.3267127,2.33870988 40.1578237,2.25432651 C40.1578237,2.21213483 40.1578237,2.21213483 40.1156015,2.16994314 C40.1043317,2.17018261 40.0934525,2.16581437 40.0854818,2.15784939 C40.077511,2.14988441 40.0731396,2.1390131 40.0733793,2.12775146 L39.8200458,2.00117641 L39.5667124,1.87460136 L39.4822679,1.87460136 C38.5956009,1.49487621 37.6667116,1.11515106 36.8222669,0.819809274 C36.6574263,0.77125787 36.487288,0.74292201 36.3156,0.735425907 C36.312521,0.690157884 36.2764563,0.654119319 36.2311555,0.65104254 C36.0200443,0.566659173 35.9355999,0.566659173 35.8511554,0.608850857 L35.8089331,0.608850857 C35.8058541,0.563582833 35.7697895,0.527544269 35.7244887,0.52446749 L35.5978219,0.482275806 C35.0397619,0.367954601 34.4759983,0.283451263 33.9089324,0.229125705 C33.3600433,0.144742339 32.7689319,0.102550655 32.3044873,0.0603589716 L32.2622651,0.0181672882 C31.9523222,-0.0160809458 31.6389313,-0.00184620946 31.3333758,0.0603589716 C31.1105002,0.0998086961 30.8838768,0.113962404 30.65782,0.102550655 L30.6155978,0.102550655 C29.3408537,0.181950196 28.071953,0.336925824 26.8155963,0.566659173 C26.5200406,0.608850857 26.2244849,0.65104254 25.9711515,0.693234223 L25.9289293,0.693234223 C25.7110261,0.775384485 25.4843279,0.832018002 25.2533735,0.862000957 C24.6200399,0.988576008 24.3244842,1.07295937 24.2400397,1.19953442 C24.0737607,1.2415394 23.9042969,1.26976293 23.7333729,1.28391779 C23.2324676,1.3563709 22.7382587,1.46925119 22.2555945,1.62145126 C22.0925673,1.65188167 21.9356584,1.70889816 21.7911499,1.79021799 C21.6462206,1.83538596 21.5050492,1.89181366 21.3689275,1.95898473 C21.3461694,1.93605009 21.3164988,1.92122554 21.284483,1.91679304 L20.566705,1.87460136 L20.228927,1.87460136 L19.8489269,2.08555978 L19.6800379,2.08555978 C19.6347371,2.08863656 19.5986725,2.12467512 19.5955935,2.16994314 C19.1311488,2.29651819 18.6667042,2.42309325 18.624482,2.42309325 L18.5822048,2.42309325 C18.3710936,2.50747661 18.1177602,2.59185998 17.8644268,2.67624335 C17.8222045,2.71843503 17.7377601,2.71843503 17.6955378,2.76062671 L17.6110934,2.76062671 C17.5688711,2.76062671 17.5688711,2.8028184 17.5266489,2.8028184 L17.4422044,2.8028184 C17.2733154,2.88720176 17.2310932,2.88720176 17.188871,2.88720176 C17.0268316,2.89604277 16.8685213,2.93918706 16.7244263,3.01377681 L16.7244263,3.01377681 C16.6822041,3.01377681 16.6822041,3.0559685 16.6822041,3.09816018 L16.6822041,3.09816018 C16.1565439,3.24225575 15.6471765,3.44019972 15.1622035,3.68884375 L15.077759,3.68884375 C13.9376914,4.16256025 12.8242006,4.6977758 11.7422022,5.29212772 C11.6999799,5.29212772 11.6999799,5.3343194 11.6999799,5.37651109 L11.6577577,5.37651109 C11.6155355,5.37651109 11.6155355,5.37651109 11.5733132,5.41870277 L11.531091,5.46089445 L11.4466465,5.46089445 C11.3530628,5.50207289 11.2673452,5.55917663 11.1933131,5.62966119 C11.1820433,5.62942172 11.1711641,5.63378996 11.1631933,5.64175494 C11.1552226,5.64971992 11.1508512,5.66059124 11.1510908,5.67185287 L11.1088686,5.67185287 C11.0624395,5.66610823 11.0158959,5.68161153 10.9822019,5.71404456 C10.8434797,5.82504954 10.6862582,5.91074462 10.5177572,5.96719466 C10.2755168,6.07852379 10.0484953,6.22030954 9.84220142,6.38911149 L9.79997919,6.38911149 C8.97116234,6.90806732 8.18095617,7.48619244 7.43553382,8.11897051 C7.39331158,8.11897051 7.39331158,8.1611622 7.39331158,8.20335388 L7.22442262,8.37212061 C7.1156264,8.47521411 7.01668014,8.58821372 6.92886695,8.70965408 L6.71775576,8.87842081 C6.11344405,9.36759981 5.54872617,9.90369355 5.02886621,10.4817048 C4.77553277,10.7770466 4.77553277,10.8192383 4.77553277,10.9036216 L4.77553277,10.9036216 C4.65142501,11.0040054 4.53821135,11.1171371 4.43775487,11.2411551 C4.39553263,11.2411551 4.39553263,11.2411551 4.39553263,11.2833468 C4.35331039,11.3255385 4.35331039,11.3677301 4.31108815,11.4099218 C4.22664367,11.5364969 4.14219919,11.6208802 4.09997696,11.7052636 C3.93579111,11.8843241 3.79400927,12.082675 3.67775457,12.2959472 L3.42442114,12.6756723 C3.37993104,12.7221631 3.35050217,12.7809783 3.33997666,12.8444391 C3.25553218,12.9710141 3.21330994,13.0975892 3.12886546,13.2241642 C3.08664323,13.2663559 3.08664323,13.3507393 3.04442099,13.3929309 L3.04442099,13.3929309 C3.00219875,13.3929309 2.95997651,13.4351226 2.95997651,13.519506 L2.91775427,13.6038894 C2.87553203,13.6882727 2.79108755,13.8148478 2.74886532,13.8992311 L2.70664308,13.9414228 C2.68369183,13.9641644 2.66885654,13.9938135 2.66442084,14.0258062 L2.66442084,14.0258062 C2.5497242,14.1994596 2.45081105,14.3830225 2.36886517,14.5742981 C2.11553173,15.12279 1.81997606,15.7134735 1.56664263,16.3041571 C1.283431,16.9874614 1.0574699,17.6930789 0.891086811,18.4137413 L0.848864572,18.455933 C0.754437099,18.8450485 0.683934855,19.2395754 0.637753378,19.6373001 C0.586292483,19.7016512 0.543691293,19.7726018 0.511086662,19.8482585 C0.468864423,20.2701753 0.384419946,20.6499005 0.342197707,21.0296257 C0.228037841,21.7560782 0.157541114,22.4887136 0.131086513,23.2235932 C0.0277889757,23.9076274 -0.0145992944,24.5994681 0.00441979714,25.2909857 C0.00441979714,25.7550942 0.00441979714,26.2192027 0.0466420359,26.6411196 L0.0466420359,27.6115283 C0.0510777414,27.6435209 0.0659130281,27.67317 0.0888642746,27.6959116 L0.0888642746,28.1178285 C0.0919432818,28.1630965 0.128007946,28.1991351 0.173308752,28.2022118 L0.173308752,28.2022118 C0.384419946,30.5649461 0.848864572,33.518364 2.11553173,36.049865 C2.24527407,36.3042619 2.40091134,36.5446182 2.57997636,36.7671236 C2.69431476,36.8960073 2.79348146,37.0375715 2.87553203,37.1890404 L2.87553203,37.1890404 C2.85559739,37.2039806 2.84386535,37.2274277 2.84386535,37.2523279 C2.84386535,37.2772282 2.85559739,37.3006753 2.87553203,37.3156155 C3.99068739,38.9160598 5.32690093,40.3507396 6.84442247,41.5769755 Z M3.55108785,34.1090475 C3.18439761,33.3545253 2.90123846,32.5622534 2.70664308,31.7463132 C2.67000666,31.5443283 2.61343404,31.3464674 2.53775412,31.1556297 C2.52902673,30.8425751 2.48655925,30.5313723 2.41108741,30.2274126 C2.36886517,29.9320709 2.32664293,29.5945374 2.28442069,29.2148122 C2.16844833,28.5034819 2.11195681,27.7837362 2.11553173,27.0630364 C2.11109542,27.0310439 2.09626023,27.001395 2.0733095,26.978653 L2.0733095,26.5989279 C2.0733095,26.5567362 2.0733095,26.5145445 2.03108726,26.5145445 C1.94250996,24.0301186 2.19826714,21.5453899 2.79108755,19.1309999 C2.87485532,18.9157789 2.91780885,18.6868592 2.91775427,18.455933 C2.91352887,18.2833429 2.94218606,18.1115242 3.00219875,17.9496328 C3.04442099,17.9496328 3.12886546,17.9074411 3.12886546,17.8652494 C3.62420689,16.1809719 4.41008591,14.596073 5.45108859,13.1819725 C5.49331083,13.1819725 5.49331083,13.1819725 5.53553307,13.1397808 C5.85049203,12.7755415 6.14644084,12.3953113 6.42220009,12.0006054 L6.42220009,12.0006054 L6.50664456,11.916222 C6.5488668,11.916222 6.59108904,11.8740303 6.63331128,11.8740303 C6.79540394,11.7401594 6.93757442,11.583885 7.05553367,11.4099218 C7.10320903,11.3200883 7.17674624,11.2466043 7.26664486,11.1989634 C7.27791465,11.1992029 7.28879384,11.1948346 7.29676459,11.1868697 C7.30473534,11.1789047 7.30910674,11.1680334 7.3088671,11.1567717 L7.35108934,11.11458 L7.47775605,10.988005 L7.68886725,10.7770466 C7.89997844,10.5660882 8.02664516,10.4817048 8.02664516,10.3973214 C8.19553411,10.2707464 8.36442307,10.1019796 8.53331202,9.97540458 C8.79960436,9.71438896 9.0974631,9.4876132 9.41997904,9.30033765 L9.46220128,9.25814597 L9.50442351,9.21595428 L9.75775695,9.04718755 C9.79997919,9.04718755 9.79997919,9.00499586 9.79997919,8.96280418 C9.88442366,8.87842081 10.0110904,8.83622913 10.0955349,8.75184576 C10.243472,8.684284 10.3735893,8.5831549 10.475535,8.45650398 C10.8341806,8.29775442 11.1740471,8.09964239 11.4888687,7.86582041 C11.623994,7.81192741 11.7516906,7.74103621 11.8688689,7.65486199 C11.9095498,7.60272252 11.9716075,7.57171612 12.0377578,7.57047863 L12.1222023,7.57047863 C12.2405504,7.50980968 12.3535465,7.43923824 12.4599802,7.35952021 C12.7133137,7.19075348 12.8399804,7.14856179 12.8822026,7.06417843 C13.2185906,6.92090572 13.5432797,6.75162533 13.8533141,6.55787822 C14.1768784,6.3455733 14.5336306,6.18871596 14.9088701,6.09376971 L14.9510923,6.09376971 C15.7955371,5.67185287 16.6399819,5.29212772 17.3999822,4.99678594 L17.3999822,4.99678594 C17.4336762,5.02921897 17.4802197,5.04472226 17.5266489,5.03897762 C17.8222045,4.91240257 18.1177602,4.78582752 18.3710936,4.70144415 C18.9782155,4.44437185 19.5983135,4.21904485 20.2288722,4.02637722 C20.2625662,4.05881025 20.3091097,4.07431354 20.3555389,4.0685689 C21.0733169,3.8154188 21.791095,3.60446038 22.4666508,3.43569365 C22.7622065,3.35131028 23.0155399,3.26692691 23.3110956,3.18254355 L23.4377623,3.18254355 C23.4490321,3.18278302 23.4599113,3.17841478 23.467882,3.1704498 C23.4758528,3.16248482 23.4802242,3.1516135 23.4799845,3.14035186 L23.564429,3.14035186 C24.0710959,3.01377681 24.1133181,2.92939345 24.1133181,2.88720176 L24.1133181,2.84501008 C24.1555404,2.84501008 24.1977626,2.8028184 24.2399848,2.8028184 C24.3339453,2.76067628 24.4334829,2.73225755 24.5355405,2.71843503 C24.619985,2.76062671 24.7044295,2.71843503 24.9577629,2.67624335 L25.0844296,2.67624335 L25.0844296,2.71843503 C25.1266518,2.76062671 25.1688741,2.8028184 25.2110963,2.76062671 C25.2533186,2.71843503 25.2955408,2.71843503 25.3799853,2.67624335 C25.3830643,2.63097532 25.419129,2.59493676 25.4644298,2.59185998 L25.5488742,2.59185998 C25.7646906,2.55500608 25.9766838,2.49851546 26.1822078,2.42309325 C26.2643924,2.38859633 26.3490805,2.3603874 26.4355412,2.33870988 L26.5199857,2.33870988 C26.5312555,2.33894935 26.5421347,2.33458111 26.5501055,2.32661613 C26.5580762,2.31865115 26.5624476,2.30777983 26.562208,2.29651819 L26.6044302,2.29651819 C26.6466524,2.29651819 26.6888747,2.25432651 26.7310969,2.25432651 C27.0027091,2.14920504 27.2863792,2.07833883 27.5755417,2.04336809 L27.6177639,2.04336809 C27.6641929,2.04911149 27.710736,2.03360838 27.7444307,2.00117641 C27.9379689,1.95245115 28.1360923,1.92416829 28.335542,1.91679304 C29.0004871,1.76242067 29.6796974,1.67758082 30.3622095,1.66364294 C30.4044317,1.70583463 30.4888762,1.70583463 30.6155429,1.70583463 L30.9110986,1.70583463 C30.9338566,1.72876926 30.9635272,1.74359381 30.995543,1.74802631 L32.3466547,1.74802631 C32.3466547,1.79021799 32.3888769,1.79021799 32.4310992,1.79021799 C32.5975902,1.82517859 32.7677806,1.83935085 32.937766,1.83240968 C33.1077515,1.82546824 33.2779418,1.83964051 33.4444329,1.87460136 C33.4866551,1.87460136 33.5288774,1.87460136 33.5288774,1.83240968 C33.6937179,1.88096104 33.8638562,1.9092969 34.0355442,1.91679304 C34.116897,1.94544739 34.2026223,1.9597246 34.2888777,1.95898473 L34.4577666,1.95898473 C34.7003891,1.99985565 34.9401401,2.05622682 35.1755447,2.12775146 C35.1755447,2.16994314 35.1755447,2.21213483 35.2177669,2.21213483 C35.2599891,2.25432651 35.2599891,2.25432651 35.3022114,2.25432651 C35.6936902,2.27451698 36.0790206,2.36008398 36.4422118,2.50747661 C36.4844341,2.59185998 36.5688785,2.59185998 36.653323,2.63405166 C36.676274,2.65679345 36.6911093,2.68644246 36.6955453,2.71843503 L36.7377675,2.76062671 L36.9488787,2.8028184 C37.0333232,2.84501008 37.0755454,2.84501008 37.1177677,2.88720176 C37.117528,2.8984634 37.1218994,2.90933472 37.1298702,2.9172997 C37.1378409,2.92526467 37.1487201,2.92963292 37.1599899,2.92939345 C37.4133233,3.01377681 37.4977678,3.0559685 37.5822123,3.01377681 C37.5822123,2.97158513 37.5822123,3.01377681 37.6244345,3.01377681 L37.8355457,3.09816018 C38.1698265,3.21311949 38.4945331,3.35419413 38.8066572,3.52007702 C38.8064176,3.53133865 38.810789,3.54220997 38.8187597,3.55017495 C38.8267305,3.55813993 38.8376096,3.56250817 38.8488794,3.5622687 L39.1444351,3.73103543 L39.1866573,3.73103543 L39.3555463,3.77322712 L39.4399908,3.77322712 C39.4399908,3.8154188 39.5244353,3.85761048 39.5666575,3.89980217 C39.9466576,4.0685689 40.3266578,4.23733563 40.6644357,4.40610237 C41.2977693,4.70144415 41.9733251,4.99678594 42.5644364,5.29212772 L42.6066587,5.3343194 L42.8177699,5.41870277 L42.9022144,5.41870277 C42.9866588,5.46089445 43.1133256,5.54527782 43.19777,5.5874695 L43.7044369,5.84061961 C43.7044369,5.88281129 43.7044369,5.92500297 43.7466591,5.92500297 L43.7888814,5.92500297 C44.2656136,6.18319418 44.7593423,6.40873538 45.2666597,6.60006991 C45.5622154,6.72664496 45.8577711,6.85322001 46.195549,7.02198674 L46.2377712,7.06417843 C46.6599936,7.27513684 47.3355494,7.61267031 47.7999941,7.86582041 C47.8422163,7.86582041 47.8422163,7.86582041 47.8844385,7.90801209 C47.9664791,7.94289035 48.0511974,7.97110937 48.137772,7.99239546 C48.6866611,8.32992893 49.2777724,8.62527071 49.8266615,8.9206125 C50.4078386,9.1957074 50.9718316,9.5056791 51.5155511,9.84882953 L51.5155511,9.84882953 C51.5186301,9.89409756 51.5546947,9.93013612 51.5999955,9.9332129 C51.7593222,10.0471965 51.9289467,10.1460725 52.1066624,10.2285547 C52.284379,10.3110352 52.4540037,10.4099113 52.6133293,10.5238965 C52.6555515,10.5660882 52.6977737,10.5238965 52.739996,10.5238965 L52.739996,10.5238965 C52.8465163,10.6290702 52.9593156,10.7276981 53.0777739,10.8192383 C53.1199961,10.9036216 53.1622184,10.9458133 53.2466629,10.9458133 L53.2888851,10.9458133 C53.3436204,11.0032905 53.4206922,11.0340969 53.4999963,11.0301967 C53.5422185,11.0301967 53.5844408,11.0301967 53.8377742,11.2411551 C53.8377742,11.2833468 53.8799964,11.2833468 53.8799964,11.3255385 L54.2599966,11.5786886 C54.2542472,11.6250841 54.2697618,11.6715943 54.3022188,11.7052636 C54.4641873,11.8076023 54.6193291,11.920351 54.7666634,12.0427971 C54.8088857,12.0427971 54.8088857,12.0849888 54.8511079,12.0849888 C55.0071232,12.2531649 55.176571,12.4083797 55.3577748,12.5490973 L55.4844415,12.6756723 L55.6955527,12.8866307 L55.6955527,12.8866307 L56.0755528,13.2663559 C56.0905038,13.2862761 56.1139679,13.2979997 56.1388862,13.2979997 C56.1638045,13.2979997 56.1872686,13.2862761 56.2022196,13.2663559 L56.2022196,13.2663559 C56.3673365,13.3952367 56.5225838,13.5362684 56.6666642,13.6882727 C56.7895869,13.7899647 56.9026765,13.9029724 57.0044421,14.0258062 L57.0888866,14.1101896 C57.0831372,14.1565852 57.0986518,14.2030953 57.1311088,14.2367646 C57.0888866,14.2367646 57.0888866,14.2789563 57.0888866,14.321148 C57.0919656,14.366416 57.1280302,14.4024546 57.1733311,14.4055313 L57.2155533,14.4055313 C57.2577755,14.447723 57.2999978,14.5321064 57.34222,14.5742981 C57.4266645,14.7008731 57.4688867,14.7430648 57.511109,14.7430648 C57.5955534,14.8274482 57.6799979,14.9540232 57.7644424,15.0384066 C57.8955057,15.2274858 58.0517602,15.3978219 58.228887,15.5447068 C58.228887,15.5868985 58.2711093,15.6290902 58.3133315,15.6712819 C58.3362827,15.6940234 58.351118,15.7236725 58.3555537,15.7556652 L58.3555537,15.7556652 L58.3555537,15.8822403 C58.4399982,16.0088153 58.5244427,16.0931987 58.5666649,16.051007 C58.7777761,16.3885405 59.0311096,16.7682656 59.2422208,17.1901825 C59.4533319,17.5277159 59.6222209,17.8652494 59.8755543,18.2449745 C59.9531067,18.3674272 60.023592,18.494209 60.0866655,18.6246997 C60.2555545,18.9200415 60.339999,19.0888082 60.4666657,19.2997666 L60.4666657,19.2997666 C60.4244434,19.2997666 60.3822212,19.38415 60.3822212,19.4263417 C60.4244434,19.5529167 60.5088879,19.9326419 60.6355546,20.2701753 C60.6386336,20.3154434 60.6746983,20.3514819 60.7199991,20.3545587 L60.7199991,20.3545587 L60.7199991,20.4389421 C60.7622213,20.5655171 60.8044436,20.6920922 60.8466658,20.8608589 C60.8044436,20.8608589 60.8044436,20.9030506 60.8044436,20.9452423 C60.8143591,21.0163294 60.8284576,21.0867709 60.8466658,21.1562007 L60.8466658,21.1562007 C60.8409164,21.2025963 60.856431,21.2491064 60.8888881,21.2827758 L60.8888881,21.3249674 L60.8888881,21.3249674 C60.8888881,21.3671591 60.9311103,21.4515425 60.9311103,21.4937342 L60.9311103,21.5781175 C60.9675731,21.7938686 61.0241148,22.0057465 61.0999993,22.2109928 L61.1422215,22.3375678 C61.1422215,22.3797595 61.0999993,22.3797595 61.0999993,22.4219512 C61.1422215,22.6751013 61.1844437,22.9704431 61.226666,23.2657849 L61.226666,23.2657849 C61.1813644,23.2688599 61.1452987,23.3048994 61.1422215,23.3501682 L61.1422215,23.6033183 C61.1422215,23.64551 61.1422215,23.64551 61.1844437,23.6877017 C61.1844437,23.7720851 61.1422215,23.8142768 61.1844437,23.8986601 C61.1844437,23.9408518 61.226666,23.9408518 61.2688882,23.9408518 C61.226666,23.9408518 61.1844437,23.9830435 61.1422215,24.0252352 L61.1422215,24.1096185 C61.1749121,24.2334289 61.1891395,24.3613823 61.1844437,24.4893437 C61.1804091,24.5895385 61.1947179,24.6896273 61.226666,24.7846855 C61.2224685,24.884292 61.2083242,24.9832305 61.1844437,25.0800273 C61.1422215,25.0800273 61.1422215,25.1222189 61.1422215,25.1644106 L61.1422215,25.2909857 C61.1073862,25.4143871 61.0931213,25.542678 61.0999993,25.6707108 L61.057777,25.6707108 C61.0124754,25.6737858 60.9764098,25.7098254 60.9733325,25.7550942 L60.9311103,26.0926277 C60.8129023,26.3085196 60.7139998,26.534419 60.6355546,26.7676946 C60.6267887,26.8573443 60.5979261,26.9438692 60.5511102,27.0208447 L60.5511102,27.0208447 C60.4236816,27.2425299 60.3378293,27.4856019 60.2977767,27.7381033 C60.2555545,27.780295 60.2555545,27.8224867 60.2133322,27.8646784 C60.17111,27.9068701 60.17111,27.9490617 60.1288878,27.9912534 C60.0866655,28.1178285 60.0444433,28.2022118 60.002221,28.3287869 C60.002221,28.3709786 59.9599988,28.4131703 59.9599988,28.4553619 C59.8755543,28.4553619 59.8333321,28.5397453 59.7488876,28.708512 C59.7066654,28.7928954 59.6644431,28.8772788 59.7488876,28.9194705 L59.7488876,28.9194705 L59.6222209,29.0460455 C59.57007,29.0941271 59.5271437,29.1513207 59.4955542,29.2148122 C59.4533319,29.2148122 59.4111097,29.2148122 59.4111097,29.2570039 C59.3266652,29.383579 59.1999985,29.5945374 59.0733318,29.7633041 C58.9762469,29.8959679 58.8914524,30.0371899 58.8199984,30.185221 C58.7355539,30.2696043 58.6511094,30.3961794 58.5244427,30.5227544 C58.397776,30.6493295 58.228887,30.8602879 58.1444425,30.9446713 L58.1022203,30.9446713 C58.0569187,30.9477463 58.020853,30.9837858 58.0177758,31.0290546 L58.0177758,31.0290546 C57.9755536,31.0712463 57.7644424,31.3665881 57.5955534,31.5775465 C57.511109,31.5775465 57.4266645,31.6619299 57.1733311,31.9572717 C57.0363317,32.1041657 56.8801045,32.2318955 56.7088864,32.3369968 C56.6624574,32.3312534 56.6159144,32.3467565 56.5822197,32.3791885 C56.1225799,32.8794731 55.6133021,33.3318369 55.0622191,33.7293224 L55.0199969,33.7293224 C54.8472516,33.8798106 54.6463323,33.9945386 54.4288855,34.0668558 L54.3022188,34.1090475 C54.2599966,34.1090475 54.2599966,34.1512392 54.2599966,34.1934309 L53.8799964,34.573156 C53.8377742,34.6153477 53.7533297,34.6575394 53.7111075,34.6997311 C53.7111075,34.6575394 53.6688852,34.6575394 53.5844408,34.6575394 C53.53914,34.6606162 53.5030753,34.6966548 53.4999963,34.7419228 C53.457774,34.7841145 53.3311073,34.8684978 53.2466629,34.9528812 C53.1417787,35.0295472 53.0429672,35.1141815 52.9511072,35.2060313 C52.8244405,35.248223 52.7822182,35.2904147 52.739996,35.2904147 C52.6727817,35.3258628 52.6020219,35.3541463 52.5288848,35.374798 C52.4835832,35.377873 52.4475175,35.4139126 52.4444403,35.4591814 C52.4444403,35.5013731 52.3599958,35.5435648 52.2755514,35.5857564 C52.1911069,35.6701398 52.0644402,35.7123315 51.9377734,35.8389065 C51.8460013,35.8953565 51.7464161,35.938005 51.6422178,35.9654816 C51.5957888,35.9597382 51.5492457,35.9752413 51.5155511,36.0076733 C51.5006001,35.9877531 51.477136,35.9760295 51.4522177,35.9760295 C51.4272994,35.9760295 51.4038353,35.9877531 51.3888843,36.0076733 C51.0511064,36.2186317 51.0088842,36.2608234 51.0088842,36.3452067 L51.0088842,36.3873984 C50.797773,36.5139735 50.7555508,36.5561652 50.7133285,36.5561652 C50.628884,36.5139735 50.5866618,36.5561652 50.5022173,36.5983568 C50.3125378,36.7149517 50.1293072,36.8417118 49.9533282,36.978082 C49.8088743,37.104181 49.6534424,37.2171406 49.4888836,37.3156155 C49.4466614,37.3156155 49.4466614,37.3156155 49.4044391,37.3578071 C49.1933279,37.5265739 48.8133278,37.779724 48.4755499,37.9906824 C48.2644387,38.1172575 48.0533275,38.2438325 47.8844385,38.3704076 C47.8422163,38.2860242 47.7999941,38.2860242 47.4199939,38.5391743 C47.3875379,38.5728443 47.3720235,38.6193539 47.3777717,38.6657493 L47.3777717,38.707941 C47.2697411,38.7639002 47.1702257,38.8349312 47.082216,38.9188994 C46.9886452,38.8747748 46.8802311,38.8747748 46.7866603,38.9188994 C46.4795983,39.0666977 46.1833125,39.2358814 45.8999933,39.4251996 C45.6888821,39.5517747 45.4777709,39.6783497 45.0133263,39.9314998 C44.9711041,39.9736915 44.8866596,40.0158832 44.9288818,40.1002666 L44.9288818,40.1002666 C44.6085738,40.2905244 44.2688753,40.4461069 43.9155481,40.5643751 C43.6278106,40.6207357 43.3547469,40.7356267 43.1133256,40.9019086 L43.0288811,40.9862919 C42.8735435,41.1063081 42.7032214,41.2055908 42.5222142,41.2816337 L42.5222142,41.2816337 C42.4885199,41.2492012 42.4419766,41.233698 42.3955475,41.239442 C42.173597,41.3303471 41.9614078,41.4434327 41.7622139,41.5769755 C41.7199917,41.5769755 41.7199917,41.6191672 41.6777694,41.6191672 L41.593325,41.6191672 C41.3982734,41.6527843 41.2117596,41.7244684 41.0444359,41.8301256 C40.9696985,41.8894308 40.8834234,41.9325372 40.7911024,41.9567006 L40.7066579,41.914509 L40.6222135,41.914509 C39.8099002,42.2703048 38.9782181,42.5801991 38.1311014,42.842726 C38.0888791,42.842726 38.0466569,42.8849177 37.9622124,42.8849177 L37.8777679,42.8849177 C37.8355457,42.842726 37.7511012,42.842726 37.6244345,42.8849177 C36.3022526,43.2654689 34.9436547,43.5058798 33.5710996,43.6021763 C33.5288774,43.6021763 33.4866551,43.644368 33.4022106,43.644368 C33.2725263,43.6566027 33.1448748,43.6849492 33.0222105,43.7287514 L32.9799883,43.7287514 C32.937766,43.7287514 32.937766,43.6865597 32.8955438,43.7287514 C32.5999881,43.8553264 32.5577659,43.9397098 32.5577659,43.9819015 L32.5577659,44.0240931 L32.4310992,44.1506682 C32.3888769,44.1506682 32.3888769,44.1928599 32.3466547,44.1928599 C32.3044828,44.2867526 32.2760435,44.386218 32.2622102,44.4882017 L32.2622102,44.6147767 C32.2316015,44.6807578 32.2171295,44.7530654 32.219988,44.8257351 C32.2228464,44.8984048 32.2083745,44.9707124 32.1777657,45.0366935 C32.1699187,45.1669386 32.1414153,45.295111 32.0933212,45.4164187 C32.044735,45.58114 32.0163786,45.7511551 32.0088768,45.9227189 C31.9256573,46.4212069 31.8128658,46.9143124 31.6710989,47.3994278 C31.6288766,47.3994278 31.6288766,47.4416195 31.6288766,47.4838112 C31.5444321,47.8213446 31.5444321,48.0323031 31.5022099,48.2010698 C31.4916502,48.3861752 31.4633729,48.5698444 31.4177654,48.7495617 C31.3755432,48.7495617 31.3755432,48.7917534 31.3755432,48.833945 L31.2488765,49.3402453 L31.2488765,49.3824369 L31.1222097,49.2558619 C31.0558356,49.1942267 30.9989263,49.1231416 30.9533208,49.0449035 C30.8688763,48.9605201 30.8266541,48.8761367 30.7844318,48.833945 C30.2355427,48.2010698 29.8133203,47.6103862 29.4755424,47.1462777 C29.4757821,47.1350161 29.4714107,47.1241448 29.4634399,47.1161798 C29.4554692,47.1082148 29.44459,47.1038466 29.4333202,47.104086 C29.255068,46.911345 29.0992582,46.6990308 28.9688756,46.4712108 C28.8283062,46.2262924 28.6581412,45.9995699 28.4622087,45.7961438 C28.3961048,45.6741557 28.3396368,45.5471946 28.2933198,45.4164187 C28.2384779,45.2949228 28.1674656,45.1813854 28.0822086,45.0788852 L28.0399863,45.0366935 C28.0399863,44.9945019 28.0399863,44.9945019 27.9977641,44.9523102 L27.9977641,44.8679268 C27.9860045,44.7942283 27.9386065,44.7310767 27.8710974,44.6991601 L27.8288751,44.6569684 C27.73961,44.5623598 27.640535,44.4774998 27.5333195,44.4038183 C27.3175559,44.3219473 27.0820495,44.3072388 26.8577636,44.3616266 L26.6888747,44.3616266 C26.6424456,44.3558826 26.5959023,44.3713858 26.562208,44.4038183 L26.4355412,44.4038183 C26.4355412,44.3616266 26.393319,44.3616266 26.3510968,44.3616266 L26.2244301,44.3616266 C26.1791292,44.3647034 26.1430646,44.4007419 26.1399856,44.44601 L26.1399856,44.4882017 L26.0977633,44.4882017 C26.0555411,44.4882017 26.0555411,44.44601 26.0133189,44.4882017 C25.9288744,44.4882017 25.8444299,44.5303933 25.7599854,44.5303933 C25.675541,44.5303933 25.5910965,44.572585 25.506652,44.572585 L25.2110963,44.5303933 L25.1688741,44.5303933 L24.7888739,44.572585 C24.7568583,44.5770181 24.7271879,44.5918426 24.7044295,44.6147767 C24.3540502,44.6602715 23.9992527,44.6602715 23.6488735,44.6147767 L23.564429,44.6147767 C23.3533178,44.6147767 23.1422066,44.6569684 22.8888732,44.6569684 C22.8888732,44.6147767 22.846651,44.6147767 22.8044287,44.6147767 L22.677762,44.6147767 C22.6324612,44.6178535 22.5963965,44.653892 22.5933175,44.6991601 L22.5510953,44.6991601 C22.4878239,44.6608689 22.4131265,44.6459403 22.3399841,44.6569684 L22.2133174,44.6569684 C22.1710951,44.6147767 22.0866507,44.6147767 21.7488727,44.6569684 C21.7066505,44.6569684 21.7066505,44.6569684 21.6644283,44.6991601 C21.3847062,44.6606258 21.1021571,44.6465085 20.8199835,44.6569684 C20.5939749,44.6639488 20.3678077,44.6498236 20.1444277,44.6147767 C20.1444277,44.572585 20.1022054,44.572585 20.0599832,44.572585 L19.848872,44.572585 C18.7874322,44.5010592 17.7304432,44.3743123 16.6822041,44.1928599 L16.6399819,44.1928599 C16.5977596,44.1928599 16.5555374,44.1928599 16.5555374,44.2350516 L16.5133151,44.2350516 C16.4710929,44.2350516 16.4288707,44.1928599 16.3866484,44.2350516 C16.3835694,44.1897835 16.3475048,44.153745 16.302204,44.1506682 L15.964426,44.1084765 L15.964426,44.1084765 C15.961347,44.0632085 15.9252824,44.0271699 15.8799816,44.0240931 C15.6770386,43.9910377 15.4786562,43.934398 15.2888702,43.8553264 C15.0960811,43.7851542 14.8985467,43.7287566 14.6977589,43.6865597 L14.6977589,43.6865597 L14.6555366,43.644368 C14.1829408,43.5152673 13.7177959,43.3603313 13.2622028,43.1802595 C13.1605315,43.1458348 13.0617115,43.1035139 12.9666471,43.0536844 C12.8698181,43.019952 12.7711385,42.9917783 12.6710914,42.969301 C12.5866469,42.9271094 12.5444247,42.9271094 12.4599802,42.8849177 C12.3222585,42.8213951 12.1813278,42.7650636 12.0377578,42.7161509 L11.9533134,42.7161509 C11.8650471,42.7011357 11.7796086,42.6726768 11.6999799,42.6317676 C11.5848748,42.5966008 11.4720652,42.5543278 11.362202,42.5051925 C10.6629136,42.137948 9.98615718,41.7293703 9.33553456,41.2816337 C9.03997889,41.112867 8.99775665,41.0706753 8.95553441,41.112867 L8.95553441,41.112867 L8.78664546,40.9441002 C8.74442322,40.9019086 8.70220098,40.8597169 8.65997874,40.8597169 C8.65997874,40.8175252 8.65997874,40.7753335 8.6177565,40.7753335 C8.28040366,40.5401122 7.95621311,40.2865815 7.64664501,40.0158832 C7.45185161,39.8757188 7.2683288,39.7205426 7.09775591,39.5517747 C6.92886695,39.4251996 6.759978,39.2564329 6.5488668,39.0876662 C6.53759701,39.0879056 6.52671782,39.0835374 6.51874707,39.0755724 C6.51077633,39.0676074 6.50640492,39.0567361 6.50664456,39.0454745 C6.46442232,39.0032828 6.46442232,38.9610911 6.42220009,38.9610911 C6.42243973,38.9498295 6.41806832,38.9389582 6.41009758,38.9309932 C6.40212683,38.9230282 6.39124764,38.91866 6.37997785,38.9188994 L6.33775561,38.8767078 L6.33775561,38.8767078 C5.80905479,38.3284434 5.3287498,37.7355548 4.90219949,37.104657 C4.52219934,36.5139735 4.18442143,35.9232899 3.88886576,35.4591814 L3.80442128,35.3326063 L3.80442128,35.2904147 C3.59331009,34.9528812 3.3821989,34.573156 3.21330994,34.2356226 L3.21330994,34.1934309 C3.25553218,34.1934309 3.29775442,34.2778143 3.33997666,34.2778143 C3.3821989,34.3200059 3.46664337,34.4043893 3.55108785,34.3200059 C3.63553233,34.2778143 3.59331009,34.1934309 3.55108785,34.1090475 Z" id="Shape"></path>
                        </g>
                    </g>
                </g>
            </g>
        </g>
    </g>
</svg>