<?xml version="1.0" encoding="UTF-8"?>
<svg width="80px" height="80px" viewBox="0 0 80 80" version="1.1" xmlns="http://www.w3.org/2000/svg" xmlns:xlink="http://www.w3.org/1999/xlink">
    <title>1F9BFBAB-8BFA-4A33-A637-5921C4DAB585</title>
    <g id="Nuovi-moduli" stroke="none" stroke-width="1" fill="none" fill-rule="evenodd">
        <g id="Desktop---Calendario-v2" transform="translate(-1083.000000, -2489.000000)" fill="#003478" fill-rule="nonzero">
            <g id="icon/calendar-copy-3" transform="translate(1083.000000, 2489.000000)">
                <g id="Group" transform="translate(8.000000, 11.000000)">
                    <path d="M38.4413433,53.736834 C38.3607437,53.5916332 38.2709486,53.4516498 38.1771555,53.3147967 C38.1111085,53.2183975 38.0585748,53.1439912 38.0103589,53.0785746 C37.7884699,53.1027346 37.566421,53.1190286 37.618315,53.0930224 C37.586411,53.0930224 37.586411,53.1250485 37.5545069,53.1250485 C37.5226829,53.0930224 37.5226829,53.0290507 37.5545069,53.0609964 C37.3950667,52.8689204 37.5226829,53.0930224 37.4269707,53.0289703 C37.3313386,52.9329725 37.2994346,52.9009465 37.3951466,52.9329725 C37.2995145,52.8689204 37.1718983,52.8369747 37.0443622,52.7729226 C36.8849219,52.7408966 36.8211138,52.7088706 36.7254816,52.6769248 C36.6298495,52.6448988 36.5341374,52.5808467 36.4704092,52.5168749 C36.4066011,52.4528228 36.342873,52.388851 36.310969,52.3247989 L36.3747771,52.356825 C36.2472409,52.164749 36.0878006,52.2608272 35.9920885,52.0047794 L36.0239925,52.0368055 C35.7370161,51.556736 35.5457517,50.9485625 35.5457517,50.5004388 C35.4182156,50.4363867 35.4820237,49.9242913 35.3544075,49.9242913 C35.3863115,49.5722457 35.4181356,49.6682436 35.4181356,49.1880938 C35.4181356,49.06007 35.3225034,48.9960179 35.2586953,48.867994 L35.3224235,48.867994 L35.2267913,48.6759181 L35.2905994,48.5478942 L35.2586953,48.4198704 C35.2586953,48.4839224 35.2267913,48.5478942 35.2267913,48.5478942 C35.1630632,48.3237923 35.1949673,47.9717467 35.2267913,47.9717467 L35.0992551,47.4276252 C35.1310792,47.4276252 35.1629833,47.5236231 35.1948872,47.5876751 C35.0673511,47.2996014 35.2586154,47.5237033 35.1629833,47.2675754 C35.1629833,47.2996014 35.1310792,47.2675754 35.0991752,47.2355493 C35.1310792,47.1075254 35.0991752,46.7874256 35.035447,46.59543 L35.0991752,46.627456 C35.0673511,46.2113583 34.9716389,45.7952607 34.9078309,45.3471371 C34.9078309,45.507187 34.8121987,45.475161 34.7802947,45.3471371 L34.8441028,45.2831652 C34.7802947,45.2191132 34.8441028,45.4111891 34.7484706,45.2511392 C34.7484706,45.0910893 34.8122787,45.1231153 34.8441028,45.2191132 L34.7802947,45.0270373 C34.8034031,45.0270373 34.8099598,45.0436522 34.8237929,45.0529631 C34.7971662,44.9946901 34.7757369,44.9309591 34.7619039,44.8600845 C34.7120088,44.6054816 34.6781058,44.3699818 34.6737879,44.129907 C34.6452422,43.984626 34.6206945,43.8386226 34.6027035,43.6917363 C34.5743977,43.6549746 34.5499299,43.615243 34.5305796,43.5724614 C34.3227636,43.1124584 34.2100999,42.6722008 34.1973862,42.1641989 C34.1967465,42.1385941 34.1977061,42.1138722 34.1989055,42.0893912 C34.1985057,42.0786356 34.1973862,42.0680405 34.1973862,42.0572046 L34.1973862,41.9502104 C34.1973862,41.915375 34.199865,41.8813424 34.203863,41.8477913 C34.193948,41.851323 34.1849125,41.8548546 34.1743577,41.8583864 C34.1424538,41.8583864 34.1105497,41.8904124 34.0787256,41.8904124 C33.9830934,40.994165 33.8873813,40.0019199 33.8236532,39.3297745 C33.759925,38.5296053 33.7280211,38.0814816 33.7918291,38.2734773 C33.6004848,37.0251844 33.3773165,34.7846464 33.1221641,32.2880606 C33.09034,31.9679608 33.0584359,31.6478609 33.026532,31.3598675 L32.9947079,31.0397677 L32.9947079,30.9757156 C32.9947079,30.9436895 32.9628038,30.9116635 32.9947079,30.9436895 C33.026532,30.9757156 33.09034,30.9757156 33.122244,31.0076614 L33.1860521,31.0396874 C33.2178762,31.0396874 33.2497803,31.0717134 33.3135884,31.0717134 L33.5368367,31.1357655 C33.8557171,31.2317633 34.1745976,31.2958154 34.4933982,31.3598675 C35.8007442,31.5838892 37.1080103,31.4558653 38.192188,31.1357655 C38.082323,31.1725272 37.940234,31.2195629 37.7793545,31.2592945 C37.830369,31.2501442 37.882343,31.2409939 37.9370356,31.2318436 C38.0645718,31.1998176 38.192108,31.1677915 38.3196442,31.1358457 C38.3834523,31.1038197 38.4471804,31.1038197 38.5109885,31.0717937 L38.5747166,31.1358457 C38.6385247,31.1998176 38.7341569,31.2958956 38.797965,31.3599477 C38.9255011,31.4879716 39.0849414,31.6159954 39.2124776,31.7440193 C39.4994541,31.968041 39.7545265,32.1601169 40.0095989,32.3841386 C40.2965753,32.5762146 40.5835518,32.7682103 40.9342564,32.9923122 C41.0936966,33.0243383 42.0821622,33.5364337 43.3257001,33.8245075 C43.9634611,33.9845574 44.6649502,34.0805552 45.3345353,34.0805552 L45.84468,34.0805552 C46.0041203,34.0805552 46.1635605,34.0805552 46.3229208,34.0485292 C46.6418013,34.0165032 46.9287778,33.9844772 47.1838501,33.9524511 C47.5664588,33.8884793 47.8215312,33.8564533 47.9809714,33.8244272 C48.1404117,33.7924012 48.2042198,33.7924012 48.2042198,33.7924012 C48.2042198,33.8244272 47.8853392,33.888399 47.5345548,33.9844772 C47.1838501,34.080475 46.7374335,34.112501 46.4504571,34.144527 C46.1634806,34.176553 46.0359443,34.2085791 46.2910168,34.2085791 C46.2591127,34.2085791 46.5779932,34.144527 47.056234,34.112501 C47.3113064,34.080475 47.5663789,34.0165032 47.8852593,33.9524511 C48.1722358,33.8884793 48.4911163,33.7924012 48.7780927,33.6964034 C48.937533,33.6323513 49.0650691,33.6003252 49.2245094,33.5683795 C49.3520456,33.5043274 49.4795818,33.4403557 49.607118,33.4083296 C49.8621904,33.2803058 50.0854388,33.2162537 50.244879,33.1202558 C50.5637595,32.9281799 50.6912957,32.8321821 50.4362232,32.9602059 C50.6912957,32.8321821 50.914464,32.7041582 51.1058084,32.5761344 C51.2971526,32.4481105 51.4565129,32.3521126 51.5840491,32.2560345 C51.8391215,32.0639586 52.0304658,31.9359347 52.158002,31.8079109 C52.2855382,31.679887 52.4130744,31.5838892 52.5406106,31.487811 C52.6681469,31.3597872 52.8594911,31.2317633 53.0507554,31.0076614 C53.1144836,30.9116635 53.2101957,30.7516136 53.369636,30.5595377 C53.369636,30.5275117 53.40146,30.5275117 53.40146,30.4954856 C53.40146,30.4634596 53.4332841,30.4954856 53.4652681,30.4954856 C53.5928043,30.5275117 53.7522445,30.5595377 53.9435089,30.5914835 C54.1348531,30.6555356 54.3261175,30.6555356 54.5174617,30.6874813 C54.7407101,30.7195073 54.9319744,30.7515334 55.1552228,30.7835594 C55.3784711,30.7835594 55.6016394,30.8155855 55.8567119,30.8155855 C56.1117843,30.8155855 56.3349526,30.7835594 56.590105,30.7835594 C57.0365217,30.7835594 57.3553222,30.7195073 57.6104746,30.6874813 C57.865547,30.6554552 58.0568912,30.6235095 58.2163315,30.5914835 C58.503308,30.5275117 58.6308442,30.5275117 58.7583803,30.4954856 C58.8859166,30.4634596 59.0134528,30.4315139 59.3642373,30.3034097 C59.4598694,30.2713836 59.5555816,30.2393576 59.6512138,30.2074119 C59.7468459,30.1753858 59.8744621,30.1114141 60.0339023,30.047362 C60.1614386,29.9833099 60.3208788,29.9193381 60.5121431,29.82326 C60.6715833,29.7272621 60.8628477,29.6311841 61.086096,29.5031602 C61.1823679,29.4585324 61.2607287,29.4193628 61.3246167,29.3855709 C61.2309836,29.4462518 61.1112035,29.5083775 60.9904638,29.5992383 C60.8838772,29.6527756 60.7558612,29.7287872 60.6419982,29.8083306 C61.6008785,29.3279401 61.7996591,29.0490166 61.8513932,29.0230907 C61.8832972,28.9590387 61.6281449,29.1190886 61.9470254,28.8630408 C62.1702737,28.702991 62.361538,28.5109953 62.5528823,28.3509454 C62.6485145,28.2549476 62.7442266,28.1908955 62.8079547,28.1269237 C62.8716828,28.0628716 62.9354909,27.9668738 62.999299,27.9028217 C63.1268352,27.7747978 63.2224673,27.646774 63.3500036,27.5187501 C63.4456357,27.4226721 63.5094438,27.2946482 63.5732519,27.1986503 C63.8283243,26.8466048 63.9558605,26.6865549 63.9877645,26.6225028 C64.0833967,26.4944789 64.0196686,26.7185007 64.4022772,26.0143293 C64.5617175,25.6622837 64.6573496,25.3421839 64.7530617,24.9900581 C64.8167899,24.6380125 64.8805979,24.3179127 64.944406,23.9978129 C65.0400382,23.3256675 65.0081341,22.6854679 64.8805979,22.0772944 C64.6255256,20.8929733 63.9877645,19.8687823 63.1587393,19.1325849 C63.0631071,19.0045611 62.7123226,18.7485133 63.1268352,19.0365871 C62.5528823,18.5564374 61.691953,18.1083939 60.7353914,17.9163181 C60.2571506,17.8203202 59.7150219,17.7562682 59.172973,17.7562682 C59.0454368,17.7562682 58.9179006,17.7562682 58.7584604,17.7882942 C58.6947322,17.7882942 58.6309241,17.7882942 58.567116,17.8203202 L58.4714839,17.8203202 C58.3758517,17.8203202 58.2802196,17.8523462 58.1845074,17.8523462 C58.2482356,17.7882942 58.3120437,17.6922963 58.3758517,17.5962985 L58.4714839,17.4362486 C58.503308,17.3721966 58.567116,17.3082247 58.5990201,17.2441727 C58.6627482,17.1161488 58.7584604,16.9881249 58.8222684,16.8280751 C59.0773408,16.2839535 59.2686851,15.67578 59.3324132,15.0676064 C59.4918535,13.8833656 59.2367811,12.7310705 58.8222684,11.8988753 C58.7266363,11.6428275 58.6628282,11.5468297 58.6309241,11.4827776 C58.8859965,12.0268991 58.8541724,12.1228969 58.7584604,12.0268991 C58.4076758,11.2267299 57.8656269,10.6185563 57.3873862,10.1704326 C56.8772414,9.72230902 56.4308247,9.46626123 56.1438482,9.30621134 C56.6221689,9.53023306 56.8453373,9.72230902 57.0366816,9.81830684 C57.1642978,9.91430467 57.2599299,9.97835674 57.3555621,10.0423286 C56.9410495,9.69028295 56.4946328,9.40220916 55.9844879,9.21013327 C55.6337834,9.0180573 55.5699753,9.0180573 55.7294155,9.05008338 C55.8888557,9.11413545 56.2076563,9.24215927 56.5584408,9.43415499 C56.9092254,9.6581767 57.2918339,9.91430467 57.5469064,10.1703524 C57.8019788,10.4264001 57.9933231,10.6184761 57.9933231,10.5864501 C57.4193702,9.91430467 56.6222489,9.33815717 55.7613196,9.0180573 C55.3149029,8.85800741 54.8684862,8.72998359 54.4220695,8.66601177 C54.2945333,8.63398577 54.1988211,8.63398577 54.0713649,8.63398577 L53.9119247,8.6019597 L53.7843884,8.6019597 C53.7206604,8.6019597 53.5930442,8.63398577 53.6249482,8.53790762 L53.5930442,8.28185991 C53.3060677,6.48944551 52.5089465,4.92105281 51.7118252,3.86475558 C51.6480171,3.73673172 51.8712655,3.99277945 52.1263379,4.40887708 C52.4133143,4.82497471 52.7321948,5.46517431 52.9872672,6.00929581 C53.0828993,6.29736957 53.2105155,6.55341731 53.2742437,6.74549324 C53.3379717,6.96951494 53.4017798,7.09761908 53.4017798,7.16159087 C53.4336039,7.22556267 53.4336039,7.1936169 53.3698758,7.033567 C53.3380518,6.8735171 53.2742437,6.58544334 53.1148034,6.16934571 C53.3698758,6.80946504 53.5293161,7.51363644 53.6568523,8.18586209 C53.6887563,8.40996405 53.6887563,8.4419098 53.7206604,8.50596187 L54.0714448,8.50596187 C54.4221495,8.53798787 54.7729339,8.6019597 55.1236386,8.69803777 C54.3584213,8.47401612 54.1032689,8.47401612 54.135173,8.44199005 C54.167077,8.44199005 54.2627092,8.44199005 54.3902454,8.47401612 C54.5177816,8.50604212 54.6772219,8.53798787 54.8366621,8.57001395 C55.1555426,8.63398577 55.5063271,8.76208984 55.5700552,8.76208984 C55.6019593,8.76208984 55.5700552,8.76208984 55.442519,8.69803777 C55.3149828,8.63398577 55.0918145,8.57001395 54.7410299,8.47401612 C54.5815897,8.44199005 54.3903254,8.40996405 54.2308851,8.3780183 C54.1352529,8.3780183 54.0714448,8.34599223 53.9758127,8.34599223 C53.9120046,8.34599223 53.9120046,8.34599223 53.8801805,8.34599223 C53.8482765,8.34599223 53.8163725,8.34599223 53.8163725,8.34599223 L53.8163725,8.31396623 C53.7845484,8.18594234 53.7845484,8.05791844 53.7526443,7.96192062 C53.6889162,7.67384683 53.6251082,7.41779914 53.5932041,7.1617514 C53.529396,6.90570367 53.4655879,6.68160171 53.3699557,6.45758001 C53.0510753,5.56133268 52.7002907,4.88918731 52.253874,4.21704195 C51.8074574,3.57692262 51.3292166,2.96874905 50.6596315,2.32854945 C49.9581424,1.68843012 49.0972131,1.04823052 47.789867,0.504109024 C46.5782331,0.152063458 48.1406516,0.696184956 46.9608417,0.344059125 C45.0477187,-0.168036341 43.6765646,-0.00798644171 42.656275,0.184009225 C41.6359853,0.376004892 40.9663203,0.63213289 40.3923674,0.888180621 C39.7865105,1.14422836 39.2763656,1.40027609 38.6386047,1.84839975 C38.4791644,1.97642362 38.3197242,2.07242145 38.1284598,2.23247136 C38.0328277,2.29652342 37.9690196,2.39252125 37.8733874,2.45649305 C37.8414834,2.48851909 37.7777553,2.55249089 37.7458513,2.58451692 C37.7139472,2.61654295 37.6502191,2.64856899 37.618315,2.71254079 C37.618315,2.71254079 37.586411,2.77651259 37.5545069,2.74456681 L37.5226829,2.71254079 C37.4907788,2.68051475 37.4270507,2.64856899 37.3951466,2.58451692 C37.1400742,2.39244099 36.8850019,2.20044532 36.5661214,2.00836939 C35.8964564,1.65632382 35.4182156,1.46424789 34.6210943,1.20820016 C34.2065816,1.08017629 33.7282609,0.952152422 33.0905799,0.856154593 C32.4528989,0.760156756 31.6556976,0.696104691 30.635328,0.792102521 C31.0817448,0.696104691 31.5599855,0.664078658 32.0383062,0.664078658 C30.6990562,0.632052624 29.8382068,0.824128557 29.2323499,0.984178457 C28.9453734,1.08017629 28.690301,1.14422836 28.4671326,1.24022619 C28.2438843,1.33622402 28.084444,1.40027609 27.8931797,1.46424789 C27.5424752,1.62429779 27.1598666,1.81629345 26.6177377,2.13639326 C26.0756889,2.48843882 25.3103917,2.96858852 24.2901021,3.92880765 C24.6089826,3.57676208 25.4061038,2.84056465 26.0757688,2.39244099 C26.7453539,1.94431732 27.3193068,1.68826959 26.9366982,1.84831949 C26.1395769,2.26441712 25.6293521,2.64848872 25.2786476,2.93656249 C24.927943,3.22463625 24.7046946,3.41671218 24.5134303,3.60870785 C24.322166,3.80070351 24.1626458,3.99277945 23.9394775,4.24882718 C23.7162291,4.50487492 23.4293326,4.85700075 23.01482,5.40112225 L22.6003073,5.81721988 C22.4408671,6.07326761 22.2814268,6.29728931 22.1220666,6.55341731 C22.0582585,6.68144117 21.9626263,6.80946504 21.8988182,6.9374889 L21.8350101,7.06551278 L21.803186,7.0975388 L21.5799377,7.03348674 C21.4204975,7.0014607 21.2929613,6.9374889 21.133521,6.90546288 C20.8465446,6.84149107 20.5276641,6.77743901 20.2406877,6.74541297 C19.0290537,6.58536307 17.7536117,6.68144117 16.5418979,7.0014607 C15.330184,7.32148024 14.1504541,7.9296538 13.1619885,8.76184909 L12.7793,9.08194888 C12.6517638,9.1779467 12.5560516,9.30597059 12.4285954,9.43399441 C12.2053471,9.65801613 11.9821787,9.91414417 11.7908344,10.1701919 L11.6313942,10.3622678 L11.503858,10.5543437 L11.2487855,10.9704413 C11.1531534,11.0984652 11.0893453,11.2585151 11.0255372,11.418565 L10.866097,11.7386648 C10.866097,11.7706909 10.8022889,11.7386648 10.8022889,11.7386648 L10.6747527,11.7066388 C10.5472165,11.7066388 10.4196803,11.6746127 10.26024,11.6746127 L9.46311881,11.6746127 C8.92106992,11.7066388 8.37894109,11.8026366 7.86887628,11.9626865 C8.02831649,11.8986345 8.37902104,11.8026366 8.50655728,11.7706106 C8.63409345,11.7385846 8.53846133,11.7065585 7.80506818,11.8986345 C6.84850666,12.1867082 5.9238492,12.6668579 5.09474393,13.3069773 C4.29754271,13.9470966 3.56422952,14.7473461 3.08590879,15.6755392 C2.60766802,16.6037323 2.25688348,17.5640317 1.61920246,18.3001488 C1.30032197,18.7162465 0.981441479,19.1323441 0.726369074,19.6124938 C0.59883287,19.8365155 0.471296666,20.0925632 0.375584543,20.3486912 C0.27987242,20.6048192 0.248048339,20.8607867 0.152336215,21.1169147 C-0.0709121113,22.1732119 -0.0390080703,23.2614549 0.184240256,24.2857261 C0.407488584,25.3099973 0.853825318,26.3022425 1.39587417,27.1664638 C2.51187593,28.9268522 4.07429438,30.3032491 5.82797715,31.1354444 C6.27439385,31.3275204 6.75263463,31.4555442 7.23095536,31.5835681 C7.70919615,31.6795659 8.18751688,31.775644 8.69766172,31.8076701 C8.85710194,31.8076701 9.0484462,31.8396961 9.17590243,31.8396961 L9.49478295,31.8396961 C9.62231912,31.8396961 9.59041515,31.8717221 9.20780648,31.8717221 C9.97302374,31.9037481 10.3557123,31.8077503 10.5470566,31.7757243 C10.7384009,31.7436983 10.7064968,31.7436983 10.6107847,31.7436983 C10.4513445,31.7436983 10.1006399,31.7757243 10.802129,31.6477004 C11.6630584,31.4876505 12.1732032,31.1995767 12.3645475,31.135605 C12.4600996,31.087606 12.4840077,31.087606 12.4205194,31.1274981 L12.4601796,31.1035789 L12.5239877,31.0715529 C12.5558917,31.0715529 12.6196199,30.975555 12.6515239,31.0395269 L12.683348,31.1034987 L12.715252,31.1355247 L12.715252,31.1675508 L12.747156,31.1995767 C13.0660366,31.6797264 13.5123733,32.0958241 13.990694,32.4798957 C15.0110636,33.2160931 16.2864257,33.6321907 17.6574998,33.7281886 C19.028574,33.8241864 20.3997281,33.5361127 21.7070741,33.0240172 C22.3448351,32.7679694 22.9506121,32.4478696 23.524565,32.063798 C23.8115414,31.8717221 24.0666138,31.6797264 24.3216863,31.4556245 C24.4811265,31.3276006 24.5130305,31.2955746 24.5449346,31.2635486 C24.6087427,31.1994965 24.6405668,31.1675508 24.7043749,31.1034987 C24.7043749,31.1994965 24.7043749,31.3276006 24.7362788,31.4235985 C24.7362788,31.6156744 24.7681829,31.8076701 24.7681829,31.999746 C24.8000869,32.4478696 24.8000869,32.8959933 24.831991,33.3120909 C24.8638151,34.1763122 24.8638151,34.9764815 24.8638151,35.7126789 L24.831991,34.6563817 C24.8638151,36.7688959 24.8957191,37.953217 24.8957191,39.1055121 C24.8957191,40.2578071 24.8957191,41.3780762 24.6724708,43.3305404 C24.686064,43.2211382 24.6936602,43.1122979 24.7006167,43.0053839 C24.6089025,44.0206653 24.4865638,45.0359467 24.2898621,46.051148 C24.0985179,47.203443 23.8116214,48.323712 23.4289328,49.443981 C22.6637156,51.652493 21.4839057,53.7010355 19.8258552,55.2374021 C19.6345108,55.4294781 19.4113425,55.6214737 19.1880942,55.7815236 L18.8692137,56.0375714 L18.5185091,56.2616734 C18.2952608,56.4217232 18.0720924,56.5817731 17.81702,56.709797 L17.4663155,56.9018729 L17.2749712,56.9978707 C17.2430671,56.9978707 17.2111631,57.0298968 17.179339,57.0619228 L17.1155309,57.0939489 C17.067395,57.0999688 17.0178997,57.1058282 16.9692841,57.1118481 C16.8546214,57.2514302 16.6978199,57.3629194 16.5187894,57.4354796 C16.3448764,57.5059529 16.0782098,57.663033 16.0023277,57.7248376 C15.9343618,57.7801407 15.869914,57.8438717 15.8117031,57.9107331 C15.8163408,57.9132213 15.7378201,58.028804 15.7204687,58.0614722 C15.699999,58.0999194 15.7035173,58.099197 15.7134323,58.0862742 C15.7169505,58.073191 15.7210285,58.0610708 15.7267057,58.0539272 C15.7703638,57.9983833 15.7377401,58.0527232 15.7178301,58.0803347 C15.7203088,58.0840268 15.7120729,58.1533764 15.7088746,58.2086795 C15.7177501,58.2377357 15.7222279,58.2685578 15.7330225,58.2970521 C15.7343019,58.2995404 15.7356611,58.3021891 15.7368605,58.3045971 C15.7493343,58.3292387 15.7616481,58.3544421 15.7778001,58.3760336 C15.8234572,58.4369553 15.8268156,58.4474701 15.8208185,58.4446608 C15.8265757,58.4501992 15.8337721,58.4571021 15.843927,58.4672155 C15.8902239,58.5130472 15.935881,58.5587987 15.9842568,58.6022225 C15.9944117,58.6064766 16.0870853,58.675184 16.1133922,58.6913175 C16.1839169,58.734661 16.2573202,58.7748741 16.3321628,58.8104319 C16.3221678,58.8026461 16.5037569,58.8735207 16.5405385,58.8848382 C16.6379298,58.914697 16.7364405,58.9391781 16.8360707,58.9600472 C17.0182196,58.9981735 17.1926923,59.0007419 17.41722,59 C18.490683,58.993197 19.5692635,58.741002 20.5538909,58.31455 C21.5242856,57.8942786 22.3613069,57.2312836 23.2109619,56.5983079 C23.1641053,56.5956591 23.1667439,56.556971 23.2056845,56.5179619 C23.2375886,56.4539098 23.3651247,56.389938 23.1737805,56.4859358 C23.0143402,56.5819336 22.7911719,56.6780118 23.0462443,56.4859358 C23.1100523,56.4859358 23.1418764,56.4539098 23.2056845,56.4218837 C23.2694126,56.3578317 23.0143402,56.4218837 23.2375886,56.2938599 C23.2694126,56.3258859 23.2056845,56.3898577 23.2375886,56.3578317 C23.3970288,56.2938599 23.2056845,56.3258057 23.2694126,56.2298079 C23.3013166,56.2298079 23.3332207,56.2618339 23.3332207,56.2618339 C23.556469,55.9417341 23.8114615,55.5256365 24.0665339,55.1415648 C24.0665339,55.1735908 24.0347098,55.2695887 24.130342,55.1735908 C24.4173185,54.6614954 24.8318311,54.1173739 25.1188076,53.6372242 L25.1507115,53.4131223 C25.1826156,53.3810962 25.2145196,53.3491504 25.2145196,53.4131223 C25.3420559,53.2210463 25.1826156,53.3810962 25.2145196,53.2850984 C25.2782478,53.1570745 25.3101518,53.1570745 25.3101518,53.2210463 C25.3738799,53.0289703 25.469592,52.7729226 25.5652242,52.5168749 C25.6608564,52.2608272 25.7884726,52.0047794 25.8841047,51.8127035 L25.8841047,51.9087013 C26.043545,51.6206275 25.8841047,51.5246297 26.043545,51.268582 L26.043545,51.3326341 C26.3305214,50.6924345 26.4899617,49.9563173 26.7450341,49.4761676 C26.6813059,49.3481437 26.9682824,48.835968 26.8406662,48.7399702 C27.0001065,48.3879246 27.0001065,48.4839224 27.1595467,47.9398009 C27.1914508,47.779751 27.1276427,47.715699 27.1276427,47.5237033 L27.1914508,47.5237033 L27.1595467,47.2676556 L27.2551788,47.1396317 L27.2551788,46.9795818 C27.2551788,47.0436339 27.1914508,47.1076057 27.1914508,47.1076057 C27.1914508,46.8515579 27.350891,46.4674864 27.382795,46.4674864 C27.382795,46.2433844 27.4146991,46.0513887 27.4146991,45.8272867 C27.4312508,45.8439018 27.4390869,45.8780147 27.4429249,45.9201542 C27.4545192,45.7829801 27.5366381,45.9371706 27.5103312,45.6992629 C27.4784272,45.7312889 27.4784272,45.6672368 27.4465232,45.6672368 C27.5103312,45.507187 27.5740594,45.1551414 27.5740594,44.8990134 L27.6059634,44.9630654 C27.6696916,44.482996 27.7015956,43.9708203 27.7334996,43.4587248 C27.7015956,43.6508007 27.6059634,43.5867487 27.6059634,43.4266988 L27.7015956,43.3626468 C27.6696916,43.2666489 27.6696916,43.5226967 27.6059634,43.2986749 C27.6378674,43.106599 27.7015956,43.170651 27.7334996,43.2986749 L27.7334996,43.0426272 C27.7653237,43.0426272 27.7653237,43.0746532 27.7972277,43.106599 C27.7653237,43.0106012 27.9247639,42.6905014 27.8291318,42.5624775 L27.8609559,42.5624775 C27.8928599,42.050382 27.8928599,41.794254 27.8928599,41.3781564 C27.8291318,41.3781564 27.8609559,41.1860805 27.7972277,41.0580566 C27.8291318,40.7379568 27.8928599,40.3859112 27.8928599,40.0018396 C27.8609559,39.7457919 27.8291318,39.9377876 27.7972277,39.8097637 C27.8610358,39.7777376 27.8610358,39.4256921 27.8928599,39.6176877 C27.8928599,39.1695641 27.8928599,39.0415402 27.8609559,38.4653927 C27.8291318,38.5294447 27.8291318,38.5934166 27.7972277,38.5614708 C27.7972277,38.4688441 27.8268929,38.3476428 27.8575975,38.3390544 C27.7749189,37.7021457 28.0498213,36.8571079 27.8928599,36.3529588 L27.8928599,36.3849848 L27.8291318,35.8408633 C27.8291318,35.5848156 27.8928599,36.0009132 27.9247639,35.8088373 C27.8291318,35.2326897 27.9247639,34.9125899 27.8291318,34.4325205 C27.988572,34.0484489 27.7653237,33.1201755 27.8609559,32.6401061 L27.8291318,32.6721322 C27.7653237,32.5441083 27.8609559,32.5120823 27.8609559,32.4160844 C27.8291318,32.4160844 27.8291318,32.5441083 27.7972277,32.4800562 C27.7015956,31.3918132 27.7334996,30.2395181 27.7015956,29.1192491 C27.7015956,28.7031515 27.4783472,28.8952274 27.5421553,28.3830517 L27.6377875,28.5110756 L27.6058835,28.3189997 L27.6058835,28.2230018 L27.5739794,28.094978 C27.5739794,27.9989801 27.5420754,27.9349281 27.5102513,27.8389302 C27.5102513,27.8069042 27.4783472,27.7749584 27.4783472,27.7109063 C27.4464432,27.6788803 27.4783472,27.6788803 27.4464432,27.6788803 C27.4464432,27.6788803 27.4464432,27.6468543 27.4464432,27.6149085 L27.4464432,27.5828824 L27.6058835,27.5828824 C27.8928599,27.5828824 28.1798363,27.5828824 28.4349087,27.5508564 C28.3711807,27.5828824 28.3711807,27.5828824 28.3073726,27.5828824 C28.4668128,27.6469345 28.9451335,27.5828824 28.9451335,27.5508564 C28.9769576,27.5508564 28.9769576,27.5508564 28.9769576,27.5508564 C28.9769576,27.5508564 28.9769576,27.5508564 28.9769576,27.5828824 L28.9769576,27.6149085 C28.9769576,27.6149085 28.9769576,27.6149085 29.0088617,27.6149085 L29.0407657,27.6149085 C29.0725897,27.6788803 29.1044938,27.7109063 29.1044938,27.7429323 C29.1044938,27.7503971 29.1026547,27.7522432 29.0995363,27.7508787 C29.1986867,27.8855646 29.3276622,28.1041282 29.3276622,27.9989801 C29.4871025,28.2870538 29.7102707,28.4471037 29.837807,28.6711255 C29.9653432,28.7351775 30.1566875,29.0231711 30.2204156,29.0231711 C30.2204156,29.0231711 30.2204156,29.0551971 30.1885115,29.0551971 L30.1885115,29.0872231 C30.1885115,29.0872231 30.1885115,29.1512752 30.1885115,29.183221 C30.1885115,29.3432709 30.2204156,29.5352665 30.2523196,29.6313446 C30.2204156,29.5673728 30.2204156,29.7913945 30.1885115,29.7273425 C30.2204156,29.9514444 30.2523196,30.1434401 30.2841437,30.1114141 C30.1885115,30.5275117 30.443584,30.9115833 30.3160478,31.1356853 C30.443584,31.7758046 30.5073921,32.3519521 30.6030243,32.9280997 C30.5073921,32.9280997 30.5392961,32.2879 30.4116799,32.3199261 C30.5073121,32.8640476 30.6349282,33.1841474 30.6349282,33.7282689 C30.6349282,33.8233035 30.5998258,33.7419943 30.5816749,33.667588 C30.6660327,34.1865863 30.6707504,34.6764481 30.7624645,35.1366117 C30.7624645,35.1366117 30.7305604,35.0726398 30.7305604,35.0406138 C30.7305604,35.1366117 30.7305604,35.2647158 30.7942886,35.2647158 L30.7624645,35.168718 C30.8261925,35.0086681 30.9538087,35.5207635 30.9857128,35.5527895 C30.8262726,35.3927396 30.9857128,36.0329393 30.7943685,35.8088373 C30.7943685,35.8728894 30.8262726,35.9368611 30.8581766,35.9368611 C30.8581766,36.032859 30.8262726,36.064885 30.7943685,35.9688872 C30.8581766,36.3209327 30.8900006,36.1929892 30.9219047,36.4809826 C30.8900006,36.4809826 30.8900006,36.4169306 30.8581766,36.3849848 C30.9219047,36.5450347 30.9857128,36.7050846 30.9857128,36.9611324 C30.9857128,36.9611324 30.973399,36.973413 30.9640436,36.9596875 C31.0302505,37.3751431 31.1466722,37.6884203 31.1770571,38.1453732 C31.0495209,38.0173493 31.1770571,38.3054231 31.0814249,38.3374491 L31.145153,38.5934968 L31.1770571,38.4974187 C31.2088812,38.7215207 31.2726893,38.9455424 31.2726893,39.1376183 L31.2088812,38.9775684 L31.2726893,39.4256921 L31.2726893,39.1696444 C31.3364173,39.3937464 31.3683214,39.1376183 31.4002254,39.4577182 C31.3684014,39.3936661 31.4321295,39.6817398 31.4002254,39.8097637 C31.4321295,39.9377876 31.4958576,40.0337854 31.4958576,40.2258613 C31.4640335,40.2899134 31.4002254,40.1938353 31.3683214,40.2258613 C31.4639536,40.3219395 31.4639536,40.7699828 31.5596657,40.898087 C31.5277617,40.866061 31.4958576,40.866061 31.4958576,40.866061 L31.5596657,40.9620588 C31.5596657,41.0580566 31.5596657,41.0900826 31.4958576,41.0900826 C31.5277617,41.4101825 31.5914897,40.9620588 31.5914897,41.3781564 C31.5914897,41.3461304 31.5914897,41.3781564 31.5596657,41.3141043 C31.5914897,41.6981759 31.6872019,42.0503018 31.6872019,42.4023473 C31.6234737,42.5303712 31.6234737,42.0822475 31.5596657,42.2102714 C31.6233938,42.7223669 31.7828341,43.2664884 31.8466421,43.7466381 L31.8466421,43.65056 C31.9741784,43.7146121 31.8147381,44.0346316 31.9103703,44.2587336 C31.8914997,44.2209284 31.8619145,44.2056779 31.8471219,44.1993369 C31.8794258,44.5498574 31.9745782,44.9009398 32.0698105,45.3790026 L32.0379064,45.3150307 C32.0379064,45.5071067 32.0698105,45.8271262 32.0698105,46.0512282 C32.1016346,46.1152803 32.1016346,46.2433041 32.1654427,46.147226 C32.0379064,46.8194517 32.3567869,47.4275449 32.2610748,48.0357185 C32.2610748,47.9717467 32.2292508,47.8756686 32.2292508,47.9397207 L32.3248829,48.4518162 C32.388611,48.4197901 32.356707,48.3877641 32.388611,48.2597402 C32.4205151,48.3237923 32.4524191,48.4518162 32.4842432,48.57984 C32.4205151,48.355738 32.388611,48.57984 32.388611,48.7078639 C32.388611,48.6758378 32.4205151,48.7078639 32.4524191,48.7078639 C32.388611,48.9959377 32.5799553,48.7398899 32.5480513,49.0919355 L32.5161472,49.0919355 C32.5480513,49.2199593 32.6117794,49.3479832 32.6117794,49.4760071 C32.5479713,49.5400591 32.5479713,49.3479832 32.5161472,49.3479832 C32.5480513,49.5400591 32.7074915,49.7320548 32.6755875,49.9241307 C32.6437634,49.8281329 32.6118594,49.7320548 32.5799553,49.636057 C32.5481312,49.860159 32.5481312,49.860159 32.5799553,50.0201286 L32.6118594,50.3722544 L32.6118594,50.2762566 C32.8351077,50.5002783 32.7393955,50.788352 32.9307399,51.1084519 C32.7393955,50.8203781 32.8670117,51.0764258 32.7712996,51.0764258 C32.7712996,51.1724236 32.8031237,51.3004475 32.7712996,51.2685018 C32.8669318,51.3965256 32.8031237,51.5565755 32.9626439,51.7486514 C32.9307399,51.7806774 33.026372,51.9087013 32.9626439,51.9087013 C33.058276,52.1007773 32.994468,51.8446493 33.026372,51.8446493 C33.1220042,52.0046992 33.1539082,52.1966949 33.2177163,52.3887708 C33.2815244,52.5808467 33.3452525,52.8368944 33.5365968,52.9969443 C33.664133,53.1569942 33.727941,53.2529921 33.8235732,53.3489899 C33.8873813,53.4130419 33.9830135,53.4770138 34.0468216,53.5730918 C34.0787256,53.6051179 34.0787256,53.6371439 34.1106297,53.6690897 C34.1106297,53.7011157 34.0787256,53.6690897 34.0468216,53.6690897 C34.0149175,53.6370637 33.9830934,53.6050377 33.9830934,53.6050377 C34.0030035,53.6549629 34.0232334,53.6950156 34.046022,53.7310548 C34.1659619,53.8077889 34.2834232,53.8903021 34.399765,53.9775509 C34.4028834,53.9798787 34.4055221,53.9824471 34.4086406,53.9848551 C34.4220739,53.990554 34.4359869,53.9955305 34.4495001,54.0010689 L34.4613342,53.9891895 L34.301894,53.8611656 C34.301894,53.8291396 34.333798,53.8291396 34.3657021,53.8611656 C34.3967265,53.9234519 34.4283107,53.9559595 34.4887605,54.0166404 C35.7329382,54.5195855 37.1942871,54.6525859 38.4366257,54.2742934 C38.4606137,54.2667484 38.484042,54.2575179 38.5077101,54.2489294 C38.5345767,54.1693058 38.5529675,54.0851873 38.5650414,53.9943265 C38.5634423,53.98935 38.5618431,53.9844538 38.5602439,53.9795576 C38.5714383,54.0249078 38.4702889,53.7890067 38.4413433,53.736834 Z M24.0986785,55.1735106 C24.0986785,55.1414846 24.0986785,55.1094585 24.1631235,55.0454867 C24.130901,55.1094585 24.0986785,55.1414846 24.0986785,55.1735106 Z M24.3218461,54.789439 C24.2899422,54.789439 24.2899422,54.757413 24.3218461,54.7253869 C24.3218461,54.757413 24.3855743,54.6293891 24.4493824,54.5973631 C24.4174783,54.6613348 24.3536702,54.7253869 24.3218461,54.789439 Z M53.8481166,27.7747978 C53.8800206,27.7747978 53.7524845,27.7107458 53.6567723,27.646774 C53.7205004,27.6788 53.8162125,27.7107458 53.9118447,27.7427718 C53.9118447,27.7747978 53.8800206,27.7747978 53.8481166,27.7747978 Z M58.3440277,20.573034 C58.4396598,20.541008 58.5353719,20.5089819 58.6629081,20.5089819 C58.5991001,20.541008 58.5034679,20.573034 58.4396598,20.6370058 C58.3440277,20.6050601 58.3121236,20.573034 58.3440277,20.573034 Z M38.0327477,6.32969962 C38.0008437,6.36197537 38.224012,6.36197537 38.3516282,6.32969962 C38.255996,6.36197537 38.0965558,6.39425113 37.9371156,6.39425113 C37.9052115,6.36189448 37.9371156,6.36189448 38.0327477,6.32969962 Z M18.9331018,9.49836755 C19.0606379,9.49836755 19.2200781,9.49836755 19.3476144,9.46634156 C19.2200781,9.49836755 19.124446,9.5303133 18.9969098,9.56233953 C18.9331018,9.56241963 18.9011977,9.53039363 18.9331018,9.49836755 Z M17.1156108,9.91446516 C17.1156108,9.94649124 17.0518828,9.97851723 16.9242666,10.0424891 L16.7967304,10.0424891 C16.8924425,10.0104631 16.9880747,9.94649124 17.1156108,9.91446516 Z M13.6719734,12.9871985 C13.6719734,13.0512506 13.6082453,13.1152224 13.6082453,13.1472484 C13.6719734,13.1792744 13.7357815,13.2113005 13.7995896,13.2113005 C13.7357815,13.1152224 13.6720534,13.1152224 13.7357815,13.0512506 C13.7676856,13.0192245 13.7995896,12.9871985 13.8314137,12.9232267 C13.8633178,12.8912007 13.8952218,12.8272289 13.9589499,12.7311508 C13.9908539,12.6670987 14.0545821,12.6031269 14.1183902,12.5390749 L14.022758,12.6350727 C14.054662,12.4429968 14.1821982,12.2830271 14.3097344,12.0909512 C14.4372706,11.9309013 14.5967109,11.7708514 14.7561511,11.5468297 C14.5010787,11.9949534 14.7561511,11.6428275 14.7561511,11.7389056 C14.8517832,11.6428275 15.0112235,11.5468297 14.9793994,11.6108817 C15.1069356,11.4188059 15.29828,11.3867798 15.5214483,11.0987863 C15.5532724,11.0987863 15.7127926,10.9387364 15.7127926,11.0347342 C15.9360409,10.8426583 15.6171604,11.0347342 15.6489845,11.0027082 C15.7446167,10.9067103 15.8403288,10.8426583 15.967865,10.7786062 C16.0954012,10.7146345 16.2229374,10.6505824 16.3505535,10.5865303 C16.4780898,10.5224782 16.63753,10.4585064 16.7969702,10.3944543 C16.9564105,10.3304023 17.1158507,10.2664305 17.243387,10.1703524 C17.4984593,10.0423286 17.6898037,9.97827649 17.8492439,9.91430467 C18.0086841,9.85025259 18.1362204,9.78628077 18.3912928,9.7222287 C18.4231968,9.7222287 18.4551008,9.7222287 18.4551008,9.7222287 C18.582637,9.7222287 18.2956606,9.8182266 18.2956606,9.8182266 C18.582637,9.78620052 18.8058854,9.78620052 19.0928618,9.7222287 C19.0290537,9.75425477 19.0928618,9.75425477 19.1884939,9.78628077 C19.23647,9.78628077 19.2707728,9.78170563 19.2985989,9.77536464 L19.4116623,9.6902027 C20.4001279,9.46610074 21.4204975,9.6902027 22.345155,10.2022981 C22.345155,10.2022981 22.377059,10.2022981 22.377059,10.2343242 C22.345155,10.2663502 22.2814268,10.2663502 22.2814268,10.2983763 C22.2495228,10.2663502 22.2176187,10.2663502 22.1857946,10.2343242 L22.0582585,10.2663502 L22.2815068,10.3623481 C22.3133309,10.4264001 22.409043,10.554424 22.7597476,10.6183958 C22.9510918,10.6183958 23.1105321,10.5863697 23.2698924,10.522398 L23.4612298,10.522398 C23.3017964,10.5864501 23.1742602,10.6183958 23.01482,10.6183958 C23.2698924,10.6504218 23.4293326,10.5543437 23.5887728,10.4583459 C23.6525809,10.4583459 23.7163091,10.4583459 23.8120212,10.3943741 C23.9395574,10.2343242 24.0352695,10.0422482 24.0670936,9.88227867 C24.1309017,9.85025259 24.0670936,10.1063003 24.1946298,9.85025259 C24.2265339,9.6581767 24.0351896,9.97827649 24.1309017,9.6581767 C24.2584379,9.49812673 24.2584379,9.56217881 24.35407,9.30613109 C24.3859741,9.27410509 24.3859741,9.33815717 24.35407,9.43415499 C24.4178781,9.21005302 24.6091425,8.89003348 24.6091425,8.79403566 C24.7685827,8.63398577 24.959847,8.15383601 25.0555591,8.21788809 C25.0555591,8.15383601 25.1830954,7.83381648 25.3106316,7.67376658 C25.2149994,8.05783819 25.7570482,7.06559304 25.8207764,7.22564294 C25.8845045,6.93756917 26.3947293,6.42547371 26.6817057,6.07334788 C26.6817057,6.10537391 26.6498816,6.13739994 26.6179776,6.16934571 C26.8093219,5.97726978 26.904954,5.94532401 27.0324903,5.84924591 C27.0005862,5.75324808 27.2875627,5.46517431 27.4470029,5.27309838 C27.7658834,5.14507451 27.3513707,5.49712008 27.478827,5.49712008 C27.4150989,5.43314828 27.8933397,5.08102245 27.7658034,5.11304848 C27.9889718,5.01705065 27.9571478,5.01705065 28.116508,5.01705065 C28.084604,4.88902678 28.3078523,4.85700075 28.4353885,4.69695084 C28.786173,4.56892698 28.5629247,4.76100292 28.9136293,4.53690094 C29.1049736,4.50487492 28.7860931,4.66492482 28.8179971,4.69695084 C29.1687816,4.50487492 28.9455333,4.53690094 29.0093414,4.44090312 C29.4557581,4.21688141 29.2325897,4.40887708 29.3920299,4.37685105 C29.6471024,4.24882718 29.8384467,4.08877729 30.0616151,4.02480549 C30.093519,4.02480549 30.1254231,4.02480549 30.093519,4.05683151 C30.3804955,3.89678161 31.0181765,3.83280981 31.3689611,3.70478595 C31.3816747,3.70478595 31.3889511,3.70534781 31.3955878,3.70735446 C31.3689611,3.6744455 31.3689611,3.63262704 31.3689611,3.60870785 C31.5603053,3.60870785 31.7196656,3.54473605 31.7834737,3.57668182 C31.6559375,3.57668182 31.6559375,3.60870785 31.6240335,3.64073388 L31.8153778,3.60870785 C32.006722,3.67275992 31.5603053,3.64073388 31.5603053,3.70470568 C31.6559375,3.70470568 31.7516496,3.67267965 31.8472818,3.67267965 C31.942914,3.67267965 32.0386261,3.64065362 32.1342583,3.64065362 C32.3256025,3.60862758 32.5168669,3.64065362 32.6444031,3.64065362 C32.6763071,3.67267965 32.5168669,3.67267965 32.3893307,3.67267965 C32.2617944,3.67267965 32.1660823,3.67267965 32.3574266,3.70470568 L31.91101,3.67267965 C32.2617944,3.80070351 31.6559375,3.67267965 31.942914,3.80070351 L32.8038433,3.80070351 C32.8994755,3.80070351 32.9951876,3.83272955 33.1546278,3.86467531 C33.2821641,3.83264929 33.1227238,3.80070351 33.25026,3.76867748 C33.6647727,3.80070351 33.824213,3.89670135 33.9198451,3.99277945 C34.0473812,4.08877729 34.1111893,4.15282935 34.4299899,4.21680115 C34.5894301,4.21680115 34.6850623,4.15282935 35.0677509,4.37685105 L34.9083106,4.40887708 C35.1633831,4.53690094 35.2271111,4.53690094 35.3228233,4.56892698 C35.4185354,4.60095302 35.5141676,4.60095302 35.7373359,4.79294868 C35.6636128,4.76830709 35.4765863,4.66773412 35.4238927,4.63755419 C35.7047122,4.88637801 35.675287,4.72994007 35.9286802,4.88894651 L35.9286802,4.98494435 C36.1837526,5.14499425 36.438825,5.33707018 36.6619934,5.56109188 C36.7895296,5.65708971 36.8852417,5.78519384 37.012778,5.91313744 C37.1084101,6.00913528 37.2678504,6.20121121 37.4591946,6.29720905 C37.3954665,6.29720905 37.2678504,6.23315698 37.4273705,6.36118085 C37.682443,6.48920471 37.9694194,6.52123075 38.2563959,6.48920471 C38.5433723,6.42515265 38.7665407,6.32915481 38.989709,6.16910491 C39.0853412,6.07310708 39.1810533,5.97702898 39.2766855,5.88103114 C39.3404136,5.78503332 39.4361257,5.72098124 39.4998539,5.62498341 C39.62739,5.46493351 39.7868303,5.33690965 39.9462705,5.17685975 C40.0100786,5.08086191 40.0419027,4.98478381 40.1057108,4.92081201 C40.1694389,4.88878598 40.233247,4.85675995 40.1694389,4.92081201 C40.4245113,4.72873608 40.1376148,4.88878598 40.233247,4.76076212 C40.3607832,4.63273825 40.4564953,4.63273825 40.3607832,4.72873608 C40.4564154,4.63273825 40.5839516,4.50471438 40.7114878,4.40863628 C40.839024,4.28061242 40.9984642,4.18453432 41.1897285,4.05651045 C41.3491688,3.96051262 41.5405131,3.83248875 41.6998734,3.76843669 C41.8593136,3.70446489 42.0187539,3.60838679 42.1781141,3.57636076 C42.14629,3.60838679 42.114386,3.60838679 42.0824819,3.64041282 C42.4969947,3.51238896 42.4969947,3.32031302 42.9434113,3.25634122 L42.8158751,3.22431519 C43.7724366,2.93624142 44.8884384,2.84024359 45.6218315,3.03223925 C45.6855597,2.96818719 45.940712,3.03223925 46.1638804,3.09621106 C46.3870488,3.16018286 46.6102971,3.22423492 46.6421212,3.16018286 C46.8971936,3.25618069 46.9928257,3.35225878 47.0885379,3.38428482 C47.216074,3.44825662 47.3436103,3.51230869 47.6943948,3.70438462 C47.8857391,3.80038245 48.0132753,3.76835642 48.2364437,3.89646055 L48.2045396,3.96043235 C48.3320758,3.99245839 48.4277879,4.05643019 48.5553242,4.08845622 L48.6509563,4.28053215 C48.7146844,4.31255818 48.7784925,4.37652998 48.8423006,4.40855602 C48.7784925,4.34450395 48.7146844,4.24850612 48.7146844,4.24850612 C48.8741247,4.37652998 49.0335649,4.50455385 49.1611011,4.66460375 C49.2886373,4.82465365 49.3524454,4.92065148 49.3524454,4.95267752 C49.4799816,5.04867535 49.5756937,5.14475345 49.6713259,5.27277731 C49.766958,5.36877515 49.8945742,5.49679902 49.9902064,5.59287712 C49.9583823,5.59287712 49.8626702,5.46485325 49.766958,5.40080118 C50.1176627,5.72090098 49.766958,5.52882505 50.0858385,5.81689882 C50.0540144,5.75284674 50.1496466,5.81689882 50.1496466,5.81689882 C50.2452788,6.00897475 50.5003512,6.45701815 50.6916955,6.77711794 L50.6279674,6.74509191 C50.9149438,7.35326547 51.2019202,8.05743688 51.3294565,8.79355402 C51.2975524,8.53750631 51.3931846,8.56945206 51.4569927,8.79355402 L51.3931846,8.88955184 C51.4569927,9.01757574 51.3931846,8.66544988 51.4888168,8.95360391 C51.5207208,9.2416777 51.4250886,9.14567988 51.3931846,8.98562999 L51.4569927,9.33767552 C51.4250886,9.3697016 51.4250886,9.27362345 51.3931846,9.27362345 C51.4250886,9.33767552 51.4250886,9.49772542 51.4250886,9.65769506 C51.4250886,9.81766471 51.3931846,9.97779485 51.4569127,10.0737927 L51.4250886,10.1058187 L51.4250886,10.2658686 C51.4250886,10.3299207 51.4250886,10.3938925 51.4569127,10.4259185 C51.4888168,10.5539424 51.5207208,10.6499402 51.5525449,10.7460183 C51.648177,10.9380943 51.7438892,11.0981442 51.8714253,11.194142 C52.1264978,11.4181637 52.4453783,11.5461875 52.8279869,11.5782136 C52.8279869,11.5461875 52.9236191,11.5461875 53.0193311,11.5142418 C53.0830593,11.5142418 53.1149633,11.4822158 53.1787714,11.4822158 C53.2425795,11.4501897 53.2744036,11.4501897 53.3063076,11.4181637 C53.7527243,11.3861376 54.2309651,11.4181637 54.7411899,11.5782136 C55.0918944,11.6422657 54.868726,11.5461875 55.0281663,11.5782136 C55.0281663,11.6422657 55.5064871,11.8662874 55.2514146,11.7702895 C55.5383911,11.8983134 55.6978313,12.0263373 55.8572715,12.1543611 C56.0167118,12.282385 56.2080561,12.4424349 56.4631285,12.7625347 C56.4312245,12.6665369 56.3993204,12.6024848 56.4312245,12.6024848 C56.5268566,12.7305087 56.5906647,12.8905586 56.5587606,12.8905586 L56.5269366,12.8585325 C56.6544728,13.0506085 56.782009,13.2746302 56.8458171,13.4987321 C56.9095452,13.7547799 56.9733533,13.9788016 56.9733533,14.2349295 C56.9733533,14.7150792 56.9095452,15.1631227 56.8458171,15.5152485 L56.8458171,15.4832224 C56.782009,15.7073244 56.7182809,15.9632919 56.6225687,16.1873938 C56.4312245,16.4754676 56.6862969,15.9953179 56.5269366,16.1873938 C56.4313044,16.3794698 56.3355923,16.5074936 56.2399602,16.6355175 C56.176232,16.6995696 56.144328,16.7635414 56.0805199,16.7955674 C56.0486159,16.8275935 56.0486159,16.8275935 56.0167118,16.8596195 C55.9848877,16.8596195 55.9848877,16.8916455 55.9529837,16.8916455 L55.9210796,16.8276737 C55.9210796,16.8276737 55.7935435,16.6676238 55.6660072,16.5395999 C55.6341832,16.3795501 55.506567,16.2195002 55.3471268,16.0594503 C55.1876865,15.8994004 55.0282463,15.6753787 54.8369819,15.5153288 C54.6456377,15.3552789 54.4224693,15.1632832 54.231125,15.0032333 C54.0397807,14.8431834 53.8485164,14.7151595 53.6890762,14.5871357 L53.6890762,14.6511877 C53.4977319,14.5871357 53.4977319,14.4911378 53.4020997,14.39514 C53.4020997,14.427166 53.5615399,14.5551899 53.4339238,14.4911378 C52.7006106,14.0750402 51.9353134,13.6909686 51.1062881,13.4349208 L50.7874875,13.338923 C50.6918554,13.306897 50.5642392,13.2748709 50.4686071,13.2748709 L49.8308461,13.114821 C49.6075978,13.082795 49.3844294,13.0508493 49.1930851,13.0188232 L48.8742046,12.9867972 L48.5554041,12.9867972 C47.9176431,12.9867972 48.2046196,13.1788731 47.4074983,13.1788731 L47.6307466,13.0828753 C46.3872087,13.306897 45.0798626,13.6269968 44.059493,14.3311682 C44.1232212,14.2671964 44.0913971,14.2671964 44.2189332,14.2031443 C43.9638609,14.2991422 43.389908,14.7152398 43.421812,14.7472658 C43.2623718,14.8752897 43.3580839,14.7472658 43.2623718,14.8113179 C43.1666597,14.8753699 43.0072994,15.0033938 42.9434913,15.0993917 C42.9434913,15.1314176 42.9115872,15.1633635 42.9115872,15.1314176 L42.9115872,15.0993917 C42.9115872,15.1314176 42.8797631,15.0993917 42.8797631,15.0993917 L42.8479391,15.0673657 C42.8160351,15.0353396 42.8160351,15.0353396 42.784131,15.0033136 C42.7523069,14.9712875 42.7523069,14.9712875 42.7523069,15.0353396 C42.5928667,14.8432637 42.4334264,14.7152398 42.2739862,14.5872159 C42.114546,14.4591921 41.9232816,14.3631139 41.7957454,14.2350901 C41.540673,14.1711183 41.1261603,13.7869664 40.9986242,13.8510185 C41.0304483,13.8189924 40.8710879,13.6909686 40.6478396,13.5949708 C40.4246712,13.4989729 40.1376948,13.4349208 39.9782545,13.4028948 C40.0738867,13.4028948 39.7231821,13.3068168 39.8507184,13.3068168 C39.6912781,13.2747907 39.5318379,13.2428449 39.4043017,13.2108189 C39.2767654,13.2108189 39.2129573,13.2108189 39.2448614,13.2428449 C39.0854212,13.1787929 38.9259809,13.1468471 38.7984447,13.1468471 L38.352028,13.1468471 C38.0650515,13.1468471 37.8418832,13.2108189 37.6505389,13.114821 C36.6620733,13.2428449 35.7693199,13.5949708 35.0040228,14.0430141 C35.0040228,14.0109882 35.0359268,13.9790423 35.131559,13.9149903 C35.2271911,13.8509383 35.3229032,13.8189122 35.4185354,13.7549404 C35.5141676,13.6908883 35.6417837,13.6589425 35.7055118,13.5948905 C35.7693199,13.5628645 35.8330481,13.5308384 35.801144,13.4988926 C35.4185354,13.6909686 35.0996549,13.8509383 34.8445825,14.0750402 C34.7170463,14.171038 34.557606,14.2671161 34.4300699,14.39514 C34.3662618,14.4591921 34.3025337,14.5231638 34.2068215,14.5551899 C34.1749175,14.5872159 34.1430934,14.619242 34.0792853,14.6511877 C34.0474613,14.6832137 34.0474613,14.6832137 34.0155572,14.7152398 C33.9836532,14.7472658 33.9836532,14.7152398 33.9836532,14.6832137 C33.9836532,14.6511877 34.0155572,14.6191616 34.0474613,14.5872159 C33.9836532,14.619242 33.9836532,14.6511877 33.9836532,14.6511877 C33.9836532,14.6511877 33.9836532,14.6832137 33.9517491,14.6832137 L33.7923089,14.6511877 C33.6009646,14.5872159 33.4097002,14.5551899 33.1864519,14.5231638 C32.8038433,14.4591118 32.3893307,14.427166 32.0385461,14.427166 C32.1660823,14.4912181 31.5284013,14.5551899 31.4326892,14.619242 C31.5283214,14.5551899 31.337057,14.5551899 31.1776168,14.5551899 C31.0181765,14.5551899 30.8587363,14.5551899 31.0500806,14.4591921 C30.9544484,14.4912181 30.8268322,14.5232442 30.8587363,14.5551899 C30.6992961,14.5872159 30.667392,14.5551899 30.7949282,14.4911378 C30.2847834,14.6191616 30.4761277,14.6191616 29.997807,14.7792116 C29.997807,14.7471855 30.0934391,14.7151595 30.1253431,14.6832137 C29.9020948,14.7792116 29.6789265,14.9392615 29.3282219,15.0672853 L29.3282219,15.0352593 L29.2963179,15.0352593 L29.2325897,15.0672853 C29.2006857,15.0993114 29.1687816,15.1313374 29.1369576,15.0672853 C29.0731495,14.9712875 29.0094213,14.9072354 28.9456133,14.8112376 C28.754269,14.5872159 28.5629247,14.3310879 28.3078523,14.0430141 C28.5311006,14.139012 28.1484121,13.8189122 28.1803161,13.7229144 L27.8614356,13.4668666 L27.9570677,13.6269165 C27.7019954,13.3708688 27.3831149,13.2428449 27.1599465,13.050769 C26.841066,12.8907191 27.1280425,13.1467669 26.7454339,12.8907191 C26.7773379,12.9227451 26.7135298,12.8586931 26.6178976,12.7947213 C26.5222655,12.7306692 26.3628252,12.6666974 26.2990172,12.5706193 C26.1395769,12.5385933 25.9482326,12.4746215 25.7250643,12.3785434 C25.6613361,12.3144913 25.8206965,12.3144913 25.7888724,12.2825455 C25.603685,12.2825455 25.0308515,12.0434339 24.7629855,12.0862155 C24.8083228,12.0722493 24.8275132,12.0264978 24.8004068,12.0264978 L24.6409666,12.0585239 C24.4815263,11.9944718 24.4496223,11.9944718 24.4815263,11.962526 C24.0032856,11.8665281 24.6090625,12.0905499 24.0351096,11.962526 C24.0670136,11.962526 24.0670136,11.962526 24.1626458,11.962526 C23.5886929,11.8665281 23.01474,11.9305 22.4726912,11.962526 C22.377059,11.9305 22.5045952,11.898474 22.6321314,11.898474 C22.7596676,11.898474 22.8553798,11.8664479 22.7596676,11.8345021 C21.9625463,11.898474 21.1653451,12.1865477 20.463856,12.4426757 L20.5913922,12.4106496 C20.5594882,12.4747017 20.431952,12.5386735 20.2725117,12.5706995 C20.1130715,12.6027256 19.8899031,12.6666974 19.7304629,12.7948015 C19.7686038,12.7565148 19.7837162,12.7187096 19.7898732,12.7009708 C19.3132315,12.9249123 18.8676945,13.2444502 18.2637565,13.7550207 L18.3275646,13.6590228 C18.0724922,13.8190728 17.6898037,14.1390922 17.4347313,14.3631942 C17.3710031,14.4591921 17.243387,14.5872961 17.3710031,14.5232442 C17.1477548,14.683294 16.9564905,14.8433439 16.7970502,15.0353396 C16.701418,15.1313374 16.6057059,15.2274155 16.5738019,15.2913873 C16.5418979,15.3554394 16.4781697,15.4194112 16.4143616,15.4834633 C16.4043667,15.47343 16.393652,15.4624336 16.3824576,15.4507148 L16.3824576,15.4515175 C16.3807785,15.4498319 16.3794991,15.4475844 16.3778199,15.4458186 C16.209744,15.2687524 15.91797,14.9143791 15.6809685,14.5872961 C15.7446966,14.651268 15.8723128,14.7473461 15.8085047,14.683294 C15.6171604,14.4912181 15.4258961,14.3312484 15.2345518,14.1711985 C15.2345518,14.2671964 15.29828,14.2671964 15.362088,14.3953005 C15.2664558,14.3632745 15.1070156,14.2352506 14.9475753,14.1072267 C15.2345518,14.2993027 15.0113035,14.0431747 14.9156713,13.9151508 C14.9156713,13.9471768 14.8838473,13.9151508 14.8838473,13.9471768 C14.6287748,13.627077 14.756311,13.9792029 14.3736225,13.627077 L14.4055265,13.627077 C14.2141822,13.5310792 14.0548219,13.4670271 13.8634776,13.3390033 C13.8316535,13.2430054 14.0548219,13.4350011 14.1185501,13.4030553 C14.054742,13.3710293 13.9910139,13.3390033 13.9272058,13.3070575 C13.8633977,13.2750315 13.7996695,13.2750315 13.7358614,13.2430054 C13.6721334,13.2109794 13.6083253,13.1789534 13.5445172,13.1470076 C13.5763413,13.0832766 13.6082453,13.0192245 13.6719734,12.9871985 Z M56.9410495,21.0531837 C56.9410495,21.0852097 56.9091454,21.1172357 56.8135132,21.1812076 L56.7178811,21.1812076 C56.8135132,21.1172357 56.8772414,21.0852097 56.9410495,21.0531837 Z M52.9234591,17.1802009 C52.891635,17.1802009 52.859731,17.1802009 52.7321148,17.084203 C52.7321148,17.084203 52.7321148,17.052177 52.7640189,17.052177 C52.827747,17.084203 52.859651,17.1482551 52.9234591,17.1802009 Z M3.62787769,15.963934 C3.8829501,15.4838646 4.26563867,14.9716888 4.68007135,14.5555912 C4.77570352,14.4595934 4.77570352,14.4915391 4.7119754,14.5876172 C4.62010135,14.6798426 4.46865711,14.8620458 4.25900198,15.1599923 C4.21454423,15.2117637 4.03991158,15.4296852 3.81914201,15.7399123 C3.53216556,16.188036 3.24518911,16.8601814 2.9901167,17.3402508 C3.14963691,16.9242334 3.34090123,16.4440837 3.62787769,15.963934 Z M27.4785072,24.9584252 C27.5104112,24.9584252 27.5423153,24.9261495 27.6698514,24.9261495 L27.7654836,24.990701 C27.6698514,24.990701 27.5742192,24.990701 27.4785072,24.9584252 Z M32.4527396,47.2675754 C32.4527396,47.2675754 32.4527396,47.2355493 32.4849621,47.2355493 C32.4849621,47.2995211 32.4849621,47.3635732 32.5171846,47.4276252 C32.4849621,47.4276252 32.4527396,47.3635732 32.4527396,47.2675754 Z M32.2932188,24.7020645 L32.2932188,24.6700385 C32.1337785,24.7340103 32.0062423,24.7980624 31.814898,24.8300884 C31.7192658,24.7980624 31.9743382,24.7660364 31.9743382,24.7020645 C31.7192658,24.7661166 31.4960175,24.9261665 31.2728491,24.8941405 C31.3684813,24.8621144 31.5279216,24.8301687 31.6235538,24.7981426 C31.3684813,24.7661166 31.3365773,24.7981426 31.145313,24.7981426 C31.1134089,24.7981426 31.1134089,24.7981426 31.0815049,24.7981426 L30.8582566,24.7981426 C30.5712801,24.9902186 30.2205755,24.8941405 29.8060628,25.0222446 C30.2205755,24.8942208 29.869791,24.9581926 29.901695,24.8942208 C29.8060628,24.8942208 29.6147186,24.8621947 29.6784467,24.8301687 C29.4871025,24.8942208 29.3276622,24.7981426 29.0725897,24.8942208 C29.0725897,24.8621947 28.8493414,24.8942208 28.9131495,24.8301687 C28.6580771,24.8301687 28.9769576,24.8621947 28.9450536,24.8942208 C28.5305409,24.9582728 27.988492,24.7661969 27.4145392,24.8621947 C27.1594668,24.8621947 27.0000265,24.8942208 26.8724903,24.9261665 C26.7449541,24.9581926 26.6174179,24.9581926 26.4579777,25.0222446 C26.4260736,25.0222446 26.3941696,25.0542707 26.3304414,25.0542707 C26.2348093,25.0542707 26.3941696,24.9582728 26.4579777,24.9262468 C26.2510411,24.9493633 26.1107913,25.0395018 25.9886124,25.1596596 C26.0020457,25.1624689 26.0116409,25.1699336 26.0116409,25.1822945 C25.9160087,25.2782924 25.8522006,25.3423444 25.7883926,25.4383423 C25.8085425,25.3777416 25.829572,25.3295019 25.8577179,25.2782924 C25.8472431,25.2676972 25.8021457,25.2964324 25.7564085,25.3423444 C25.7062737,25.4177942 25.695639,25.4585692 25.6914011,25.4940467 C25.7101917,25.4619404 25.7309813,25.4318407 25.7564085,25.4063965 L25.7564085,25.5664464 C25.6926005,25.6624442 25.6607764,25.7264963 25.6288724,25.8224941 C25.3419759,26.4626937 25.0230954,27.1668651 24.7361189,27.8709562 L24.7361189,27.9029823 C24.7042948,27.8709562 24.6723908,27.8390105 24.6404868,27.8069844 C24.6404868,27.7749584 24.6723908,27.7749584 24.6723908,27.7109866 L24.6404868,27.5829628 L24.5767587,27.7750387 C24.5448546,27.7750387 24.5129506,27.8070647 24.4811265,27.8390105 C24.4492224,27.8710365 24.4492224,27.9030626 24.4173185,27.9670343 C24.4173185,27.9990604 24.3854943,28.0310864 24.3854943,28.0630322 C24.3854943,28.094978 24.3854943,28.0950582 24.3854943,28.1270843 L24.3854943,28.1591103 L24.3535903,28.2231623 L24.2897822,28.3832122 L24.1941501,28.4471841 C24.2579581,28.3511862 24.2897822,28.2871342 24.3535903,28.1911363 C24.2260541,28.3191602 24.1941501,28.4152382 24.162246,28.5432621 C24.130342,28.5432621 24.0666138,28.5752882 24.0347098,28.63926 C24.0028057,28.7672838 23.9390777,28.8632817 23.9071736,28.9913056 C23.8434455,28.9913056 23.9390777,28.8312557 23.7796374,28.9913056 C23.7158293,29.1513555 23.9709817,28.9272535 23.8114615,29.1513555 C23.6520213,29.2473533 23.6520213,29.1833815 23.5563891,29.3434313 C23.5415165,29.3434313 23.5340002,29.3361272 23.5362391,29.322161 C23.4278933,29.4635892 23.2597375,29.6140072 23.2056046,29.695477 C23.0461643,29.759529 22.7273638,30.0795486 22.6954597,29.9835507 C22.6636356,30.0476027 22.4722914,30.2395985 22.3447552,30.3355963 C22.5360995,30.0795486 21.8027063,30.62367 21.8027063,30.4636201 C21.6510222,30.646305 21.1532712,30.8289898 20.77578,31.0117549 C20.7886536,31.0009993 20.8014472,30.9886384 20.8142407,30.9757959 C20.5909924,31.0397677 20.5272643,31.0078219 20.3997281,31.0397677 C20.3997281,31.1358457 20.0808476,31.2318436 19.8895833,31.3278415 C19.6026068,31.2958154 20.0490236,31.1998176 19.9214074,31.1037395 C19.9214074,31.1357655 19.8257752,31.1677915 19.7300631,31.2317633 C19.6344309,31.2637894 19.5387188,31.2958154 19.5706228,31.3277611 C19.3473745,31.2957351 19.3792785,31.3277611 19.2836464,31.2637091 C19.2517424,31.391733 19.0923021,31.2957351 18.9328618,31.391733 C18.6139813,31.359707 18.8691337,31.2957351 18.5183492,31.3276809 C18.3589089,31.2956549 18.6458854,31.2636288 18.6458854,31.2636288 C18.3270049,31.2636288 18.4864452,31.359707 18.4226371,31.391733 C18.0081244,31.391733 18.2312928,31.3276006 18.1037566,31.2636288 C17.8486842,31.2636288 17.6573399,31.2956549 17.4660755,31.2636288 C17.4660755,31.2316028 17.4341715,31.2316028 17.4660755,31.2316028 C17.3385394,31.2316028 17.1471951,31.1675508 16.9559307,31.135605 C16.7645864,31.0715529 16.5732422,31.0075811 16.4457859,30.943529 C16.4457859,30.911503 16.4138819,30.911503 16.4138819,30.911503 C16.4457859,30.9754748 16.4138819,31.0075009 16.3819778,31.0395269 C16.2544417,30.9754748 16.0950014,30.943529 16.0950014,30.847451 C16.1587295,30.911503 16.1906336,30.879477 16.2225376,30.879477 C16.1587295,30.847451 16.1269054,30.847451 16.0630973,30.8154249 C16.0311933,30.7514531 16.0630973,30.7514531 16.1269054,30.8154249 C16.1906336,30.847451 16.2544417,30.879477 16.2863457,30.879477 C16.1269054,30.8154249 15.9993693,30.7194271 15.871833,30.655375 C15.7442968,30.5593772 15.6485847,30.463299 15.5848565,30.3673012 C15.6167606,30.2713034 15.9675452,30.7513728 15.8081049,30.463299 C15.871913,30.5592969 15.9675452,30.623349 16.0631773,30.7193468 C15.9356411,30.463299 16.2226176,30.8473706 16.1269054,30.5913229 C15.9674652,30.463299 15.871833,30.367221 15.7761209,30.2712231 C15.6804887,30.2071711 15.6166807,30.0791472 15.5210485,29.8871515 C15.4254163,29.8230995 15.4572404,29.9511234 15.3935123,29.8871515 C15.3297842,29.7271016 15.2659761,29.6311038 15.2659761,29.5350257 C15.2659761,29.4389476 15.2659761,29.3749758 15.2978802,29.311004 C15.2978802,29.246952 15.3297842,29.2150062 15.3297842,29.1509541 C15.3297842,29.0869823 15.2978802,29.0229302 15.2978802,28.8949063 C15.2659761,28.8308543 15.234152,28.7989085 15.202248,28.7028305 C15.1704239,28.6387784 15.1704239,28.5427806 15.1704239,28.3187588 C15.202248,28.3828109 15.234152,28.4148369 15.2660561,28.4788087 L15.2660561,28.2867328 C15.2660561,28.2226808 15.2342319,28.190735 15.2342319,28.158709 C15.2023279,28.0946569 15.1704239,28.0627111 15.1385998,27.9986591 C15.0747917,27.934607 15.0429676,27.8386092 14.8516234,27.6145875 C14.9791595,27.6466134 15.1385998,27.9667133 15.1066958,27.9026612 C15.0429676,27.7105853 14.9791595,27.6466134 14.9153515,27.6145875 C14.8516234,27.5825614 14.8197193,27.5506156 14.6921031,27.4865636 L14.6921031,27.3904855 C14.4370308,27.2304356 14.0862462,27.1344378 13.7674457,27.1664638 C13.4486452,27.1984898 13.0978606,27.3585397 12.8746123,27.6466134 C12.8746123,27.625022 12.9033979,27.5600067 12.883168,27.5591239 C12.8840476,27.5579198 12.885167,27.556475 12.8860465,27.5552711 C12.8848472,27.5565553 12.8837277,27.557679 12.8824484,27.5589633 C12.8722934,27.5593646 12.851184,27.5741335 12.8108042,27.6146677 C12.7789002,27.6787198 12.7469962,27.7106655 12.7151721,27.7747176 L12.651364,27.9027415 C12.6372111,27.9311556 12.6165814,27.9659908 12.5954719,28.0013881 C12.6176208,28.0076488 12.6159417,28.0378288 12.5875559,28.0947371 C12.61938,28.0627111 12.5238278,28.190735 12.4600197,28.254787 C12.4862466,28.2021327 12.5331831,28.1275658 12.5670861,28.049387 C12.5506943,28.0771589 12.5351021,28.1041282 12.5238278,28.1267632 C12.4919237,28.1908153 12.4281956,28.2868131 12.3643875,28.3508652 L12.2049473,28.5429411 C11.9498749,28.767043 11.6628984,28.9910647 11.375922,29.0870626 C11.3121139,29.1511146 11.2483858,29.2150865 11.1845777,29.2471125 C11.1208496,29.2791385 11.0889455,29.2471125 11.1208496,29.2150865 C10.8657772,29.2791385 11.1208496,29.2471125 11.0252174,29.3110843 C10.8976812,29.3751364 10.8338731,29.3110843 10.9295853,29.2790582 C10.8339531,29.3110843 10.7063369,29.3750561 10.5469766,29.4070821 C10.3875364,29.4391082 10.2280962,29.4711342 10.0686559,29.4711342 C9.74985536,29.5031602 9.3990708,29.4711342 9.17582249,29.4070821 L9.27145469,29.4070821 C8.92075007,29.3110843 8.825038,29.4711342 8.50623743,29.34303 L8.56996558,29.34303 C7.77284428,29.1190083 6.91191495,28.7668825 6.46549826,28.3187588 C6.40177014,28.3187588 6.24224993,28.190735 6.08288964,28.0627111 C5.92344939,27.9346872 5.79591319,27.8066633 5.73210511,27.8386092 C5.57266486,27.6465332 5.54076082,27.5825614 5.4770327,27.4865636 C5.41322462,27.3905657 5.31759246,27.2944877 5.12624817,27.03844 C5.03061601,26.9104161 4.87117577,26.9104161 4.74363956,26.7503662 L4.80736769,26.6863141 L4.55229527,26.4942381 L4.52039123,26.3021622 C4.45666311,26.2381904 4.42475907,26.2061644 4.39285503,26.1421123 C4.42475907,26.2061644 4.45666311,26.3021622 4.42475907,26.3021622 C4.3291269,26.1741383 4.23341478,26.0140884 4.16968666,25.8540386 C4.10587858,25.7260147 4.0740545,25.5979908 4.10587858,25.5659648 L3.88263025,25.245865 L3.69128597,24.9257652 C3.72319001,24.9257652 3.78691813,25.0537891 3.85072621,25.1178411 C3.62747788,24.7977413 3.88255029,25.0218433 3.69128597,24.7017435 C3.69128597,24.7657153 3.62755785,24.7017435 3.62755785,24.7017435 C3.5956538,24.5096676 3.4681176,24.125596 3.40430952,23.8375222 L3.46803764,23.8695483 C3.37240548,23.3254268 3.27677332,22.7172532 3.40430952,22.1411056 C3.34050144,22.3651273 3.27677332,22.3011555 3.27677332,22.1090796 C3.28964687,22.0961568 3.30252044,22.0888526 3.31531403,22.0821103 C3.31107616,22.0776957 3.30867736,22.0517698 3.30867736,21.9810557 C3.37240548,21.7569537 3.43621356,21.8530319 3.43621356,21.9810557 L3.50002164,21.725008 C3.53192568,21.725008 3.53192568,21.7889798 3.53192568,21.8210058 C3.53192568,21.7569537 3.56374976,21.6609559 3.62755785,21.532932 C3.69128597,21.4369342 3.75509405,21.3088301 3.75509405,21.2128322 L3.78699809,21.2128322 C3.91453429,20.9567845 4.0420705,20.7647086 4.1696067,20.6046587 C4.2971429,20.4446088 4.42467911,20.2845589 4.6160234,20.0605372 C4.58411936,19.9965654 4.71165556,19.8684613 4.77546364,19.6764656 C5.03053605,19.3563658 5.3175125,18.9722942 5.50885678,18.5241706 C5.60448894,18.2040708 5.50885678,18.3961467 5.50885678,18.2681228 C5.5725849,18.2681228 5.76392919,17.8520252 5.70020107,18.0760469 C5.92344939,17.5639514 5.95527348,17.4359276 6.30605801,16.827754 C6.24232989,16.85978 6.17852181,16.9237518 6.17852181,16.8917258 C6.24232989,16.795728 6.36986609,16.6677041 6.36986609,16.6996498 L6.36986609,16.7316759 C6.56121038,16.3795501 6.91191495,16.0914763 7.26269948,15.8674545 C7.61340405,15.6434329 7.96418855,15.4513569 8.21926097,15.259281 L8.05982075,15.3233331 C8.25116501,15.1953092 8.41060531,15.0992312 8.60186963,15.0032333 C8.88884602,14.9072354 8.44242934,15.0992312 8.66567765,15.0672853 C9.27153463,14.7471855 9.68604727,14.8112376 10.2599202,14.7471855 C10.3555524,14.7792116 10.5149926,14.8112376 10.6744329,14.8431834 C10.770065,14.8431834 10.8338731,14.8752094 10.9295052,14.8752094 C11.0251374,14.9072354 11.1208496,14.9072354 11.2164817,14.9391812 C11.5991703,15.0032333 12.013603,15.1312572 12.2687554,15.291307 L12.2687554,15.227255 C12.4281956,15.227255 12.4281956,15.3232528 12.5238278,15.3873049 C12.5238278,15.3552789 12.3962915,15.291307 12.4919237,15.291307 C13.0658766,15.5473548 13.6079255,15.9634524 14.0224381,16.4755479 C14.2456864,16.7315956 14.4051267,17.0196694 14.564487,17.3077432 C14.6282951,17.4677931 14.7239272,17.5958169 14.7877353,17.7558668 L14.8833674,17.9799688 L14.9789996,18.2360165 C15.1065358,18.5240903 15.2340721,18.5561163 15.3297842,18.6200881 C15.4573204,18.6521141 15.5211285,18.748112 15.871833,18.9401879 C15.8081049,18.9401879 15.7123928,18.9081618 15.6485847,18.9081618 C15.9355612,19.0682117 16.2863457,19.1321836 16.6051462,19.0682117 C16.9240267,19.0041597 17.2429072,18.8441098 17.4660755,18.5880621 C17.5298037,18.52401 17.5617077,18.4600382 17.5936118,18.3959862 L17.6892439,18.2359363 C17.753052,18.1399384 17.8167802,18.0118343 17.8805882,17.9158364 C18.0081244,17.6917344 18.1675646,17.4997388 18.2951009,17.3076629 C18.2631968,17.3717149 18.2951009,17.3717149 18.2313727,17.4677128 C18.390813,17.3396889 18.7096135,16.8915652 18.6777894,16.8595392 C18.7734216,16.7635414 18.7415975,16.8595392 18.8053257,16.7954872 C18.9647659,16.6674633 19.0923021,16.3793896 19.2198383,16.3473635 C19.2198383,16.3473635 19.2198383,16.3473635 19.1879343,16.3793896 C19.3154704,16.2513657 19.6024469,16.0273439 19.4749107,16.0592897 C19.7618871,15.8352681 19.9850555,15.6111661 20.272032,15.4831422 C20.3995682,15.3230923 20.8140808,15.1950684 20.8140808,15.0670446 C20.8140808,15.1310163 20.9735211,15.0670446 21.1329613,15.0029925 C21.2924016,14.9389404 21.4837458,14.8109165 21.6112021,14.7789708 C21.547474,14.8429426 21.8025464,14.7469447 21.7387383,14.8109968 C21.9938107,14.714999 22.216979,14.6509469 22.153251,14.6189209 C22.6314917,14.6509469 23.0779084,14.3628732 23.3648849,14.5549491 C24.1301021,14.5229231 24.8316711,14.6509469 25.4374482,14.9710467 C25.4264936,14.9820431 25.3976281,14.9791536 25.3587675,14.9684782 C25.4162587,14.9903908 25.4738299,15.0127046 25.5331602,15.0350185 C25.6606965,15.0990706 25.7564085,15.1630424 25.8839448,15.2270945 C26.011481,15.2911465 26.1071931,15.3871444 26.2347294,15.5151682 C26.3303615,15.6431921 26.1390972,15.4831422 26.0752891,15.4831422 C26.6030251,15.8570201 26.888962,16.3523399 27.1685022,16.8507903 C27.156908,16.8317672 27.1422753,16.810256 27.1275627,16.7954872 C27.1912908,16.891485 27.2231948,17.0515349 27.2550989,17.0195891 L27.1912908,16.9235913 C27.1912908,16.8275935 27.286923,16.9235913 27.3507311,17.0195891 C27.4145392,17.1476129 27.5101713,17.3076629 27.5101713,17.3076629 C27.4145392,17.2436108 27.4463632,17.3717149 27.4782673,17.5317649 C27.5420754,17.6597887 27.6058035,17.8198386 27.4145392,17.6918148 C27.4463632,17.7878126 27.5739794,17.8518647 27.5739794,17.8198386 C27.6377875,17.9478625 27.6696115,17.9798885 27.5420754,17.8838907 C27.6377075,17.9798885 27.7015156,18.0439406 27.7653237,18.0759666 C27.8291318,18.1079926 27.8609559,18.1400187 27.8928599,18.1400187 C27.956588,18.1720447 28.0203961,18.2039904 28.2435645,18.2680425 C28.2435645,18.2774336 28.2348488,18.2808851 28.2216554,18.2817679 C28.4249937,18.2975 28.6264929,18.28843 28.9132295,18.2360968 C28.9132295,18.2360968 28.9131495,18.253675 28.9000361,18.2628252 C29.1778171,18.1947599 29.3950684,18.0085434 29.5509905,17.8520252 C29.7104307,17.6919753 29.901695,17.4998994 30.1886715,17.4039015 C30.0930393,17.5959774 30.3800158,17.3399297 30.4437439,17.4039015 C30.539376,17.3718755 30.6350882,17.3079037 30.7307203,17.2758777 L30.6031841,17.2758777 C30.7307203,17.2118256 30.8582566,17.1797995 30.9858727,17.1158278 C31.1134089,17.0838017 31.209041,17.0198299 31.3365773,17.0198299 C31.3213849,17.0274551 31.3061925,17.0350001 31.2910001,17.042224 C31.4134188,17.017422 31.5423943,17.0105191 31.6554577,16.9878039 L31.3684813,16.9878039 C31.6536187,16.9242334 31.3412949,16.8606629 31.7127891,16.8598603 C31.7215847,16.8604221 32.0213548,16.8658802 32.1656026,16.9238321 C32.2931388,16.8918061 32.452579,16.8918061 32.6757474,16.9558581 C32.7395555,16.9878841 32.6120193,17.0518559 32.6438434,17.0838819 C32.8032836,17.0199102 33.2816043,17.2439319 33.4728686,17.2439319 C33.4091406,17.2439319 33.3772365,17.2759579 33.4091406,17.3079839 L33.5366767,17.3079839 C33.6323089,17.372036 33.664213,17.4039818 33.6323089,17.4360078 C33.9830934,17.6280838 33.5685808,17.2759579 33.9511894,17.5320056 C33.9193653,17.5320056 33.9193653,17.5320056 33.8555572,17.4999796 C34.2382458,17.7560273 34.6208544,17.9801293 34.9078309,18.3321748 C34.9397349,18.4922248 34.6208544,18.0761271 34.6845825,18.236177 C35.1090902,18.6318069 35.5041726,19.1434208 35.6516988,19.715555 C35.7082305,19.752718 35.7368562,19.8459066 35.7368562,19.9965654 C35.7368562,20.145057 35.7379756,20.2925052 35.7634829,20.4154723 C35.7485304,20.3720486 35.7050321,20.3540691 35.7050321,20.380637 C35.7050321,20.7967346 35.7369361,21.2128322 35.6094,21.8210058 L35.6094,21.725008 C35.5137678,21.9490297 35.3543275,22.3331816 35.2267113,22.5251772 C35.2267113,22.621175 35.1310792,22.7492792 35.2267113,22.6852271 C34.9397349,22.9733009 34.7165665,23.2613747 34.4295901,23.5494484 C34.1745177,23.8054962 33.8556372,24.0615439 33.5049326,24.125596 C33.5686607,24.0935699 33.6643729,23.9975721 33.6005648,24.0295982 L33.3454923,24.189648 L33.058516,24.3176719 C33.122324,24.3496979 33.1541481,24.3176719 33.2817643,24.3176719 C33.2179562,24.3817239 33.058516,24.4777218 32.9309797,24.5097478 C33.1860521,24.3817239 32.8990757,24.41375 32.7715395,24.4456958 C32.8034435,24.4456958 32.7715395,24.4777218 32.7715395,24.5097478 C32.4207549,24.5100689 32.7396354,24.6380927 32.2932188,24.7020645 Z M34.365862,23.6777934 C34.3020539,23.7418454 34.2383258,23.8058173 34.1745177,23.8378433 C34.1745177,23.8058173 34.2063418,23.7737912 34.3339579,23.6457673 C34.365862,23.6458476 34.365862,23.6777934 34.365862,23.6777934 Z M32.7397154,27.2947284 C32.7397154,27.2307567 32.7397154,27.1987306 32.7397154,27.1987306 C32.7397154,27.1987306 32.7397154,27.1667046 32.7078913,27.1667046 L32.7397154,27.1667046 L32.7716194,27.1346785 C32.7716194,27.1346785 32.7716194,27.1346785 32.8035235,27.1346785 C32.8672516,27.1346785 32.8991557,27.1026525 32.9310597,27.1026525 C33.122404,27.0386004 33.2818442,27.0066547 33.4412844,27.0066547 L33.4093804,26.9746286 C33.5369166,26.8786308 33.6007247,26.9426026 33.6963569,26.9106569 C33.6644528,26.8786308 33.5369166,26.9106569 33.6007247,26.8786308 C34.2065816,26.6546091 34.8442626,26.4305071 35.4501196,26.1104876 C36.0559765,25.7903878 36.6298495,25.4063162 37.1081702,24.8941405 C37.4589547,24.5100689 37.1400742,24.5420949 37.586491,24.0939712 L37.5545869,24.2860472 C37.8096594,23.8379235 38.0329077,23.3897998 38.224172,22.9097304 C38.3836122,22.429661 38.5111485,21.9174853 38.5111485,21.4373355 C38.5111485,21.5013876 38.5429725,21.5013876 38.5429725,21.5973854 C38.6067806,21.4053095 38.6067806,20.829162 38.5429725,20.829162 C38.5429725,20.6691121 38.5748765,20.797136 38.6067806,20.7011381 C38.6386047,20.4771164 38.5111485,20.1890426 38.5748765,20.0610188 C38.5748765,20.0411129 38.5871904,20.070731 38.5965457,20.1037202 C38.5677601,19.926975 38.5362559,19.5339136 38.4792444,19.6769472 C38.4473404,19.2928756 38.3198041,19.0048018 38.255996,18.7167281 C38.1284598,18.5566782 38.0646518,18.1085545 37.9371156,18.1085545 C38.0646518,18.0765284 37.7457713,17.4683549 37.5545069,17.3083853 C37.6182351,17.3404113 37.4588748,17.1163093 37.5545069,17.1803614 C37.3950667,16.9562594 37.2356265,16.7642638 37.2037224,16.8602616 C37.1718983,16.7322377 37.0761862,16.6362399 37.0123782,16.5401618 C36.9804741,16.5081358 36.916746,16.4441639 36.8848419,16.4121379 C36.8530179,16.3801119 36.8530179,16.3801119 36.8530179,16.3801119 L36.8211138,16.3801119 C36.7573057,16.3480859 36.6616735,16.284114 36.8211138,16.3160599 C36.8211138,16.3160599 36.8211138,16.2840338 36.8530179,16.2840338 C36.8530179,16.2840338 36.8530179,16.2840338 36.8848419,16.2520078 L36.9804741,16.188036 C37.1399143,16.0920382 37.2993546,16.0600121 37.4268908,15.99596 C37.7457713,15.8998819 38.0646518,15.8679362 38.3834523,15.8679362 C38.3515483,15.963934 37.6819632,15.8999622 37.7137872,16.0279861 C38.2877402,15.9319883 38.6703488,15.8679362 39.2443017,16.0600121 C39.4037419,16.1240642 39.1486695,16.0920382 39.0848614,16.0920382 C39.6518578,16.2118749 40.1067503,16.4997079 40.5287792,16.7722904 C40.5256607,16.7695613 40.5224623,16.7669125 40.5197437,16.7641835 C40.5320575,16.7724509 40.5443714,16.7811998 40.5565253,16.7901896 C40.5761155,16.8027914 40.5959456,16.8156338 40.6153759,16.8281553 C40.5834718,16.7641032 40.6791039,16.7961293 40.8066402,16.8601814 C40.9341764,16.9242334 41.0617126,17.0202313 41.0617126,17.0202313 C40.8384643,16.9882052 41.380593,17.4683549 41.0617126,17.3403311 C41.1254407,17.372357 41.1892488,17.4363289 41.1892488,17.4043831 C41.2529769,17.5003809 41.2529769,17.5324069 41.1573447,17.4683549 C41.284881,17.6284048 41.316785,17.6604308 41.380593,17.6924568 C41.4124971,17.7244829 41.4762252,17.7565089 41.5400333,17.9165588 C41.5081293,17.9165588 41.4762252,17.8525068 41.4444011,17.8525068 C41.5081293,17.9165588 41.5719374,17.9805306 41.6357454,18.0766088 C41.6675695,18.1086348 41.6994736,18.1726066 41.7313776,18.2366587 C41.7632017,18.3006304 41.8270098,18.3646825 41.8908178,18.4287346 C41.8589138,18.4287346 41.8589138,18.4287346 41.8589138,18.4287346 C42.0821622,18.6208105 42.3372345,18.7168083 42.5604029,18.7168083 C42.8154753,18.7488343 43.0705477,18.7168083 43.3894282,18.5887844 C43.3257001,18.6848626 43.3894282,18.6528365 43.4532363,18.6208105 C43.5488684,18.5887844 43.6445806,18.4927866 43.6764846,18.5248127 C43.7721168,18.3967888 43.8040208,18.3327367 43.8678289,18.2687649 L43.7402927,18.332817 C43.899733,18.1407411 44.0272691,17.9167194 44.2185334,17.7566695 L44.0909973,17.9167194 C44.2185334,17.7886955 44.3142456,17.6606717 44.4417018,17.5646738 C44.3460697,17.6287258 44.2822616,17.6606717 44.2184535,17.7247237 C44.3778938,17.5006218 44.1228214,17.6606717 44.4097978,17.4366499 C44.3779737,17.500702 44.6011421,17.244574 44.7605823,17.2126282 C44.8562145,17.1166304 44.9519266,16.9885263 45.1112869,16.8925284 C45.175095,16.8925284 45.1431909,16.9885263 45.175095,16.9885263 C45.2069191,16.9244742 45.3345353,16.8284764 45.4620714,16.7324785 C45.5719365,16.6497246 45.7049899,16.5907292 45.7602423,16.5145571 C45.752726,16.5432922 45.7593627,16.5724287 45.780872,16.5724287 C45.812696,16.5404026 45.812696,16.5083766 45.8446001,16.4764308 C45.9721363,16.4444048 45.9721363,16.4444048 45.9721363,16.4764308 C46.3229208,16.3163809 45.812696,16.4123788 46.2272087,16.2843549 C46.1953047,16.3163809 46.2272087,16.3163809 46.1634007,16.3483267 C46.5779133,16.1882768 46.9605219,15.9962811 47.3750345,15.9642551 C47.5025708,16.0283072 47.02433,16.0602529 47.1836903,16.124305 C47.6964738,15.9729238 48.2942547,15.8236295 48.8432601,15.8347864 C48.9404115,15.710214 49.2576129,15.9002833 49.54323,15.9002833 C49.4795018,15.9002833 49.4475978,15.9643353 49.4795018,15.9643353 C49.8621105,16.0283874 50.2766231,16.0603331 50.850576,16.1884373 L50.7549439,16.1884373 C50.9781922,16.2844351 51.3288967,16.412459 51.5202411,16.5404829 C51.6158732,16.5404829 51.7115853,16.6045349 51.6796813,16.5404829 C51.9666578,16.7965306 52.2855382,16.9565805 52.6043388,17.1806022 C52.8913152,17.3726781 53.1782916,17.5966998 53.369636,17.8847736 C53.3059078,17.8208018 53.2101957,17.7567497 53.2740038,17.8208018 C53.40154,17.9488257 53.5290762,18.1088756 53.6885164,18.2368994 C53.7203405,18.1728473 53.6566123,18.1728473 53.6247883,18.0448235 C53.6885164,18.0768495 53.8160526,18.2048734 53.9117647,18.3008712 C53.7204204,18.1087953 53.8479567,18.3649233 53.8798607,18.4609211 C53.8798607,18.4288951 53.9117647,18.4609211 53.9436688,18.4288951 C54.039301,18.7489949 54.071205,18.3968691 54.2306452,18.7809407 L54.1988211,18.7809407 C54.2944533,18.9089646 54.3901655,19.0049624 54.4857976,19.1650123 C54.4539736,19.2610903 54.3901655,19.0369884 54.3263574,19.0369884 C54.4538935,19.2290643 54.6451579,19.389034 54.6770619,19.613136 C54.6133338,19.5171381 54.5495257,19.3891142 54.4857176,19.3250622 C54.5176217,19.5811099 54.5495257,19.5811099 54.6132538,19.7411598 L54.6132538,19.7731858 C54.6450779,19.8372379 54.6450779,19.9012097 54.6450779,19.9652617 C54.6450779,19.9332357 54.6450779,19.9012097 54.6132538,19.8692639 C54.6450779,19.9652617 54.6450779,20.0293138 54.6770619,20.1253116 L54.6770619,20.0293138 C54.9640384,20.2534158 54.8683262,20.6054614 55.1234786,20.9575069 C54.9959424,20.797457 54.9959424,20.765431 54.9640384,20.797457 C54.9640384,20.829483 54.9958625,20.9254809 54.9321343,20.8935351 C54.9640384,21.021559 55.0596706,21.1816089 54.9959424,21.1495829 C55.0915745,21.213635 55.1553826,21.3096328 55.2191907,21.3736849 C55.2829189,21.4377369 55.378631,21.5337347 55.5698953,21.5337347 C55.5698953,21.5657607 55.7931437,21.6297326 55.7293356,21.6617586 C56.016312,21.7258106 55.6655275,21.5977868 55.6974315,21.5657607 C55.9206798,21.5977868 56.1438482,21.6298128 56.4308247,21.5977868 C56.5583609,21.5657607 56.7178011,21.5017087 56.8134333,21.4697629 C56.9409695,21.4057108 57.0366816,21.341739 57.1642178,21.277687 C57.5468264,21.053585 57.6106345,20.9575872 57.9613391,20.7975373 C57.9931632,20.7975373 58.0250672,20.7655113 58.0569713,20.7655113 C58.1206993,20.7655113 57.929435,20.8935351 57.929435,20.8935351 C58.1526034,20.8615091 58.3439476,20.797457 58.535292,20.7334852 C58.5033879,20.7655113 58.535292,20.7655113 58.6309241,20.7975373 C58.7903644,20.7655113 58.7265563,20.6695135 58.9816287,20.6695135 C58.9498046,20.7015395 58.8859965,20.7334852 58.8221884,20.7975373 C59.0135328,20.7334852 59.2047971,20.6695135 59.4280454,20.6374874 C59.4918535,20.6695135 59.3005092,20.7015395 59.2367011,20.7334852 C59.4599495,20.6695135 59.8425581,20.6695135 59.9381902,20.6054614 L59.8188899,20.5815421 C59.8455965,20.5985585 59.796821,20.6374874 59.7468459,20.6374874 C59.5555016,20.7015395 59.4598694,20.6374874 59.4279655,20.6054614 L59.5874057,20.5734353 C59.4279655,20.4454115 58.9496447,20.6374071 58.6627482,20.7014592 L58.7583803,20.6054614 C59.4916136,20.3173876 60.2888149,20.3494136 61.0859361,20.6374874 C61.054032,20.6695135 61.022128,20.7015395 61.022128,20.7334852 C60.990304,20.7334852 60.990304,20.7014592 60.9264959,20.7014592 L60.8308637,20.765431 L61.022208,20.797457 C61.022208,20.8614289 61.086016,20.9254809 61.2772803,21.0535047 C61.3729125,21.0855308 61.5005287,21.1175568 61.5961609,21.1495829 L61.659889,21.2455807 C61.5961609,21.1815286 61.5004487,21.1495829 61.4366407,21.1175568 C61.5322728,21.2455807 61.627985,21.2455807 61.7555211,21.2776067 C61.7555211,21.3096328 61.7874252,21.3416588 61.8192493,21.4056306 C61.9148814,21.4376566 62.0105936,21.5016284 62.1062258,21.5336544 C62.1062258,21.5977065 61.9467855,21.5016284 62.0743217,21.6616783 C62.2018579,21.7257304 62.0743217,21.5016284 62.2337619,21.6616783 C62.265586,21.8217282 62.2337619,21.7897022 62.3612981,21.917726 C62.3612981,21.9497521 62.3293941,21.917726 62.265666,21.8857 C62.3932021,22.0137239 62.4570102,22.2378259 62.5526424,22.3017976 C62.5526424,22.3977955 62.5845465,22.5258996 62.6164505,22.6218974 C62.6482746,22.7499213 62.6482746,22.8139734 62.5845465,22.8139734 C62.6164505,22.8459994 62.7120827,23.0700211 62.7120827,23.230071 C62.6483545,23.1020472 62.6483545,23.230071 62.6483545,23.3901209 C62.6483545,23.5501708 62.6164505,23.7421665 62.5527224,23.7102207 C62.6397988,23.914176 62.4893141,24.35636 62.3893641,24.6754966 C62.3908833,24.673811 62.391603,24.6721255 62.3932822,24.6704399 C62.3913631,24.6743729 62.389604,24.6772624 62.3876849,24.6810349 C62.3784896,24.7105727 62.369534,24.7393881 62.3614581,24.7664377 C62.3614581,24.7525517 62.3619378,24.7386658 62.3644965,24.7246995 C62.2845366,24.8688567 62.2272052,24.9044947 62.1701138,24.9904594 C62.2020178,25.0224854 62.2020178,25.1184832 62.1701138,25.214481 C62.1382897,25.3105592 62.0744816,25.438583 62.0744816,25.5345809 C61.8512333,25.6946308 62.0744816,25.3425049 61.9469454,25.374531 C62.0107534,25.406557 61.7875051,25.7906286 61.8832173,25.7586025 C61.7237771,25.8866264 61.7556811,25.8866264 61.6281449,25.8866264 C61.691873,25.9826243 61.5325127,26.0466763 61.4687046,26.2067262 C61.2136322,26.3667761 61.3411684,26.1747002 61.1498241,26.4308282 C61.022288,26.4948 61.1817282,26.3028044 61.1817282,26.3028044 C60.9584799,26.5269063 61.1498241,26.4628543 61.1179201,26.5588521 C60.9903839,26.6868759 60.9584799,26.718902 60.9265758,26.6868759 C60.8947517,26.6868759 60.8947517,26.6229042 60.8309436,26.6548499 C60.6715034,26.8148998 60.5758713,27.0068954 60.416431,27.0709475 C60.3845269,27.0709475 60.3526229,27.0709475 60.3845269,27.0389215 C60.2888948,27.1349193 60.1294546,27.2309974 59.9700143,27.3269953 C59.8105741,27.4229931 59.6193097,27.4870452 59.5235976,27.615069 C59.4917735,27.615069 59.4917735,27.615069 59.4917735,27.615069 C59.5555816,27.6470951 59.5874057,27.6791211 59.5874057,27.7110668 C59.4598694,27.7751189 59.3641574,27.8711168 59.3004292,27.8390907 C59.3960614,27.8070647 59.3960614,27.7751189 59.4279655,27.7430929 L59.3004292,27.807145 C59.140989,27.7751189 59.4917735,27.7110668 59.4598694,27.6470951 C59.2047971,27.7751189 58.8859166,27.9671949 58.6627482,27.9671949 C58.6308442,27.9351688 58.7583803,27.9031428 58.8540925,27.8711168 C58.9497247,27.8390907 59.0135328,27.807145 58.8540925,27.807145 L59.2047971,27.7110668 C58.9178206,27.6790408 59.3961414,27.6470951 59.141069,27.615069 C58.9178206,27.6791211 58.8221884,27.7430929 58.6946523,27.7751189 C58.567116,27.807145 58.471404,27.8711168 58.2482356,27.9031428 C58.1526034,27.9671949 58.2800596,27.9671949 58.2164115,28.0311667 C57.5786505,28.2232426 57.7062666,27.9031428 57.2279459,28.0631927 C57.1004097,28.1271645 57.0685057,28.2552687 56.7178011,28.1912166 L56.8453373,28.0952188 C56.3989206,28.0631927 56.5902649,28.2552687 56.1438482,28.1272448 C56.2394804,28.0952188 56.4946328,28.1272448 56.4308247,28.0952188 C56.1438482,27.9992209 56.2075764,28.1272448 55.984408,28.1272448 L55.9525839,28.0312469 C55.7293356,28.0312469 55.4742632,27.9992209 55.2191907,27.9672751 C54.9641183,27.9352491 54.7090459,27.8711971 54.4538935,27.8392513 C54.4857976,27.8392513 54.5814298,27.8392513 54.4857976,27.7751992 C54.3263574,27.7431732 54.1669172,27.6792013 54.0074769,27.6151493 C53.9437488,27.5831233 53.8161326,27.5511775 53.6885964,27.5191514 C53.5610602,27.4871254 53.465428,27.5191514 53.3378918,27.5191514 C52.8914751,27.5832035 52.5088665,27.8711971 52.2856182,28.1912968 L52.189986,28.4153186 C52.158082,28.4473446 52.0943539,28.4793706 52.1261779,28.4153186 C51.9667377,28.6073944 52.158082,28.4473446 52.0943539,28.5753685 C51.9987217,28.7033923 51.9668176,28.7033923 51.9987217,28.6073944 C51.9349136,28.7033923 51.8711855,28.8314162 51.8073774,28.9274942 C51.7117452,29.0234921 51.6160331,29.1515962 51.520401,29.2796201 C51.4247688,29.407644 51.3290567,29.5036418 51.2016004,29.5997199 C51.0739843,29.695798 50.9783521,29.7597698 50.8827199,29.8238218 L50.946448,29.7597698 C50.7870078,29.8557676 50.7551038,29.9518457 50.6913757,30.0478436 C50.6275676,30.1439216 50.5638394,30.2078935 50.4043992,30.2719455 L50.4363033,30.2399195 C50.276863,30.3359174 50.0855986,30.4319954 49.9261584,30.5600193 C49.7667182,30.6560171 49.5754539,30.7520952 49.4160136,30.816067 C49.065309,31.008143 48.7145245,31.0721147 48.4275481,31.1361668 C48.3638199,31.2962167 47.6623308,31.2641907 47.6623308,31.4242406 C47.4390825,31.4562666 47.3434503,31.4242406 47.2478182,31.4242406 C47.152186,31.4242406 47.0245699,31.3922145 46.7057693,31.4242406 C46.5463291,31.4242406 46.4506969,31.5202384 46.2593526,31.5202384 L46.2593526,31.4561864 L45.9723762,31.5202384 L45.84484,31.4242406 L45.6534957,31.4242406 C45.7172238,31.4242406 45.8129359,31.4882124 45.8129359,31.4882124 C45.4940554,31.4882124 45.0796227,31.3281625 45.0796227,31.2961365 C44.8563744,31.2961365 44.601302,31.2320844 44.3781336,31.2001386 C44.4100377,31.1681126 44.5056699,31.2001386 44.6013819,31.2001386 C44.2187734,31.1681126 44.5695579,31.1041408 44.2187734,31.1041408 C44.2506774,31.1361668 44.1868693,31.1361668 44.1550452,31.1681126 C43.995605,31.0721147 43.6449004,30.9120649 43.357844,30.8480128 L43.4216521,30.8159868 C43.1984037,30.6879629 42.9434113,30.5919651 42.688259,30.4639412 C42.4331866,30.3359174 42.2100182,30.1438414 41.9548658,29.9838717 C42.114306,30.1118956 42.0186739,30.1759477 41.8592336,30.0798696 L41.8592336,29.9838717 C41.7316975,29.9518457 41.9867699,30.1118956 41.7636015,30.0158978 C41.6041612,29.8558479 41.6998734,29.8558479 41.8274096,29.9199 L41.6041612,29.7598501 C41.6041612,29.727824 41.6678894,29.7598501 41.6997934,29.7598501 C41.5722572,29.727824 41.4128169,29.4078045 41.2533767,29.3437524 L41.2533767,29.3117264 C41.0620325,29.0876245 40.9344962,28.9276548 40.7751359,28.7996309 C40.6475998,28.6716071 40.4881595,28.4795311 40.2649911,28.2875355 C40.201263,28.3195615 40.0417428,28.1915377 39.8185744,28.1915377 C39.6272301,28.0954595 39.3721577,28.0635138 39.1170853,28.0954595 C38.9895491,28.1274856 38.8620129,28.1595116 38.7663808,28.1915377 C38.6707486,28.2235637 38.5750365,28.2555897 38.4794043,28.3195615 C38.2243319,28.4796114 38.4156761,28.4155593 38.3199641,28.5116374 C38.28814,28.4476656 37.8735474,28.6076353 38.0648917,28.4796114 C37.5865709,28.6396613 37.4590347,28.6716873 36.8213537,28.7676852 C36.8850818,28.7997112 36.980794,28.7997112 36.9488899,28.831657 C36.8264712,28.8623988 36.7051718,28.834065 36.6956566,28.8034034 C36.5143073,28.8305333 36.333038,28.8299714 36.1517686,28.7996309 C35.9604243,28.7676049 35.7690801,28.7355788 35.5778158,28.6716071 C35.3865514,28.6076353 35.1952071,28.5756092 35.0357669,28.5115572 C34.8763267,28.4795311 34.7168864,28.4155593 34.5574461,28.3835333 L34.5893502,28.3835333 C34.3980059,28.3515072 34.2067416,28.2875355 34.0153973,28.2234834 C33.7921489,28.0954595 34.1748376,28.2555094 34.0153973,28.1274856 C33.4093804,27.9348478 33.154228,27.5828022 32.7397154,27.2947284 Z M33.5686607,52.7088706 C33.5686607,52.6768446 33.6005648,52.6448988 33.6005648,52.6128727 C33.6324688,52.6769248 33.6643729,52.7408966 33.696197,52.8049487 C33.6643729,52.8048684 33.6324688,52.7729226 33.5686607,52.7088706 Z" id="Shape"></path>
                </g>
            </g>
        </g>
    </g>
</svg>