<?xml version="1.0" encoding="UTF-8"?>
<svg width="80px" height="80px" viewBox="0 0 80 80" version="1.1" xmlns="http://www.w3.org/2000/svg" xmlns:xlink="http://www.w3.org/1999/xlink">
    <title>2C25B874-D371-4340-ACCC-119069B70A28</title>
    <defs>
        <polygon id="path-1" points="0 0 4 0 4 26 0 26"></polygon>
    </defs>
    <g id="Nuovi-moduli" stroke="none" stroke-width="1" fill="none" fill-rule="evenodd">
        <g id="Desktop---Calendario-v2" transform="translate(-827.000000, -2489.000000)">
            <g id="icon/calendar-copy-2" transform="translate(818.652447, 2489.000000)">
                <g id="Group-18" transform="translate(45.564767, 40.168557) rotate(20.000000) translate(-45.564767, -40.168557) translate(6.313557, 14.787904)">
                    <path d="M41.0909137,37.2664068 C32.3889126,37.2664068 25.0934552,35.8009546 23.074907,33.8238921 C22.9062008,33.9697294 22.7730532,34.1028236 22.6711183,34.2160953 C23.8504815,36.4499069 31.6445508,38.1763558 41.0909137,38.1763558 C51.3523609,38.1763558 59.6711183,36.1393537 59.6711183,33.6275546 C59.6711183,33.4751098 59.63714,33.3245529 59.5770854,33.1763558 C58.6375458,35.4729388 50.7202064,37.2664068 41.0909137,37.2664068" id="Fill-1" fill="#003478"></path>
                    <path d="M69.8113034,10.9682685 C69.8588182,11.1824132 69.8874013,11.3660884 69.9063329,11.4952619 C69.9141283,11.5544843 69.9204389,11.6004031 69.9248934,11.6347349 C70.1012177,13.6834861 69.9876277,16.9029522 69.9345448,18.1200151 C70.4857902,18.288241 70.8221056,19.0246585 71.0088238,19.8632132 L78.5024204,18.0607928 C78.5024204,18.0607928 78.5024204,17.1621575 72.3949183,12.5406657 C71.8856195,12.1548619 71.2983668,11.7364429 70.65766,11.2961374 C70.6543191,11.2854087 70.6517207,11.2768257 70.6483798,11.2652387 C70.6045771,11.1274823 70.540358,10.9313618 70.4475557,10.7004803 C70.3554959,10.470028 68.66501,10.1275681 68.5024204,9.86321315" id="Stroke-3" stroke="#003478" stroke-width="1.2" stroke-linecap="round" stroke-linejoin="round"></path>
                    <path d="M68.7856004,17.4177955 C68.8495304,17.3844515 68.9111357,17.35609 68.9719661,17.3315612 C68.9975381,16.0660249 69.0645677,11.7872706 68.8200838,10.822213 C68.7177958,10.4178699 68.4992714,10.1089595 68.2609868,9.87670177 C60.5440523,5.60982863 48.5635669,9.09494702e-13 48.5635669,9.09494702e-13 C48.5635669,9.09494702e-13 44.2752187,2.06387424 33.6120791,5.04489815 C22.9489394,8.02553881 0,13.2996286 0,13.2996286 C4.86798033,17.1978022 21.3162634,23 21.3162634,23 C21.3162634,23 20.7466471,19.1466973 20.978345,17.4269938 C21.2104304,15.7072902 23.8761184,13.4142244 27.7010708,12.2678831 C31.5256357,11.1211585 41.0012268,8.03320408 50.7658591,9.74524237 C58.0286967,11.0188272 61.7765456,16.3952483 61.7765456,16.3952483 L61.4286113,20.7518051 L67.5914651,19.483586" id="Stroke-5" stroke="#003478" stroke-width="1.5" stroke-linecap="round" stroke-linejoin="round"></path>
                    <path d="M69.3971441,18.6056995 C69.3971441,18.6056995 69.441728,19.0355495 69.5032731,19.7884893 C69.5444648,20.3630273 69.610856,21.1262686 69.676278,22.028579 C69.723285,22.0257695 69.7698073,22.0201505 69.8163296,22.0178093 C69.968981,22.0098491 71.0268792,22.3427721 70.9929566,22.5113408 C71.0230023,22.361502 71.044325,22.1662433 71.0545018,21.9400804 C71.1315544,20.2267677 70.5757096,16.7528494 68.4298675,17.9501548 C66.7293798,18.8992898 66.9862217,21.1393795 67.260025,22.7042582 C67.5406127,22.2776859 68.1235956,22.1643704 68.6435794,22.1091173 C68.8752218,22.0847685 69.1073488,22.0716576 69.3394758,22.0548008 C69.3462603,21.1435937 69.3637062,20.371924 69.3680676,19.7927035 C69.3801828,19.0374224 69.3971441,18.6056995 69.3971441,18.6056995" id="Fill-7" fill="#003478"></path>
                    <path d="M69.4229039,25.1165479 C70.0462336,25.3719012 70.2885594,25.6641924 70.2885594,25.6641924 L70.1542148,22.2851774 C70.1542148,22.2851774 69.7927125,21.8729719 69.2885594,21.6641924 C69.2896428,21.689353 69.2907262,21.7129076 69.2918096,21.7380682 C69.33623,22.7589462 69.3806504,23.9002738 69.4229039,25.1165479" id="Fill-9" fill="#003478"></path>
                    <path d="M69.9642208,20.9216787 C69.3570938,20.8233636 68.6488533,20.9766505 68.0319268,21.8207857 L67.9766929,24.8955099 C67.9766929,24.8955099 69.1031963,24.3024481 69.9766929,24.3198911 C69.9664479,23.1623106 69.9619936,22.0750306 69.9642208,21.0976943 C69.9642208,21.0379653 69.9642208,20.9808791 69.9642208,20.9216787" id="Fill-11" fill="#003478"></path>
                    <g id="Group-15" transform="translate(67.066512, 24.761307)">
                        <mask id="mask-2" fill="white">
                            <use xlink:href="#path-1"></use>
                        </mask>
                        <g id="Clip-14"></g>
                        <path d="M3.70462859,3.68848139 C3.69743859,3.08607167 4.03446967,1.37495463 3.67047611,0.842115591 C3.67047611,0.842115591 3.33704003,0.355522964 2.68769348,0.121878074 C2.69757973,0.308874415 2.70791535,0.497077183 2.71735222,0.687692807 C2.75105532,1.38138891 2.78520781,2.09840928 2.82025904,2.82668965 C2.8494684,3.55497002 2.87912713,4.29531468 2.90878587,5.03525718 C2.93080523,5.77560183 2.9528246,6.51594648 2.97484396,7.244629 C3,7.97331151 3.00585082,8.69073403 3.02202831,9.38483227 C3.04764267,10.7734309 3.05842767,12.0699389 3.05528205,13.1810591 C3.05797829,14.2925814 3.03101581,15.2195202 3.02607269,15.8677742 C3.01438894,16.5164303 2.99866082,16.887608 2.99866082,16.887608 C2.99866082,16.887608 2.95686897,16.5180389 2.90024775,15.8713935 C2.84991777,15.2243459 2.7586947,14.3010264 2.68364911,13.1915148 C2.60276165,12.0824053 2.52277294,10.7883102 2.45177173,9.40091798 C2.41941674,8.70722188 2.37537802,7.99060365 2.34976365,7.26192113 C2.32055429,6.53364076 2.29089556,5.79329611 2.2616862,5.0533536 C2.23966683,4.31300895 2.21764747,3.5726643 2.19562811,2.84398179 C2.17989999,2.11529928 2.16417187,1.39787676 2.14889313,0.703778514 C2.14484876,0.467720768 2.14080438,0.235684449 2.13765876,0.00565884336 C1.59930778,-0.0333489954 0.922100003,0.122280217 0.11097854,0.692518519 C-0.174823815,0.893589853 0.180631629,3.2248109 0.18916975,3.53767789 C0.252980968,5.8516068 0.316792185,8.16593785 0.380603403,10.4802689 C0.439920873,12.6269065 0.562600186,14.7835976 0.450705867,16.9233987 C0.40576839,17.7908204 0.368020909,18.6956414 0.765717582,19.4878625 C0.949511864,19.8538123 1.21913673,20.1791457 1.45011536,20.5233799 C2.53984918,22.1468298 2.73083346,24.112101 2.89485525,26.0001609 C4.59394126,20.9130561 3.84438414,15.3735409 3.78192105,10.1396541 C3.75630669,7.98899507 3.73024295,5.83873823 3.70462859,3.68848139" id="Fill-13" fill="#003478" mask="url(#mask-2)"></path>
                    </g>
                    <path d="M49.7544501,27.3954106 C54.8194967,28.1826667 59.5305052,30.5487539 59.5305052,30.5487539 L60.5812994,15.7491253 C60.5812994,15.7491253 59.4087193,14.6748448 56.8406751,12.7979949 C54.5567981,11.3605164 52.1142399,9.94240227 47.3866501,9.5241091 C39.3697914,8.8147842 34.8781519,9.94240227 29.2877741,11.8729199 C23.6973962,13.8034376 22.2015469,15.2888552 21.8914232,16.3472572 C21.5812994,17.4056593 21.5812994,19.0379317 21.5812994,19.0379317 L22.6320936,32.3105584 C22.6320936,32.3105584 23.7757886,28.5317293 30.6781637,27.3954106 C30.6781637,27.3954106 42.8516847,26.322308 49.7544501,27.3954106 Z" id="Stroke-16" stroke="#003478" stroke-width="1.5" stroke-linecap="round" stroke-linejoin="round"></path>
                </g>
            </g>
        </g>
    </g>
</svg>