<?xml version="1.0" encoding="UTF-8"?>
<svg width="56px" height="56px" viewBox="0 0 56 56" version="1.1" xmlns="http://www.w3.org/2000/svg" xmlns:xlink="http://www.w3.org/1999/xlink">
    <title>F8FC224A-6FA3-4CDB-84E8-E93B7A986FD8</title>
    <defs>
        <filter color-interpolation-filters="auto" id="filter-1">
            <feColorMatrix in="SourceGraphic" type="matrix" values="0 0 0 0 0.000000 0 0 0 0 0.203922 0 0 0 0 0.470588 0 0 0 1.000000 0"></feColorMatrix>
        </filter>
    </defs>
    <g id="Nuovi-moduli" stroke="none" stroke-width="1" fill="none" fill-rule="evenodd">
        <g id="Desktop---Archivio-bilancio" transform="translate(-720.000000, -2548.000000)">
            <g id="Desktop/Download_File/white-Copy-40" transform="translate(720.000000, 2542.000000)">
                <g id="icon_download_white" transform="translate(0.000000, 6.000000)">
                    <rect id="bg_download" fill="#FFFFFF" x="0" y="0" width="56" height="56" rx="4"></rect>
                    <g id="picture_as_pdf_black_24dp" transform="translate(9.000000, 9.000000)" filter="url(#filter-1)">
                        <g transform="translate(1.583333, 1.583333)">
                            <path d="M30.4791667,0 L4.35416667,0 C1.959375,0 0,1.959375 0,4.35416667 L0,30.4791667 C0,32.8739583 1.959375,34.8333333 4.35416667,34.8333333 L30.4791667,34.8333333 C32.8739583,34.8333333 34.8333333,32.8739583 34.8333333,30.4791667 L34.8333333,4.35416667 C34.8333333,1.959375 32.8739583,0 30.4791667,0 Z M11.9739583,16.328125 C11.9739583,18.1351042 10.5153125,19.59375 8.70833333,19.59375 L6.53125,19.59375 L6.53125,23.9479167 L3.265625,23.9479167 L3.265625,10.8854167 L8.70833333,10.8854167 C10.5153125,10.8854167 11.9739583,12.3440625 11.9739583,14.1510417 L11.9739583,16.328125 Z M22.859375,20.6822917 C22.859375,22.4892708 21.4007292,23.9479167 19.59375,23.9479167 L14.1510417,23.9479167 L14.1510417,10.8854167 L19.59375,10.8854167 C21.4007292,10.8854167 22.859375,12.3440625 22.859375,14.1510417 L22.859375,20.6822917 Z M31.5677083,14.1510417 L28.3020833,14.1510417 L28.3020833,16.328125 L31.5677083,16.328125 L31.5677083,19.59375 L28.3020833,19.59375 L28.3020833,23.9479167 L25.0364583,23.9479167 L25.0364583,10.8854167 L31.5677083,10.8854167 L31.5677083,14.1510417 Z M6.53125,16.328125 L8.70833333,16.328125 L8.70833333,14.1510417 L6.53125,14.1510417 L6.53125,16.328125 Z M17.4166667,20.6822917 L19.59375,20.6822917 L19.59375,14.1510417 L17.4166667,14.1510417 L17.4166667,20.6822917 Z" id="Shape" fill="#FFFFFF" fill-rule="nonzero"></path>
                        </g>
                    </g>
                </g>
            </g>
        </g>
    </g>
</svg>