<?xml version="1.0" encoding="UTF-8"?>
<svg width="56px" height="57px" viewBox="0 0 56 57" version="1.1" xmlns="http://www.w3.org/2000/svg" xmlns:xlink="http://www.w3.org/1999/xlink">
    <title>717F2BB4-0E28-4D19-871F-D53EA36DA554</title>
    <defs>
        <filter color-interpolation-filters="auto" id="filter-1">
            <feColorMatrix in="SourceGraphic" type="matrix" values="0 0 0 0 0.000000 0 0 0 0 0.203922 0 0 0 0 0.470588 0 0 0 1.000000 0"></feColorMatrix>
        </filter>
    </defs>
    <g id="Nuovi-moduli" stroke="none" stroke-width="1" fill="none" fill-rule="evenodd">
        <g id="Desktop---Archivio-bilancio" transform="translate(-230.000000, -2452.000000)">
            <g id="Desktop/Download_File/white-Copy-30" transform="translate(230.000000, 2446.200000)">
                <g id="icon_download_white" transform="translate(0.000000, 6.000000)">
                    <rect id="bg_download" fill="#FFFFFF" x="0" y="0" width="56" height="56" rx="4"></rect>
                    <g id="language_black_24dp-copy-2" transform="translate(9.000000, 9.000000)" filter="url(#filter-1)">
                        <g transform="translate(1.583333, 1.583333)">
                            <path d="M17.39925,0 C7.78525,0 0,7.80266667 0,17.4166667 C0,27.0306667 7.78525,34.8333333 17.39925,34.8333333 C27.0306667,34.8333333 34.8333333,27.0306667 34.8333333,17.4166667 C34.8333333,7.80266667 27.0306667,0 17.39925,0 Z M29.469,10.45 L24.3310833,10.45 C23.77375,8.27291667 22.9725833,6.18291667 21.9275833,4.24966667 C25.13225,5.34691667 27.797,7.57625 29.469,10.45 Z M17.4166667,3.553 C18.86225,5.643 19.9943333,7.95941667 20.74325,10.45 L14.0900833,10.45 C14.839,7.95941667 15.9710833,5.643 17.4166667,3.553 Z M3.93616667,20.9 C3.6575,19.7853333 3.48333333,18.6184167 3.48333333,17.4166667 C3.48333333,16.2149167 3.6575,15.048 3.93616667,13.9333333 L9.823,13.9333333 C9.68366667,15.0828333 9.57916667,16.2323333 9.57916667,17.4166667 C9.57916667,18.601 9.68366667,19.7505 9.823,20.9 L3.93616667,20.9 Z M5.36433333,24.3833333 L10.50225,24.3833333 C11.0595833,26.5604167 11.86075,28.6504167 12.90575,30.5836667 C9.70108333,29.4864167 7.03633333,27.2745 5.36433333,24.3833333 L5.36433333,24.3833333 Z M10.50225,10.45 L5.36433333,10.45 C7.03633333,7.55883333 9.70108333,5.34691667 12.90575,4.24966667 C11.86075,6.18291667 11.0595833,8.27291667 10.50225,10.45 L10.50225,10.45 Z M17.4166667,31.2803333 C15.9710833,29.1903333 14.839,26.8739167 14.0900833,24.3833333 L20.74325,24.3833333 C19.9943333,26.8739167 18.86225,29.1903333 17.4166667,31.2803333 Z M21.4921667,20.9 L13.3411667,20.9 C13.1844167,19.7505 13.0625,18.601 13.0625,17.4166667 C13.0625,16.2323333 13.1844167,15.0654167 13.3411667,13.9333333 L21.4921667,13.9333333 C21.6489167,15.0654167 21.7708333,16.2323333 21.7708333,17.4166667 C21.7708333,18.601 21.6489167,19.7505 21.4921667,20.9 Z M21.9275833,30.5836667 C22.9725833,28.6504167 23.77375,26.5604167 24.3310833,24.3833333 L29.469,24.3833333 C27.797,27.2570833 25.13225,29.4864167 21.9275833,30.5836667 L21.9275833,30.5836667 Z M25.0103333,20.9 C25.1496667,19.7505 25.2541667,18.601 25.2541667,17.4166667 C25.2541667,16.2323333 25.1496667,15.0828333 25.0103333,13.9333333 L30.8971667,13.9333333 C31.1758333,15.048 31.35,16.2149167 31.35,17.4166667 C31.35,18.6184167 31.1758333,19.7853333 30.8971667,20.9 L25.0103333,20.9 Z" id="Shape" fill="#FFFFFF" fill-rule="nonzero"></path>
                        </g>
                    </g>
                </g>
            </g>
        </g>
    </g>
</svg>