<?xml version="1.0" encoding="UTF-8"?>
<svg width="56px" height="57px" viewBox="0 0 56 57" version="1.1" xmlns="http://www.w3.org/2000/svg" xmlns:xlink="http://www.w3.org/1999/xlink">
    <title>F10E4594-B475-4034-8EA7-BB917EF69244</title>
    <g id="Nuovi-moduli" stroke="none" stroke-width="1" fill="none" fill-rule="evenodd">
        <g id="Desktop---Archivio-bilancio" transform="translate(-230.000000, -2548.000000)">
            <g id="Desktop/Download_File/white-Copy-26" transform="translate(230.000000, 2542.200000)">
                <g id="icon_download_white" transform="translate(0.000000, 6.000000)">
                    <rect id="bg_download" fill="#FFFFFF" x="0" y="0" width="56" height="56" rx="4"></rect>
                    <g id="Icon/download" transform="translate(9.000000, 9.000000)" fill="#003478">
                        <path d="M17.5319999,0.0336863337 C9.27544946,0.569152996 3.0225807,7.8065895 3.0225807,16.0804131 L3.0225807,27.6361291 C3.0225807,30.5034667 5.33717853,32.8180646 8.20451614,32.8180646 L9.93182795,32.8180646 C11.8318709,32.8180646 13.3864516,31.2634839 13.3864516,29.3634409 L13.3864516,22.4541937 C13.3864516,20.5541507 11.8318709,18.99957 9.93182795,18.99957 L6.47720433,18.99957 L6.47720433,16.0458668 C6.47720433,9.41298948 11.5900473,3.64376802 18.2056515,3.45376372 C25.0630794,3.26375943 30.6595697,8.73933788 30.6595697,15.5449464 L30.6595697,18.99957 L27.2049461,18.99957 C25.3049031,18.99957 23.7503225,20.5541507 23.7503225,22.4541937 L23.7503225,29.3634409 C23.7503225,31.2634839 25.3049031,32.8180646 27.2049461,32.8180646 L30.6595697,32.8180646 L30.6595697,34.5453764 L20.2956988,34.5453764 C19.3456773,34.5453764 18.568387,35.3226667 18.568387,36.2726882 C18.568387,37.2227097 19.3456773,38 20.2956988,38 L28.9322579,38 C31.7995955,38 34.1141933,35.6854022 34.1141933,32.8180646 L34.1141933,15.5449464 C34.1141933,6.61474434 26.5831138,-0.553599683 17.5319999,0.0336863337 Z" id="Path"></path>
                    </g>
                </g>
            </g>
        </g>
    </g>
</svg>