<?xml version="1.0" encoding="UTF-8"?>
<svg width="17px" height="24px" viewBox="0 0 17 24" version="1.1" xmlns="http://www.w3.org/2000/svg" xmlns:xlink="http://www.w3.org/1999/xlink">
    <title>2F03E12E-B8CB-47FA-A91E-2CE3518F99B6</title>
    <defs>
        <path d="M22.5413431,5.5492025 C22.5413431,5.69485822 22.613591,5.62203036 22.6858389,5.76768607 C22.5413431,5.69485822 22.3968473,5.62203036 22.2523515,5.47637465 C22.613591,5.62203036 22.3245994,5.40354679 22.2523515,5.25789107 C22.2523515,5.33071893 22.1801036,5.25789107 22.1801036,5.33071893 C21.8911121,4.96657965 22.0356078,5.40354679 21.6743684,4.96657965 L21.6743684,4.96657965 C21.0963852,4.5296125 21.3131289,4.67526822 20.59065,4.16547322 C20.8073936,4.23830107 20.8796415,4.38395679 21.0241373,4.38395679 C20.8796415,4.23830107 20.7351457,4.09264536 20.59065,3.94698965 L20.3016584,3.72850607 C19.868171,3.65567822 19.5791794,3.29153893 19.0734442,3.07305536 C19.7959231,3.29153893 18.9289484,2.85457179 19.0734442,2.78174393 C18.9289484,2.63608822 18.2787173,2.34477679 18.2064694,2.19912107 C18.0619736,2.4904325 17.3394947,1.68932607 16.47252,1.39801465 C16.1112805,1.17953107 14.8108184,0.961047503 15.3165537,0.961047503 C15.09981,0.815391789 14.8108184,0.669736075 14.5218268,0.524080361 C14.5218268,0.305596789 14.3050831,0.378424646 14.0883394,0.305596789 C14.1605873,0.305596789 14.2328352,0.305596789 14.3050831,0.378424646 C14.2328352,0.305596789 14.1605873,0.305596789 14.0883394,0.232768932 L14.2328352,0.232768932 C14.0160915,0.0871132177 13.2936126,0.0142853606 13.2213647,0.0142853606 C13.2213647,0.0142853606 13.1491168,0.0142853606 13.1491168,0.0142853606 C13.004621,-0.0585424965 12.6433816,0.159941075 12.5711337,0.378424646 C12.1376463,0.669736075 12.0653984,1.25235893 12.7156294,1.68932607 L12.7878773,1.68932607 C12.6433816,1.83498179 12.4988858,1.68932607 12.35439,1.76215393 L12.6433816,1.90780965 C12.5711337,2.19912107 13.3658605,2.34477679 13.5826042,2.4904325 L13.2213647,2.34477679 C13.6548521,2.70891607 14.2328352,2.78174393 14.377331,3.07305536 C14.5940747,3.14588322 14.2328352,2.92739965 14.5940747,3.0002275 C14.6663226,3.14588322 14.9553142,3.29153893 14.8830663,3.29153893 C15.09981,3.36436679 15.3888015,3.5100225 15.4610494,3.5100225 C15.4610494,3.58285036 15.8222889,3.65567822 15.5332973,3.65567822 C15.6777931,3.65567822 15.750041,3.72850607 15.8945368,3.80133393 C15.6777931,3.72850607 15.5332973,3.80133393 15.3888015,3.65567822 C15.750041,3.80133393 14.6663226,3.80133393 14.1605873,3.94698965 C14.1605873,3.94698965 14.2328352,3.87416179 14.3050831,3.87416179 C13.7271,3.65567822 12.6433816,4.38395679 12.8601252,3.94698965 C12.7156294,4.0198175 12.2098942,4.09264536 12.35439,4.09264536 C11.9931505,4.0198175 12.0653984,4.09264536 11.9931505,4.0198175 C11.9931505,4.09264536 11.8486547,4.16547322 11.7041589,4.16547322 L11.631911,4.16547322 C11.0539279,4.31112893 10.5481926,4.38395679 10.0424573,4.38395679 L10.1869531,4.31112893 C9.68121787,4.38395679 9.68121787,4.5296125 9.10323472,4.5296125 L9.17548261,4.5296125 C6.79130209,4.82092393 4.69611315,5.11223536 2.6731721,5.25789107 C2.45642842,5.47637465 2.02294105,5.33071893 1.80619736,5.40354679 C2.52867631,5.5492025 0.93922263,5.47637465 0.722478946,5.62203036 C0.361239473,5.69485822 0.144495789,6.93293179 0.0722478946,6.64162036 C0.0722478946,6.71444822 0,6.78727607 0.0722478946,6.93293179 C0.216743684,7.0785875 0,7.73403822 0.0722478946,8.0981775 L0,8.02534964 L0,10.2101854 C0.0722478946,9.77321822 0.361239473,10.2101854 0.0722478946,10.3558411 C0.144495789,10.5014968 0.144495789,10.1373575 0.216743684,10.4286689 C0.216743684,10.6471525 0.144495789,10.6471525 0.0722478946,10.5743246 L0.144495789,10.7928082 L0.0722478946,10.7199804 C0.144495789,10.8656361 -0.0722478946,11.3026032 0.0722478946,11.5210868 C0,12.7591604 0.433487367,13.6330946 0.0722478946,14.7983404 C0.0722478946,15.0896518 0.144495789,15.6722746 0.505735262,15.5266189 C0.361239473,15.5994468 1.22821421,15.9635861 0.79472684,15.8907582 C1.15596631,16.0364139 1.66170158,16.0364139 2.02294105,15.8907582 C2.38418052,15.6722746 2.6731721,15.3809632 2.6731721,15.0168239 C2.38418052,15.4537911 2.52867631,14.9439961 2.6731721,14.7983404 C2.52867631,13.8515782 2.96216368,12.6135046 2.74541999,11.9580539 L2.74541999,12.0308818 C2.6731721,10.7928082 2.81766789,9.48190679 2.88991578,7.87969393 C2.96216368,7.73403822 3.39565105,7.87969393 3.54014683,7.80686607 L3.46789894,7.73403822 C5.12960052,7.29707107 8.23625998,7.29707107 10.4759447,6.78727607 L10.259201,6.93293179 C10.8371842,6.78727607 11.4874152,6.71444822 12.0653984,6.64162036 L12.2098942,6.64162036 C12.6433816,6.5687925 13.0768689,6.49596464 13.5103563,6.42313679 C13.5826042,6.35030893 14.1605873,6.20465322 14.1605873,6.20465322 C13.8715958,6.35030893 14.9553142,6.13182536 14.5218268,6.42313679 C14.6663226,6.42313679 14.9553142,6.20465322 14.8108184,6.35030893 C15.3888015,6.20465322 15.1720579,6.20465322 15.6777931,6.13182536 C15.6777931,6.13182536 15.5332973,6.20465322 15.5332973,6.27748107 C15.6055452,6.20465322 16.6892636,5.98616965 16.3280242,6.13182536 C17.0505031,5.98616965 17.7007342,5.84051393 18.4232131,5.76768607 C18.2064694,5.91334179 18.8567005,5.76768607 18.9289484,5.91334179 L18.8567005,5.76768607 C19.0734442,5.91334179 19.2901879,6.0589975 19.5069315,6.20465322 C19.5069315,6.20465322 19.4346836,6.13182536 19.4346836,6.20465322 L19.7959231,6.42313679 L19.6514273,6.27748107 C19.9404189,6.42313679 19.7959231,6.20465322 20.0849147,6.42313679 C20.0849147,6.49596464 19.7236752,6.5687925 19.7236752,6.64162036 C19.3624357,7.0785875 18.7844526,7.0785875 18.2787173,7.51555464 C18.2787173,7.51555464 18.2787173,7.51555464 18.2787173,7.44272679 C18.2787173,7.36989893 18.2787173,7.36989893 18.2787173,7.36989893 C18.2787173,7.51555464 17.9174779,7.5883825 17.9897258,7.51555464 C17.5562384,7.73403822 18.0619736,7.5883825 17.7007342,7.73403822 C17.7007342,7.73403822 17.7007342,7.73403822 17.7729821,7.73403822 C15.3165537,8.17100536 15.3165537,10.9384639 18.2787173,9.77321822 C18.2064694,9.77321822 18.2064694,9.84604607 18.2064694,9.91887393 C18.7844526,9.70039036 19.3624357,9.33625107 19.9404189,8.97211179 L19.868171,9.04493964 C20.1571626,8.89928393 21.1686331,8.46231679 21.0241373,8.31666107 C21.96336,7.87969393 23.1915742,7.22424322 22.9748305,6.20465322 C22.9025826,5.91334179 22.613591,5.47637465 22.5413431,5.5492025 Z" id="path-1"></path>
    </defs>
    <g id="Nuovi-moduli" stroke="none" stroke-width="1" fill="none" fill-rule="evenodd">
        <g id="Desktop---Ancore" transform="translate(-1171.000000, -2694.000000)">
            <g id="Group-4-Copy-2" transform="translate(1052.000000, 2678.000000)">
                <g id="Arrow-Copy-34" transform="translate(127.500000, 28.000000) scale(-1, 1) rotate(-90.000000) translate(-127.500000, -28.000000) translate(116.000000, 20.000000)">
                    <mask id="mask-2" fill="white">
                        <use xlink:href="#path-1"></use>
                    </mask>
                    <use id="Mask" fill="#66C3D2" fill-rule="nonzero" xlink:href="#path-1"></use>
                    <rect id="Rectangle-Copy-116" fill="#BED600" mask="url(#mask-2)" x="0" y="-0.727272727" width="23" height="17.4545455"></rect>
                </g>
            </g>
        </g>
    </g>
</svg>