<?xml version="1.0" encoding="UTF-8"?>
<svg width="24px" height="24px" viewBox="0 0 24 24" version="1.1" xmlns="http://www.w3.org/2000/svg" xmlns:xlink="http://www.w3.org/1999/xlink">
    <title>CA6D46D4-9513-4830-BB3E-74A1CB909117</title>
    <defs>
        <filter color-interpolation-filters="auto" id="filter-1">
            <feColorMatrix in="SourceGraphic" type="matrix" values="0 0 0 0 1.000000 0 0 0 0 1.000000 0 0 0 0 1.000000 0 0 0 1.000000 0"></feColorMatrix>
        </filter>
        <path d="M17.4099026,0.439339828 C17.995689,1.02512627 17.995689,1.97487373 17.4099026,2.56066017 L11.045,8.924 L17.4099026,15.2885822 C17.9590774,15.837757 17.9934008,16.7068194 17.5128728,17.2959802 L17.4099026,17.4099026 C16.8241161,17.995689 15.8743687,17.995689 15.2885822,17.4099026 L15.2885822,17.4099026 L8.924,11.045 L2.56066017,17.4099026 C1.97487373,17.995689 1.02512627,17.995689 0.439339828,17.4099026 C-0.146446609,16.8241161 -0.146446609,15.8743687 0.439339828,15.2885822 L6.803,8.924 L0.439339828,2.56066017 C-0.109834957,2.01148539 -0.144158381,1.14242298 0.336369556,0.553262238 L0.439339828,0.439339828 C1.02512627,-0.146446609 1.97487373,-0.146446609 2.56066017,0.439339828 L2.56066017,0.439339828 L8.924,6.803 L15.2885822,0.439339828 C15.8743687,-0.146446609 16.8241161,-0.146446609 17.4099026,0.439339828 Z" id="path-2"></path>
    </defs>
    <g id="Nuovi-moduli" stroke="none" stroke-width="1" fill="none" fill-rule="evenodd">
        <g id="Desktop---Media" transform="translate(-880.000000, -5728.000000)">
            <rect id="Rectangle-Copy-57" fill="#003478" x="0" y="5255" width="1440" height="586"></rect>
            <g id="Icon/menu/burger_menu_close-Copy" transform="translate(764.000000, 5728.000000)" filter="url(#filter-1)">
                <g transform="translate(119.071320, 3.075379)">
                    <mask id="mask-3" fill="white">
                        <use xlink:href="#path-2"></use>
                    </mask>
                    <use id="Mask" fill="#003478" xlink:href="#path-2"></use>
                </g>
            </g>
        </g>
    </g>
</svg>