<?xml version="1.0" encoding="utf-8"?>
<!-- Generator: Adobe Illustrator 24.0.1, SVG Export Plug-In . SVG Version: 6.00 Build 0)  -->
<svg version="1.1" id="Livello_1" xmlns="http://www.w3.org/2000/svg" xmlns:xlink="http://www.w3.org/1999/xlink" x="0px" y="0px"
	 viewBox="0 0 32 24" style="enable-background:new 0 0 32 24;" xml:space="preserve">
<style type="text/css">
	.st0{fill:#00A9E0;}
	.st1{filter:url(#Adobe_OpacityMaskFilter);}
	.st2{fill-rule:evenodd;clip-rule:evenodd;fill:#FFFFFF;}
	.st3{display:none;mask:url(#mask-2_1_);fill-rule:evenodd;clip-rule:evenodd;fill:#BED600;}
</style>
<title>Arrow/Button/external_page</title>
<g id="Arrow_x2F_Button_x2F_external_x5F_page">
	<g id="Mask">
		<path id="path-1_1_" class="st0" d="M31.4,8.6c0,0.2,0.1,0.1,0.2,0.3c-0.2-0.1-0.4-0.2-0.6-0.4c0.5,0.2,0.1-0.1,0-0.3
			c0,0.1-0.1,0-0.1,0.1c-0.4-0.5-0.2,0.1-0.7-0.5l0,0c-0.8-0.6-0.5-0.4-1.5-1.1C28.9,6.8,29,7,29.3,7c-0.2-0.2-0.4-0.4-0.6-0.6
			l-0.4-0.3c-0.6-0.1-1-0.6-1.7-0.9c1,0.3-0.2-0.3,0-0.4c-0.2-0.2-1.1-0.6-1.2-0.8c-0.2,0.4-1.2-0.7-2.4-1.1
			c-0.5-0.3-2.3-0.6-1.6-0.6c-0.3-0.2-0.7-0.4-1.1-0.6c0-0.3-0.3-0.2-0.6-0.3c0.1,0,0.2,0,0.3,0.1c-0.1-0.1-0.2-0.1-0.3-0.2h0.2
			C19.5,1.1,18.5,1,18.4,1h-0.1c-0.2-0.1-0.7,0.2-0.8,0.5c-0.6,0.4-0.7,1.2,0.2,1.8h0.1c-0.2,0.2-0.4,0-0.6,0.1l0.4,0.2
			c-0.1,0.4,1,0.6,1.3,0.8l-0.5-0.2c0.6,0.5,1.4,0.6,1.6,1c0.3,0.1-0.2-0.2,0.3-0.1c0.1,0.2,0.5,0.4,0.4,0.4
			c0.3,0.1,0.7,0.3,0.8,0.3C21.5,5.9,22,6,21.6,6c0.2,0,0.3,0.1,0.5,0.2c-0.3-0.1-0.5,0-0.7-0.2c0.5,0.2-1,0.2-1.7,0.4
			c0,0,0.1-0.1,0.2-0.1c-0.8-0.3-2.3,0.7-2,0.1c-0.2,0.1-0.9,0.2-0.7,0.2c-0.5-0.1-0.4,0-0.5-0.1c0,0.1-0.2,0.2-0.4,0.2h-0.1
			C15.4,6.9,14.7,7,14,7l0.2-0.1c-0.7,0.1-0.7,0.3-1.5,0.3h0.1c-3.3,0.4-6.2,0.8-9,1C3.4,8.5,2.8,8.3,2.5,8.4c1,0.2-1.2,0.1-1.5,0.3
			c-0.5,0.1-0.8,1.8-0.9,1.4c0,0.1-0.1,0.2,0,0.4c0.2,0.2-0.1,1.1,0,1.6L0,12v3c0.1-0.6,0.5,0,0.1,0.2c0.1,0.2,0.1-0.3,0.2,0.1
			c0,0.3-0.1,0.3-0.2,0.2l0.1,0.3l-0.1-0.1c0.1,0.2-0.2,0.8,0,1.1c-0.1,1.7,0.5,2.9,0,4.5c0,0.4,0.1,1.2,0.6,1
			c-0.2,0.1,1,0.6,0.4,0.5c0.5,0.2,1.2,0.2,1.7,0c0.5-0.3,0.9-0.7,0.9-1.2c-0.4,0.6-0.2-0.1,0-0.3c-0.2-1.3,0.4-3,0.1-3.9v0.1
			C3.7,15.8,3.9,14,4,11.8c0.1-0.2,0.7,0,0.9-0.1l-0.1-0.1c2.3-0.6,6.6-0.6,9.8-1.3l-0.3,0.2c0.8-0.2,1.7-0.3,2.5-0.4H17
			c0.6-0.1,1.2-0.2,1.8-0.3c0.1-0.1,0.9-0.3,0.9-0.3c-0.4,0.2,1.1-0.1,0.5,0.3c0.2,0,0.6-0.3,0.4-0.1c0.8-0.2,0.5-0.2,1.2-0.3
			c0,0-0.2,0.1-0.2,0.2c0.1-0.1,1.6-0.4,1.1-0.2c1-0.2,1.9-0.4,2.9-0.5c-0.3,0.2,0.6,0,0.7,0.2l-0.1-0.2c0.3,0.2,0.6,0.4,0.9,0.6
			c0,0-0.1-0.1-0.1,0l0.5,0.3l-0.2-0.2c0.4,0.2,0.2-0.1,0.6,0.2c0,0.1-0.5,0.2-0.5,0.3c-0.5,0.6-1.3,0.6-2,1.2c0,0,0,0,0-0.1
			s0-0.1,0-0.1c0,0.2-0.5,0.3-0.4,0.2c-0.6,0.3,0.1,0.1-0.4,0.3c0,0,0,0,0.1,0c-3.4,0.6-3.4,4.4,0.7,2.8c-0.1,0-0.1,0.1-0.1,0.2
			c0.8-0.3,1.6-0.8,2.4-1.3l-0.1,0.1c0.4-0.2,1.8-0.8,1.6-1c1.3-0.6,3-1.5,2.7-2.9C31.9,9.1,31.5,8.5,31.4,8.6z"/>
	</g>
	<defs>
		<filter id="Adobe_OpacityMaskFilter" filterUnits="userSpaceOnUse" x="0" y="0" width="32" height="24">
			<feColorMatrix  type="matrix" values="1 0 0 0 0  0 1 0 0 0  0 0 1 0 0  0 0 0 1 0"/>
		</filter>
	</defs>
	<mask maskUnits="userSpaceOnUse" x="0" y="0" width="32" height="24" id="mask-2_1_">
		<g class="st1">
			<path id="path-1_2_" class="st2" d="M31.4,8.6c0,0.2,0.1,0.1,0.2,0.3c-0.2-0.1-0.4-0.2-0.6-0.4c0.5,0.2,0.1-0.1,0-0.3
				c0,0.1-0.1,0-0.1,0.1c-0.4-0.5-0.2,0.1-0.7-0.5l0,0c-0.8-0.6-0.5-0.4-1.5-1.1C28.9,6.8,29,7,29.3,7c-0.2-0.2-0.4-0.4-0.6-0.6
				l-0.4-0.3c-0.6-0.1-1-0.6-1.7-0.9c1,0.3-0.2-0.3,0-0.4c-0.2-0.2-1.1-0.6-1.2-0.8c-0.2,0.4-1.2-0.7-2.4-1.1
				c-0.5-0.3-2.3-0.6-1.6-0.6c-0.3-0.2-0.7-0.4-1.1-0.6c0-0.3-0.3-0.2-0.6-0.3c0.1,0,0.2,0,0.3,0.1c-0.1-0.1-0.2-0.1-0.3-0.2h0.2
				C19.5,1.1,18.5,1,18.4,1h-0.1c-0.2-0.1-0.7,0.2-0.8,0.5c-0.6,0.4-0.7,1.2,0.2,1.8h0.1c-0.2,0.2-0.4,0-0.6,0.1l0.4,0.2
				c-0.1,0.4,1,0.6,1.3,0.8l-0.5-0.2c0.6,0.5,1.4,0.6,1.6,1c0.3,0.1-0.2-0.2,0.3-0.1c0.1,0.2,0.5,0.4,0.4,0.4
				c0.3,0.1,0.7,0.3,0.8,0.3C21.5,5.9,22,6,21.6,6c0.2,0,0.3,0.1,0.5,0.2c-0.3-0.1-0.5,0-0.7-0.2c0.5,0.2-1,0.2-1.7,0.4
				c0,0,0.1-0.1,0.2-0.1c-0.8-0.3-2.3,0.7-2,0.1c-0.2,0.1-0.9,0.2-0.7,0.2c-0.5-0.1-0.4,0-0.5-0.1c0,0.1-0.2,0.2-0.4,0.2h-0.1
				C15.4,6.9,14.7,7,14,7l0.2-0.1c-0.7,0.1-0.7,0.3-1.5,0.3h0.1c-3.3,0.4-6.2,0.8-9,1C3.4,8.5,2.8,8.3,2.5,8.4
				c1,0.2-1.2,0.1-1.5,0.3c-0.5,0.1-0.8,1.8-0.9,1.4c0,0.1-0.1,0.2,0,0.4c0.2,0.2-0.1,1.1,0,1.6L0,12v3c0.1-0.6,0.5,0,0.1,0.2
				c0.1,0.2,0.1-0.3,0.2,0.1c0,0.3-0.1,0.3-0.2,0.2l0.1,0.3l-0.1-0.1c0.1,0.2-0.2,0.8,0,1.1c-0.1,1.7,0.5,2.9,0,4.5
				c0,0.4,0.1,1.2,0.6,1c-0.2,0.1,1,0.6,0.4,0.5c0.5,0.2,1.2,0.2,1.7,0c0.5-0.3,0.9-0.7,0.9-1.2c-0.4,0.6-0.2-0.1,0-0.3
				c-0.2-1.3,0.4-3,0.1-3.9v0.1C3.7,15.8,3.9,14,4,11.8c0.1-0.2,0.7,0,0.9-0.1l-0.1-0.1c2.3-0.6,6.6-0.6,9.8-1.3l-0.3,0.2
				c0.8-0.2,1.7-0.3,2.5-0.4H17c0.6-0.1,1.2-0.2,1.8-0.3c0.1-0.1,0.9-0.3,0.9-0.3c-0.4,0.2,1.1-0.1,0.5,0.3c0.2,0,0.6-0.3,0.4-0.1
				c0.8-0.2,0.5-0.2,1.2-0.3c0,0-0.2,0.1-0.2,0.2c0.1-0.1,1.6-0.4,1.1-0.2c1-0.2,1.9-0.4,2.9-0.5c-0.3,0.2,0.6,0,0.7,0.2l-0.1-0.2
				c0.3,0.2,0.6,0.4,0.9,0.6c0,0-0.1-0.1-0.1,0l0.5,0.3l-0.2-0.2c0.4,0.2,0.2-0.1,0.6,0.2c0,0.1-0.5,0.2-0.5,0.3
				c-0.5,0.6-1.3,0.6-2,1.2c0,0,0,0,0-0.1s0-0.1,0-0.1c0,0.2-0.5,0.3-0.4,0.2c-0.6,0.3,0.1,0.1-0.4,0.3c0,0,0,0,0.1,0
				c-3.4,0.6-3.4,4.4,0.7,2.8c-0.1,0-0.1,0.1-0.1,0.2c0.8-0.3,1.6-0.8,2.4-1.3l-0.1,0.1c0.4-0.2,1.8-0.8,1.6-1
				c1.3-0.6,3-1.5,2.7-2.9C31.9,9.1,31.5,8.5,31.4,8.6z"/>
		</g>
	</mask>
	<rect id="Rectangle" class="st3" width="32" height="24"/>
</g>
</svg>
