<?xml version="1.0" encoding="UTF-8"?>
<svg width="20px" height="20px" viewBox="0 0 20 20" version="1.1" xmlns="http://www.w3.org/2000/svg" xmlns:xlink="http://www.w3.org/1999/xlink">
    <title>6003535B-E0D7-4ED5-86B2-16E84284BF37</title>
    <defs>
        <path d="M10.5461183,18 L2.88307733,18 C2.39522433,18 2,17.6045307 2,17.1168677 L2,2.88307033 C2,2.39528333 2.39528633,2 2.88307733,2 L17.116985,2 C17.6046517,2 18,2.39528333 18,2.88307033 L18,17.1168677 C18,17.6045927 17.6045897,18 17.116985,18 L13.0397683,18 L13.0397683,11.8039183 L15.119507,11.8039183 L15.4309183,9.38919533 L13.0397683,9.38919533 L13.0397683,7.847547 C13.0397683,7.148429 13.233904,6.67200333 14.23643,6.67200333 L15.5151037,6.67144433 L15.5151037,4.511697 C15.293962,4.48226933 14.534928,4.41652333 13.6518507,4.41652333 C11.808278,4.41652333 10.5461183,5.541842 10.5461183,7.608403 L10.5461183,9.38919533 L8.46104067,9.38919533 L8.46104067,11.8039183 L10.5461183,11.8039183 L10.5461183,18 L10.5461183,18 Z" id="path-1"></path>
    </defs>
    <g id="Nuovi-moduli" stroke="none" stroke-width="1" fill="none" fill-rule="evenodd">
        <g id="Group-15" transform="translate(-1280.000000, -10.000000)">
            <rect id="Rectangle" fill="#D3F4FF" x="0" y="0" width="1440" height="43"></rect>
            <g id="Icon/Social/Facebook" transform="translate(1280.000000, 10.000000)">
                <mask id="mask-2" fill="white">
                    <use xlink:href="#path-1"></use>
                </mask>
                <use id="Path" fill="#FFFFFF" fill-rule="nonzero" xlink:href="#path-1"></use>
                <path d="M-211.2,1034 L-211.2,118 L-518,118 L-518,-246 L-211.2,-246 L-211.2,-532.8 C-211.2,-844.4 -20.8,-1014 257.2,-1014 C390.4,-1014 504.8,-1004 538,-999.6 L538,-674 L345.2,-674 C194,-674 164.8,-602 164.8,-496.8 L164.8,-246 L506,-246 L459.2,118 L164.8,118 L164.8,1034" id="Path" fill="#000000" fill-rule="nonzero" mask="url(#mask-2)"></path>
                <rect id="Rectangle" fill="#00A9E0" mask="url(#mask-2)" x="0" y="0" width="20" height="20"></rect>
            </g>
        </g>
    </g>
</svg>