<?xml version="1.0" encoding="UTF-8"?>
<svg width="32px" height="24px" viewBox="0 0 32 24" version="1.1" xmlns="http://www.w3.org/2000/svg" xmlns:xlink="http://www.w3.org/1999/xlink">
    <title>Arrow/Button/internal_page</title>
    <defs>
        <path d="M31.8998744,11.6365748 C32.3003769,11.1138608 30.9987438,9.12754729 31.6996231,9.75480418 C30.5982413,8.81391885 29.4968594,7.97757633 28.2953519,7.24577663 C28.3954776,7.87303352 27.3942213,7.14123382 27.9949751,7.35031945 C27.4943469,7.14123382 27.8948494,7.24577663 28.0951007,7.24577663 C27.9949751,7.14123382 27.7947238,7.14123382 27.6945982,7.036691 C27.4943469,6.09580567 25.091332,5.36400597 23.9899501,4.63220627 L24.290327,4.63220627 C23.8898245,4.42312064 23.3891964,4.21403501 22.9886939,4.00494938 C21.3866839,3.90040657 20.4855533,5.46854879 21.1864327,7.14123382 C21.1864327,7.24577663 21.086307,7.24577663 21.086307,7.24577663 C21.1864327,7.35031945 21.2865583,7.35031945 21.3866839,7.45486226 C21.887312,8.29120478 22.7884426,9.12754729 24.4905782,9.65026137 C26.0925882,10.1729754 25.4918345,10.3820611 24.1902014,10.4866039 L24.1902014,10.4866039 C24.0900758,10.4866039 23.489322,10.4866039 23.8898245,10.3820611 C22.688317,10.6956895 20.9861814,10.1729754 19.8847996,10.4866039 L19.9849252,10.4866039 C17.7821615,10.6956895 15.3791465,10.8002323 12.4755034,10.8002323 C10.8734935,11.532032 6.56809165,10.8002323 4.16507669,11.6365748 L4.26520232,11.4274892 C2.46294109,11.6365748 -0.340576361,11.9502033 0.160051756,14.4592308 C0.0599261326,14.354688 0.0599261326,14.354688 0.0599261326,14.1456024 C-0.440701984,15.7137446 2.36281547,16.1319159 2.26268985,16.2364587 C2.46294109,16.1319159 3.26394608,16.1319159 3.06369483,16.027373 C3.96482545,16.027373 4.86595606,15.9228302 5.76708667,15.7137446 C5.76708667,15.9228302 6.7683429,15.8182874 7.16884539,15.7137446 C7.16884539,15.9228302 8.27022725,15.9228302 8.06997601,15.7137446 C12.5756291,15.9228302 13.4767597,14.7728593 14.978644,15.2955733 C15.9799003,15.0864877 17.0812821,15.1910305 17.9824127,14.9819449 C17.8822871,15.0864877 17.8822871,15.0864877 17.7821615,15.0864877 C17.9824127,15.0864877 18.2827896,15.0864877 18.182664,14.9819449 C17.381659,14.9819449 18.6832921,14.5637736 18.7834177,14.5637736 C18.4830408,14.8774021 19.6845483,14.5637736 19.2840458,14.9819449 C19.3841715,14.9819449 19.9849252,14.5637736 19.6845483,14.8774021 C20.1851764,14.7728593 20.9861814,14.5637736 20.5856789,14.7728593 C20.6858046,14.7728593 21.7871864,14.354688 21.5869352,14.6683165 L21.5869352,14.6683165 C22.2878145,14.6683165 23.489322,14.4592308 23.7896989,14.6683165 C23.5894476,14.6683165 23.3891964,14.6683165 23.1889451,14.7728593 C23.6895733,14.8774021 24.0900758,14.8774021 24.4905782,14.9819449 C25.091332,14.6683165 25.2915832,14.8774021 26.0925882,14.6683165 C25.1914576,14.8774021 25.7922113,14.7728593 25.4918345,15.0864877 C25.9924626,14.9819449 25.5919601,15.1910305 25.6920857,15.1910305 C25.2915832,15.4001162 24.9912064,15.7137446 24.6908295,15.9228302 C24.1902014,16.2364587 23.0888195,18.327315 23.2890708,17.7000581 C22.8885683,18.0136865 22.688317,18.1182293 22.4880658,18.4318578 C22.1876889,18.1182293 22.0875633,19.1636575 22.0875633,19.0591147 C22.4880658,19.8954572 23.3891964,20.3136284 24.4905782,19.4772859 C24.6908295,19.7909144 24.3904526,19.6863716 24.290327,20 C24.7909551,19.6863716 25.2915832,19.3727431 25.6920857,18.9545719 L25.2915832,19.3727431 C26.1927138,18.850029 26.5932163,17.5955153 27.0938445,17.9091437 C27.7947238,16.9682584 28.3954776,16.7591728 28.9962313,15.9228302 C28.7959801,16.5500871 29.7972363,15.2955733 29.8973619,15.4001162 C29.9974875,14.9819449 30.7984925,14.354688 31.0988694,13.6228883 C31.0988694,13.7274311 31.0988694,13.7274311 30.9987438,13.8319739 C31.7997488,13.5183455 31.2991206,11.532032 32,12.2638317 C32,12.1592889 32,11.532032 31.8998744,11.6365748 Z" id="path-1"></path>
    </defs>
    <g id="Arrow/Button/internal_page" stroke="none" stroke-width="1" fill="none" fill-rule="evenodd">
        <mask id="mask-2" fill="white">
            <use xlink:href="#path-1"></use>
        </mask>
        <g id="Path" fill-rule="nonzero"></g>
        <rect id="Rectangle" fill="#BED600" mask="url(#mask-2)" x="-1.13686838e-13" y="0" width="32" height="24"></rect>
    </g>
</svg>
