<?xml version="1.0" encoding="UTF-8"?>
<svg width="20px" height="20px" viewBox="0 0 20 20" version="1.1" xmlns="http://www.w3.org/2000/svg" xmlns:xlink="http://www.w3.org/1999/xlink">
    <title>FE2D8AB0-4232-41FC-AA2A-15C0179EB6E6</title>
    <defs>
        <path d="M18.599999,17.999999 L14.7101592,17.999999 L14.7101592,12.3753594 C14.7101592,10.9031179 14.1016924,9.89805953 12.7636869,9.89805953 C11.740263,9.89805953 11.171119,10.5762947 10.9062082,11.229941 C10.8068666,11.4645574 10.822389,11.7913806 10.822389,12.1182038 L10.822389,17.999999 L6.96876724,17.999999 C6.96876724,17.999999 7.01843804,8.03649844 6.96876724,7.13081849 L10.822389,7.13081849 L10.822389,8.83665199 C11.0500466,8.09079804 12.2814669,7.0263173 14.2465656,7.0263173 C16.6845711,7.0263173 18.599999,8.58974161 18.599999,11.956329 L18.599999,17.999999 L18.599999,17.999999 Z M3.07168388,5.77127458 L3.04684828,5.77127458 C1.80507995,5.77127458 1,4.94038542 1,3.88717429 C1,2.81347235 1.82888035,2 3.09548428,2 C4.3610534,2 5.13922815,2.81142355 5.16406375,3.88410069 C5.16406375,4.93731182 4.3610534,5.77127458 3.07168388,5.77127458 L3.07168388,5.77127458 L3.07168388,5.77127458 Z M1.44393237,7.13081849 L4.87431777,7.13081849 L4.87431777,17.999999 L1.44393237,17.999999 L1.44393237,7.13081849 L1.44393237,7.13081849 Z" id="path-1"></path>
    </defs>
    <g id="Nuovi-moduli" stroke="none" stroke-width="1" fill="none" fill-rule="evenodd">
        <g id="Group-15" transform="translate(-1184.000000, -10.000000)">
            <rect id="Rectangle" fill="#D3F4FF" x="0" y="0" width="1440" height="43"></rect>
            <g id="Icon/Social/Facebook-Copy-4" transform="translate(1184.000000, 10.000000)">
                <mask id="mask-2" fill="white">
                    <use xlink:href="#path-1"></use>
                </mask>
                <use id="Shape" fill="#FFFFFF" fill-rule="nonzero" xlink:href="#path-1"></use>
                <rect id="Rectangle" fill="#00A9E0" mask="url(#mask-2)" x="0" y="0" width="20" height="20"></rect>
            </g>
        </g>
    </g>
</svg>