<?xml version="1.0" encoding="UTF-8"?>
<svg width="18px" height="17px" viewBox="0 0 18 17" version="1.1" xmlns="http://www.w3.org/2000/svg" xmlns:xlink="http://www.w3.org/1999/xlink">
    <title>F214736F-39DD-4570-9FB1-9827E2752E63</title>
    <defs>
        <path d="M4.38212344,5.97005001 C4.86703958,5.74906621 3.27374371,7.5905979 3.89720731,7.44327536 C3.20446997,7.5905979 3.68938611,7.51693663 3.41229117,7.73792043 C3.75865984,7.66425916 3.48156491,7.8115817 3.55083864,7.8115817 C3.27374371,7.95890423 2.99664877,8.17988804 2.78882757,8.32721057 C2.4424589,8.54819437 1.6111741,10.0214197 1.74972156,9.57945212 C1.47262663,9.80043592 1.26480543,9.87409719 1.12625796,10.095081 C0.91843676,9.87409719 0.849163026,10.6107099 0.849163026,10.5370486 C1.12625796,11.1263387 1.8189953,11.4209838 2.6502801,10.8316937 C2.78882757,11.0526775 2.58100637,10.9790162 2.51173263,11.2 C2.8581013,10.9790162 3.27374371,10.7580324 3.55083864,10.4633873 L3.27374371,10.7580324 C3.96648104,10.3897261 4.24357598,9.50579085 4.65921838,9.72677465 C5.21340825,9.06382325 5.62905065,8.91650071 6.11396679,8.32721057 C5.97541932,8.76917818 6.73743039,7.88524297 6.80670412,7.95890423 C6.87597786,7.66425916 7.49944146,7.22229156 7.70726266,6.70666269 C7.70726266,6.78032396 7.70726266,6.78032396 7.63798893,6.85398522 C8.26145253,6.63300142 7.84581013,5.23343734 8.4,5.74906621 C8.4,5.67540494 8.4,5.23343734 8.33072627,5.30709861 C8.6078212,4.93879227 7.63798893,3.53922819 8.1921788,3.98119579 C7.36089399,3.31824439 6.52960919,2.72895425 5.62905065,2.21332538 C5.69832439,2.65529298 4.93631331,2.13966411 5.42122945,2.28698664 C5.07486078,2.13966411 5.35195572,2.21332538 5.49050318,2.21332538 C5.35195572,2.21332538 5.14413452,2.21332538 5.07486078,2.13966411 C4.93631331,1.4767127 3.13519624,0.961083831 2.30391143,0.445454959 L2.51173263,0.445454959 C2.2346377,0.298132424 1.88826903,0.15080989 1.54190036,0.00348735474 C0.36424689,-0.0701739127 -0.328490447,1.0347451 0.156425689,2.21332538 C0.156425689,2.28698664 0.0871519551,2.28698664 0.0871519551,2.28698664 C0.156425689,2.36064791 0.225699422,2.36064791 0.294973156,2.43430918 C0.710615558,3.02359932 1.4033529,3.61288946 2.6502801,3.98119579 C3.82793358,4.34950213 5.62905065,5.67540494 4.58994465,5.74906621 L4.38212344,5.97005001 Z" id="path-1"></path>
    </defs>
    <g id="Nuovi-moduli" stroke="none" stroke-width="1" fill="none" fill-rule="evenodd">
        <g id="1440-footer" transform="translate(-712.000000, -426.000000)">
            <rect id="Rectangle-Copy-51" fill="#003478" x="0" y="339" width="1441" height="204"></rect>
            <line x1="116.5" y1="434.5" x2="1323.5" y2="434.5" id="Line-3-Copy-5" stroke="#007AC9" stroke-linecap="square"></line>
            <g id="Group-4-Copy" transform="translate(703.000000, 417.000000)">
                <rect id="Rectangle" fill="#FFFFFF" x="0" y="0" width="35" height="35" rx="5"></rect>
                <g id="Arrow/Button/rapid_link" transform="translate(17.853314, 17.500000) rotate(90.000000) translate(-17.853314, -17.500000) translate(13.653314, 11.900000)">
                    <mask id="mask-2" fill="white">
                        <use xlink:href="#path-1"></use>
                    </mask>
                    <use id="Path" fill="#1D1D1B" fill-rule="nonzero" xlink:href="#path-1"></use>
                    <rect id="Rectangle" fill="#BED600" mask="url(#mask-2)" x="-4.2" y="-2.79668598" width="16.8" height="16.8"></rect>
                </g>
            </g>
        </g>
    </g>
</svg>