<?xml version="1.0" encoding="UTF-8"?>
<svg width="20px" height="20px" viewBox="0 0 20 20" version="1.1" xmlns="http://www.w3.org/2000/svg" xmlns:xlink="http://www.w3.org/1999/xlink">
    <title>A2138343-8C20-4244-8A01-BD44D59E41F6</title>
    <defs>
        <path d="M10.7523441,8.58646881 C12.2529712,8.58937023 13.756689,8.61292113 15.2441472,8.77324011 C15.9772157,8.85211403 16.5862772,9.38199852 16.7578386,10.1003334 C17.0016461,11.123224 16.9998171,12.239634 17,13.2930507 C17,14.346291 16.9985368,15.462701 16.7549122,16.4855915 C16.5837166,17.20375 15.9746551,17.7336345 15.2419523,17.8126848 C13.5056699,17.9999001 11.7489026,18.0007824 9.99926839,17.9999001 L9.24911802,17.9995765 C7.74821578,17.9965979 6.24472199,17.9731551 4.75695025,17.8126848 C4.02388169,17.7336345 3.41518604,17.20375 3.24399038,16.4855915 C3,15.462701 3,14.346291 3,13.2930507 L3.00060229,12.895423 C3.00449823,11.9621278 3.03342522,10.9953627 3.24691681,10.1003334 C3.41811246,9.38217497 4.02680811,8.85229048 4.75951087,8.77324011 C6.49561037,8.5862013 8.25274352,8.58531904 10.0023777,8.5862013 Z M14.6969064,11.5285336 C14.2648934,11.5285336 13.928172,11.6820466 13.6838158,11.9903077 C13.5040238,12.2179304 13.4222669,12.570128 13.4222669,13.0516648 L13.4222669,13.0516648 L13.4222669,14.6293195 C13.4222669,15.108033 13.5142663,15.4630539 13.6938754,15.6885591 C13.9384145,15.9961145 14.2753188,16.1498039 14.71794,16.1498039 C15.1598296,16.1498039 15.5069764,15.9885271 15.7410901,15.6613856 C15.8438806,15.5172245 15.9104567,15.3531244 15.9386235,15.1724379 C15.9463054,15.0909172 15.9569137,14.9097013 15.9569137,14.6466118 L15.9569137,14.5275069 L15.0938023,14.5275069 C15.0938023,14.8548248 15.0826453,15.0362172 15.0747805,15.0805065 C15.0264946,15.2986009 14.905231,15.4078245 14.6967235,15.4078245 C14.4059103,15.4078245 14.2647105,15.1996115 14.2647105,14.7826561 L14.2647105,14.7826561 L14.2647105,13.9842121 L15.9570966,13.9842121 L15.9570966,13.0516648 C15.9570966,12.570128 15.8724133,12.2179304 15.694999,11.9903077 C15.4579588,11.6820466 15.1216033,11.5285336 14.6969064,11.5285336 Z M11.1279526,10.0422808 L10.2820339,10.0422808 L10.2820339,16.0878694 L11.1279526,16.0878694 L11.1279526,15.6513278 C11.4109009,15.9883506 11.7011653,16.1496275 12.0024038,16.1496275 C12.3389423,16.1496275 12.5651913,15.9784693 12.6782243,15.6433875 C12.7347408,15.4524668 12.7638221,15.1523224 12.7638221,14.7357199 L12.7638221,14.7357199 L12.7638221,12.9417353 C12.7638221,12.5152516 12.7351066,12.2174011 12.6782243,12.0361852 C12.5653742,11.6989859 12.3389423,11.5280042 12.0024038,11.5280042 C11.6912887,11.5280042 11.4012071,11.6921043 11.1279526,12.016599 L11.1279526,12.016599 L11.1279526,10.0422808 Z M7.9624791,11.5832336 L7.11656041,11.5832336 L7.11656041,15.1450879 C7.11656041,15.4630539 7.14509302,15.6786778 7.19118416,15.8148986 C7.27586747,16.0430506 7.46352425,16.1496275 7.73623014,16.1496275 C8.04734532,16.1496275 8.36669105,15.9682351 8.70304661,15.5962749 L8.70304661,15.5962749 L8.70304661,16.0876929 L9.54969691,16.0876929 L9.54951401,11.5832336 L8.70286371,11.5832336 L8.70286371,15.0258065 C8.51520694,15.2818379 8.33779264,15.4080009 8.1680602,15.4080009 C8.05466137,15.4080009 7.990463,15.3437725 7.97016095,15.2170802 C7.96555184,15.2009878 7.96370819,15.1587876 7.96297074,15.0862871 L7.9624791,11.5832336 Z M6.99328491,10.0422808 L4.04400084,10.0422808 L4.04400084,10.893131 L5.03880121,10.893131 L5.03880121,16.0875165 L5.9800115,16.0875165 L5.9800115,10.893131 L6.99328491,10.893131 L6.99328491,10.0422808 Z M11.549595,12.2629433 C11.7937683,12.2629433 11.9177754,12.4713327 11.9177754,12.8775246 L11.9177754,12.8775246 L11.9177754,14.8001424 C11.9177754,15.2068636 11.7937683,15.4080186 11.549595,15.4080186 C11.4102242,15.4080186 11.2690244,15.3434372 11.1276416,15.2068636 L11.1276416,15.2068636 L11.1276416,12.4614514 C11.2692073,12.3264659 11.4102242,12.2629433 11.549595,12.2629433 Z M14.6892794,12.2629433 C14.9691184,12.2629433 15.1106841,12.4713327 15.110867,12.8877588 L15.110867,12.8877588 L15.110867,13.3045377 L14.2649483,13.3045377 L14.2649483,12.8877588 C14.2649483,12.4713327 14.4065139,12.2629433 14.6892794,12.2629433 Z M12.2479123,3.5563041 L12.2479957,7.01277433 C12.2483293,7.13826679 12.2499974,7.20684298 12.2583377,7.22844067 C12.2771765,7.35636816 12.3444842,7.42165529 12.4589805,7.42165529 C12.6298103,7.42165529 12.8096023,7.29390425 12.9990881,7.03557895 L12.9990881,7.03557895 L12.9990881,3.5563041 L13.8541519,3.5563041 L13.8541519,8.10858181 L12.9990881,8.10858181 L12.9990881,7.61204669 C12.6587087,7.98824174 12.3340588,8.17104571 12.022395,8.17104571 C11.7469455,8.17104571 11.5572769,8.06341017 11.4713132,7.83278778 C11.4241247,7.69497899 11.3955921,7.47741403 11.3955921,7.15591901 L11.3955921,7.15591901 L11.3955921,3.5563041 L12.2479123,3.5563041 Z M9.42927467,3.50121587 C9.8578125,3.50121587 10.19051,3.65666983 10.4266357,3.9681071 C10.6064277,4.19802368 10.6920255,4.55375033 10.6920255,5.04040415 L10.6920255,5.04040415 L10.6920255,6.63446892 C10.6920255,7.11829951 10.6062448,7.47720229 10.4266357,7.70500145 C10.19051,8.01555646 9.8576296,8.17101042 9.42927467,8.17101042 C9.00311455,8.17101042 8.67023411,8.01555646 8.43374268,7.70500145 C8.25212166,7.47720229 8.16615803,7.11829951 8.16615803,6.63446892 L8.16615803,6.63446892 L8.16615803,5.04040415 C8.16615803,4.55375033 8.25212166,4.19802368 8.43374268,3.9681071 C8.67041702,3.65666983 9.00311455,3.50121587 9.42927467,3.50121587 Z M5.87976327,2 L6.5528402,4.39886102 L7.19976223,2 L8.15853104,2 L7.0179583,5.63455236 L7.0179583,8.10858181 L6.06979776,8.10858181 L6.06979776,5.63455236 C5.98383413,5.1962463 5.79398255,4.55396207 5.48981762,3.70205321 C5.28990646,3.13529031 5.08194764,2.56623354 4.88203648,2 L4.88203648,2 L5.87976327,2 Z M9.42927467,4.24390113 C9.15364235,4.24390113 9.02122178,4.45387866 9.02122178,4.8750689 L9.02122178,4.8750689 L9.02122178,6.78992287 C9.02122178,7.21111311 9.15364235,7.42179645 9.42927467,7.42179645 C9.70490698,7.42179645 9.83696175,7.21111311 9.83696175,6.78992287 L9.83696175,6.78992287 L9.83696175,4.8750689 C9.83696175,4.45370221 9.70490698,4.24390113 9.42927467,4.24390113 Z" id="path-1"></path>
    </defs>
    <g id="Nuovi-moduli" stroke="none" stroke-width="1" fill="none" fill-rule="evenodd">
        <g id="Group-15" transform="translate(-1312.000000, -10.000000)">
            <rect id="Rectangle" fill="#D3F4FF" x="0" y="0" width="1440" height="43"></rect>
            <g id="Icon/Social/Facebook-Copy-2" transform="translate(1312.000000, 10.000000)">
                <mask id="mask-2" fill="white">
                    <use xlink:href="#path-1"></use>
                </mask>
                <use id="Path" fill="#FFFFFF" xlink:href="#path-1"></use>
                <rect id="Rectangle" fill="#00A9E0" mask="url(#mask-2)" x="0" y="0" width="20" height="20"></rect>
            </g>
        </g>
    </g>
</svg>