<?xml version="1.0" encoding="UTF-8"?>
<svg width="168px" height="136px" viewBox="0 0 168 136" version="1.1" xmlns="http://www.w3.org/2000/svg" xmlns:xlink="http://www.w3.org/1999/xlink">
    <title>5C3E01C4-4C65-4550-9CB7-4388DA9EDAE8</title>
    <defs>
        <path d="M226.631294,1231.53977 C155.030783,1721.84019 1241.88094,1746.13279 1215.77909,1231.53977 C1177.61184,479.07952 298.231805,741.23935 226.631294,1231.53977 Z" id="path-1"></path>
        <filter x="-8.3%" y="-7.3%" width="116.6%" height="119.5%" filterUnits="objectBoundingBox" id="filter-2">
            <feOffset dx="0" dy="21" in="SourceAlpha" result="shadowOffsetOuter1"></feOffset>
            <feGaussianBlur stdDeviation="24" in="shadowOffsetOuter1" result="shadowBlurOuter1"></feGaussianBlur>
            <feColorMatrix values="0 0 0 0 0   0 0 0 0 0   0 0 0 0 0  0 0 0 0.2 0" type="matrix" in="shadowBlurOuter1"></feColorMatrix>
        </filter>
        <rect id="path-3" x="0" y="0" width="376" height="320" rx="12"></rect>
        <filter x="-13.8%" y="-13.8%" width="127.7%" height="132.5%" filterUnits="objectBoundingBox" id="filter-4">
            <feMorphology radius="4" operator="dilate" in="SourceAlpha" result="shadowSpreadOuter1"></feMorphology>
            <feOffset dx="0" dy="8" in="shadowSpreadOuter1" result="shadowOffsetOuter1"></feOffset>
            <feGaussianBlur stdDeviation="12" in="shadowOffsetOuter1" result="shadowBlurOuter1"></feGaussianBlur>
            <feColorMatrix values="0 0 0 0 0   0 0 0 0 0   0 0 0 0 0  0 0 0 0.36 0" type="matrix" in="shadowBlurOuter1"></feColorMatrix>
        </filter>
    </defs>
    <g id="Design2" stroke="none" stroke-width="1" fill="none" fill-rule="evenodd">
        <g id="Homepage_sostenibilità" transform="translate(-220.000000, -1240.000000)">
            <rect fill="#003478" x="0" y="0" width="1440" height="10568"></rect>
            <g id="sfondo_componente_v2" transform="translate(719.741944, 1184.429848) scale(1, -1) rotate(22.000000) translate(-719.741944, -1184.429848) ">
                <use fill="black" fill-opacity="1" filter="url(#filter-2)" xlink:href="#path-1"></use>
                <use fill="#083F88" fill-rule="evenodd" xlink:href="#path-1"></use>
            </g>
            <g id="Card/Flip/front" transform="translate(116.000000, 1208.000000)">
                <g id="Rectangle">
                    <use fill="black" fill-opacity="1" filter="url(#filter-4)" xlink:href="#path-3"></use>
                    <use fill="#FFFFFF" fill-rule="evenodd" xlink:href="#path-3"></use>
                </g>
                <g id="Card/Flip/front/illustration1" transform="translate(104.000000, 32.000000)">
                    <rect id="Rectangle" x="0" y="0" width="168" height="136"></rect>
                    <g id="icona-box-1" transform="translate(19.000000, 4.000000)" fill-rule="nonzero">
                        <g id="fiore" fill="#003478">
                            <path d="M38.384186,13.8800713 L38.384186,13.8800713 C38.384186,13.6515964 38.384186,13.4231215 38.384186,13.1186129 C38.4611155,12.9662963 38.4611155,13.4232461 38.5380451,13.4232461 C38.5380451,13.0424546 38.3072565,12.6617878 38.384186,12.2809963 C38.4611155,12.4333129 38.4611155,12.6617878 38.4611155,12.8141044 C38.5380451,12.4333129 38.5380451,12.3571546 38.5380451,12.1288043 L38.5380451,12.1288043 L38.4611155,11.4435042 L38.4611155,11.5958208 C38.1533974,11.138871 38.2303269,10.6058876 37.8456793,10.0727795 C38.2303269,10.6058876 37.9995383,10.1489378 38.0764679,10.1489378 C38.0764679,9.99662119 37.9995383,9.69198799 38.0764679,9.76814629 C37.9226088,9.53967139 37.9995383,9.23503819 37.6148907,8.93052963 C37.6148907,8.93052963 37.4610316,8.62589643 37.6148907,8.62589643 C37.3841021,8.24510493 37.6148907,8.77821303 37.5379611,8.70205473 C37.1533135,8.24510493 36.8455953,7.33132997 35.9994964,6.87438017 C35.3840601,6.49358867 35.1533974,6.49358867 34.6148907,6.41743037 C34.5379611,6.41743037 34.4610316,6.34127207 34.3841021,6.34127207 C34.3071725,6.26511377 34.6918202,6.26511377 34.6918202,6.26511377 C34.5379611,6.18895547 34.3071725,6.11279717 34.1533135,6.11279717 C33.9994544,6.03663887 33.8455953,6.03663887 33.6148067,6.03663887 C33.6917363,6.03663887 33.6148067,5.96048057 33.5378772,5.96048057 C33.2301591,5.96048057 33.3070886,6.03663887 32.9225668,6.03663887 C32.9994964,5.96048057 33.0764259,5.88432227 33.230285,5.88432227 C32.8456373,5.88432227 32.5379192,6.03663887 32.1533974,6.11279717 C32.0764679,6.03663887 32.384186,5.96048057 32.4611155,5.96048057 C32.0764679,6.03663887 31.384228,6.26511377 31.3072984,6.34127207 C31.384228,6.34127207 31.4611575,6.34127207 31.538087,6.34127207 C31.384228,6.41743037 31.4611575,6.26511377 31.538087,6.26511377 C31.8458052,6.11279717 32.0765938,6.18895547 32.0765938,6.18895547 L31.8458052,6.26511377 C31.9996642,6.34127207 32.2304528,6.26511377 32.538171,6.18895547 C32.8458891,6.11279717 33.1536073,6.03663887 33.3842699,6.11279717 L33.2304109,6.26511377 C32.1535233,6.26511377 30.9227767,6.56974697 29.538171,7.33120532 C29.538171,7.33120532 29.538171,7.33120532 29.4612414,7.33120532 C29.4612414,7.25504702 29.4612414,7.17888872 29.4612414,7.17888872 C29.4612414,7.17888872 29.538171,7.17888872 29.6151005,7.10273042 L29.69203,6.95041382 L29.4612414,7.10273042 L29.4612414,7.10273042 C29.3843119,7.02657212 29.2304528,7.10273042 28.8459311,7.25504702 L28.3843539,7.63583853 L28.1535653,7.63583853 L28.538213,7.33120532 C28.2304948,7.40736363 28.1535653,7.55968023 27.9997062,7.71199683 C27.9227767,7.71199683 27.8458471,7.71199683 27.7689176,7.78815513 L27.3842699,8.24510493 C27.3073404,8.24510493 27.538129,8.01663003 27.1534813,8.16894663 C26.9996223,8.39742153 27.4611995,8.16894663 27.1534813,8.47357983 C26.9226927,8.54973813 26.9226927,8.47357983 26.6919041,8.70205473 C26.6149746,8.70205473 26.6919041,8.62589643 26.7688337,8.54973813 C26.6149746,8.77821303 26.2303269,9.08284623 26.1535233,9.23503819 C25.8458052,9.31119649 25.4611575,9.92033824 25.3843539,9.76814629 C25.3074244,9.84430459 25.1535653,10.2250961 24.9227767,10.3774127 C24.9997062,10.2250961 24.9227767,10.2250961 24.9227767,10.3012544 C24.8458471,10.3012544 24.7689176,10.453571 24.7689176,10.453571 C24.6919881,10.5297293 24.6919881,10.5297293 24.6919881,10.3774127 C24.6919881,10.5297293 24.6150585,10.6058876 24.538129,10.6820459 C24.538129,10.6058876 24.538129,10.5297293 24.4611995,10.453571 C24.4611995,10.453571 24.538129,10.453571 24.4611995,10.453571 C24.4611995,10.3774127 24.4611995,10.3774127 24.4611995,10.3012544 C24.4611995,10.2250961 24.4611995,10.1489378 24.4611995,9.99662119 C24.3073404,9.99662119 24.2304109,9.46351309 24.0765518,9.15900453 C24.1534813,8.70205473 24.3073404,9.38747943 24.3842699,9.23516283 C24.3073404,9.23516283 24.1534813,8.54986277 24.0765518,8.70205473 C24.0765518,8.39742153 24.0765518,8.39742153 24.1534813,8.24510493 C23.9226927,8.24510493 24.0765518,7.94047173 23.9226927,7.71199683 C23.9226927,7.25504702 24.0765518,7.55968023 23.9226927,7.02669677 C23.9226927,6.79822187 24.0765518,7.17901337 24.0765518,7.17901337 C23.9996223,6.64590527 23.9226927,6.95053847 23.7688337,6.87438017 C23.6149746,6.26511377 23.7688337,6.56974697 23.8457632,6.34127207 C23.6919041,5.96048057 23.5380451,5.73213031 23.4611155,5.42749711 C23.4611155,5.42749711 23.4611155,5.35133881 23.5380451,5.42749711 C23.3072565,5.04670561 23.1533974,4.20908895 22.8456793,3.82829745 C22.8456793,3.75213915 22.8456793,3.75213915 22.8456793,3.75213915 C22.8456793,3.82829745 22.7687497,3.90445575 22.6918202,3.90445575 C22.6148907,3.67598085 22.4610316,3.52366425 22.4610316,3.44750595 C22.5379611,3.59982255 22.5379611,3.59982255 22.6148907,3.59982255 C22.5379611,3.52366425 22.5379611,3.44750595 22.4610316,3.37134765 C22.4610316,3.14287275 22.6148907,3.67598085 22.7687497,3.59982255 C22.5379611,3.14287275 22.1534394,2.68604759 21.9995803,2.38141439 C22.0765098,2.22909779 22.4611575,3.14287275 22.3072984,2.60988929 C22.384228,2.76220589 22.4611575,2.99068079 22.538087,3.14299739 C22.538087,2.60988929 22.6919461,3.44763059 22.6919461,2.99068079 C22.384228,2.30538073 22.2303689,2.22922243 21.7689176,1.54379773 C21.6150585,1.46763943 21.6919881,1.61995603 21.538129,1.54379773 C21.1534813,1.16300623 20.9996223,0.934655976 20.9228187,0.782339375 C20.846015,0.630022775 20.69203,0.401547874 20.3075083,0.325389573 C20.0767197,0.325389573 19.9228606,0.401547874 19.3844798,0.173072973 C19.4614093,0.173072973 19.5383389,0.0969146727 19.6152684,0.0969146727 C19.2306207,0.0207563725 19.0767617,0.0207563725 18.9229026,0.0969146727 C18.7690435,0.173072973 18.692114,0.173072973 18.2305368,0.0969146727 C18.3843959,0.0207563725 18.8458471,0.0207563725 18.7690435,0.0207563725 C18.2305368,-0.0554019278 18.3843959,0.0969146727 17.9998741,0.173072973 L17.9229446,0.0969146727 C17.0768456,0.249231273 16.3075503,0.78221473 15.5383808,1.23916453 C15.5383808,1.16300623 15.6922399,1.08684793 15.4614513,1.16300623 C14.5384228,1.84830629 13.6152684,2.76220589 12.9230285,3.67598085 C12.846099,3.82829745 12.846099,3.98061405 12.7691694,4.05677235 C12.6922399,4.13293065 12.6153104,4.20908895 12.6922399,4.05677235 C12.4614513,4.43756385 12.7691694,4.13293065 12.6922399,4.28524725 C12.6153104,4.51372215 12.4614513,4.51372215 12.5383808,4.36140555 C12.3075922,5.04670561 11.9229446,6.41755501 11.6922819,7.10285507 L11.6922819,6.95053847 C11.5384228,7.55980487 11.7692114,7.63583853 11.6153523,8.16894663 L11.6153523,8.09278833 C11.3845637,9.38735479 11.3845637,10.8342378 11.2307047,11.8241711 C11.3845637,11.9764877 11.2307047,13.1187376 11.4614933,13.1948959 C11.4614933,13.5756874 11.3845637,13.728004 11.3845637,13.8801959 C11.3845637,13.9563542 11.3845637,14.0325125 11.3845637,14.1848291 C11.3845637,14.2609874 11.3845637,14.3371457 11.3845637,14.413304 C11.3845637,14.4894623 11.3845637,14.6417789 11.3845637,14.6417789 C11.3845637,14.6417789 11.5384228,14.7940955 11.5384228,15.0225704 L11.3845637,14.8702538 C11.4614933,14.9464121 11.4614933,15.0987287 11.5384228,15.2510453 C11.4614933,15.174887 11.4614933,15.174887 11.3845637,15.0987287 L11.3076342,15.0225704 L11.3076342,15.0225704 C11.3076342,15.0225704 11.3845637,15.174887 11.4614933,15.2510453 C11.3845637,15.2510453 11.3076342,15.0987287 11.2307047,15.0225704 C11.1537751,14.9464121 11.1537751,14.8702538 11.1537751,14.7940955 L11.1537751,14.7940955 L11.0768456,14.7179372 L10.846057,14.5656206 L10.3844798,14.1848291 C10.4614093,14.1848291 10.6152684,14.2609874 10.7691275,14.3371457 C10.2306207,14.0325125 10.7691275,14.1848291 10.2306207,13.8801959 C10.3075503,13.9563542 10.1536912,13.8801959 10.1536912,13.8801959 C9.99983212,13.651721 9.46132539,13.1948959 9.07680363,12.966421 L9.23066269,12.966421 C8.53829689,12.4333129 7.69219793,11.9003294 6.76916943,11.3672213 C7.07688756,11.5956962 6.9230285,11.6718545 6.6922399,11.5195379 L6.61531036,11.3672213 C6.38452176,11.3672213 6.84609896,11.5195379 6.46145129,11.4433796 C6.15373316,11.291063 6.30759223,11.2149047 6.53838083,11.291063 C6.38452176,11.2149047 6.23066269,11.1387464 6.07680363,11.1387464 C6.07680363,11.0625881 6.15373316,11.1387464 6.23066269,11.0625881 C5.99987409,11.0625881 5.53829689,10.6056383 5.23070466,10.6817966 L5.23070466,10.6056383 C4.69219793,10.4533217 4.30767617,10.3771634 3.9230285,10.3771634 C3.53838083,10.3771634 3.15385907,10.3771634 2.69228187,10.52948 C2.69228187,10.6056383 2.3076342,10.6817966 2.15377513,10.9102715 C1.53846477,11.1387464 0.923028497,11.7478882 0.615310362,12.4333129 C0.384521761,12.966421 0.615310362,12.5856295 0.615310362,12.8902627 C0.461451295,12.8902627 0.230662694,13.5755627 0.307592227,13.1948959 C0,14.0321386 0,14.3367718 0,15.4790216 C0.0769295337,15.326705 0.0769295337,15.2505467 0.0769295337,15.326705 C0.0769295337,15.5551799 0,15.7836548 0,15.7836548 L0,15.7074965 C0.0769295337,16.9259047 0,18.6012627 0.384647669,19.5150376 L0.384647669,19.4388793 L0.769295337,20.3526543 C0.923154405,20.8096041 0.61543627,20.1241794 0.692365804,20.4288126 C1.15394301,21.4187458 1.23087254,22.1041705 1.6153943,22.8656289 C1.6153943,23.6270873 2.5384228,25.1501286 2.7692114,26.0640282 L2.84614093,25.9878699 C3,26.1401865 2.92307047,26.2925031 3,26.4448197 C3,26.3686614 2.92307047,26.2163448 3.07692953,26.2925031 C3.99995803,28.1201777 4.92311244,30.1000442 6.15385907,31.8515605 C6.61543627,32.4608269 6.6923658,32.0038771 7.1538171,32.8414937 L6.84609896,32.6891771 C7.92298653,33.831427 8.84601502,35.1259934 10.0768876,36.1160513 C9.99995803,36.039893 9.99995803,36.1160513 9.84609896,35.9637347 C9.99995803,36.2683679 10.6921979,36.8013514 10.7691275,36.7251931 C10.9229865,36.8775097 10.7691275,36.8013514 10.846057,36.953668 C11.0768456,37.1821429 11.5384228,37.4106178 11.6152264,37.5629344 C11.6152264,37.5629344 11.5382969,37.5629344 11.4613674,37.4867761 C11.6152264,37.5629344 12.2305368,38.1720761 12.1537332,37.9437259 C12.3845218,38.1722008 12.6153104,38.3245174 12.7691694,38.476834 C12.846099,38.5529923 12.999958,38.6291506 13.0768876,38.7053089 C13.2307466,38.7814672 13.2307466,38.7814672 13.2307466,38.8576255 C13.3076762,38.9337838 13.5384648,39.238417 13.6923238,39.3907336 C13.8461829,39.5430502 14.0769715,39.6953668 14.153901,39.6192085 C14.0769715,39.6953668 14.3846896,39.8476834 14.6924078,39.9238417 C15.0770554,40 15.4615772,40 15.6923658,39.9238417 C15.5385067,40 16.0000839,39.9238417 15.8462249,40 C16.2308725,39.9238417 16.6153943,39.8476834 16.5385907,39.7715251 C17.3846896,39.8476834 18.0001259,39.3145753 18.5385067,39.4668919 C19.6923238,39.0099421 20.7693373,38.4769586 21.6923658,37.9438505 C21.6923658,38.0200088 21.4615772,38.1723254 21.1538591,38.324642 C20.9230705,38.4769586 20.6153523,38.5531169 20.6922819,38.6292752 C21.6153104,38.0961671 22.0768876,37.639342 22.9999161,37.1062339 C23.2307047,36.9539173 22.9229865,37.2585505 22.846057,37.3347088 C23.692156,36.725567 24.5383808,36.1924589 25.1536912,35.5070342 C25.1536912,35.5070342 25.0767617,35.5831925 24.9998321,35.6593508 C25.1536912,35.5070342 25.3075503,35.4308759 25.3075503,35.3547176 L25.1536912,35.5070342 C24.8459731,35.5831925 25.5383389,34.8977678 25.5383389,34.8216095 C25.4614093,35.202401 26.2307047,34.2124678 26.0768456,34.8216095 C26.1537751,34.7454512 26.2307047,34.5931346 26.1537751,34.5931346 C26.3076342,34.5169763 26.3845637,34.440818 26.2307047,34.6692929 C26.6922819,34.2123431 26.4614933,34.2885014 26.846015,33.9078346 C26.846015,33.9078346 26.7690855,34.0601512 26.7690855,34.1363095 C26.9229446,33.9078346 27.0768036,33.6032014 27.4614513,33.2986928 C27.4614513,33.2986928 27.5383808,33.2986928 27.3845218,33.4510094 C27.9998321,32.841743 28.2306207,32.3087595 28.9229865,31.6233348 C28.846057,31.927968 29.1537751,31.3948599 29.3076342,31.4710182 L29.6153523,31.0902267 L29.4614933,31.166385 C29.7692114,30.8617518 29.9230705,30.481085 30.2306627,30.2526101 L30.0768036,30.5572433 L30.6153104,29.9481015 L30.2306627,30.2527347 C30.4614513,29.8719432 30.0768036,30.1765764 30.4614513,29.7957849 C30.3845218,29.8719432 30.7691694,29.4911517 30.999958,29.3388351 L30.999958,29.3388351 C31.0768876,29.1103602 31.2307466,28.9580436 31.4615352,28.7296934 C31.5384648,28.7296934 31.5384648,28.88201 31.6153943,28.88201 C31.6923238,28.6535351 32.2307047,28.0443933 32.3077601,27.8159184 C32.3077601,27.8920767 32.3077601,27.968235 32.3846896,27.968235 L32.4616192,27.7397601 C32.6154782,27.5874435 32.6154782,27.5874435 32.6924078,27.6636018 C33.0770554,27.206652 32.4616192,27.6636018 32.9231964,27.206652 C32.9231964,27.2828103 32.9231964,27.206652 32.8462668,27.3589686 C33.3847736,26.8258605 33.6923658,26.2167188 34.153943,25.6836107 C34.3847316,25.6074524 33.8462249,26.1405605 34.0770135,26.0644022 C34.6155202,25.3029438 35.153901,24.3128859 35.6924078,23.5514275 L35.6154782,23.7037441 C35.5385487,23.4752692 36.0770554,23.170636 36.2307886,22.7138109 C36.1538591,22.7899692 36.2307886,22.8661275 36.2307886,22.8661275 C36.6154363,22.3330194 36.8462249,21.7238776 37.2307466,20.809978 L37.2307466,20.9622946 C37.4615352,20.6576614 37.6923238,20.0485197 37.8461829,19.6677282 C37.8461829,19.5154116 37.9231124,19.2869367 37.8461829,19.4392533 C38.5385487,18.3731617 38.4614933,17.0785952 38.8461409,16.012379 C38.8461409,16.1646956 38.8461409,16.3170122 38.8461409,16.2408539 C38.9230705,15.9362207 38.9230705,15.6317122 38.9230705,15.2509207 C38.8461409,15.327079 38.8461409,15.4032373 38.7692114,15.5555539 C38.6922819,15.4032373 38.6922819,15.1747624 38.7692114,14.9464121 C38.7692114,15.4033619 38.9230705,14.9464121 39,14.7940955 L38.9230705,14.7940955 C38.6148487,14.1845798 38.2303269,14.5653713 38.384186,13.8800713 Z M29.7687078,12.8138551 C29.6917782,12.9661717 29.4609896,13.1184883 29.3840601,13.1946466 C29.7687078,13.04233 29.7687078,12.9661717 29.9993705,12.8138551 L29.9993705,12.8138551 C30.0763,12.7376968 30.1532295,12.6615385 30.3070886,12.6615385 C30.2301591,12.6615385 30.2301591,12.7376968 30.2301591,12.7376968 C30.3070886,12.6615385 30.4609477,12.5853802 30.5378772,12.5092219 L30.3840181,12.5853802 C30.6148067,12.1284304 31.0763839,11.9762384 31.6147648,11.5954469 C31.1531876,11.9762384 31.5378352,11.7477635 31.5378352,11.8239218 C31.6916943,11.8239218 31.9224829,11.7477635 31.8455534,11.8239218 C32.076342,11.6716052 32.230201,11.8239218 32.5379192,11.7477635 C32.5379192,11.7477635 32.7687078,11.8239218 32.6917782,11.9000801 C32.9225668,12.0523967 32.6917782,11.8239218 32.6917782,11.7477635 C32.9225668,11.8239218 33.0764259,12.128555 33.230285,12.4330636 C33.3072145,12.7376968 33.4610736,13.1183636 33.5380031,13.4991551 C33.6149326,14.1084215 33.7687917,14.3367718 33.6918622,14.8698799 C33.6918622,14.9460382 33.6918622,14.9460382 33.6918622,15.0221965 C33.6149326,15.0983548 33.6149326,14.7937216 33.6149326,14.7937216 C33.5380031,15.1745131 33.4610736,15.402988 33.384144,15.7836548 C33.384144,15.7074965 33.3072145,15.7836548 33.230285,15.8598131 C33.1533554,16.088288 33.3072145,16.088288 33.1533554,16.3929212 C33.1533554,16.3167629 33.0764259,16.2406046 33.0764259,16.088288 C32.9994964,16.3929212 32.9994964,16.6974298 32.9225668,17.0782213 C32.8456373,17.1543796 32.9225668,16.8497464 32.9225668,16.6974298 C32.8456373,17.0782213 32.6148487,17.6112048 32.6917782,17.7635214 L32.8456373,17.5350465 C32.7687078,17.6873631 32.7687078,17.5350465 32.7687078,17.4588882 C32.8456373,17.154255 32.9994964,17.0019384 32.9994964,17.0019384 L32.9225668,17.2304133 C33.230285,17.0780967 33.230285,16.3166383 33.384144,15.8596885 L33.4610736,16.0881634 C33.0764259,17.3827299 32.4611155,18.601138 31.9995383,19.5150376 C31.9995383,19.5150376 31.9995383,19.5150376 31.9995383,19.5911959 C31.9226088,19.5150376 31.9226088,19.5150376 31.8456793,19.4388793 C31.8456793,19.4388793 31.9226088,19.362721 31.9226088,19.2865627 L31.8456793,19.1342461 L31.7687497,19.4388793 L31.7687497,19.4388793 C31.6918202,19.4388793 31.5379611,19.5150376 31.3071725,19.8196708 C31.230243,19.9719874 31.230243,20.124304 31.1533135,20.3527789 L30.9994544,20.4289372 L31.230243,20.0481457 C30.9994544,20.2004623 30.9994544,20.4289372 30.9994544,20.5812538 C30.9225249,20.5812538 30.8455953,20.6574121 30.7686658,20.7335704 L30.6148067,21.2666785 C30.5378772,21.2666785 30.6148067,20.9620453 30.3840181,21.2666785 C30.3070886,21.4951534 30.6148067,21.1905202 30.4609477,21.4951534 C30.2301591,21.64747 30.2301591,21.5713117 30.1532295,21.8759449 C30.0763,21.8759449 30.0763,21.7997866 30.1532295,21.7236283 C30.0763,21.9521032 29.7685819,22.3327701 29.7685819,22.4850867 C29.5377933,22.6374033 29.2300751,23.246545 29.1532715,23.0942284 C29.1532715,23.1703867 28.9994124,23.5511782 28.8455534,23.7795285 C28.9994124,23.3225787 28.230243,24.4648286 28.1531876,24.2364783 C28.076258,24.6172698 27.4608218,25.2264116 27.0763,25.6833614 C27.0763,25.6833614 27.0763,25.6072031 27.1532295,25.5310448 C26.9224409,25.7595197 26.8455114,25.835678 26.6147228,25.9118363 C26.6916523,26.0641529 26.3839342,26.4449444 26.2300751,26.7494529 C25.8454275,26.9779278 26.3070047,26.4448197 26.0762161,26.4448197 C26.1531456,26.520978 25.6915684,27.0539615 25.8454275,26.9779278 C25.5377093,27.1302444 25.6146389,27.1302444 25.4607798,27.2064027 C25.5377093,27.3587193 25.3069207,27.4348776 25.1530617,27.7395108 C24.768414,28.044144 24.9222731,27.7395108 24.6145549,28.1203023 C24.3837663,28.2726189 24.6914845,27.8918274 24.6914845,27.8918274 C24.3068368,28.2726189 24.6145549,28.1964606 24.6145549,28.2726189 C24.2299072,28.7295687 24.3068368,28.4249355 24.1529777,28.5010938 C23.9221891,28.805727 23.8452596,29.1102356 23.614471,29.3387105 L23.5375414,29.3387105 C23.3067528,29.719502 22.6914425,30.1763271 22.4606539,30.6332769 L22.3837243,30.6332769 C22.4606539,30.6332769 22.5375834,30.7094352 22.5375834,30.7094352 C22.3837243,30.8617518 22.3067948,31.0902267 22.1529357,31.0902267 C22.2298653,31.0140684 22.2298653,30.9379101 22.2298653,30.8617518 L22.0760062,31.0902267 C21.8452176,31.166385 22.3067948,30.8617518 22.2298653,30.7855935 C21.9221471,31.166385 21.614429,31.6232102 21.3068368,31.7755268 C21.1529777,31.6993685 21.9221471,31.166385 21.4606958,31.3947353 C21.6145549,31.318577 21.768414,31.1662604 21.9222731,31.0901021 C21.4606958,31.2424187 22.1530617,30.8616272 21.768414,31.0139438 C21.2299072,31.4708936 21.2299072,31.6230856 20.6915264,32.0038771 C20.6145969,32.1561937 20.768456,32.0800354 20.6915264,32.232352 C19.9991606,32.9938103 19.8454275,32.4608269 19.3838503,33.0699686 C19.3069207,33.2222852 19.3069207,33.4507601 18.7685399,33.6030767 C18.7685399,33.5269184 18.8454694,33.4507601 18.8454694,33.3746018 C18.2301591,33.679235 18.6146808,33.7553933 17.9224409,33.9838682 C17.9993705,33.9077099 18.3840181,33.679235 18.3070886,33.7553933 C17.8455114,33.8315516 18.0763,33.9838682 17.6917782,34.1361848 L17.5379192,34.0600265 C17.230201,34.2123431 16.8455534,34.3646597 16.5379611,34.5169763 C16.3841021,34.5931346 16.1533135,34.6692929 15.9994544,34.7454512 L15.8455953,34.8216095 L15.7686658,34.8216095 L15.6917363,34.8216095 L15.6148067,34.8216095 C15.6917363,34.8216095 15.6917363,34.8216095 15.6917363,34.7454512 C15.6917363,34.7454512 15.5378772,34.6692929 15.4609477,34.5931346 C15.3840181,34.5169763 15.2301591,34.440818 15.1532295,34.3646597 C14.9224409,34.2123431 14.7685819,33.9838682 14.5379192,33.8315516 C14.1532715,33.4507601 13.7687497,33.0700933 13.4610316,32.6893018 L13.0763839,32.5369852 C12.9994544,32.4608269 12.9994544,32.3846686 13.0763839,32.4608269 C12.8455953,32.1561937 12.9994544,32.4608269 12.8455953,32.3846686 C12.6917363,32.232352 12.6917363,32.1561937 12.8455953,32.232352 C12.3070886,31.7754022 11.3840601,30.9377855 10.9994124,30.2523608 L11.076342,30.3285191 C10.7686238,29.8715693 10.4609057,29.9477276 10.230243,29.4909024 L10.3071725,29.5670607 C9.61480673,28.5771275 8.76870777,27.5109113 8.46098963,26.5971363 C8.23020103,26.520978 7.9224829,25.5310448 7.6918202,25.5310448 C7.4610316,24.8457447 7.61489067,24.9979367 7.230243,24.0841617 C7.15331347,23.8556868 6.92252487,23.7795285 6.7686658,23.4750199 L6.84559533,23.3988616 L6.5378772,23.0180701 L6.5378772,22.7134369 L6.38401813,22.484962 C6.46094766,22.5611203 6.46094766,22.7134369 6.38401813,22.7134369 C6.15322953,22.3326454 5.99937046,21.6473454 6.0763,21.5711871 C5.92244093,21.2665539 5.76858186,20.885887 5.61472279,20.5812538 C5.69165233,20.5812538 5.76858186,20.7335704 5.84551139,20.885887 C5.53779326,20.3527789 5.92244093,20.7335704 5.61472279,20.2767453 C5.61472279,20.3529036 5.53779326,20.2767453 5.53779326,20.2767453 C5.53779326,19.9721121 5.30700466,19.4391286 5.15314559,18.9821788 L5.23007512,19.0583371 C5.15314559,18.6775456 4.99928652,18.2207205 4.92235699,17.839929 C4.76849792,17.2307872 4.84542746,17.3829792 4.84542746,17.2307872 C4.76849792,17.2307872 4.61463886,17.1546289 4.61463886,16.926154 C4.69156839,16.926154 4.69156839,17.0023123 4.76849792,17.0784706 C4.76849792,17.0023123 4.61463886,17.0023123 4.69156839,16.8499957 C4.84542746,16.926154 4.84542746,17.0784706 4.84542746,17.0784706 L4.92235699,17.0784706 C4.92235699,17.1546289 4.92235699,17.1546289 4.92235699,17.2307872 C4.92235699,17.1546289 4.99928652,17.2307872 4.99928652,17.3069455 C4.99928652,17.3069455 5.07621606,17.3831038 5.15314559,17.4592621 C5.23007512,17.5354204 5.30700466,17.5354204 5.38393419,17.5354204 L5.38393419,17.6115787 C6.15310362,18.0685285 6.46082176,18.2968788 7.07625803,18.7538286 C7.15318756,18.6776703 7.38397616,18.9061452 7.61476476,18.9823035 C7.99941243,19.363095 8.38393419,19.8960784 8.84551139,20.3530282 C9.23015906,20.6576614 8.99937046,20.4291865 9.23015906,20.5053448 C9.15322953,20.5815031 9.61480673,21.1146112 9.38401813,20.8861363 C9.92252487,21.4954027 10.0763839,21.6475947 10.7686238,22.4091777 C10.6916943,22.3330194 10.6916943,22.1807028 10.7686238,22.1807028 C10.9224829,22.3330194 10.9994124,22.5614943 10.9224829,22.5614943 L10.8456793,22.5614943 C11.6917782,23.3991109 12.3072145,24.845994 13.0765098,25.4552604 L12.9995803,25.4552604 C13.2303689,25.6837353 13.4611575,25.9122102 13.6919461,26.1405605 C13.9996642,26.521352 13.4611575,25.9882439 13.6150166,26.2928771 C13.9996642,26.6736686 14.3073824,26.9021435 14.6149746,27.206652 C14.9226927,27.5112852 15.3073404,27.8159184 15.8457212,27.8159184 C16.1534394,28.0443933 16.9995383,28.1205516 17.6919041,27.8159184 C18.3842699,27.5112852 18.9226508,26.9783018 19.2303689,26.4451937 L19.1534394,26.4451937 C19.2303689,26.1405605 19.3072984,26.1405605 19.4611575,25.9120856 C19.384228,25.9120856 19.3072984,26.2167188 19.3072984,25.9882439 C19.4611575,25.4551358 19.4611575,24.7698357 19.2303689,24.2367276 L18.9995803,23.8559361 L18.8457212,23.5513029 C18.7687917,23.322828 18.6149326,23.0943531 18.5380031,22.8660028 C18.0764259,21.9522279 17.8456373,21.0383283 17.5380451,20.1245533 C17.384186,19.4392533 17.0764679,19.8199201 16.9995383,18.9061452 L17.1533974,19.1346201 C16.6148907,17.7638953 16.538087,16.2408539 16.2303689,14.8701292 C16.2303689,14.9462875 16.3072984,14.9462875 16.3072984,15.0986041 C16.384228,14.7939709 16.2303689,14.0325125 16.1534394,14.0325125 C16.1534394,13.8040376 16.2303689,13.9563542 16.2303689,13.8040376 C16.3072984,13.4994044 16.0765098,13.0425793 16.1534394,12.8902627 C16.1534394,12.8902627 16.1534394,12.8902627 16.1534394,12.966421 C16.1534394,12.7379461 16.1534394,12.2049626 16.0765098,12.3572792 C16.1534394,11.8241711 16.0765098,11.3673459 16.1534394,10.9103961 C16.0765098,10.6057629 16.384228,9.99662119 16.1534394,9.92046289 C16.3072984,9.99662119 16.4611575,9.08284623 16.4611575,8.70205473 C16.4611575,8.85437133 16.6150166,8.47357983 16.6150166,8.62589643 C16.7688756,8.24510493 16.8458052,7.94059637 16.6919461,7.94059637 C16.9227347,7.63596317 16.9996642,7.33145462 17.1535233,7.02682141 C17.2304528,6.87450481 17.3073824,6.79834651 17.3073824,6.64602991 C17.3843119,6.56987161 17.3843119,6.56987161 17.4612414,6.64602991 C17.4612414,6.56987161 17.538171,6.56987161 17.6151005,6.64602991 C17.69203,6.72218821 17.8458891,6.95066311 17.9228187,7.17913801 C18.0766777,7.63608782 18.2305368,8.16907127 18.3843959,8.62602107 C18.2305368,8.62602107 18.1536073,7.55992952 17.9997482,7.63608782 C18.3074663,8.54986277 18.5382549,9.08297088 18.6150585,10.0729041 C18.6150585,10.301379 18.538129,9.92058753 18.4611995,9.84442923 C18.6919881,10.8343625 18.6919881,11.7482621 18.8458471,12.5858788 C18.8458471,12.5858788 18.7689176,12.5097205 18.7689176,12.4335622 C18.7689176,12.5858788 18.7689176,12.8143537 18.8458471,12.8143537 L18.8458471,12.6620371 C18.9227767,12.3574039 19.1535653,13.3473371 19.2304948,13.3473371 C18.9997062,13.0427039 19.2304948,14.1849538 18.9227767,13.8042869 C18.9227767,13.8804452 18.9997062,14.0327618 19.0766357,14.0327618 C19.0766357,14.1850784 19.0766357,14.2612367 18.9997062,14.1089201 C19.0766357,14.7180619 19.1535653,14.4897116 19.1535653,15.0226951 C19.1535653,15.0226951 19.0766357,14.9465368 19.0766357,14.8703785 C19.1535653,15.1750117 19.2304948,15.4034866 19.2304948,15.93647 C19.2304948,15.93647 19.1535653,15.93647 19.1535653,15.8603117 C19.2304948,16.6979284 19.3843539,17.2310365 19.3074244,18.1448114 C19.1535653,17.9163365 19.2304948,18.4494446 19.0766357,18.5256029 L19.0766357,18.9825527 L19.1535653,18.7540778 C19.1535653,19.2110276 19.2304948,19.5155362 19.1535653,19.8963277 L19.0766357,19.5916945 L19.0766357,20.3531529 L19.1535653,19.8962031 C19.2304948,20.3531529 19.3074244,19.8200448 19.3074244,20.4293112 C19.3074244,20.2769946 19.3074244,20.886261 19.1535653,21.0385776 L19.1535653,21.0385776 C19.1535653,21.2670525 19.2304948,21.4955274 19.1535653,21.8000359 C19.0766357,21.8761942 18.9997062,21.7238776 18.9997062,21.8000359 C19.0766357,21.9523525 19.0766357,22.1808274 19.1535653,22.485336 C19.2304948,22.7899692 19.3843539,23.0184441 19.4612834,23.0944777 C19.3843539,23.0183194 19.3074244,23.0944777 19.3074244,23.0944777 C19.3843539,23.170636 19.3843539,23.170636 19.4612834,23.170636 C19.538213,23.3229526 19.6151425,23.3991109 19.538213,23.3991109 C19.9997902,23.8560607 19.538213,23.170636 19.9997902,23.7037441 C19.9228606,23.7037441 19.9997902,23.7037441 19.8459311,23.6275858 C20.4612414,24.1606939 21.2305368,24.2367276 21.8458471,24.1606939 C21.9227767,24.2368522 21.7689176,24.2368522 21.6150585,24.2368522 C21.4611995,24.2368522 21.3073404,24.2368522 21.4611995,24.3130105 C21.9997062,24.3130105 22.538087,24.1606939 22.9996642,23.8560607 C23.4612414,23.5514275 23.7688337,23.0946024 23.8457632,22.6376526 L23.7688337,22.7899692 C23.6149746,22.5614943 24.0765518,22.1808274 24.0765518,21.6477193 C24.0765518,21.7238776 24.1534813,21.8000359 24.1534813,21.8000359 C24.3073404,21.1908942 24.4611995,20.5816278 24.6919881,19.6678528 L24.6919881,19.8201694 C24.8458471,19.5155362 25.0766357,18.9825527 25.2304948,18.6017612 C25.2304948,18.4494446 25.3074244,18.297128 25.2304948,18.3732863 C25.9996642,17.4595114 26.2304528,16.3171369 27.0766777,15.5556785 C26.9997482,15.6318368 26.9228187,15.8603117 26.9997482,15.7079951 C27.1536073,15.4795202 27.3843959,15.2510453 27.5382549,14.9465368 C27.4613254,14.9465368 27.3843959,15.0226951 27.2305368,15.0988534 C27.2305368,14.9465368 27.3843959,14.7180619 27.5382549,14.5657453 C27.3074663,14.9465368 27.6151845,14.6419036 27.7690435,14.5657453 C27.692114,14.5657453 27.7690435,14.489587 27.692114,14.489587 C28.1536912,14.2611121 27.6151845,14.3372704 28.1536912,13.8803206 L28.1536912,13.9564789 C28.3075503,13.8041623 28.4614093,13.5756874 28.6152684,13.4233708 C28.7691275,13.4233708 28.4614093,13.6518457 28.5383389,13.728004 C29.3072565,13.2708049 29.4611155,12.8900134 29.7687078,12.8138551 Z M33.6149326,13.1946466 C33.6149326,13.1184883 33.6918622,13.1184883 33.6918622,13.04233 C33.6918622,13.1946466 33.7687917,13.2708049 33.7687917,13.4231215 C33.6918622,13.4231215 33.6918622,13.3469632 33.6149326,13.1946466 Z M33.5380031,15.7076212 C33.4610736,15.8599378 33.4610736,16.0122544 33.384144,16.164571 C33.384144,16.0122544 33.384144,15.8599378 33.384144,15.7837795 C33.4610736,15.7076212 33.5380031,15.6314629 33.5380031,15.7076212 Z M26.7687078,16.0122544 C26.7687078,16.0884127 26.7687078,16.164571 26.6917782,16.3168876 L26.6148487,16.3168876 C26.6149746,16.164571 26.6919041,16.0884127 26.7687078,16.0122544 Z M14.9996223,34.1363095 C15.0765518,34.2124678 15.2304109,34.2886261 15.3073404,34.4409427 C15.3073404,34.517101 15.2304109,34.517101 15.1534813,34.4409427 C15.230285,34.3647844 15.0765518,34.2124678 14.9996223,34.1363095 Z M15.6986137,34.6743507 L15.6986137,34.6743507 C15.6986137,34.7616364 15.7868693,34.7616364 15.6986137,34.6743507 C15.7868693,34.7616364 15.6986137,34.7616364 15.6986137,34.6743507 Z M36.1533554,7.40711433 C36.1533554,7.48327263 36.1533554,7.48327263 36.230285,7.55943093 C36.1533554,7.48327263 35.9994964,7.40711433 35.9225668,7.25479773 C35.9225668,7.25479773 35.9994964,7.25479773 36.1533554,7.40711433 Z M33.6918622,6.19224837 C33.7687917,6.19224837 33.7687917,6.27953409 33.7687917,6.27953409 C33.6149326,6.27953409 33.4610736,6.27953409 33.3072145,6.27953409 L33.6918622,6.19224837 Z M15.6149326,1.2387906 C15.5380031,1.2387906 15.5380031,1.3149489 15.384144,1.3911072 L15.384144,1.3911072 C15.5380031,1.3149489 15.6149326,1.3149489 15.6149326,1.2387906 Z M14.9226927,1.7718987 C14.9996223,1.7718987 14.9996223,1.848057 14.8457632,1.9242153 C14.8457632,1.848057 14.6919041,2.0003736 14.5380451,2.0765319 C14.6919041,2.0003736 14.7688337,1.848057 14.9226927,1.7718987 Z M37.928219,17.2306625 L37.8456793,17.2306625 C37.8456793,17.1545042 37.928219,17.0021876 37.928219,16.9260293 C38.0107586,16.926154 38.0107586,17.0021876 37.928219,17.2306625 Z" id="Shape"></path>
                        </g>
                        <g id="numero-1" transform="translate(44.857143, 0.320000)">
                            <path d="M29.5587513,56.2717947 C29.4587513,56.1027105 29.5587513,55.9336263 29.5587513,56.0181684 C29.4587513,55.9336263 29.4587513,55.7645421 29.3587513,55.68 C29.2782972,55.9460808 29.3525712,56.2286484 29.5587513,56.4408788 C29.5587513,56.5254209 29.4587513,56.4408788 29.4587513,56.4408788 C29.5587513,56.609963 29.8587513,56.7790472 29.9587513,56.609963 C29.7587513,56.4408788 29.7587513,56.3563368 29.5587513,56.2717947 Z" id="Path" fill="#00A9E0"></path>
                            <path d="M31.6928571,58.28 C31.6928571,58.18 31.5928571,58.18 31.5928571,58.08 L31.6928571,58.28 Z" id="Path" fill="#00A9E0"></path>
                            <path d="M36.6356449,62.3453061 C36.6356449,62.2453061 36.6356449,62.2453061 36.7356449,62.1453061 C36.6356449,62.1453061 36.4356449,61.7453061 36.6356449,62.3453061 Z" id="Path" fill="#00A9E0"></path>
                            <path d="M31.6803571,59.2628427 L31.6803571,59.1628427 C31.5803571,59.0628427 31.5803571,59.0628427 31.6803571,59.2628427 Z" id="Path" fill="#00A9E0"></path>
                            <path d="M29.6928571,57.28 C29.6928571,57.18 29.6928571,57.08 29.5928571,57.08 L29.6928571,57.28 Z" id="Path" fill="#00A9E0"></path>
                            <path d="M31.5428571,59.83 C31.6428571,59.93 31.5428571,60.43 31.7428571,60.53 C31.6428571,60.33 31.6428571,60.03 31.5428571,59.83 Z" id="Path" fill="#00A9E0"></path>
                            <path d="M0.54633252,39.2717947 C0.44633252,39.1027105 0.44633252,38.9336263 0.54633252,39.0181684 C0.44633252,38.9336263 0.44633252,38.7645421 0.34633252,38.68 C0.315895497,38.9451382 0.385934212,39.2115931 0.54633252,39.4408788 C0.54633252,39.5254209 0.44633252,39.4408788 0.44633252,39.4408788 C0.54633252,39.609963 0.84633252,39.7790472 0.94633252,39.609963 C0.74633252,39.5254209 0.84633252,39.4408788 0.54633252,39.2717947 Z" id="Path" fill="#00A9E0"></path>
                            <path d="M1.69285714,41.23 C1.69285714,41.1747715 1.64808562,41.13 1.59285714,41.13 L1.69285714,41.23 L1.69285714,41.23 Z" id="Path" fill="#00A9E0"></path>
                            <path d="M1.54285714,22.1323437 C1.64285714,22.1323437 1.54285714,22.6323437 1.74285714,22.0323437 C1.64285714,22.0323437 1.64285714,22.1323437 1.54285714,22.1323437 Z" id="Path" fill="#00A9E0"></path>
                            <path d="M1.69285714,41.23 L1.59285714,41.13 L1.69285714,41.23 Z" id="Path" fill="#00A9E0"></path>
                            <path d="M38.5428571,39.43 L38.7428571,38.93 C38.6177145,39.0668683 38.5466286,39.2445832 38.5428571,39.43 Z" id="Path" fill="#00A9E0"></path>
                            <path d="M38.5428571,38.38 C38.6428571,38.28 38.6428571,38.18 38.7428571,38.08 L38.7428571,37.98 L38.5428571,38.38 Z" id="Path" fill="#00A9E0"></path>
                            <polygon id="Path" fill="#00A9E0" points="18.6928571 6.18 18.6928571 6.18 18.5928571 6.18"></polygon>
                            <path d="M5.74285714,48.33 L5.54285714,48.03 C5.64285714,48.13 5.64285714,48.23 5.74285714,48.33 Z" id="Path" fill="#00A9E0"></path>
                            <path d="M24.4928571,53.28 C24.5928571,53.18 24.6928571,53.18 24.7928571,53.08 C24.5928571,53.18 24.4928571,53.18 24.4928571,53.28 Z" id="Path" fill="#00A9E0"></path>
                            <polygon id="Path" fill="#00A9E0" points="37.5928571 40.23 37.5928571 40.23 37.6928571 40.13"></polygon>
                            <path d="M0.692857143,39.28 C0.692857143,39.18 0.692857143,39.08 0.592857143,39.08 L0.692857143,39.28 Z" id="Path" fill="#00A9E0"></path>
                            <path d="M1.49285714,41.83 C1.59285714,41.93 1.69285714,42.43 1.79285714,42.53 C1.78117304,42.2679796 1.67453808,42.0191647 1.49285714,41.83 L1.49285714,41.83 Z" id="Path" fill="#00A9E0"></path>
                            <polygon id="Path" fill="#00A9E0" points="20.4428571 53.23 20.8428571 53.13 20.5428571 53.13"></polygon>
                            <path d="M19.5928571,59.43 C19.5928571,59.33 19.6928571,59.23 19.6928571,59.03 L19.6928571,58.93 L19.5928571,59.43 Z" id="Path" fill="#00A9E0"></path>
                            <path d="M12.7428571,2.1425 L12.5428571,2.1425 C12.6428571,2.2425 12.6428571,2.2425 12.7428571,2.1425 Z" id="Path" fill="#00A9E0"></path>
                            <path d="M12.7928571,2.13140255 C12.6828882,2.11773409 12.5726312,2.15448641 12.4928571,2.23140255 C12.5726312,2.15448641 12.6828882,2.11773409 12.7928571,2.13140255 Z" id="Path" fill="#00A9E0"></path>
                            <path d="M12.6928571,2.1425 L12.5928571,2.1425 C12.6928571,2.2425 12.6928571,2.2425 12.6928571,2.1425 Z" id="Path" fill="#00A9E0"></path>
                            <path d="M6.39285714,6.38 C6.49285714,6.28 6.69285714,6.18 6.89285714,5.98 C6.7745366,6.16453109 6.59886028,6.30507214 6.39285714,6.38 L6.39285714,6.38 Z" id="Path" fill="#00A9E0"></path>
                            <polygon id="Path" fill="#00A9E0" points="17.4928571 1.23 17.4928571 1.23 17.7928571 1.13"></polygon>
                            <path d="M26.4428571,57.0022222 L26.5428571,57.0022222 C26.6428571,57.0022222 26.5428571,57.2022222 26.6428571,57.2022222 C26.6428571,57.2022222 26.8428571,57.3022222 26.8428571,57.4022222 C26.7830087,57.2769542 26.7489994,57.1409168 26.7428571,57.0022222 C26.6428571,56.9022222 26.4428571,57.0022222 26.4428571,57.0022222 Z" id="Path" fill="#00A9E0"></path>
                            <path d="M23.6928571,42.7199367 C23.6028891,42.9062767 23.5681868,43.1144904 23.5928571,43.3199367 L23.4928571,43.3199367 C23.4928571,43.4199367 23.5928571,43.7199367 23.7928571,43.6199367 C23.6928571,43.4199367 23.7928571,43.4199367 23.6928571,43.2199367 C23.7033534,43.1441069 23.738491,43.0738317 23.7928571,43.0199367 C23.6928571,43.0199367 23.7928571,42.8199367 23.6928571,42.7199367 Z" id="Path" fill="#00A9E0"></path>
                            <path d="M22.6928571,34.0973469 L22.5928571,34.1973469 C22.5928571,34.1973469 22.6928571,34.3973469 22.6928571,34.0973469 Z" id="Path" fill="#00A9E0"></path>
                            <path d="M22.6053571,46.2022222 L22.6053571,46.2022222 C22.7053571,46.1022222 22.7053571,46.2022222 22.6053571,46.2022222 Z" id="Path" fill="#00A9E0"></path>
                            <path d="M17.6928571,25.03 L17.5928571,25.33 C17.610183,25.2253576 17.6439324,25.1241095 17.6928571,25.03 L17.6928571,25.03 Z" id="Path" fill="#00A9E0"></path>
                            <path d="M17.7428571,27.13 C17.6428571,27.13 17.6428571,27.23 17.5428571,27.23 L17.5428571,27.23 L17.7428571,27.13 Z" id="Path" fill="#00A9E0"></path>
                            <path d="M23.5590837,42.2614307 L23.5590837,42.5722098 C23.7476177,41.9506517 23.0877484,41.8470587 23.4648166,41.6398727 C22.9934814,41.8470587 23.3705496,41.0183147 23.3705496,41.3290937 C23.2762825,41.1219077 23.0877484,40.3967566 23.2762825,40.2931636 C23.1820155,40.2931636 23.0877484,40.0859776 23.0877484,39.8787916 C23.3705496,40.0859776 22.9934814,39.3608265 23.2762825,39.3608265 C22.9934814,39.1536405 23.0877484,38.6356755 22.8992144,38.3248964 C22.9512766,38.3248964 22.9934814,38.3712766 22.9934814,38.4284895 C23.2762825,38.0141174 22.239345,37.2889664 23.0877484,37.5997454 C22.8992144,37.5997454 22.8992144,37.1853734 22.8049473,37.2889664 C22.8992144,37.0817804 22.8049473,37.0817804 22.9934814,36.9781873 C22.6164132,36.9781873 22.8992144,35.9422573 23.0877484,36.3566293 C22.9934814,36.0458503 22.5221462,36.0458503 22.9934814,35.8386643 C22.8992144,35.6314782 22.5221462,35.2171062 22.8049473,35.3206992 C22.6164132,35.1135132 22.7106803,34.5955482 22.5221462,34.3883622 C22.239345,34.6991412 22.145078,33.9739901 22.4278791,34.2847691 C22.239345,33.9739901 22.5221462,34.2847691 22.5221462,34.3883622 C22.3336121,33.8703971 22.145078,33.4560251 22.4278791,33.7668041 L22.4278791,34.0775831 C22.8992144,34.1811761 22.7106803,33.0416531 22.3336121,33.0416531 C22.239345,32.212909 22.7106803,32.420095 22.145078,31.694944 C22.4278791,31.694944 21.7680098,27.8620027 21.6737428,26.9296656 C21.4852087,26.6188866 21.2024076,25.2721775 21.4852087,25.4793635 C21.4852087,25.1685845 21.1081405,25.1685845 21.2024076,24.7542124 L21.2024076,24.8578054 C20.9627456,23.4570622 20.8365623,22.0357269 20.8253394,20.6104921 C20.4482712,20.4033061 20.9196064,20.2997131 20.7310723,19.9889341 C20.6368053,20.7140851 20.4482712,18.2278529 20.7310723,19.056597 C20.5425382,18.1242599 20.8253394,17.0883299 20.1654701,15.8452138 C20.2597371,16.3631788 19.7884019,15.9488068 20.071203,15.7416208 C19.8826689,16.0523998 19.5998678,15.4308417 20.071203,15.6380277 C19.976936,15.5344347 19.5998678,15.4308417 19.976936,15.3272487 C18.3743962,13.5661676 16.8661235,15.8452138 16.3947883,16.8811438 C16.1119872,17.2955159 16.2062542,18.1242599 16.0177201,18.3314459 C14.9807826,20.4033061 14.5094474,21.9572012 13.3782429,24.0290614 C13.566777,24.0290614 13.3782429,24.2362474 13.2839759,24.2362474 C12.6241065,26.2045145 11.492902,27.3440376 12.6241065,29.0015257 C13.3782429,29.9338628 15.2635838,30.0374558 15.734919,28.7943397 L15.734919,29.0015257 C16.0177201,28.6907467 16.3005213,27.6548166 16.3947883,27.7584097 C16.3947883,27.6548166 16.5833224,27.2404446 16.4890554,27.3440376 C16.6775894,26.8260726 17.0546576,26.3081075 16.9603906,25.8937355 C17.2431917,25.8937355 17.5259928,25.1685845 17.4317258,25.0649915 C17.6202599,25.2721775 17.4317258,24.4434334 17.6202599,25.0649915 C17.6202599,24.8578054 17.7145269,24.5470264 17.7145269,24.3398404 L17.7145269,24.3398404 C17.9973281,24.9613984 17.6202599,24.3398404 17.6202599,24.9613984 C17.7145269,24.4434334 17.903061,24.8578054 17.7145269,24.9613984 C17.7145269,24.8578054 18.0915951,25.9973285 17.903061,25.6865495 C17.903061,25.8937355 18.2801292,25.6865495 18.3743962,26.2045145 C18.0915951,26.1009215 18.3743962,26.7224796 17.9973281,26.5152936 C17.9973281,26.6188866 18.3743962,26.8260726 18.0915951,26.6188866 C18.1858621,27.0332586 18.2801292,26.8260726 18.2801292,27.1368516 L18.1858621,27.0332586 C18.2801292,27.1368516 18.4686633,27.8620027 18.2801292,27.5512236 C18.7514644,28.1727817 18.3743962,29.3123048 18.6571974,29.3123048 C18.6571974,29.5194908 18.8457315,29.7266768 18.8457315,30.0374558 L18.7514644,29.8302698 L18.8457315,30.3482348 L18.8457315,30.0374558 C18.9399985,30.2446418 19.0342655,29.9338628 19.0342655,30.3482348 C19.0194803,30.4902972 18.9877871,30.6296116 18.9399985,30.7626069 C19.1285326,30.8661999 19.1285326,31.3841649 18.8457315,31.1769789 C19.0342655,31.2805719 18.9399985,31.798537 19.1285326,31.90213 L18.9399985,31.90213 C19.0342655,32.005723 19.1285326,32.109316 18.9399985,32.109316 C18.9399985,32.420095 19.1285326,32.005723 19.1285326,32.420095 L19.0342655,32.316502 C19.2227996,33.5596181 19.1285326,33.5596181 19.4113337,35.0099202 C19.5998678,34.6991412 19.4113337,35.3206992 19.5056008,35.6314782 C19.2227996,35.5278852 19.5998678,36.4602223 19.6941349,36.8745943 L19.5998678,36.7710013 C19.5998678,36.9781873 19.5998678,37.8069314 19.8826689,37.7033384 C19.5998678,38.5320825 20.2597371,39.0500475 20.071203,39.7751986 C19.8826689,39.2572335 20.071203,40.1895706 20.071203,40.1895706 C20.1654701,40.0859776 20.1654701,40.0859776 20.1654701,39.9823846 C20.2597371,40.0859776 20.3540042,40.1895706 20.3540042,40.2931636 C20.2597371,39.9823846 20.071203,40.5003496 20.2597371,40.3967566 C19.976936,40.6039426 20.7310723,40.6039426 20.3540042,40.8111286 C20.5425382,41.2255007 20.5425382,42.0542447 20.4482712,41.4326867 C20.2597371,41.7434657 20.3540042,41.9506517 20.3540042,42.2614307 C20.6368053,41.9506517 20.5425382,42.7793958 20.7310723,43.0901748 C20.1654701,42.5722098 20.5425382,44.4368839 20.5425382,43.9189189 C20.4482712,45.68 21.7680098,45.265628 22.050811,45.576407 C22.4278791,45.783593 23.2762825,45.058442 22.8992144,45.68 C23.0877484,45.576407 23.6533507,44.8512559 23.2762825,45.472814 C23.4648166,45.265628 23.8418848,44.5404769 23.5590837,44.8512559 C23.7476177,44.7476629 23.5590837,45.265628 23.3705496,45.162035 C23.5590837,44.7476629 22.9934814,45.472814 22.7106803,45.576407 C22.8992144,44.9548489 23.9361518,44.6440699 23.6533507,43.6081398 C23.9361518,43.6081398 23.8418848,43.7117329 24.0304189,43.8153259 L23.9361518,43.6081398 C24.5017541,43.4009538 23.7476177,42.5722098 23.5590837,42.2614307 Z M21.5794757,29.3123048 L21.5794757,29.4158978 C21.6737428,29.4158978 21.5794757,29.4158978 21.5794757,29.3123048 Z M21.4852087,28.6907467 C21.4852087,28.7943397 21.5794757,29.0015257 21.3909416,29.0015257 C21.4634482,28.9188854 21.4980935,28.8046669 21.4852087,28.6907467 L21.4852087,28.6907467 Z M19.5998678,38.6356755 C19.6941349,38.6356755 19.6941349,38.7392685 19.6941349,38.8428615 C19.6941349,38.7392685 19.5998678,38.7392685 19.5998678,38.6356755 L19.5998678,38.6356755 Z M20.5425382,44.6440699 C20.5425382,44.4368839 20.7310723,44.6440699 20.7310723,44.7476629 C20.7310723,44.6440699 20.6368053,44.6440699 20.5425382,44.6440699 L20.5425382,44.6440699 Z M21.9565439,45.162035 L21.8622769,45.058442 C21.9659413,45.0726015 22.0698773,45.0345287 22.145078,44.9548489 C22.050811,44.9548489 21.9565439,45.162035 21.9565439,45.162035 L21.9565439,45.162035 Z" id="Shape" fill="#003478"></path>
                            <polygon id="Path" fill="#00A9E0" points="21.6428571 21.13 21.6428571 21.13 21.6428571 21.23"></polygon>
                            <path d="M19.6928571,31.28 C19.638491,31.2261051 19.6033534,31.1558298 19.5928571,31.08 C19.5928571,31.18 19.5928571,31.28 19.6928571,31.28 Z" id="Path" fill="#00A9E0"></path>
                            <path d="M23.6650794,45.13 L23.6650794,45.23 C23.5650794,45.23 23.6650794,45.23 23.6650794,45.13 Z" id="Path" fill="#00A9E0"></path>
                            <path d="M21.3928571,46.116 C21.4928571,46.116 21.6928571,46.316 21.8928571,46.216 L21.8928571,46.216 C21.7928571,46.316 21.4928571,46.116 21.3928571,46.116 Z" id="Path" fill="#00A9E0"></path>
                            <polygon id="Path" fill="#00A9E0" points="19.6428571 33.08 19.5428571 33.18 19.7428571 33.28"></polygon>
                            <path d="M22.8000694,48.226906 C22.7000694,48.326906 22.5000694,48.226906 22.5000694,48.226906 C22.5000694,48.326906 22.3000694,48.326906 22.2000694,48.426906 C22.4506849,48.4556128 22.7024485,48.3836803 22.9000694,48.226906 C23.0000694,48.226906 22.9000694,48.326906 22.9000694,48.326906 C23.0000694,48.226906 23.2000694,48.026906 23.0000694,47.926906 C22.9105704,48.0096434 22.8420196,48.1124695 22.8000694,48.226906 L22.8000694,48.226906 Z" id="Path" fill="#00A9E0"></path>
                            <path d="M24.6928571,47.13 L24.5928571,47.23 L24.6928571,47.13 Z" id="Path" fill="#00A9E0"></path>
                            <path d="M11.5761905,45.2724129 C11.5761905,45.1724129 11.8761905,45.4724129 11.5761905,45.0724129 L11.5761905,45.2724129 Z" id="Path" fill="#00A9E0"></path>
                            <path d="M28.7428571,12.28 C28.7428571,12.18 28.6428571,12.18 28.6428571,12.08 L28.5428571,12.08 L28.7428571,12.28 Z" id="Path" fill="#00A9E0"></path>
                            <polygon id="Path" fill="#00A9E0" points="5.69285714 29.13 5.59285714 29.13 5.69285714 29.23"></polygon>
                            <path d="M29.7428571,42.08 C29.7428571,42.18 29.6428571,42.18 29.5428571,42.28 L29.7428571,42.08 Z" id="Path" fill="#00A9E0"></path>
                            <path d="M33.6803571,21.2022222 L33.6803571,21.2022222 C33.5803571,21.1022222 33.5803571,21.2022222 33.6803571,21.2022222 Z" id="Path" fill="#00A9E0"></path>
                            <path d="M34.6928571,28.28 C34.6928571,28.18 34.6928571,28.18 34.5928571,28.08 C34.5928571,28.18 34.5928571,28.28 34.6928571,28.28 Z" id="Path" fill="#00A9E0"></path>
                            <path d="M23.5928571,47.23 L23.6928571,47.13 C23.6376287,47.13 23.5928571,47.1747715 23.5928571,47.23 L23.5928571,47.23 Z" id="Path" fill="#00A9E0"></path>
                            <path d="M26.3928571,46.33 C26.3928571,46.23 26.7928571,46.23 26.8928571,46.03 C26.7928571,46.13 26.5928571,46.13 26.3928571,46.33 Z" id="Path" fill="#00A9E0"></path>
                            <polygon id="Path" fill="#00A9E0" points="33.6928571 31.03 33.5928571 31.23 33.6928571 31.33"></polygon>
                            <path d="M35.6928571,13.23 C35.6928571,13.1747715 35.6480856,13.13 35.5928571,13.13 C35.6480856,13.13 35.6928571,13.1747715 35.6928571,13.23 L35.6928571,13.23 Z" id="Path" fill="#00A9E0"></path>
                            <path d="M19.4952009,7.13 C19.5504294,7.13 19.5952009,7.17477153 19.5952009,7.23 C19.5952009,7.13 20.0952009,7.13 19.4952009,7.13 Z" id="Path" fill="#00A9E0"></path>
                            <path d="M35.6650794,13.2175 L35.6650794,13.2175 C35.6650794,13.1175 35.5650794,13.1175 35.6650794,13.2175 Z" id="Path" fill="#00A9E0"></path>
                            <path d="M21.8928571,52.1295791 L21.3928571,52.2295791 C21.5650951,52.2363611 21.7364767,52.2020848 21.8928571,52.1295791 L21.8928571,52.1295791 Z" id="Path" fill="#00A9E0"></path>
                            <path d="M20.8428571,53.23 C20.7428571,53.23 20.6428571,53.13 20.5428571,53.13 L20.4428571,53.13 L20.8428571,53.23 Z" id="Path" fill="#00A9E0"></path>
                            <polygon id="Path" fill="#00A9E0" points="1.59285714 19.13 1.69285714 19.23 1.69285714 19.13"></polygon>
                            <path d="M31.6803571,47.122265 L31.6803571,47.122265 C31.5803571,47.322265 31.5803571,47.222265 31.6803571,47.122265 Z" id="Path" fill="#00A9E0"></path>
                            <path d="M35.6206349,40.03 L35.6206349,40.33 C35.6206349,40.13 35.7206349,40.03 35.6206349,40.03 Z" id="Path" fill="#00A9E0"></path>
                            <path d="M35.6945339,39.98 C35.5945339,40.08 35.5945339,40.18 35.5945339,40.38 C35.5795701,40.2390402 35.6149965,40.0973345 35.6945339,39.98 L35.6945339,39.98 Z" id="Path" fill="#00A9E0"></path>
                        </g>
                        <g id="coccarda" transform="translate(40.000000, 1.000000)">
                            <path d="M25.9390154,118.535704 L26.0405538,118.637304 L25.9390154,118.535704 Z" id="Path" fill="#00A9E0"></path>
                            <path d="M5.8344,40.303704 L5.8344,40.303704 C5.8344,40.405304 5.8344,40.405304 5.93593846,40.506904 C5.93593846,40.405304 5.8344,40.405304 5.8344,40.303704 Z" id="Path" fill="#00A9E0"></path>
                            <path d="M16.0897846,114.979704 C16.0759059,114.867976 16.1132236,114.755954 16.1913231,114.674904 C16.1368741,114.768429 16.1023066,114.872195 16.0897846,114.979704 L16.0897846,114.979704 Z" id="Path" fill="#00A9E0"></path>
                            <path d="M35.4836308,56.966104 C35.3745322,56.5690498 35.2031716,56.1918281 34.9759385,55.848504 L34.9759385,56.153304 C35.1790154,55.848504 35.2805538,56.762904 35.1790154,56.661304 C35.2805538,56.559704 35.3820923,56.864504 35.4836308,56.966104 Z" id="Path" fill="#00A9E0"></path>
                            <path d="M41.7790154,61.538104 C41.7790154,61.639704 41.8805538,61.741304 41.9820923,61.842904 C41.8805538,61.741304 41.8805538,61.538104 41.7790154,61.538104 Z" id="Path" fill="#00A9E0"></path>
                            <path d="M34.7728615,50.057304 C34.8289397,50.057304 34.8744,50.0118161 34.8744,49.955704 C34.8474703,49.955704 34.8216436,49.9664083 34.8026015,49.985462 C34.7835593,50.0045156 34.7728615,50.030358 34.7728615,50.057304 L34.7728615,50.057304 Z" id="Path" fill="#00A9E0"></path>
                            <path d="M41.5759385,89.884504 C41.4744,89.478104 41.3728615,89.173304 41.2713231,88.766904 C41.2811067,89.1585952 41.3856293,89.5420769 41.5759385,89.884504 L41.5759385,89.884504 Z" id="Path" fill="#00A9E0"></path>
                            <path d="M30.6097846,52.089304 C30.9066867,52.0798622 31.1921944,51.972732 31.4220923,51.784504 L30.6097846,52.089304 Z" id="Path" fill="#00A9E0"></path>
                            <path d="M15.0744,50.870104 C15.3790154,50.666904 14.5667077,50.768504 14.7697846,50.768504 C14.8713231,50.768504 14.9728615,50.870104 15.0744,50.870104 Z" id="Path" fill="#00A9E0"></path>
                            <path d="M43.8097846,85.922104 C43.8192207,86.219186 43.9262861,86.5048668 44.1144,86.734904 L43.8097846,85.922104 Z" id="Path" fill="#00A9E0"></path>
                            <path d="M64.7267077,113.252504 C64.8282522,112.8181 64.8282522,112.366108 64.7267077,111.931704 C64.6757653,112.370495 64.6757653,112.813713 64.7267077,113.252504 L64.7267077,113.252504 Z" id="Path" fill="#00A9E0"></path>
                            <path d="M48.0744,36.036504 C47.9728615,36.239704 47.9728615,36.442904 47.8713231,36.544504 C47.9728615,36.442904 47.9728615,36.239704 48.0744,36.036504 Z" id="Path" fill="#00A9E0"></path>
                            <path d="M64.3205538,110.001304 C63.9288159,109.259359 63.6222499,108.475437 63.4067077,107.664504 L64.0159385,109.188504 C63.2036308,106.546904 61.0713231,102.482904 61.4774769,102.381304 C60.0559385,99.130104 59.5482462,96.996504 58.2282462,94.151704 C59.0405538,95.574104 57.1113231,91.002104 57.5174769,91.306904 C56.6437353,89.4855547 55.864243,87.6204217 55.1820923,85.718904 L55.1820923,85.820504 C55.0805538,85.617304 55.0805538,85.515704 54.9790154,85.312504 C54.9790154,85.33945 54.9897132,85.3652924 55.0087553,85.384346 C55.0277975,85.4033997 55.0536242,85.414104 55.0805538,85.414104 C55.0805538,84.296504 52.0344,79.521304 53.5574769,81.146904 C53.4559385,81.248504 52.5420923,78.810104 52.5420923,79.318104 C52.2374769,78.098904 50.2067077,72.612504 51.1205538,74.441304 C50.1269558,72.5218497 49.3112373,70.5153265 48.6836308,68.446904 C48.0744,67.024504 46.9574769,64.382904 46.4497846,62.757304 C46.3482462,63.671704 45.6374769,61.334904 45.7390154,61.334904 C45.8269114,61.5775912 45.9286161,61.8150461 46.0436308,62.046104 C45.4344,60.318904 45.9420923,61.436504 46.3482462,62.249304 C45.7390154,60.725304 44.9267077,58.896504 44.5205538,57.677304 C44.6220923,57.372504 45.6374769,60.420504 45.1297846,58.794904 L45.7390154,60.623704 C46.7544,59.810904 40.0528615,49.244504 42.0836308,47.517304 L41.7790154,48.126904 C43.0990154,46.602904 42.6928615,46.602904 44.0128615,44.774104 C42.3882462,48.228504 47.8713231,38.474904 47.9728615,35.731704 C49.3944,33.699704 49.6990154,25.368504 49.4959385,22.320504 C49.3944,20.898104 49.3944,22.218904 49.2928615,21.609304 C49.1913231,20.796504 49.1913231,20.491704 49.3944,20.999704 C48.8108624,17.7634108 47.8920599,14.5967287 46.6528615,11.550904 L46.9574769,11.957304 C46.3363598,10.6443939 45.5516624,9.41542744 44.6220923,8.299704 L44.8251692,8.604504 C38.9359385,0.476504 27.3605538,-1.453896 18.4251692,0.984504 C18.5267077,0.984504 18.8313231,0.882904 18.9328615,0.882904 C16.2331845,1.67865703 13.7618609,3.10662429 11.7236308,5.048504 C11.7310345,4.97048975 11.7672379,4.89803915 11.8251692,4.845304 C11.4631687,5.08540759 11.1233537,5.35742442 10.8097846,5.658104 C10.4036308,6.267704 8.27132308,7.994904 7.1544,9.417304 L7.25593846,9.112504 C5.13261875,11.6773982 3.41993386,14.5564526 2.17901538,17.646904 C2.88978462,16.021304 2.68670769,17.545304 2.07747692,18.053304 C1.97593846,18.662904 2.48363077,17.138904 2.17901538,18.358104 C1.8744,19.475704 1.67132308,19.170904 1.8744,18.358104 C1.8744,18.459704 1.26516923,20.796504 1.46824615,19.475704 C-1.47636923,26.790904 0.5544,36.341304 2.78824615,42.030904 C3.86098087,44.3776171 5.30056713,46.5383052 7.05286154,48.431704 C5.8344,46.704504 8.16978462,49.549304 7.56055385,48.939704 C8.77901538,51.174904 13.2467077,52.394104 13.2467077,54.730904 C13.0436308,64.078104 12.5359385,71.799704 12.1297846,82.467704 L12.2313231,82.264504 C12.2549303,82.808438 12.2208943,83.3533442 12.1297846,83.890104 C12.4344,89.579704 11.0128615,101.771704 11.3174769,109.899704 L11.2159385,108.985304 C11.4190154,114.268504 10.5051692,119.958104 11.1144,125.241304 C10.8625201,124.927079 10.7522132,124.522376 10.8097846,124.123704 C11.8251692,130.626104 17.2067077,121.888504 16.9020923,122.498104 C17.3977209,121.751971 17.8388676,120.971008 18.2220923,120.161304 C19.8467077,117.621304 19.3390154,115.284504 21.7759385,118.637304 C21.4713231,118.637304 23.7051692,121.482104 24.5174769,122.396504 C24.2128615,122.091704 25.1267077,123.310904 24.7205538,123.006104 C25.5328615,124.123704 26.4467077,125.139704 26.3451692,124.834904 C33.4528615,131.032504 31.6251692,114.674904 31.1174769,110.915704 C32.2344,121.177304 30.5082462,103.498904 31.2190154,106.445304 C31.0159385,102.889304 31.0159385,99.536504 30.8128615,96.386904 C30.8810119,96.617786 30.9152165,96.8573636 30.9144,97.098104 C30.7113231,95.066104 30.8128615,97.098104 30.3051692,93.745304 C30.6097846,94.761304 30.3051692,90.595704 30.7113231,92.322904 C30.7113231,91.916504 30.6097846,91.408504 30.5082462,91.510104 C30.5082462,90.900504 30.5082462,90.697304 30.6097846,91.306904 C30.5082462,89.071704 30.4067077,89.884504 30.3051692,87.852504 C30.3104346,87.9935575 30.3450157,88.1319657 30.4067077,88.258904 C30.2228741,87.0820737 30.1210899,85.8938716 30.1020923,84.702904 C30.1020923,84.804504 30.2036308,84.702904 30.2036308,84.906104 C30.1020923,82.061304 29.7974769,80.029304 29.7974769,76.879704 C30.0005538,77.590904 30.0005538,74.238104 29.8990154,73.831704 L29.7974769,74.542904 C29.7974769,73.018904 29.5944,71.698104 29.5944,70.377304 L29.6959385,71.494904 L29.5944,68.650104 L29.5944,70.275704 C29.0867077,66.516504 29.4928615,63.163704 28.9851692,59.201304 C29.3913231,59.506104 28.8836308,57.474104 29.1882462,57.880504 C29.1882462,55.746904 28.9851692,58.591704 28.9851692,56.051704 C28.9851692,56.254904 28.9851692,56.153304 29.0867077,56.559704 C31.2190154,50.463704 32.6405538,59.709304 34.5697846,65.500504 L34.4682462,64.890904 C34.8744,65.195704 35.0774769,67.227704 35.5851692,68.751704 C35.2805538,68.446904 37.0067077,73.222104 37.7174769,75.863704 L37.5144,75.457304 C37.9205538,76.676504 38.5297846,80.232504 39.2405538,80.842104 C40.0528615,85.109304 41.7790154,88.766904 42.4897846,92.526104 C41.5759385,89.884504 43.0990154,94.862904 43.0990154,94.964504 C43.0999329,94.5896237 43.0659398,94.2154732 42.9974769,93.846904 C43.2983303,94.5001242 43.5363279,95.1805292 43.7082462,95.878904 C43.2005538,94.456504 43.5051692,95.980504 43.6067077,96.590104 C43.6067077,96.488504 43.7082462,96.691704 43.7082462,96.590104 C44.0128615,98.317304 44.0128615,96.793304 44.5205538,99.130104 L44.4190154,99.028504 C45.4344,101.974904 44.9267077,100.755704 45.9420923,104.311704 C45.7390154,103.803704 45.5359385,102.990904 45.3328615,102.482904 C45.4591456,103.270562 45.6286324,104.050674 45.8405538,104.819704 L45.8405538,104.718104 L46.3482462,106.953304 L46.2467077,106.343704 C47.0590154,107.867704 47.1605538,109.594904 47.9728615,111.728504 C46.9574769,108.985304 47.9728615,112.846104 47.7697846,112.541304 C48.2152289,113.866939 48.5547577,115.225878 48.7851692,116.605304 C49.1913231,117.926104 48.7851692,116.300504 48.8867077,116.402104 C49.1913231,117.722904 50.0036308,119.246904 51.7297846,118.738904 C54.3697846,117.722904 53.1513231,108.070904 53.7605538,109.696504 C53.9636308,108.172504 54.1667077,107.359704 54.2682462,106.343704 L54.2682462,106.445304 C55.0805538,106.445304 55.9944,107.664504 56.8067077,108.172504 C56.4005538,107.867704 56.0959385,107.664504 55.6897846,107.359704 C55.7913231,107.562904 55.0805538,106.953304 54.8774769,107.054904 C55.5882462,107.562904 59.1420923,110.306104 56.6036308,108.578904 C57.7205538,109.391704 59.3451692,110.814104 59.7513231,111.017304 L59.2436308,110.509304 C58.3297846,110.204504 56.8067077,108.274104 58.4313231,109.696504 C58.4313231,109.594904 58.3297846,109.594904 58.3297846,109.493304 C60.0559385,110.610904 63.0005538,115.284504 64.5236308,111.830104 C65.0313231,112.134904 64.5236308,111.220504 64.3205538,110.001304 Z M19.4405538,11.754104 C20.2987121,11.3633958 21.1151751,10.8868371 21.8774769,10.331704 C23.2990154,9.417304 25.6344,10.839704 27.3605538,10.128504 L27.1574769,10.230104 C28.3518342,10.2592513 29.5411907,10.3952602 30.7113231,10.636504 L30.6097846,10.636504 C31.2190154,10.839704 32.1328615,10.941304 32.1328615,11.246104 C32.3359385,11.246104 32.8436308,11.550904 32.7420923,11.347704 C33.2497846,11.550904 34.0620923,12.058904 34.4682462,12.160504 C34.3667077,12.363704 34.9759385,12.770104 35.1790154,12.871704 C35.0774769,12.871704 35.2805538,13.074904 35.1790154,13.074904 C35.3820923,13.278104 35.5851692,13.481304 35.6867077,13.278104 C38.2251692,16.732504 37.5144,15.818104 38.5297846,19.577304 L38.4282462,19.475704 C38.4282462,19.780504 38.7328615,19.678904 39.0374769,20.186904 C38.6313231,20.186904 38.9359385,20.999704 38.7328615,20.898104 C38.8344,21.406104 38.9359385,21.202904 38.9359385,21.710904 L38.8344,21.609304 C38.9359385,21.609304 39.2405538,22.625304 38.9359385,22.320504 C39.1607638,23.1578312 39.1253457,24.0438201 38.8344,24.860504 L38.9359385,24.657304 C38.9038074,25.0741695 38.9735034,25.492599 39.1390154,25.876504 C39.1390154,26.587704 38.7328615,27.197304 38.9359385,28.010104 C38.7328615,27.603704 38.9359385,28.518104 38.6313231,28.213304 C38.5297846,28.721304 38.9359385,28.111704 38.7328615,28.619704 L38.7328615,28.518104 C38.3267077,30.346904 38.4282462,30.753304 37.9205538,32.988504 C37.6159385,32.785304 37.6159385,34.106104 37.5144,34.614104 L37.5144,34.512504 C37.5144,34.817304 36.9051692,35.630104 37.2097846,35.731704 C36.4990154,36.544504 36.7020923,37.560504 36.0928615,38.271704 C36.2959385,37.662104 35.7882462,38.779704 35.7882462,38.779704 C36.0928615,38.576504 36.1944,38.576504 35.9913231,39.084504 C35.6867077,38.576504 35.7882462,39.490904 35.5851692,39.795704 L35.5851692,39.694104 C35.4836308,39.795704 35.4836308,40.303704 35.2805538,40.303704 C35.0686884,40.627203 34.8309884,40.9330025 34.5697846,41.218104 C34.9759385,41.116504 34.2651692,41.929304 34.1636308,42.335704 C34.2651692,41.827704 34.0620923,42.234104 34.0620923,42.030904 C33.9605538,42.132504 33.7574769,42.234104 33.7574769,42.132504 C33.5544,42.335704 33.4528615,42.742104 33.1482462,42.843704 C33.3513231,43.046904 31.1174769,45.078904 31.1174769,44.977304 C30.8428861,45.0864529 30.5989506,45.2607981 30.4067077,45.485304 C30.4067077,45.078904 29.7974769,46.094904 30.1020923,45.383704 C29.8990154,45.586904 29.2897846,46.196504 29.5944,45.586904 C29.3913231,45.790104 28.9851692,46.094904 28.8836308,46.196504 C29.4928615,46.196504 29.8990154,45.688504 30.3051692,45.688504 C29.184269,46.5643984 27.7489836,46.9326434 26.3451692,46.704504 L26.6497846,46.602904 C25.5461839,47.0080308 24.3709165,47.180969 23.1974769,47.110904 C23.6036308,46.907704 22.4867077,47.009304 22.5882462,46.806104 C22.1820923,46.907704 19.6436308,46.806104 20.3544,46.399704 C20.3544,46.602904 19.7451692,46.298104 19.8467077,46.501304 C19.6436308,46.298104 19.6436308,46.399704 19.6436308,46.196504 C19.4405538,46.602904 18.4251692,45.485304 19.0344,45.688504 C18.2220923,45.688504 17.5113231,44.875704 16.5974769,44.164504 C16.5974769,44.570904 16.0897846,44.062904 16.1913231,43.961304 C15.6836308,43.656504 15.3790154,43.250104 15.9882462,43.554904 L16.2928615,43.961304 C16.6990154,43.859704 15.8867077,42.843704 15.4805538,42.945304 C14.7697846,41.624504 14.5667077,41.827704 13.9574769,40.710104 L14.2620923,41.014904 C13.597422,40.1595483 13.0824375,39.1976613 12.7390154,38.170104 C12.6374769,37.662104 11.7236308,35.731704 11.9267077,35.731704 C11.5103846,35.1221221 11.2330713,34.4284187 11.1144,33.699704 L11.2159385,33.801304 C11.1144,33.293304 10.8097846,33.394904 10.8097846,32.886904 L10.8097846,32.988504 C10.2562731,30.8683549 10.0843607,28.666543 10.3020923,26.486104 C9.99747692,27.095704 10.5051692,24.657304 10.5051692,24.962104 C10.5051692,24.758904 10.7082462,24.962104 10.6067077,24.657304 C10.5051692,23.946104 11.2159385,22.828504 11.4190154,21.609304 C11.3174769,21.914104 11.0128615,21.609304 11.3174769,21.507704 C11.1144,21.304504 11.5205538,21.101304 11.4190154,21.406104 L11.3174769,21.507704 C12.1297846,20.491704 12.9420923,18.358104 13.7544,17.138904 C13.8559385,17.240504 14.1605538,16.732504 14.0590154,17.037304 C15.3790154,14.903704 17.5113231,13.379704 19.4405538,11.754104 L19.4405538,11.754104 Z M27.6651692,120.770904 C27.5636308,120.669304 27.1574769,120.466104 27.2590154,120.262904 L27.6651692,120.770904 C26.8528615,119.450104 26.3451692,119.348504 25.9390154,118.535704 C25.5328615,118.027704 24.7205538,117.418104 24.7205538,116.910104 C24.6190154,116.910104 24.2128615,116.503704 24.0097846,116.300504 C24.5174769,116.605304 23.2990154,115.386104 23.6036308,115.284504 C23.1974769,115.081304 22.5882462,114.166904 22.0805538,113.658904 L22.1820923,113.760504 C22.1820923,113.150904 20.0497846,112.236504 21.2682462,112.338104 C21.1667077,112.439704 20.5574769,111.728504 20.5574769,111.931704 C20.3544,111.017304 19.2374769,110.915704 18.5267077,110.509304 C17.4097846,111.322104 17.2067077,110.509304 16.6990154,112.236504 C16.5780259,112.958338 16.4084085,113.671163 16.1913231,114.370104 C16.6990154,114.166904 16.3944,114.878104 16.2928615,114.979704 C16.3944,114.776504 16.2928615,114.776504 16.2928615,114.674904 C16.1518384,115.205592 15.9472805,115.717296 15.6836308,116.198904 C15.4805538,116.198904 15.9882462,115.182904 15.6836308,115.690904 L15.9882462,115.081304 C15.1759385,114.878104 15.2774769,117.011704 14.8713231,117.722904 C14.8713231,117.011704 14.7697846,116.198904 14.7697846,115.386104 C15.3790154,114.776504 14.9728615,111.728504 15.2774769,110.814104 C15.2774769,110.509304 15.0744,110.102904 15.2774769,110.306104 C15.0744,108.985304 15.2774769,107.054904 15.1759385,105.734104 L15.1759385,105.835704 C15.2391797,102.50664 15.4764269,99.1831648 15.8867077,95.878904 C15.8691153,95.9852207 15.8348467,96.0880888 15.7851692,96.183704 C16.0897846,95.167704 15.7851692,93.440504 15.9882462,93.542104 C15.9882462,93.338904 16.1913231,93.542104 15.9882462,93.034104 C15.7851692,92.830904 16.0897846,91.814904 15.9882462,91.205304 C16.3944,90.798904 15.9882462,88.868504 16.1913231,87.954104 C15.8867077,88.970104 15.7851692,86.734904 16.0897846,87.750904 L16.0897846,87.242904 L16.1913231,87.344504 C16.2928615,85.109304 15.8867077,80.943704 16.1913231,79.622904 L16.1913231,77.082904 C15.8867077,76.879704 16.6990154,73.323704 16.4959385,72.409304 L16.4959385,72.510904 C16.4776446,69.7255708 16.6472609,66.942178 17.0036308,64.179704 C16.6990154,62.960504 17.3082462,58.998104 17.4097846,56.661304 C17.0036308,56.153304 21.1667077,57.474104 22.4867077,57.270904 C22.3851692,57.270904 22.3851692,57.372504 22.1820923,57.372504 C23.1974769,57.677304 24.4159385,57.169304 24.7205538,57.575704 C24.9236308,57.575704 24.7205538,57.677304 24.9236308,57.575704 C24.8860693,58.4275163 24.9542828,59.2807008 25.1267077,60.115704 C24.9236308,60.115704 25.0251692,61.334904 25.1267077,61.741304 C25.0251692,61.639704 25.0251692,62.147704 24.9236308,61.944504 C24.9236308,62.452504 25.0251692,62.858904 25.1267077,62.757304 C24.9236308,67.735704 25.7359385,68.751704 25.3297846,70.682104 C25.4313231,71.901304 25.4313231,73.018904 25.5328615,74.136504 C25.5254578,74.0584898 25.4892544,73.9860391 25.4313231,73.933304 C25.5328615,74.644504 25.6344,74.034904 25.9390154,75.152504 C25.6344,74.847704 25.9390154,76.270104 25.5328615,75.660504 C25.6344,75.863704 25.6344,76.371704 25.5328615,76.066904 C25.6344,76.879704 25.7359385,76.574904 25.7359385,77.286104 C25.680736,77.2313467 25.6450578,77.1599471 25.6344,77.082904 C25.6344,77.082904 26.0405538,78.505304 25.7359385,78.302104 C25.7359385,79.318104 26.0405538,80.029304 26.0405538,81.146904 C25.7359385,80.943704 25.9390154,81.959704 25.9390154,82.162904 L26.0405538,81.959704 C26.1213743,82.429305 26.1553874,82.9057764 26.1420923,83.382104 L26.0405538,82.975704 L26.1420923,83.991704 L26.2436308,83.483704 C26.3451692,83.991704 26.4467077,83.382104 26.4467077,84.093304 C26.3297236,85.1765055 26.3638972,86.2707248 26.5482462,87.344504 C26.3451692,86.938104 26.5482462,87.852504 26.3451692,87.649304 C26.3451692,88.360504 26.5482462,87.547704 26.5482462,88.258904 L26.4467077,88.055704 C26.5482462,90.697304 26.4467077,90.595704 26.6497846,93.542104 C26.8528615,92.932504 26.6497846,94.253304 26.6497846,94.761304 C26.3451692,94.659704 26.7513231,96.386904 26.7513231,97.402904 L26.6497846,97.301304 C26.6497846,97.402904 26.5482462,99.434904 26.8528615,99.130104 C26.5482462,100.654104 27.1574769,101.974904 26.8528615,103.295704 C26.6497846,102.178104 26.8528615,105.226104 26.9544,103.803704 C27.0559385,103.905304 27.0559385,104.311704 27.0559385,104.514904 C26.6497846,104.210104 27.1574769,107.054904 27.0559385,107.562904 C27.0559385,107.359704 26.9544,107.054904 26.9544,106.851704 C26.6497846,108.070904 27.1574769,108.782104 27.1574769,110.001304 C27.0559385,109.493304 26.8528615,110.509304 26.8528615,110.407704 C26.7513231,110.814104 27.0559385,111.525304 26.8528615,111.830104 C26.9544,112.338104 26.9544,111.728504 26.9544,111.728504 C26.7513231,112.541304 27.5636308,116.503704 27.2590154,116.097304 C27.2379117,116.506424 27.2720659,116.916522 27.3605538,117.316504 C27.0559385,117.418104 27.4620923,117.722904 27.4620923,118.129304 C27.3605538,118.027704 27.2590154,117.926104 27.2590154,117.824504 C27.3605538,118.230904 27.7667077,119.653304 27.3605538,118.637304 C27.3605538,119.551704 27.8682462,120.161304 27.6651692,120.770904 L27.6651692,120.770904 Z M27.8682462,120.974104 C27.9697846,120.669304 27.6651692,120.161304 27.8682462,120.262904 C27.7667077,119.958104 27.6651692,119.856504 27.6651692,119.653304 C27.3605538,120.059704 27.6651692,118.230904 27.6651692,119.348504 C27.9697846,119.043704 27.5636308,118.129304 27.5636308,117.519704 C28.0713231,118.230904 27.8682462,119.653304 27.8682462,120.974104 L27.8682462,120.974104 Z M32.8436308,51.276504 C33.0467077,50.971704 32.1328615,51.276504 32.0313231,51.479704 L32.2344,51.479704 C31.6606334,51.7232471 31.1157404,52.0299352 30.6097846,52.394104 C30.6097846,52.190904 28.9851692,53.105304 29.1882462,52.597304 C28.9851692,52.800504 28.1728615,52.902104 27.8682462,53.105304 C28.1728615,52.698904 27.1574769,53.206904 26.9544,53.206904 C27.0559385,53.206904 26.9544,53.206904 27.0559385,53.105304 C25.1320984,53.3093884 23.1920862,53.3093884 21.2682462,53.105304 C21.4713231,52.800504 19.8467077,52.902104 19.0344,52.698904 L19.1359385,52.698904 C18.6282462,52.698904 17.7144,51.886104 17.5113231,52.292504 C16.4959385,51.479704 15.0744,51.581304 14.2620923,50.565304 C14.3636308,50.666904 14.3636308,50.666904 14.4651692,50.666904 C13.3482462,49.854104 14.1605538,50.768504 13.2467077,50.158904 C13.7544,50.463704 13.2467077,49.650904 13.1451692,49.955704 C12.8405538,49.447704 12.9420923,50.057304 12.4344,49.549304 L12.5359385,49.549304 C11.9819375,49.3926859 11.5093292,49.0289208 11.2159385,48.533304 C12.1297846,49.346104 11.2159385,48.025304 10.9113231,47.720504 C11.0128615,48.330104 9.99747692,47.110904 9.69286154,46.907704 C10.5051692,47.517304 9.69286154,46.399704 9.89593846,46.399704 C9.7944,46.094904 9.18516923,45.790104 9.08363077,45.383704 C8.88055385,45.688504 6.03747692,41.014904 6.54516923,41.522904 C6.41720138,41.1651202 6.24674991,40.8240106 6.03747692,40.506904 C6.44363077,40.608504 5.42824615,39.389304 6.13901538,39.998904 C5.93593846,39.694104 5.22516923,38.678104 5.8344,39.389304 C5.52978462,38.881304 5.12363077,37.865304 5.22516923,38.678104 C5.73286154,38.881304 5.12363077,39.186104 5.32670769,39.287704 C5.22516923,38.576504 3.90516923,35.934904 4.81901538,36.747704 C4.81901538,34.715704 3.90516923,33.598104 4.10824615,31.566104 C3.96840042,31.3185079 3.89822116,31.0376208 3.90516923,30.753304 C4.20978462,31.261304 3.90516923,29.737304 4.20978462,29.838904 C3.90516923,29.432504 4.10824615,28.721304 4.00670769,28.111704 L4.00670769,28.111704 L4.00670769,27.908504 L4.00670769,27.908504 C4.31132308,27.502104 3.60055385,25.876504 4.41286154,26.689304 C4.20978462,26.689304 4.31132308,25.876504 4.20978462,26.079704 C4.41286154,25.774904 4.61593846,24.149304 4.81901538,24.657304 C4.65246033,23.9992306 4.76254344,23.301615 5.12363077,22.726904 C5.32670769,22.218904 5.42824615,19.882104 5.42824615,20.593304 L5.42824615,20.491704 C5.22516923,20.796504 6.64670769,19.374104 6.24055385,18.561304 C7.25593846,16.834104 7.1544,16.935704 8.06824615,15.513304 C8.0388858,15.695568 7.96953148,15.8690589 7.86516923,16.021304 C8.57593846,15.005304 8.98209231,14.294104 9.7944,13.074904 C10.3020923,12.770104 12.1297846,10.636504 12.6374769,10.331704 C12.8405538,10.230104 12.9420923,9.620504 12.9420923,10.026904 C13.5250113,9.25480221 14.2484679,8.59984951 15.0744,8.096504 L14.9728615,8.198104 C15.4805538,7.893304 15.3790154,7.486904 15.8867077,7.283704 L15.7851692,7.385304 C16.5974769,6.978904 17.3082462,6.166104 18.2220923,6.166104 C17.0036308,7.283704 14.7697846,8.299704 13.8559385,9.315704 C13.6528615,9.620504 13.5513231,9.722104 13.5513231,9.518904 C12.9420923,10.331704 11.6220923,11.754104 11.2159385,12.262104 C9.67694909,14.0113186 8.37923954,15.9590626 7.35747692,18.053304 C7.56055385,18.561304 7.05286154,18.561304 6.95132308,18.967704 L7.1544,18.764504 C6.82116579,19.415132 6.54922195,20.0954036 6.34209231,20.796504 C6.24055385,20.898104 6.13901538,20.796504 6.13901538,21.101304 C6.34209231,21.202904 5.8344,22.117304 5.93593846,22.523704 C5.52978462,22.726904 5.73286154,24.352504 5.52978462,25.165304 C5.73286154,24.657304 5.8344,25.266904 5.52978462,25.266904 C5.63132308,25.470104 5.63132308,24.962104 5.73286154,25.368504 C5.73286154,25.571704 5.63132308,25.571704 5.52978462,25.470104 L5.63132308,25.774904 L5.52978462,25.673304 C5.22516923,27.705304 6.24055385,30.448504 6.44363077,31.870904 C7.96670769,36.442904 8.98209231,40.100504 11.4190154,44.164504 C11.4190154,43.859704 11.6220923,44.266104 11.6220923,44.469304 C13.1773628,46.2289082 14.8389385,47.891491 16.5974769,49.447704 C18.0190154,50.057304 19.2374769,50.971704 20.7605538,51.073304 L20.6590154,51.073304 C21.5484777,51.3328316 22.4825836,51.4020666 23.4005538,51.276504 C24.2671279,51.3491195 25.1383456,51.2096402 25.9390154,50.870104 C25.9390154,51.174904 26.9544,50.870104 27.2590154,50.666904 C27.1574769,50.768504 27.5636308,50.666904 27.4620923,50.768504 C27.8682462,50.666904 28.1728615,50.565304 28.0713231,50.463704 C30.0005538,50.158904 31.1174769,49.244504 32.6405538,48.126904 C30.5082462,50.158904 33.9605538,47.009304 33.7574769,47.517304 C34.5057323,46.9534049 35.1870823,46.3057301 35.7882462,45.586904 C35.4836308,45.688504 35.9913231,44.875704 35.9913231,44.774104 C35.9913231,45.180504 36.6005538,44.164504 36.6005538,44.774104 C36.7020923,44.672504 36.7020923,44.164504 36.7020923,44.570904 C37.0067077,44.062904 36.8036308,44.164504 37.1082462,43.656504 L37.1082462,43.859704 C37.2097846,43.656504 37.3113231,43.046904 37.6159385,42.945304 C38.0123314,42.0140159 38.5614276,41.1555331 39.2405538,40.405304 L39.0374769,40.506904 C39.1551905,40.1614296 39.2907577,39.8223061 39.4436308,39.490904 L39.3420923,39.795704 L39.6467077,39.084504 L39.4436308,39.490904 C39.5451692,39.084504 39.2405538,39.389304 39.4436308,38.982904 C39.7482462,38.982904 39.7482462,37.458904 40.1544,37.865304 C40.0528615,37.662104 40.4590154,36.950904 40.3574769,36.646104 C40.5605538,37.052504 40.2559385,36.138104 40.5605538,36.442904 C40.7636308,35.934904 40.2559385,36.544504 40.5605538,35.934904 L40.5605538,36.036504 C41.0763997,34.6623034 41.4175362,33.2286618 41.5759385,31.769304 C41.1697846,32.277304 41.7790154,31.261304 41.6774769,30.854904 C41.9820923,31.058104 41.8805538,29.534104 41.8805538,28.822904 C42.0836308,29.127704 42.2867077,27.400504 42.0836308,27.400504 C42.5913231,26.282904 41.9820923,25.165304 42.2867077,24.149304 C42.4897846,24.860504 42.2867077,23.438104 42.2867077,23.438104 C41.9820923,23.946104 41.9820923,23.539704 41.9820923,23.133304 C42.4897846,23.946104 41.6774769,20.694904 42.1851692,21.812504 C41.9820923,21.304504 41.9820923,20.390104 42.0836308,21.304504 C42.3882462,20.288504 41.8805538,19.780504 41.6774769,18.662904 C42.0836308,19.374104 41.8805538,18.256504 42.0836308,18.459704 C41.8605576,16.8871957 41.3438836,15.3707 40.5605538,13.989304 C40.5605538,13.887704 40.4590154,13.786104 40.4590154,13.684504 C40.2559385,13.887704 40.2559385,13.379704 40.1544,13.278104 L40.4590154,13.582904 C40.4590154,13.278104 39.6467077,12.262104 40.1544,12.566904 C40.0528615,12.262104 39.0374769,11.449304 39.7482462,12.058904 C39.6467077,11.855704 39.4436308,11.652504 39.3420923,11.449304 C39.6467077,12.058904 38.9359385,11.144504 39.2405538,11.754104 C38.7808926,11.0458793 38.2351855,10.3974592 37.6159385,9.823704 C37.6929349,9.81303978 37.7642913,9.77733996 37.8190154,9.722104 C37.8190154,9.823704 38.0220923,9.823704 38.1236308,9.823704 C37.8981987,9.3621822 37.5459802,8.974507 37.1082462,8.706104 C38.0220923,9.214104 36.8036308,8.198104 36.2959385,8.299704 C36.8036308,7.994904 35.6867077,8.096504 35.5851692,7.690104 C34.6713231,7.385304 34.3667077,6.877304 33.5544,6.775704 C33.8590154,6.674104 33.5544,6.572504 33.2497846,6.470904 C34.6713231,6.775704 37.4128615,7.588504 37.8190154,8.401304 C41.5759385,10.941304 43.5051692,15.005304 44.5205538,19.780504 C45.5359385,21.202904 45.1297846,25.571704 45.6374769,28.010104 L45.4344,27.705304 C45.518899,29.3336835 45.4509103,30.9664024 45.2313231,32.582104 C45.2313231,32.480504 45.1297846,32.480504 45.1297846,32.277304 C44.8251692,33.293304 44.9267077,33.902904 44.6220923,34.715704 L44.6220923,34.512504 C44.6220923,34.715704 44.4190154,35.528504 44.6220923,35.325304 C44.3340737,36.1840389 44.1300401,37.0687206 44.0128615,37.966904 C43.8097846,37.865304 43.5051692,38.881304 43.4036308,39.287704 C43.4036308,39.186104 43.2005538,39.592504 43.2005538,39.389304 C42.9974769,39.795704 42.8959385,40.100504 43.0990154,40.100504 C42.0836308,41.726104 41.3728615,43.656504 40.3574769,44.774104 C40.2559385,45.078904 39.0374769,46.704504 39.5451692,45.790104 C38.692129,46.7106714 37.91135,47.6957285 37.2097846,48.736504 C37.3113231,48.330104 36.3974769,49.244504 36.6005538,48.634904 C36.4990154,48.838104 36.2959385,49.244504 36.3974769,48.838104 C35.8897846,49.244504 36.1944,49.244504 35.6867077,49.549304 C35.7419102,49.4945467 35.7775884,49.4231471 35.7882462,49.346104 C35.5851692,49.447704 35.2805538,50.057304 34.8744,50.057304 C34.2443859,50.5372536 33.5633364,50.946131 32.8436308,51.276504 L32.8436308,51.276504 Z M58.5328615,105.734104 C57.7205538,104.616504 58.5328615,105.734104 57.3144,104.413304 C55.2836308,102.889304 50.1051692,99.333304 50.5113231,105.226104 L50.4097846,104.921304 C50.4427626,105.504466 50.3740447,106.088922 50.2067077,106.648504 C50.2067077,106.546904 50.2067077,106.445304 50.1051692,106.648504 C49.9978124,106.154487 49.8271716,105.676403 49.5974769,105.226104 C49.8005538,105.226104 49.4959385,104.210104 49.2928615,103.905304 C49.3944,104.006904 49.2928615,103.600504 49.3944,103.702104 C49.2928615,103.295704 49.0897846,102.990904 48.9882462,103.092504 C48.1759385,98.723704 47.2620923,98.418904 47.1605538,96.691704 C46.7544,95.675704 46.6528615,94.761304 46.2467077,93.846904 L46.2467077,93.846904 C46.1451692,93.542104 46.0436308,93.542104 46.2467077,93.846904 C46.0436308,94.151704 45.4344,92.322904 45.9420923,92.729304 C45.8405538,92.627704 45.6374769,92.221304 45.8405538,92.424504 C45.6374769,91.814904 45.5359385,92.018104 45.4344,91.510104 C45.9420923,92.018104 44.8251692,90.392504 45.2313231,90.697304 C44.5205538,89.579704 44.6220923,88.563704 44.3174769,87.446104 L44.3174769,87.649304 C44.1144,86.734904 43.0990154,85.109304 43.5051692,84.499704 C43.2005538,84.296504 43.0990154,83.280504 42.8959385,83.178904 C42.8959385,82.975704 43.0990154,82.467704 42.7944,82.670904 C42.7944,82.569304 42.5913231,82.162904 42.7944,82.467704 C42.0836308,80.334104 42.3882462,80.232504 41.4744,77.895704 L41.4744,78.098904 C41.3728615,77.692504 41.3728615,77.286104 41.2713231,76.879704 C41.4744,76.778104 40.8651692,75.558904 40.5605538,74.746104 L40.6620923,74.847704 C40.6649161,74.2663455 40.4875434,73.6984091 40.1544,73.222104 C40.1544,71.901304 39.2405538,70.885304 39.2405538,69.767704 C39.4436308,70.682104 39.0374769,68.243704 38.9359385,69.361304 C38.7792933,68.7040777 38.575693,68.0589526 38.3267077,67.430904 C38.5297846,67.329304 38.2251692,66.922904 38.2251692,66.821304 L38.2251692,66.922904 C38.2251692,66.414904 38.0220923,66.008504 38.0220923,65.500504 C37.8190154,66.008504 37.6159385,64.586104 37.4128615,64.382904 C37.9205538,64.586104 37.1082462,62.046104 37.2097846,62.757304 C37.3113231,62.046104 35.5851692,58.896504 35.8897846,59.099704 C35.8980268,58.7373467 35.7913922,58.3816828 35.5851692,58.083704 C35.9913231,58.185304 34.8744,57.067704 35.6867077,57.677304 C35.5041823,57.2609431 35.3008486,56.8540293 35.0774769,56.458104 L35.0774769,56.661304 C34.8872328,55.8689135 34.6498877,55.0885925 34.3667077,54.324504 C34.6713231,54.730904 35.2805538,53.918104 35.5851692,53.918104 L35.1790154,54.222904 C35.7882462,54.019704 36.1944,53.308504 36.6005538,53.410104 C36.2959385,53.105304 37.4128615,52.800504 37.0067077,53.105304 C37.3113231,52.800504 37.9205538,52.089304 38.1236308,52.394104 C38.3267077,51.987704 38.4282462,53.918104 39.1390154,54.629304 L39.0374769,54.527704 C38.9359385,55.137304 40.3574769,56.356504 39.3420923,55.950104 C39.4436308,55.848504 39.7482462,56.559704 39.8497846,56.458104 C39.7482462,56.864504 40.6620923,58.490104 40.1544,58.083704 C40.3574769,58.591704 40.4590154,58.286904 40.5605538,58.286904 C40.4590154,58.998104 41.1697846,59.506104 40.9667077,59.810904 C41.2764861,60.3674477 41.5478877,60.9445258 41.7790154,61.538104 C41.9820923,61.030104 42.2867077,61.741304 42.1851692,61.842904 C42.1851692,61.741304 42.0836308,61.741304 41.9820923,61.639704 C42.0836308,61.639704 42.1851692,62.046104 41.9820923,61.842904 C42.4897846,62.655704 42.4897846,62.757304 42.0836308,62.554104 L41.9820923,61.944504 C41.3728615,62.350904 43.8097846,65.398904 43.4036308,65.805304 C43.6067077,66.516504 43.8097846,66.110104 44.0128615,66.922904 C43.9113231,66.821304 43.8097846,66.719704 43.8097846,66.618104 C44.8214318,68.8338279 45.7029316,71.1067619 46.4497846,73.425304 C46.5513231,73.628504 46.8559385,73.831704 46.5513231,73.831704 C47.068425,74.6436589 47.4459559,75.5365455 47.6682462,76.473304 L47.5667077,76.371704 C47.7697846,76.981304 48.0744,76.879704 48.1759385,77.489304 L48.0744,77.387704 C49.1913231,80.435704 50.1051692,82.874104 51.1205538,85.515704 L51.1205538,85.210904 C51.4251692,86.531704 51.7297846,86.938104 51.9328615,87.954104 C52.1359385,87.954104 52.1359385,88.868504 52.5420923,89.376504 L52.4405538,89.274904 C52.7451692,90.087704 53.1513231,91.002104 53.4559385,92.018104 C53.3544,91.408504 53.8620923,91.916504 53.5574769,92.119704 C53.8620923,91.814904 53.8620923,92.729304 53.5574769,92.221304 C53.5574769,92.322904 53.9636308,92.830904 53.5574769,92.526104 C54.1667077,94.456504 55.8928615,97.402904 55.9944,98.825304 C56.2518269,99.5229107 56.5571711,100.201864 56.9082462,100.857304 L56.9082462,100.654104 C57.2541205,102.170461 57.6949912,103.663543 58.2282462,105.124504 C58.4313231,105.429304 58.6344,105.632504 58.5328615,105.734104 L58.5328615,105.734104 Z" id="Shape" fill="#007AC9"></path>
                            <path d="M45.1297846,70.072504 C44.9267077,69.666104 45.2313231,70.275704 45.2313231,70.377304 C45.2313231,70.275704 45.1297846,69.970904 45.1297846,70.072504 Z" id="Path" fill="#00A9E0"></path>
                            <path d="M46.2467077,93.846904 C46.2541115,93.9249182 46.2903148,93.9973689 46.3482462,94.050104 C46.3482462,93.948504 46.3482462,93.948504 46.2467077,93.846904 Z" id="Path" fill="#00A9E0"></path>
                            <path d="M44.8251692,69.361304 C44.8251692,69.259704 44.8251692,69.259704 44.7236308,69.158104 C44.7310345,69.2361182 44.7672379,69.3085689 44.8251692,69.361304 Z" id="Path" fill="#00A9E0"></path>
                            <path d="M51.9328615,87.547704 C51.9328615,87.547704 51.9328615,87.446104 51.7297846,87.242904 C51.7297846,87.344504 51.8313231,87.446104 51.9328615,87.547704 Z" id="Path" fill="#00A9E0"></path>
                            <path d="M55.1820923,106.953304 C54.9833959,106.759784 54.7388238,106.619944 54.4713231,106.546904 C54.7759385,106.750104 55.1820923,107.054904 55.6897846,107.359704 C55.4867077,107.156504 55.2836308,107.054904 55.1820923,106.953304 Z" id="Path" fill="#00A9E0"></path>
                            <path d="M11.8251692,4.845304 C11.9267077,4.743704 12.0282462,4.743704 12.2313231,4.540504 C12.0785198,4.61651065 11.9408763,4.71980577 11.8251692,4.845304 L11.8251692,4.845304 Z" id="Path" fill="#00A9E0"></path>
                            <path d="M55.1820923,85.718904 C55.1820923,85.617304 55.0805538,85.515704 55.0805538,85.414104 C55.0666751,85.5258325 55.1039928,85.6378535 55.1820923,85.718904 L55.1820923,85.718904 Z" id="Path" fill="#00A9E0"></path>
                            <path d="M40.2559385,44.774104 C40.3574769,44.672504 40.3574769,44.469304 40.4590154,44.367704 C40.3574769,44.570904 40.2559385,44.672504 40.2559385,44.774104 Z" id="Path" fill="#00A9E0"></path>
                            <path d="M37.3113231,48.126904 C37.402199,48.0428428 37.4718044,47.9383715 37.5144,47.822104 C37.4128615,47.923704 37.2097846,48.126904 37.3113231,48.126904 Z" id="Path" fill="#00A9E0"></path>
                            <path d="M40.7636308,43.758104 L40.4590154,44.367704 C40.6620923,44.164504 40.8651692,43.859704 40.7636308,43.758104 Z" id="Path" fill="#00A9E0"></path>
                            <path d="M4.61593846,35.223704 L4.71747692,35.630104 C4.71747692,35.426904 4.71747692,35.325304 4.61593846,35.223704 Z" id="Path" fill="#00A9E0"></path>
                            <path d="M11.8251692,49.142904 C11.9267077,49.142904 12.0282462,49.244504 12.1297846,49.244504 C12.1297846,49.244504 11.9267077,49.041304 11.8251692,49.142904 Z" id="Path" fill="#00A9E0"></path>
                            <path d="M4.00670769,27.908504 L4.00670769,28.010104 C4.10824615,28.010104 4.00670769,27.908504 4.00670769,27.908504 Z" id="Path" fill="#00A9E0"></path>
                            <path d="M12.6374769,37.865304 C12.6481347,37.9423471 12.6838129,38.0137467 12.7390154,38.068504 C12.6838129,38.0137467 12.6481347,37.9423471 12.6374769,37.865304 L12.6374769,37.865304 Z" id="Path" fill="#00A9E0"></path>
                            <path d="M16.2928615,44.062904 C16.3944,44.062904 16.3944,44.164504 16.4959385,44.164504 C16.4412144,44.109268 16.369858,44.0735682 16.2928615,44.062904 Z" id="Path" fill="#00A9E0"></path>
                            <path d="M16.1913231,44.062904 C16.2928615,44.164504 16.2928615,44.164504 16.3944,44.164504 L16.1913231,44.062904 Z" id="Path" fill="#00A9E0"></path>
                            <path d="M16.1913231,43.961304 C16.2474012,43.961304 16.2928615,44.0067919 16.2928615,44.062904 C16.2928615,44.0067919 16.2474012,43.961304 16.1913231,43.961304 L16.1913231,43.961304 Z" id="Path" fill="#00A9E0"></path>
                            <path d="M35.8897846,45.485304 C35.7989087,45.5693652 35.7293033,45.6738365 35.6867077,45.790104 C35.7882462,45.688504 35.9913231,45.485304 35.8897846,45.485304 Z" id="Path" fill="#00A9E0"></path>
                            <path d="M42.3882462,25.368504 C42.3882462,25.470104 42.2867077,25.673304 42.4897846,25.673304 C42.4950528,25.5625969 42.4588447,25.4539069 42.3882462,25.368504 L42.3882462,25.368504 Z" id="Path" fill="#00A9E0"></path>
                            <path d="M11.7236308,11.449304 L11.8251692,11.347704 L11.7236308,11.449304 Z" id="Path" fill="#00A9E0"></path>
                            <path d="M39.2405538,11.449304 C39.5451692,11.246104 38.4282462,11.144504 38.7328615,10.839704 C38.0220923,10.331704 38.8344,11.144504 39.0374769,11.449304 C38.9359385,11.347704 39.2405538,11.449304 39.2405538,11.449304 Z" id="Path" fill="#00A9E0"></path>
                            <path d="M38.8344,25.876504 C38.9360288,25.6860266 38.9360288,25.4573814 38.8344,25.266904 L38.8344,25.876504 Z" id="Path" fill="#00A9E0"></path>
                            <path d="M35.4836308,7.690104 C35.5615978,7.69751225 35.6340045,7.73373755 35.6867077,7.791704 C35.5851692,7.690104 35.5851692,7.690104 35.4836308,7.690104 Z" id="Path" fill="#00A9E0"></path>
                            <path d="M41.4,14.2 L41.4,14.2 C41.5,14.3 41.5,14.7 41.6,14.8 C41.5644145,14.5909477 41.496963,14.3885932 41.4,14.2 L41.4,14.2 Z" id="Path" fill="#00A9E0"></path>
                            <polygon id="Path" fill="#00A9E0" points="41.55 35.5 41.55 35.3 41.45 35.7"></polygon>
                        </g>
                    </g>
                </g>
            </g>
        </g>
    </g>
</svg>