<?xml version="1.0" encoding="UTF-8"?>
<svg width="20px" height="20px" viewBox="0 0 20 20" version="1.1" xmlns="http://www.w3.org/2000/svg" xmlns:xlink="http://www.w3.org/1999/xlink">
    <title>E8A6741A-EFCA-4C77-B9B5-31F5CCE8B651</title>
    <defs>
        <path d="M10.000016,2 C7.82733033,2 7.55489533,2.00920933 6.70161033,2.04814233 C5.85010367,2.08697967 5.268555,2.222229 4.759696,2.42000567 C4.23362533,2.62441933 3.78748467,2.89796567 3.34270933,3.34270933 C2.89796567,3.78748467 2.62441933,4.23362533 2.42000567,4.759696 C2.222229,5.268555 2.08697967,5.85010367 2.04814233,6.70161033 C2.00920933,7.55489533 2,7.82733033 2,10.000016 C2,12.1726697 2.00920933,12.4451047 2.04814233,13.2983897 C2.08697967,14.1498963 2.222229,14.731445 2.42000567,15.240304 C2.62441933,15.7663747 2.89796567,16.2125153 3.34270933,16.6572907 C3.78748467,17.1020343 4.23362533,17.3755807 4.759696,17.5800263 C5.268555,17.777771 5.85010367,17.9130203 6.70161033,17.9518577 C7.55489533,17.9907907 7.82733033,18 10.000016,18 C12.1726697,18 12.4451047,17.9907907 13.2983897,17.9518577 C14.1498963,17.9130203 14.731445,17.777771 15.240304,17.5800263 C15.7663747,17.3755807 16.2125153,17.1020343 16.6572907,16.6572907 C17.1020343,16.2125153 17.3755807,15.7663747 17.5800263,15.240304 C17.777771,14.731445 17.9130203,14.1498963 17.9518577,13.2983897 C17.9907907,12.4451047 18,12.1726697 18,10.000016 C18,7.82733033 17.9907907,7.55489533 17.9518577,6.70161033 C17.9130203,5.85010367 17.777771,5.268555 17.5800263,4.759696 C17.3755807,4.23362533 17.1020343,3.78748467 16.6572907,3.34270933 C16.2125153,2.89796567 15.7663747,2.62441933 15.240304,2.42000567 C14.731445,2.222229 14.1498963,2.08697967 13.2983897,2.04814233 C12.4451047,2.00920933 12.1726697,2 10.000016,2 Z M10.000016,3.441439 C12.1360867,3.441439 12.3891187,3.44960033 13.2326867,3.48808867 C14.0126787,3.52365533 14.4362727,3.653982 14.718171,3.76354033 C15.0915903,3.90866567 15.3580873,4.082022 15.6380167,4.36198333 C15.917978,4.64191267 16.0913343,4.90840967 16.2364597,5.281829 C16.346018,5.56372733 16.4763447,5.98732133 16.5119113,6.76731333 C16.5503997,7.61088133 16.558561,7.86391333 16.558561,10.000016 C16.558561,12.1360867 16.5503997,12.3891187 16.5119113,13.2326867 C16.4763447,14.0126787 16.346018,14.4362727 16.2364597,14.718171 C16.0913343,15.0915903 15.917978,15.3580873 15.6380167,15.6380167 C15.3580873,15.917978 15.0915903,16.0913343 14.718171,16.2364597 C14.4362727,16.346018 14.0126787,16.4763447 13.2326867,16.5119113 C12.3892457,16.5503997 12.1362453,16.558561 10.000016,16.558561 C7.86375467,16.558561 7.610786,16.5503997 6.76731333,16.5119113 C5.98732133,16.4763447 5.56372733,16.346018 5.281829,16.2364597 C4.90840967,16.0913343 4.64191267,15.917978 4.36198333,15.6380167 C4.08205367,15.3580873 3.90866567,15.0915903 3.76354033,14.718171 C3.653982,14.4362727 3.52365533,14.0126787 3.48808867,13.2326867 C3.44960033,12.3891187 3.441439,12.1360867 3.441439,10.000016 C3.441439,7.86391333 3.44960033,7.61088133 3.48808867,6.76731333 C3.52365533,5.98732133 3.653982,5.56372733 3.76354033,5.281829 C3.90866567,4.90840967 4.082022,4.64191267 4.36198333,4.36198333 C4.64191267,4.082022 4.90840967,3.90866567 5.281829,3.76354033 C5.56372733,3.653982 5.98732133,3.52365533 6.76731333,3.48808867 C7.61088133,3.44960033 7.86391333,3.441439 10.000016,3.441439 Z M10.000016,5.89189433 C7.73114133,5.89189433 5.89189433,7.73114133 5.89189433,10.000016 C5.89189433,12.2688587 7.73114133,14.1081057 10.000016,14.1081057 C12.2688587,14.1081057 14.1081057,12.2688587 14.1081057,10.000016 C14.1081057,7.73114133 12.2688587,5.89189433 10.000016,5.89189433 Z M10.000016,12.6666667 C8.52723367,12.6666667 7.33333333,11.4727663 7.33333333,10.000016 C7.33333333,8.52723367 8.52723367,7.33333333 10.000016,7.33333333 C11.4727663,7.33333333 12.6666667,8.52723367 12.6666667,10.000016 C12.6666667,11.4727663 11.4727663,12.6666667 10.000016,12.6666667 Z M15.230428,5.72958933 C15.230428,6.25978833 14.8006097,6.68957467 14.2704107,6.68957467 C13.7402433,6.68957467 13.3104253,6.25978833 13.3104253,5.72958933 C13.3104253,5.19939033 13.7402433,4.769572 14.2704107,4.769572 C14.8006097,4.769572 15.230428,5.19939033 15.230428,5.72958933 Z" id="path-1"></path>
    </defs>
    <g id="Nuovi-moduli" stroke="none" stroke-width="1" fill="none" fill-rule="evenodd">
        <g id="Group-15" transform="translate(-1248.000000, -10.000000)">
            <rect id="Rectangle" fill="#D3F4FF" x="0" y="0" width="1440" height="43"></rect>
            <g id="Icon/Social/Facebook-Copy-3" transform="translate(1248.000000, 10.000000)">
                <mask id="mask-2" fill="white">
                    <use xlink:href="#path-1"></use>
                </mask>
                <use id="Shape" fill="#FFFFFF" fill-rule="nonzero" xlink:href="#path-1"></use>
                <rect id="Rectangle" fill="#00A9E0" mask="url(#mask-2)" x="0" y="0" width="20" height="20"></rect>
            </g>
        </g>
    </g>
</svg>