<?xml version="1.0" encoding="UTF-8"?>
<svg width="40px" height="40px" viewBox="0 0 40 40" version="1.1" xmlns="http://www.w3.org/2000/svg" xmlns:xlink="http://www.w3.org/1999/xlink">
    <title>90785728-35BE-4055-807E-8323D80BBB98</title>
    <defs>
        <path d="M35.1999979,31.9999981 L27.4203184,31.9999981 L27.4203184,20.7507188 C27.4203184,17.8062357 26.2033848,15.7961191 23.5273738,15.7961191 C21.4805259,15.7961191 20.342238,17.1525894 19.8124164,18.4598821 C19.6137332,18.9291149 19.644778,19.5827612 19.644778,20.2364076 L19.644778,31.9999981 L11.9375345,31.9999981 C11.9375345,31.9999981 12.0368761,12.0729969 11.9375345,10.261637 L19.644778,10.261637 L19.644778,13.673304 C20.1000932,12.1815961 22.5629339,10.0526346 26.4931312,10.0526346 C31.3691421,10.0526346 35.1999979,13.1794832 35.1999979,19.912658 L35.1999979,31.9999981 L35.1999979,31.9999981 Z M4.14336775,7.54254915 L4.09369656,7.54254915 C1.6101599,7.54254915 0,5.88077085 0,3.77434858 C0,1.6269447 1.6577607,0 4.19096855,0 C6.7221068,0 8.27845631,1.6228471 8.3281275,3.76820138 C8.3281275,5.87462365 6.7221068,7.54254915 4.14336775,7.54254915 L4.14336775,7.54254915 L4.14336775,7.54254915 Z M0.887864747,10.261637 L7.74863554,10.261637 L7.74863554,31.9999981 L0.887864747,31.9999981 L0.887864747,10.261637 L0.887864747,10.261637 Z" id="path-1"></path>
    </defs>
    <g id="Nuovi-moduli" stroke="none" stroke-width="1" fill="none" fill-rule="evenodd">
        <g id="Desktop---Social" transform="translate(-542.000000, -219.000000)">
            <g id="Group-5-Copy-4" transform="translate(0.000000, 184.000000)">
                <rect id="Rectangle" stroke="#E4E4E4" fill="#FFFFFF" x="0" y="0" width="1440" height="110"></rect>
                <g id="Group-6" transform="translate(544.000000, 35.000000)">
                    <g id="Icon/Social/Facebook-Copy-6" transform="translate(0.000000, 4.000000)">
                        <mask id="mask-2" fill="white">
                            <use xlink:href="#path-1"></use>
                        </mask>
                        <use id="Shape" fill="#FFFFFF" fill-rule="nonzero" xlink:href="#path-1"></use>
                        <rect id="Rectangle" fill="#003478" mask="url(#mask-2)" x="-2" y="-4" width="40" height="40"></rect>
                    </g>
                </g>
            </g>
        </g>
    </g>
</svg>