<?xml version="1.0" encoding="utf-8"?>
<!-- Generator: Adobe Illustrator 24.0.1, SVG Export Plug-In . SVG Version: 6.00 Build 0)  -->
<svg version="1.1" id="Livello_1" xmlns="http://www.w3.org/2000/svg" xmlns:xlink="http://www.w3.org/1999/xlink" x="0px" y="0px"
	 viewBox="0 0 800 600" style="enable-background:new 0 0 800 600;" xml:space="preserve">
<style type="text/css">
	.st0{display:none;fill-rule:evenodd;clip-rule:evenodd;fill:#FFFFFF;}
	.st1{fill:#FFFFFF;}
	.st2{display:none;}
	.st3{display:inline;fill:#FFFFFF;}
</style>
<rect id="Rectangle_1_" x="388.2" y="287.6" class="st0" width="24" height="24"/>
<g id="Icon_x2F_menu_x2F_search" transform="translate(25.000000, 17.000000)">
	<g id="Combined-Shape">
		<g id="path-1_1_">
			<path class="st1" d="M470.6,375.2c-2.9,0-5.7-1.1-7.8-3.2L429,338.2l-0.3,0.3c-12.4,9-27.1,13.8-42.5,13.8
				c-40,0-72.5-32.5-72.5-72.5s32.5-72.5,72.5-72.5s72.5,32.5,72.5,72.5c0,15.4-4.8,30.1-13.8,42.5l-0.3,0.3l33.8,33.8
				c2.1,2.1,3.2,4.8,3.2,7.8c0,2.9-1.1,5.7-3.2,7.8C476.3,374.1,473.5,375.2,470.6,375.2z M386.1,229.3c-27.8,0-50.4,22.6-50.4,50.4
				s22.6,50.4,50.4,50.4s50.4-22.6,50.4-50.4C436.5,251.9,413.9,229.3,386.1,229.3z"/>
			<path d="M386.1,207.7c39.7,0,72,32.3,72,72c0,15.3-4.7,29.9-13.7,42.2l-0.5,0.7l0.6,0.6l33.5,33.5c4.1,4.1,4.1,10.8,0,14.9
				c-2,2-4.6,3.1-7.4,3.1s-5.5-1.1-7.4-3.1l-33.5-33.5l-0.6-0.6l-0.7,0.5c-12.3,8.9-26.9,13.7-42.2,13.7c-39.7,0-72-32.3-72-72
				c0-19.2,7.5-37.3,21.1-50.9C348.8,215.2,366.8,207.7,386.1,207.7 M386.1,330.6v-1V330.6c13.6,0,26.4-5.3,36-14.9
				s14.9-22.4,14.9-36c0-28.1-22.8-50.9-50.9-50.9s-50.9,22.8-50.9,50.9C335.1,307.8,358,330.6,386.1,330.6 M386.1,206.7
				c-40.3,0-73,32.7-73,73s32.7,73,73,73c16,0,30.8-5.1,42.8-13.9l33.5,33.5c2.3,2.2,5.2,3.4,8.1,3.4s5.9-1.1,8.1-3.4
				c4.5-4.5,4.5-11.8,0-16.3l-33.5-33.5c8.7-12,13.9-26.8,13.9-42.8C459,239.4,426.4,206.7,386.1,206.7L386.1,206.7z M386.1,329.6
				c-27.6,0-49.9-22.4-49.9-49.9c0-27.6,22.4-49.9,49.9-49.9c27.6,0,49.9,22.4,49.9,49.9C436,307.3,413.6,329.6,386.1,329.6
				L386.1,329.6z"/>
		</g>
	</g>
	<g id="Rectangle_2_" class="st2">
		<rect x="305.9" y="199.6" class="st3" width="183.3" height="183.3"/>
		<path d="M306.4,200.1h182.3v182.3H306.4V200.1 M305.4,199.1v184.3h184.3V199.1H305.4L305.4,199.1z"/>
	</g>
</g>
</svg>
