<?xml version="1.0" encoding="UTF-8"?>
<svg width="20px" height="20px" viewBox="0 0 20 20" version="1.1" xmlns="http://www.w3.org/2000/svg" xmlns:xlink="http://www.w3.org/1999/xlink">
    <title>2D46893F-7726-4EDB-9EAA-760C9FCA2135</title>
    <defs>
        <path d="M19,3.89411309 C18.3386159,4.21538467 17.6265186,4.43264706 16.8795561,4.52972185 C17.6423665,4.03048028 18.2276807,3.23885873 18.5034336,2.29584678 C17.7892236,2.75810755 17,3.09440233 16.156894,3.27468392 C15.4849446,2.48999637 14.524564,2 13.4617011,2 C11.4236661,2 9.770206,3.80859509 9.770206,6.03900296 C9.770206,6.35565174 9.80190175,6.66305492 9.86529325,6.9589017 C6.79609075,6.79017651 4.0755415,5.18382061 2.25303737,2.73730596 C1.93502388,3.33593352 1.7533015,4.03048028 1.7533015,4.77009743 C1.7533015,6.17074735 2.40517713,7.40729488 3.39619638,8.13188843 C2.79186475,8.11224244 2.22134163,7.92849365 1.7226625,7.62802406 L1.7226625,7.67771726 C1.7226625,9.63539154 2.995774,11.2683274 4.6862125,11.6381358 C4.37665075,11.7328994 4.05018475,11.780281 3.71315387,11.780281 C3.47543575,11.780281 3.24300063,11.7560126 3.01796088,11.7086306 C3.48811413,13.3126753 4.85103025,14.4810393 6.467512,14.5122421 C5.203909,15.5962432 3.61067088,16.2422528 1.88114088,16.2422528 C1.58320113,16.2422528 1.28843088,16.2237624 1,16.1867816 C2.63444275,17.3308767 4.57633375,18 6.66085563,18 C13.4543054,18 17.1679874,11.8461534 17.1679874,6.50819773 C17.1679874,6.33253854 17.1648179,6.15687935 17.1584785,5.98468736 C17.8800846,5.414951 18.5066031,4.70422504 19,3.89411309" id="path-1"></path>
    </defs>
    <g id="Nuovi-moduli" stroke="none" stroke-width="1" fill="none" fill-rule="evenodd">
        <g id="Group-15" transform="translate(-1216.000000, -10.000000)">
            <rect id="Rectangle" fill="#D3F4FF" x="0" y="0" width="1440" height="43"></rect>
            <g id="Icon/Social/Facebook-Copy" transform="translate(1216.000000, 10.000000)">
                <mask id="mask-2" fill="white">
                    <use xlink:href="#path-1"></use>
                </mask>
                <use id="Path" fill="#FFFFFF" fill-rule="nonzero" xlink:href="#path-1"></use>
                <rect id="Rectangle" fill="#00A9E0" mask="url(#mask-2)" x="0" y="0" width="20" height="20"></rect>
            </g>
        </g>
    </g>
</svg>